<svg width="59" height="92" viewBox="0 0 59 92" fill="none" xmlns="http://www.w3.org/2000/svg">
<path fill-rule="evenodd" clip-rule="evenodd" d="M43.5923 15.9944H57.8695V45.378H43.5923V15.9944ZM54.2973 42.2904C54.2827 42.0136 53.8452 41.7514 52.9994 41.5037C53.364 41.3872 53.7869 41.2706 54.239 41.1541C53.6994 41.0812 53.0869 41.1249 52.3869 41.2997C52.3577 41.1395 52.6348 40.9501 53.189 40.6879C52.5619 40.7607 51.9931 40.9647 51.4827 41.2706C51.6139 40.9647 51.6431 40.6588 51.5848 40.3237C51.4535 40.7462 51.0889 41.0521 50.4764 41.2269C50.3014 41.0375 50.2869 40.7607 50.4181 40.382C50.0973 40.5714 49.8639 40.8481 49.7181 41.2123C49.2952 40.8773 48.7993 40.717 48.2306 40.7462C48.566 40.8918 48.8139 41.0958 48.9452 41.358C48.0264 41.1541 47.2972 41.1541 46.7868 41.358C47.0931 41.3726 47.3702 41.4454 47.5889 41.562C47.2097 41.562 46.7139 41.6931 46.1306 41.9553C47.8514 41.7514 49.1931 41.9407 50.141 42.5235C51.1181 41.8533 52.5035 41.7805 54.2973 42.2904ZM52.9848 31.3644C53.466 31.5101 53.7577 31.9762 53.714 32.457C53.641 32.457 53.5827 32.457 53.5098 32.4278C53.2473 32.3987 52.9994 32.3259 52.7806 32.2093L52.6785 32.1947C52.5619 32.2239 52.4306 32.2093 52.2994 32.151C52.1681 32.1073 52.0223 32.0054 51.8619 31.8597L51.7889 31.8014L51.7014 31.8305C51.3806 31.9325 51.1327 31.8888 50.9577 31.714L50.8994 31.6557H50.8264C50.666 31.6703 50.5056 31.6412 50.3306 31.5683C50.1994 31.5246 50.0535 31.4372 49.9077 31.3207V31.3061C50.1848 30.9419 50.6514 30.7962 51.0889 30.9273C51.7452 30.5631 52.5619 30.7525 52.9848 31.3644ZM50.0681 32.6609C50.7098 33.1125 51.0306 33.4039 51.3077 34.0303C51.6431 33.5933 52.0223 33.3748 52.4744 33.3748C52.9556 33.4767 53.4369 33.2291 53.6265 32.792C53.5952 32.792 53.5681 32.7879 53.543 32.784C53.5212 32.7806 53.5009 32.7775 53.4806 32.7775C53.189 32.7483 52.9265 32.6755 52.6785 32.5444C52.5181 32.5589 52.3577 32.5444 52.1827 32.4715C52.0369 32.4133 51.8764 32.3113 51.716 32.1802C51.3369 32.2822 51.0306 32.2239 50.7827 32.0054C50.5931 32.0054 50.4035 31.9617 50.2139 31.8888C50.0535 31.8305 49.9077 31.7431 49.7473 31.6266C49.6306 31.9617 49.6743 32.3841 50.0681 32.6609ZM53.6994 26.4404C54.2973 26.6152 54.6619 27.1105 54.6473 27.6787C54.2973 27.7952 53.9619 27.8098 53.641 27.7515C53.2473 27.6787 52.8827 27.4893 52.5327 27.1688L52.4598 27.0959L52.3577 27.1397C52.0077 27.2999 51.6723 27.3436 51.366 27.2853C51.1181 27.2416 50.8848 27.1251 50.666 26.9357C50.8702 26.6443 51.2056 26.4404 51.5848 26.3821C51.8327 26.0471 52.241 25.8577 52.664 25.8722C53.0869 25.8868 53.4806 26.1053 53.6994 26.4404ZM50.5202 27.2562C50.3743 27.7224 50.4764 28.2614 50.8994 28.5382C51.0403 28.6308 51.1869 28.7178 51.3313 28.8034C51.7545 29.0545 52.1583 29.294 52.3431 29.6308C52.6494 29.2957 53.0285 29.0044 53.4077 28.9461C54.0056 28.8441 54.4577 28.5382 54.6181 28.0283C54.2681 28.1157 53.9327 28.1303 53.6119 28.072C53.189 27.9992 52.7952 27.7952 52.416 27.4747C52.0369 27.6204 51.6723 27.6641 51.3223 27.5913C51.0452 27.533 50.7827 27.4019 50.5348 27.2125C50.5348 27.2198 50.5311 27.2271 50.5275 27.2343C50.5238 27.2416 50.5202 27.2489 50.5202 27.2562ZM52.1535 21.8078C52.6785 21.6767 53.2035 21.9389 53.4369 22.4196C53.2765 22.4488 53.1015 22.4633 52.9556 22.4196H52.8681L52.8098 22.4925C52.6056 22.7401 52.2702 22.7984 51.8035 22.6818L51.6723 22.6527L51.6139 22.7838C51.541 22.9441 51.4389 23.046 51.3223 23.0897C51.191 23.1335 51.0306 23.1189 50.8264 23.0315L50.6952 22.9732L50.6223 23.0897C50.5494 23.2063 50.4327 23.3374 50.2868 23.4685L50.2868 23.4685C50.1848 23.5559 50.0827 23.6433 49.966 23.7307C49.947 23.6928 49.9404 23.6486 49.934 23.6063C49.9307 23.5837 49.9273 23.5617 49.9223 23.5414C49.8639 23.1043 50.1993 22.6381 50.5785 22.3905C50.6514 22.07 50.8848 21.7932 51.2056 21.6767C51.5264 21.5601 51.8764 21.6038 52.1535 21.8078ZM50.0973 24.0658C50.2431 24.3135 50.5056 24.4883 50.9285 24.4737C51.7014 24.43 52.1389 24.5174 52.4452 25.0273C52.416 24.5611 52.5327 24.1532 52.8244 23.9784C53.3931 23.6579 53.6119 23.2646 53.5244 22.7547C53.364 22.7984 53.1744 22.813 52.9848 22.7984C52.7223 23.0752 52.3285 23.1626 51.8327 23.0606C51.7306 23.25 51.5848 23.3665 51.4098 23.4248C51.2348 23.4831 51.0306 23.4685 50.8119 23.3957C50.7389 23.4977 50.6369 23.6142 50.5056 23.7307C50.3889 23.8473 50.2577 23.9493 50.0973 24.0658ZM52.0077 36.0698C52.3869 36.0844 52.8098 36.4923 52.7806 37.0459C52.4598 37.0168 52.1535 36.9731 51.8619 36.9148H51.8035C51.6285 36.9439 51.4827 36.9439 51.3514 36.9002C51.2348 36.8711 51.1327 36.7982 51.0598 36.7108L51.0014 36.638L50.9139 36.6526C50.5639 36.6963 50.2868 36.6526 50.0973 36.5069L50.0389 36.4632L49.966 36.4777C49.791 36.5214 49.5868 36.5214 49.3827 36.4777C49.2223 36.434 49.0618 36.3758 48.8868 36.2884C49.0473 35.7493 49.5577 35.56 50.4181 35.7202C50.9431 35.2832 51.7014 35.356 52.0077 36.0698ZM48.8285 36.6089C48.7118 37.2498 48.8723 37.6869 49.4118 37.9054C50.0389 38.2405 50.4035 38.561 50.666 39.2748C50.8119 38.8232 51.1619 38.5173 51.7306 38.3861C52.3431 38.2987 52.8681 37.8326 52.8098 37.381C52.4598 37.3518 52.1244 37.3081 51.8473 37.2353C51.6285 37.2644 51.4389 37.2498 51.2785 37.2061C51.1181 37.1624 50.9869 37.075 50.8848 36.9731C50.5202 37.0168 50.2139 36.9585 49.9806 36.7982C49.7764 36.8419 49.5577 36.8274 49.3243 36.7837C49.1639 36.7545 49.0035 36.6963 48.8285 36.6089ZM49.4848 17.7287C49.8202 17.2771 50.3452 17.2188 50.6369 17.8744C50.4181 18.1803 50.1848 18.3989 49.9514 18.5154C49.6598 18.6902 49.3535 18.7485 49.0181 18.7048L48.7848 18.6756L48.8139 18.9087C48.8577 19.1418 48.7556 19.3603 48.5368 19.5497C48.3327 19.7391 48.0264 19.8848 47.6181 19.9722C47.341 19.812 47.1952 19.4769 47.2827 19.1564C47.3847 18.7485 47.7931 18.5154 48.1868 18.6174C48.1722 18.2969 48.3327 17.991 48.5952 17.8161C48.8577 17.6413 49.1931 17.5976 49.4848 17.7287ZM47.8368 20.2927C47.8806 20.686 48.216 20.8754 48.8577 20.89C49.6306 20.7006 50.2285 20.7734 50.6369 21.0939C50.5348 20.6715 50.5494 20.249 50.6806 19.8411C51.2056 19.0398 51.2785 18.4571 50.9139 18.1221C50.666 18.4571 50.4181 18.6756 50.1556 18.8359C49.8493 19.0107 49.5431 19.0836 49.2077 19.0836C49.1931 19.3603 49.0473 19.608 48.7993 19.8265C48.566 20.0305 48.2452 20.1907 47.8368 20.2927Z" fill="white"/>
<path fill-rule="evenodd" clip-rule="evenodd" d="M42.4975 30.6217C42.0892 29.835 41.8996 29.4417 41.8996 29.4417C33.937 32.3698 25.4057 31.8745 16.3057 27.9557C16.3348 29.0483 16.3494 29.5874 16.3494 29.5874C17.6911 29.7913 18.3619 29.8933 18.3619 29.8933C19.9953 32.0785 20.8119 33.1711 20.8119 33.1711C23.6849 33.1128 25.537 33.2585 26.3682 33.6081C28.3953 34.322 30.612 34.2637 32.5808 33.4333C34.2287 32.8215 36.1246 32.6903 38.2975 33.0254C40.0913 31.4521 40.9954 30.68 40.9954 30.68C41.9871 30.6363 42.4975 30.6217 42.4975 30.6217ZM18.5078 36.4926C18.1286 36.7694 18.0411 37.0607 18.2453 37.3667C20.9432 36.5217 23.2182 36.6528 25.3474 37.3521C27.6953 38.1242 30.1453 38.2116 32.187 37.221C33.2662 36.7111 35.0308 36.58 37.3204 36.9442C38.9683 37.2064 40.4558 36.5217 41.6079 34.9193C40.0475 35.7059 38.6767 36.1138 37.7287 35.9827C35.1766 35.6331 33.3829 36.041 32.0266 36.478C29.4016 37.323 27.2724 37.1773 25.6682 36.6383C22.8974 35.7351 20.564 35.5311 18.5078 36.4926ZM18.5223 34.8901C20.1849 33.6373 22.6203 33.6664 25.8724 34.555C28.2787 35.2106 30.8454 34.9775 33.2225 34.3802C34.8266 33.681 36.5621 33.4187 38.4142 33.7392C39.5225 33.9286 40.6017 33.9869 41.6808 33.7829C41.1413 34.5988 40.31 34.7881 39.1433 34.5842C36.81 34.1908 35.0891 34.4531 33.9516 35.0212C31.6329 36.1721 29.3287 36.5509 27.1849 35.939C23.2036 34.8318 20.0536 34.8755 17.6473 36.3761C17.3119 36.1284 17.589 35.6039 18.5223 34.8901ZM36.0079 29.0629L35.4683 27.9703H36.2558L36.7954 29.0629H36.0079ZM36.1829 29.3834H36.9704L37.51 30.476H36.7225L36.1829 29.3834ZM29.3141 30.4906H28.5266L27.987 29.398H28.7745L29.3141 30.4906ZM30.4953 30.4906H29.7078L29.1683 29.398H29.9558L30.4953 30.4906ZM31.6766 30.4906H30.8891L30.3495 29.398H31.137L31.6766 30.4906ZM32.8724 30.4906H32.0849L31.5454 29.398H32.3329L32.8724 30.4906ZM33.9516 30.4906H33.1641L32.6245 29.398H33.412L33.9516 30.4906ZM35.1329 30.4906H34.3454L33.8058 29.398H34.5933L35.1329 30.4906ZM35.7746 29.3834L36.3141 30.476H35.5266L34.987 29.3834H35.7746ZM34.287 27.9557H35.0745L35.6141 29.0483H34.8266L34.287 27.9557ZM33.0912 27.9557H33.8787L34.4183 29.0483H33.6308L33.0912 27.9557ZM31.9099 27.9557H32.6974L33.237 29.0483H32.4495L31.9099 27.9557ZM30.8308 27.9557H31.6183L32.1579 29.0483H31.3704L30.8308 27.9557ZM29.6495 27.9557H30.437L30.9766 29.0483H30.1891L29.6495 27.9557ZM28.4537 27.9557H29.2412L29.7808 29.0483H28.9933L28.4537 27.9557ZM28.5995 29.0629H27.812L27.2724 27.9703H28.0599L28.5995 29.0629ZM30.1308 26.5281L30.6703 27.6207H31.4579L30.9183 26.5281H30.1308ZM28.9349 26.5281H29.7224L30.262 27.6207H29.4745L28.9349 26.5281ZM27.7537 26.5281L28.2932 27.6207H29.0808L28.5412 26.5281H27.7537ZM27.8849 27.6352H27.0974L26.5578 26.5426H27.3453L27.8849 27.6352ZM25.9307 26.9505C27.0537 29.2377 27.6224 30.3886 27.6224 30.3886C27.6224 30.3886 26.2516 30.1118 23.4953 29.5437C25.1286 27.8101 25.9307 26.9505 25.9307 26.9505Z" fill="white"/>
<path fill-rule="evenodd" clip-rule="evenodd" d="M0.320435 15.9944H14.5976V45.378H0.320435V15.9944ZM10.1775 38.1213C10.2212 38.9517 9.65247 39.6801 8.8358 39.8258C8.80663 38.9954 9.37539 38.2816 10.1775 38.1213ZM8.87955 40.6707C8.9233 40.5833 8.99622 40.5105 9.08372 40.4959C9.41914 41.0641 9.98789 41.6759 10.7754 42.3169C10.7754 42.3169 10.5712 42.4917 10.1483 42.8268C9.63789 42.3461 9.21497 41.6177 8.87955 40.6707ZM6.12328 40.088C6.61912 40.9038 7.63996 41.2098 8.50038 40.8164C8.00454 40.0298 6.99829 39.7093 6.12328 40.088ZM6.22537 38.6312C7.14412 38.4564 8.06288 38.9809 8.38371 39.8549C7.46496 40.0589 6.53162 39.5344 6.22537 38.6312ZM5.81703 37.087C6.05037 38.0048 6.93995 38.6021 7.87329 38.4855C7.62538 37.5678 6.75037 36.985 5.81703 37.087ZM5.42328 35.3243C5.56911 36.2566 6.40037 36.9413 7.34829 36.8976C7.17329 35.9798 6.35662 35.3097 5.42328 35.3243ZM5.77328 33.445C6.69204 33.6635 7.30454 34.523 7.23162 35.4554C6.31287 35.266 5.68578 34.3919 5.77328 33.445ZM5.94828 31.7988C5.8462 32.7458 6.47328 33.6053 7.40662 33.8092C7.46496 32.8769 6.85245 32.0174 5.94828 31.7988ZM6.03578 30.0507C6.95454 30.2692 7.56704 31.1287 7.49412 32.0611C6.57537 31.8571 5.94828 30.983 6.03578 30.0507ZM6.03578 28.2879C5.9337 29.2349 6.56079 30.0944 7.49412 30.2983C7.56704 29.366 6.95454 28.521 6.03578 28.2879ZM6.56079 20.4212C6.40037 21.3536 6.96912 22.2568 7.88788 22.519C8.01913 21.6012 7.46496 20.7126 6.56079 20.4212ZM6.5462 22.4607C7.39204 22.8832 7.80038 23.8447 7.53788 24.7334C6.67745 24.34 6.25453 23.3494 6.5462 22.4607ZM6.18162 24.3983C6.00662 25.3306 6.57537 26.2484 7.47954 26.5106C7.62538 25.5929 7.07121 24.7042 6.18162 24.3983ZM6.09412 26.2921C7.01287 26.5106 7.62538 27.3702 7.55246 28.3025C6.61912 28.0986 5.99203 27.239 6.09412 26.2921ZM9.55039 19.0518C9.65247 19.9988 9.02538 20.8583 8.10663 21.0768C8.03371 20.1299 8.64622 19.2849 9.55039 19.0518ZM10.09 20.5523C9.15664 20.5523 8.33996 21.2225 8.19413 22.1548C9.14205 22.184 9.95872 21.4993 10.09 20.5523ZM9.49205 22.4899C9.50664 23.4368 8.79205 24.238 7.85871 24.3546C7.87329 23.4222 8.55871 22.6356 9.49205 22.4899ZM9.3608 24.1215C8.44205 24.3109 7.78579 25.1413 7.82954 26.0736C8.76288 25.9134 9.41914 25.0684 9.3608 24.1215ZM9.44831 26.0299C9.50664 26.9768 8.85038 27.8218 7.91704 27.982C7.87329 27.0497 8.52955 26.2339 9.44831 26.0299ZM9.24414 28.2297C9.33164 29.1766 8.68997 30.0361 7.77121 30.2255C7.71288 29.2931 8.33996 28.4482 9.24414 28.2297ZM9.44831 30.1818C8.51497 30.2838 7.80038 31.0559 7.74204 31.9882C8.68997 31.9154 9.43372 31.1287 9.44831 30.1818ZM9.31705 31.7988C9.37539 32.7458 8.71913 33.5761 7.78579 33.7509C7.74204 32.804 8.3983 31.9882 9.31705 31.7988ZM9.2733 33.5033C8.35455 33.6927 7.69829 34.5085 7.74204 35.4554C8.6608 35.2806 9.31705 34.4502 9.2733 33.5033ZM9.47747 35.1058C9.5358 36.0527 8.87955 36.8831 7.94621 37.0579C7.90246 36.111 8.55871 35.2952 9.47747 35.1058ZM9.50664 36.9122C8.70455 37.0724 8.1358 37.8008 8.16496 38.6167C8.98163 38.471 9.55039 37.7426 9.50664 36.9122Z" fill="white"/>
<path fill-rule="evenodd" clip-rule="evenodd" d="M1.00635 0.058272H3.44178H6.82514C9.65432 0.058272 11.9731 2.37458 11.9731 5.20078V5.49214C11.9731 8.31833 9.65432 10.6346 6.82514 10.6346H3.44178V13.5774H1.00635V10.6346V0.058272ZM3.66053 7.9687H6.82514C8.1814 7.9687 9.30432 6.84696 9.30432 5.49214V5.20078C9.30432 3.84595 8.1814 2.72422 6.82514 2.72422H3.66053V7.9687ZM41.665 10.6346V0.058272H44.1004H47.4838C50.3129 0.058272 52.6317 2.37458 52.6317 5.20078V5.49214C52.6317 7.47338 51.4942 9.20698 49.8317 10.0665L51.188 13.5774H48.5629L47.4108 10.6346H44.1004V13.5774H41.665V10.6346V10.6346ZM44.3192 7.9687H47.4838C48.84 7.9687 49.9629 6.84696 49.9629 5.49214V5.20078C49.9629 3.84595 48.84 2.72422 47.4838 2.72422H44.3192V7.9687ZM55.0817 0.058272H57.5172V13.5774H55.0817V0.058272ZM19.9502 13.3734C22.9544 13.3734 25.3753 10.824 25.3753 7.66277V0H23.0128V7.66277C23.0128 9.44006 21.6419 10.8969 19.9356 10.8969C18.244 10.8969 16.8585 9.45463 16.8585 7.66277V0H14.5252V7.66277C14.5252 10.8095 16.9606 13.3734 19.9502 13.3734ZM35.0295 11.1737H32.142C31.3836 11.1737 30.8441 10.5764 30.7857 9.80427H28.2774C28.3357 11.9458 30.0566 13.49 32.1566 13.49H35.5837C37.7274 13.49 39.4629 11.6981 39.4629 9.49834C39.4629 7.29857 37.3191 5.84177 35.1899 5.65238L32.3753 5.40473C31.5732 5.33189 30.6836 4.64719 30.6836 3.81682C30.6836 2.98644 31.3399 2.31631 32.142 2.31631H35.5691C36.3712 2.31631 36.7649 3.16126 36.7649 3.99163H39.2733C39.2733 1.79186 37.5233 0 36.2253 0H31.1941C30.3336 0 28.2774 1.52964 28.2774 3.72941C28.2774 5.92918 30.1441 7.88129 33.9066 7.89586H34.7816C35.5837 7.89586 36.6774 8.60969 36.6774 9.48377C36.6628 10.9551 35.8316 11.1737 35.0295 11.1737Z" fill="white"/>
<path fill-rule="evenodd" clip-rule="evenodd" d="M0 15.5616H14.1459H44.1441H58.29V45.0473V45.8777V62.8785C58.29 78.8888 45.1795 92 29.1377 92C13.1105 92 0 78.9033 0 62.8785V45.8777V45.0473V15.5616ZM14.1459 16.392H0.831256V45.0473H14.1459V16.392ZM14.1459 45.8777H0.831256V62.8785C0.831256 78.4372 13.5772 91.1696 29.1523 91.1696C44.7274 91.1696 57.4733 78.4372 57.4733 62.8785V45.8777H44.1441V62.8785C44.1441 71.0949 37.3628 77.8544 29.1523 77.8544C20.9272 77.869 14.1459 71.0949 14.1459 62.8785V45.8777ZM44.1441 45.0473H57.4587V16.392H44.1295V45.0473H44.1441ZM14.9772 16.392V45.0473H43.3128V16.392H14.9772ZM14.9772 45.8777V62.8785C14.9772 70.6287 21.3793 77.0241 29.1377 77.0241C36.8961 77.0241 43.2982 70.6287 43.2982 62.8785V45.8777H14.9772Z" fill="white"/>
<path fill-rule="evenodd" clip-rule="evenodd" d="M44.1014 45.8713H14.147V62.8868C14.147 71.1177 20.8845 77.8481 29.1242 77.8481C37.3638 77.8481 44.1014 71.1177 44.1014 62.8868V45.8713ZM18.1135 55.9248H16.801V50.5637H19.1927C20.1406 50.5637 21.0156 51.0153 21.0156 52.2828C21.0156 53.6084 20.3011 54.1329 19.1927 54.1329H18.1135V55.9248ZM18.9885 51.6855H18.1135V53.0549H18.9885C19.3969 53.0549 19.6885 52.8655 19.6885 52.3847C19.6885 51.8894 19.3969 51.6855 18.9885 51.6855ZM24.6615 50.5637H25.974V53.7104C25.974 55.2692 25.3032 56.0413 23.7865 56.0413C22.2698 56.0413 21.599 55.2692 21.599 53.7104V50.5637H22.9115V53.7833C22.9115 54.4825 23.1448 54.8322 23.7865 54.8322C24.4282 54.8322 24.6615 54.468 24.6615 53.7833V50.5637ZM28.1615 55.9248H26.849V50.5637H29.2407C30.1886 50.5637 31.0636 51.0153 31.0636 52.2828C31.0636 53.6084 30.349 54.1329 29.2407 54.1329H28.1615V55.9248ZM29.0365 51.6855H28.1615V53.0549H29.0365C29.4449 53.0549 29.7365 52.8655 29.7365 52.3847C29.7365 51.8894 29.4449 51.6855 29.0365 51.6855ZM34.7241 50.5637H36.0366V53.7104C36.0366 55.2692 35.3657 56.0413 33.8491 56.0413C32.3324 56.0413 31.6616 55.2692 31.6616 53.7104V50.5637H32.9741V53.7833C32.9741 54.4825 33.2074 54.8322 33.8491 54.8322C34.4907 54.8322 34.7241 54.468 34.7241 53.7833V50.5637ZM38.2095 55.9248H36.897V50.5637H38.2095V52.6178L39.872 50.5637H41.5054L39.6387 52.6761L41.7387 55.9248H40.1054L38.7491 53.6813L38.2095 54.2786V55.9248ZM23.8741 57.8366H22.5615V61.0561C22.5615 61.7408 22.3282 62.105 21.6865 62.105C21.0449 62.105 20.8115 61.7554 20.8115 61.0561V57.8366H19.499V60.9833C19.499 62.542 20.1699 63.3141 21.6865 63.3141C23.2032 63.3141 23.8741 62.542 23.8741 60.9833V57.8366ZM24.7491 63.1976H26.0616V61.2455H27.0532C27.6657 61.2455 27.7533 61.7991 27.7824 62.3381C27.7849 62.3633 27.7875 62.3997 27.7905 62.4439C27.8051 62.655 27.8317 63.0409 27.9283 63.1976H29.2262C29.0512 63.0082 29.022 62.2215 29.022 61.9885C28.9783 61.4786 28.8178 60.8376 28.2928 60.7065V60.6919C28.8178 60.4734 29.0803 59.9198 29.0803 59.3517C29.0803 58.2736 28.2053 57.8366 27.3157 57.8366H24.7491V63.1976ZM26.0616 58.9583H27.1116C27.4762 58.9583 27.7678 59.1331 27.7678 59.541C27.7678 59.9489 27.5491 60.1675 27.1553 60.1675H26.0616V58.9583ZM29.8387 63.1976H33.922V62.003H31.1512V60.9833H33.6158V59.9052H31.1512V58.9729H33.8491V57.8366H29.8387V63.1976ZM36.6929 59.3225L37.2616 61.2018H36.1241L36.6929 59.3225ZM34.1554 63.1976H35.4971L35.8179 62.2361H37.5679L37.8742 63.1976H39.245L37.3637 57.8366H36.0366L34.1554 63.1976ZM30.5991 65.8929C30.5991 65.6453 30.3949 65.4413 30.147 65.4413C29.8991 65.4413 29.6949 65.6453 29.6949 65.8929C29.6949 66.1406 29.8991 66.3445 30.147 66.3445C30.3949 66.3445 30.5991 66.1406 30.5991 65.8929ZM30.847 67.5537C30.5991 67.5537 30.3949 67.7576 30.3949 68.0053C30.3949 68.2675 30.5991 68.4714 30.847 68.4569C31.0949 68.4569 31.2991 68.2529 31.2991 68.0053C31.2991 67.7576 31.0949 67.5537 30.847 67.5537ZM29.4324 67.5537C29.1845 67.5537 28.9803 67.7576 28.9803 68.0053C28.9803 68.2675 29.1845 68.4714 29.4324 68.4569C29.6803 68.4569 29.8845 68.2529 29.8845 68.0053C29.8845 67.7576 29.6803 67.5537 29.4324 67.5537ZM29.6949 67.2914C29.6949 67.0438 29.8991 66.8398 30.147 66.8398C30.3949 66.8398 30.5991 67.0438 30.5991 67.2914C30.5991 67.5391 30.3949 67.743 30.147 67.743C29.8991 67.743 29.6949 67.5391 29.6949 67.2914ZM29.6949 68.7191C29.6949 68.4714 29.8991 68.2675 30.147 68.2675C30.3949 68.2675 30.5991 68.4714 30.5991 68.7191C30.5991 68.9668 30.3949 69.1707 30.147 69.1707C29.8991 69.1707 29.6949 68.9668 29.6949 68.7191ZM31.8824 69.2873C31.8824 69.0396 31.6782 68.8356 31.4303 68.8356C31.1824 68.8356 30.9782 69.0396 30.9782 69.2873C30.9782 69.5349 31.1824 69.7389 31.4303 69.7389C31.6782 69.7389 31.8824 69.5349 31.8824 69.2873ZM29.3157 69.2873C29.3157 69.0396 29.1116 68.8356 28.8636 68.8356C28.6011 68.8356 28.4116 69.0396 28.4116 69.2873C28.4116 69.5349 28.6157 69.7389 28.8636 69.7389C29.1116 69.7389 29.3157 69.5349 29.3157 69.2873ZM29.3157 66.7233C29.3157 66.4756 29.1116 66.2717 28.8636 66.2717C28.6011 66.2717 28.397 66.4756 28.4116 66.7233C28.4116 66.9709 28.6157 67.1749 28.8636 67.1749C29.1116 67.1749 29.3157 66.9709 29.3157 66.7233ZM31.8824 66.7233C31.8824 66.4756 31.6782 66.2717 31.4303 66.2717C31.1824 66.2717 30.9782 66.4756 30.9782 66.7233C30.9782 66.9709 31.1824 67.1749 31.4303 67.1749C31.6782 67.1749 31.8824 66.9709 31.8824 66.7233ZM30.5991 70.1176C30.5991 69.87 30.3949 69.666 30.147 69.666C29.8991 69.666 29.6949 69.87 29.6949 70.1176C29.6949 70.3653 29.8991 70.5692 30.147 70.5692C30.3949 70.5692 30.5991 70.3653 30.5991 70.1176ZM28.4845 68.0053C28.4845 67.7576 28.2803 67.5537 28.0324 67.5537C27.7845 67.5537 27.5803 67.7576 27.5803 68.0053C27.5803 68.2529 27.7845 68.4569 28.0324 68.4569C28.2803 68.4569 28.4845 68.2529 28.4845 68.0053ZM32.7137 68.0053C32.7137 67.7576 32.5095 67.5537 32.2616 67.5537C32.0137 67.5537 31.8095 67.7576 31.8095 68.0053C31.8095 68.2529 32.0137 68.4569 32.2616 68.4569C32.5095 68.4569 32.7137 68.2529 32.7137 68.0053Z" fill="white"/>
<path fill-rule="evenodd" clip-rule="evenodd" d="M26.5831 87.2337L27.3269 87.3066L27.604 84.4221L25.3727 84.2036L25.2852 85.0777L26.4664 85.1942C26.3206 85.9226 25.8394 86.3014 25.081 86.214C24.031 86.112 23.7248 85.1796 23.8123 84.291C23.8998 83.3586 24.381 82.4991 25.4456 82.6011C25.9998 82.6594 26.4081 83.009 26.481 83.6063L27.604 83.7228C27.5894 82.4991 26.6269 81.727 25.5331 81.625C23.8852 81.4648 22.7914 82.6011 22.631 84.189C22.4852 85.7332 23.331 87.0589 24.9789 87.2192C25.4894 87.2629 26.0581 87.1172 26.5102 86.6364L26.5831 87.2337ZM16.6664 84.1307L18.8976 79.2505L19.9622 79.7312L20.5018 83.9268H20.5164L22.0039 80.6636L23.0102 81.1152L20.7789 85.9954L19.6997 85.5001L19.1601 81.3191H19.1456L17.6581 84.5823L16.6664 84.1307ZM11.4455 79.9206L12.3351 80.7218L13.4434 80.1245L14.931 81.4648L14.4351 82.6157L15.3393 83.4315L17.4539 78.1142L16.5643 77.2983L11.4455 79.9206ZM16.0976 78.6969L15.281 80.6199L14.2455 79.6875L16.0976 78.6969ZM8.23716 75.288L12.7434 72.4035L14.1143 74.5304C14.6685 75.3899 14.756 76.1475 13.9247 76.6865C13.4872 76.9633 13.0351 76.9487 12.583 76.6719C12.7726 77.3275 12.5393 77.8665 11.9705 78.2307C11.0518 78.8134 10.1622 78.289 9.63716 77.4732L8.23716 75.288ZM10.8768 74.9966L11.5768 76.0746C11.8538 76.4971 11.8538 76.905 11.3872 77.1964C10.9205 77.5023 10.5705 77.2401 10.3226 76.8467L9.63716 75.7833L10.8768 74.9966ZM12.6122 73.8894L11.5622 74.5596L12.2038 75.5648C12.4226 75.9144 12.758 76.0746 13.1372 75.827C13.5601 75.5502 13.4434 75.1714 13.2101 74.8072L12.6122 73.8894ZM5.69964 68.0477L5.99131 69.1111L9.608 68.1059V68.1205L6.34131 70.3931L6.58923 71.2672L10.5997 71.5148V71.5294L6.93923 72.5492L7.2309 73.6126L12.3934 72.1704L11.9413 70.5679L8.07674 70.4222V70.4077L11.2851 68.2079L10.833 66.6054L5.69964 68.0477ZM5.21838 62.2205L5.26213 66.2849L6.25381 66.2704L6.22464 63.3859L7.53715 63.3713L7.56632 65.9644L8.48507 65.9499L8.44132 63.3713L9.59342 63.3568L9.62258 66.183L10.6143 66.1684L10.5705 62.1622L5.21838 62.2205ZM5.24755 57.6315V61.4192H6.23922V58.8115H10.6143V57.6315H5.24755ZM9.28716 54.5431V54.5577L7.3184 55.2278V53.8439L9.28716 54.5431ZM5.24755 51.9209V53.1155L6.44339 53.5379V55.5337L5.24755 55.9416V57.1654L10.6143 55.1695V53.9604L5.24755 51.9209ZM9.6955 48.7305V49.6483C9.6955 50.2019 9.57883 50.6826 8.89341 50.6826C8.20799 50.6826 8.09132 50.2019 8.09132 49.6483V48.7305H9.6955ZM5.24755 47.5505V48.7305H7.17256V49.9688C7.17256 51.309 8.0184 51.8189 8.89341 51.8189C9.76842 51.8189 10.6143 51.2945 10.6143 49.9688V47.5505H5.24755Z" fill="white"/>
<path fill-rule="evenodd" clip-rule="evenodd" d="M53.4343 52.6926V51.2649L52.4718 50.9298V49.0651L53.4343 48.7301V47.2733L48.0676 49.2691V50.6822L53.4343 52.6926ZM49.5551 49.9829V49.9683L51.4364 49.371V50.5802L49.5551 49.9829Z" fill="white"/>
<path d="M53.4343 53.1585H48.0676V54.557H53.4343V53.1585Z" fill="white"/>
<path fill-rule="evenodd" clip-rule="evenodd" d="M51.5362 59.7412C52.907 59.7266 53.4466 58.6486 53.4466 57.4103C53.4466 56.2303 53.0091 55.0794 51.6529 55.0794C50.6903 55.0794 50.3258 55.8661 50.107 56.6382C49.8883 57.4249 49.8153 58.197 49.407 58.197C49.057 58.197 48.9549 57.8182 48.9549 57.5268C48.9549 57.1044 49.1153 56.6382 49.5966 56.6673V55.2688C48.3862 55.2834 47.8757 56.3468 47.8757 57.4103C47.8757 58.4155 48.3278 59.5955 49.5091 59.5955C50.4862 59.5955 50.8362 58.7942 51.0549 58.0221C51.2737 57.25 51.3612 56.4779 51.8424 56.4779C52.2362 56.4779 52.3966 56.915 52.3966 57.3374C52.3966 57.9347 52.1924 58.3135 51.5653 58.3572V59.7412H51.5362Z" fill="white"/>
<path fill-rule="evenodd" clip-rule="evenodd" d="M53.3348 64.551L53.3494 60.2097H52.1389V63.167L51.1181 63.1525V60.5302H50.0389V63.1525H49.1056V60.2826H47.9827V64.551H53.3348Z" fill="white"/>
<path fill-rule="evenodd" clip-rule="evenodd" d="M52.4713 70.6126L52.69 69.316L49.3942 68.7624V68.7479L53.0109 67.4805L53.2588 66.0674L47.965 65.1496L47.7462 66.4461L50.9984 66.9997V67.0289L47.4254 68.2963L47.1775 69.7094L52.4713 70.6126Z" fill="white"/>
<path fill-rule="evenodd" clip-rule="evenodd" d="M46.8563 75.7832C48.198 76.5553 49.7584 76.3513 50.5897 74.8945C51.4355 73.4377 50.8376 71.9955 49.4959 71.2088C48.1542 70.4367 46.5938 70.6407 45.7625 72.0975C44.9167 73.5543 45.5146 74.9965 46.8563 75.7832ZM47.5563 74.574C46.8709 74.1807 46.3459 73.4814 46.798 72.6948C47.2501 71.9081 48.1105 72.0101 48.7959 72.4034C49.4813 72.7968 50.0063 73.496 49.5542 74.2827C49.1167 75.0693 48.2417 74.9674 47.5563 74.574Z" fill="white"/>
<path fill-rule="evenodd" clip-rule="evenodd" d="M45.0491 82.0352L46.6387 80.3744C47.7616 79.1944 47.7616 77.825 46.4929 76.6159C45.297 75.465 43.897 75.4941 42.7595 76.6887L41.1699 78.3495L45.0491 82.0352ZM43.0074 78.1601L43.4595 77.6793C44.1158 76.9946 44.8158 76.9364 45.5304 77.6065C46.3033 78.3495 46.3179 78.9322 45.6033 79.7189L45.1512 80.1996L43.0074 78.1601Z" fill="white"/>
<path fill-rule="evenodd" clip-rule="evenodd" d="M39.3761 85.6322L40.5282 85.0204L38.9386 82.0776L38.9532 82.0631L42.1907 84.1171L43.4449 83.4324L40.8928 78.727L39.7407 79.3534L41.3157 82.2524L41.3011 82.267L38.0927 80.2421L36.824 80.9268L39.3761 85.6322Z" fill="white"/>
<path d="M36.4089 81.0718L35.0413 81.3708L36.1887 86.608L37.5563 86.309L36.4089 81.0718Z" fill="white"/>
<path fill-rule="evenodd" clip-rule="evenodd" d="M31.571 87.2315C31.2356 87.2315 30.9439 86.9838 30.7252 86.7799C30.5064 86.5614 30.3752 86.27 30.3752 85.9349V83.8808C30.1127 83.6769 29.4564 83.6186 29.5002 83.6769C29.5439 83.3273 29.9523 83.1816 30.4044 83.3127C30.4335 83.2253 30.4627 83.1379 30.5064 83.0505C30.2148 82.6571 29.7773 82.4386 29.4856 82.424C30.0835 82.2492 30.4919 82.2492 30.7981 82.3658C31.046 81.6957 31.221 81.6956 31.571 81.2149C31.921 81.6956 32.096 81.6957 32.3439 82.3658C32.6502 82.2492 33.0585 82.2492 33.6565 82.424C33.3648 82.4386 32.9273 82.6717 32.6356 83.0505C32.6794 83.1379 32.7085 83.2253 32.7377 83.3127C33.1898 83.1816 33.5981 83.3273 33.6419 83.6769C33.6856 83.6332 33.0294 83.6915 32.7669 83.8808V85.9349C32.7669 86.2554 32.6356 86.5614 32.4169 86.7799C32.1981 86.9838 31.9064 87.2315 31.571 87.2315ZM31.571 82.6717C31.0752 82.8611 30.9002 83.1087 30.9002 83.5895V85.9349C30.9002 86.1972 31.0898 86.3428 31.571 86.3428C32.0523 86.3428 32.2419 86.1826 32.2419 85.9349V83.5895C32.2419 83.1087 32.0669 82.8611 31.571 82.6717Z" fill="white"/>
</svg>
