<svg width="391" height="92" viewBox="0 0 391 92" fill="none" xmlns="http://www.w3.org/2000/svg">
<path fill-rule="evenodd" clip-rule="evenodd" d="M43.5747 15.9944H57.8462V45.3781H43.5747V15.9944ZM54.2755 42.2904C54.2609 42.0136 53.8236 41.7514 52.9781 41.5037C53.3425 41.3872 53.7653 41.2706 54.2172 41.1541C53.6778 41.0813 53.0656 41.125 52.3658 41.2998C52.3367 41.1395 52.6137 40.9502 53.1676 40.6879C52.5408 40.7608 51.9722 40.9647 51.462 41.2706C51.5932 40.9647 51.6224 40.6588 51.5641 40.3237C51.4329 40.7462 51.0684 41.0521 50.4562 41.2269C50.2812 41.0376 50.2667 40.7608 50.3979 40.382C50.0772 40.5714 49.8439 40.8482 49.6981 41.2124C49.2754 40.8773 48.7797 40.7171 48.2112 40.7462C48.5465 40.8919 48.7943 41.0958 48.9255 41.3581C48.0071 41.1541 47.2782 41.1541 46.768 41.3581C47.0742 41.3726 47.3511 41.4455 47.5698 41.562C47.1908 41.562 46.6951 41.6931 46.112 41.9553C47.8322 41.7514 49.1733 41.9408 50.1209 42.5235C51.0976 41.8534 52.4825 41.7805 54.2755 42.2904ZM52.9635 31.3644C53.4446 31.5101 53.7361 31.9763 53.6924 32.457C53.6195 32.457 53.5612 32.457 53.4883 32.4279C53.2259 32.3987 52.9781 32.3259 52.7594 32.2094L52.6574 32.1948C52.5408 32.2239 52.4096 32.2094 52.2784 32.1511C52.1472 32.1074 52.0014 32.0054 51.841 31.8597L51.7682 31.8014L51.6807 31.8306C51.36 31.9326 51.1122 31.8889 50.9372 31.714L50.8789 31.6558H50.806C50.6457 31.6703 50.4853 31.6412 50.3104 31.5684C50.1792 31.5247 50.0334 31.4372 49.8876 31.3207V31.3061C50.1646 30.9419 50.6311 30.7963 51.0684 30.9274C51.7244 30.5632 52.5408 30.7526 52.9635 31.3644ZM50.048 32.661C50.6894 33.1126 51.0101 33.4039 51.2871 34.0304C51.6224 33.5933 52.0014 33.3748 52.4533 33.3748C52.9344 33.4768 53.4154 33.2291 53.6049 32.7921C53.5737 32.7921 53.5466 32.7879 53.5215 32.784C53.4998 32.7806 53.4795 32.7775 53.4592 32.7775C53.1676 32.7484 52.9052 32.6755 52.6574 32.5444C52.497 32.559 52.3367 32.5444 52.1618 32.4716C52.016 32.4133 51.8556 32.3113 51.6953 32.1802C51.3163 32.2822 51.0101 32.2239 50.7623 32.0054C50.5728 32.0054 50.3833 31.9617 50.1938 31.8889C50.0334 31.8306 49.8876 31.7432 49.7273 31.6266C49.6107 31.9617 49.6544 32.3842 50.048 32.661ZM53.6778 26.4404C54.2755 26.6152 54.6399 27.1106 54.6254 27.6787C54.2755 27.7952 53.9402 27.8098 53.6195 27.7515C53.2259 27.6787 52.8615 27.4893 52.5116 27.1688L52.4387 27.096L52.3367 27.1397C51.9868 27.2999 51.6515 27.3436 51.3454 27.2854C51.0976 27.2417 50.8643 27.1251 50.6457 26.9357C50.8498 26.6444 51.1851 26.4404 51.5641 26.3822C51.8119 26.0471 52.2201 25.8577 52.6428 25.8723C53.0656 25.8868 53.4592 26.1054 53.6778 26.4404ZM50.4999 27.2562C50.3541 27.7224 50.4562 28.2614 50.8789 28.5382C51.0198 28.6309 51.1664 28.7178 51.3107 28.8035C51.7337 29.0545 52.1373 29.2941 52.3221 29.6308C52.6282 29.2958 53.0073 29.0044 53.3863 28.9461C53.984 28.8441 54.4359 28.5382 54.5962 28.0283C54.2464 28.1157 53.9111 28.1303 53.5904 28.072C53.1676 27.9992 52.774 27.7952 52.395 27.4748C52.016 27.6204 51.6515 27.6641 51.3017 27.5913C51.0247 27.533 50.7623 27.4019 50.5145 27.2125C50.5145 27.2198 50.5108 27.2271 50.5072 27.2344C50.5035 27.2417 50.4999 27.249 50.4999 27.2562ZM52.1326 21.8078C52.6574 21.6767 53.1822 21.9389 53.4154 22.4197C53.2551 22.4488 53.0801 22.4634 52.9344 22.4197H52.8469L52.7886 22.4925C52.5845 22.7402 52.2492 22.7984 51.7827 22.6819L51.6515 22.6527L51.5932 22.7839C51.5203 22.9441 51.4183 23.0461 51.3017 23.0898C51.1705 23.1335 51.0101 23.1189 50.806 23.0315L50.6748 22.9732L50.6019 23.0898C50.5291 23.2063 50.4124 23.3374 50.2667 23.4686L50.2667 23.4686C50.1646 23.556 50.0626 23.6434 49.946 23.7308C49.927 23.6928 49.9203 23.6487 49.914 23.6064C49.9106 23.5838 49.9073 23.5617 49.9022 23.5414C49.8439 23.1044 50.1792 22.6382 50.5582 22.3905C50.6311 22.07 50.8643 21.7932 51.1851 21.6767C51.5058 21.5601 51.8556 21.6038 52.1326 21.8078ZM50.0772 24.0658C50.2229 24.3135 50.4853 24.4883 50.9081 24.4737C51.6807 24.43 52.118 24.5175 52.4242 25.0273C52.395 24.5612 52.5116 24.1533 52.8032 23.9784C53.3717 23.6579 53.5904 23.2646 53.5029 22.7547C53.3425 22.7984 53.153 22.813 52.9635 22.7984C52.7011 23.0752 52.3075 23.1626 51.8119 23.0607C51.7098 23.25 51.5641 23.3666 51.3891 23.4249C51.2142 23.4831 51.0101 23.4686 50.7915 23.3957C50.7186 23.4977 50.6165 23.6142 50.4853 23.7308C50.3687 23.8473 50.2375 23.9493 50.0772 24.0658ZM51.9868 36.0699C52.3658 36.0844 52.7886 36.4923 52.7594 37.0459C52.4387 37.0168 52.1326 36.9731 51.841 36.9148H51.7827C51.6078 36.944 51.462 36.944 51.3308 36.9002C51.2142 36.8711 51.1122 36.7983 51.0393 36.7109L50.981 36.638L50.8935 36.6526C50.5436 36.6963 50.2667 36.6526 50.0772 36.5069L50.0188 36.4632L49.946 36.4778C49.771 36.5215 49.5669 36.5215 49.3628 36.4778C49.2025 36.4341 49.0421 36.3758 48.8672 36.2884C49.0276 35.7494 49.5378 35.56 50.3979 35.7202C50.9227 35.2832 51.6807 35.356 51.9868 36.0699ZM48.8089 36.6089C48.6923 37.2499 48.8526 37.6869 49.392 37.9054C50.0188 38.2405 50.3833 38.561 50.6457 39.2748C50.7915 38.8232 51.1413 38.5173 51.7098 38.3862C52.3221 38.2988 52.8469 37.8326 52.7886 37.381C52.4387 37.3519 52.1034 37.3082 51.8265 37.2353C51.6078 37.2645 51.4183 37.2499 51.2579 37.2062C51.0976 37.1625 50.9664 37.0751 50.8643 36.9731C50.4999 37.0168 50.1938 36.9585 49.9605 36.7983C49.7564 36.842 49.5378 36.8274 49.3045 36.7837C49.1442 36.7546 48.9838 36.6963 48.8089 36.6089ZM49.4649 17.7288C49.8002 17.2772 50.325 17.2189 50.6165 17.8744C50.3979 18.1804 50.1646 18.3989 49.9314 18.5154C49.6398 18.6902 49.3337 18.7485 48.9984 18.7048L48.7652 18.6757L48.7943 18.9088C48.8381 19.1419 48.736 19.3604 48.5173 19.5498C48.3133 19.7391 48.0071 19.8848 47.599 19.9722C47.322 19.812 47.1762 19.4769 47.2637 19.1564C47.3657 18.7485 47.7739 18.5154 48.1675 18.6174C48.1529 18.2969 48.3133 17.991 48.5757 17.8162C48.8381 17.6414 49.1733 17.5976 49.4649 17.7288ZM47.8176 20.2927C47.8614 20.6861 48.1966 20.8754 48.8381 20.89C49.6107 20.7006 50.2084 20.7735 50.6165 21.094C50.5145 20.6715 50.5291 20.249 50.6603 19.8411C51.1851 19.0399 51.2579 18.4572 50.8935 18.1221C50.6457 18.4572 50.3979 18.6757 50.1355 18.8359C49.8293 19.0107 49.5232 19.0836 49.1879 19.0836C49.1733 19.3604 49.0276 19.608 48.7797 19.8266C48.5465 20.0305 48.2258 20.1908 47.8176 20.2927Z" fill="white"/>
<path fill-rule="evenodd" clip-rule="evenodd" d="M42.4807 30.6217C42.0725 29.835 41.883 29.4417 41.883 29.4417C33.9236 32.3698 25.3957 31.8745 16.2993 27.9557C16.3285 29.0483 16.343 29.5874 16.343 29.5874C17.6842 29.7913 18.3548 29.8933 18.3548 29.8933C19.9874 32.0785 20.8038 33.1711 20.8038 33.1711C23.6756 33.1128 25.5269 33.2585 26.3579 33.6081C28.3841 34.322 30.5999 34.2637 32.5679 33.4333C34.2152 32.8215 36.1103 32.6903 38.2823 33.0254C40.0754 31.4521 40.9792 30.68 40.9792 30.68C41.9705 30.6363 42.4807 30.6217 42.4807 30.6217ZM18.5005 36.4926C18.1215 36.7694 18.0341 37.0607 18.2381 37.3667C20.935 36.5217 23.2091 36.6528 25.3374 37.3521C27.6844 38.1242 30.1335 38.2116 32.1743 37.221C33.2531 36.7111 35.017 36.58 37.3056 36.9442C38.9529 37.2064 40.4398 36.5217 41.5915 34.9192C40.0316 35.7059 38.6614 36.1138 37.7138 35.9827C35.1627 35.6331 33.3697 36.041 32.014 36.478C29.39 37.323 27.2617 37.1773 25.6581 36.6383C22.8884 35.7351 20.556 35.5311 18.5005 36.4926ZM18.5151 34.8901C20.177 33.6373 22.6114 33.6664 25.8622 34.555C28.2675 35.2106 30.8332 34.9775 33.2093 34.3802C34.8129 33.681 36.5476 33.4187 38.399 33.7392C39.5069 33.9286 40.5856 33.9869 41.6643 33.7829C41.125 34.5988 40.294 34.7881 39.1278 34.5842C36.7954 34.1908 35.0753 34.4531 33.9382 35.0212C31.6204 36.1721 29.3171 36.5509 27.1742 35.939C23.1945 34.8318 20.0458 34.8755 17.6405 36.376C17.3052 36.1284 17.5821 35.6039 18.5151 34.8901ZM35.9937 29.0629L35.4543 27.9703H36.2415L36.7808 29.0629H35.9937ZM36.1686 29.3834H36.9558L37.4951 30.476H36.708L36.1686 29.3834ZM29.3025 30.4906H28.5153L27.976 29.398H28.7632L29.3025 30.4906ZM30.4833 30.4906H29.6961L29.1568 29.398H29.9439L30.4833 30.4906ZM31.6641 30.4906H30.8769L30.3375 29.398H31.1247L31.6641 30.4906ZM32.8595 30.4906H32.0723L31.5329 29.398H32.3201L32.8595 30.4906ZM33.9382 30.4906H33.151L32.6117 29.398H33.3988L33.9382 30.4906ZM35.119 30.4906H34.3318L33.7924 29.398H34.5796L35.119 30.4906ZM35.7604 29.3834L36.2998 30.476H35.5126L34.9732 29.3834H35.7604ZM34.2735 27.9557H35.0607L35.6001 29.0483H34.8129L34.2735 27.9557ZM33.0781 27.9557H33.8653L34.4047 29.0483H33.6175L33.0781 27.9557ZM31.8973 27.9557H32.6845L33.2239 29.0483H32.4367L31.8973 27.9557ZM30.8186 27.9557H31.6058L32.1452 29.0483H31.358L30.8186 27.9557ZM29.6378 27.9557H30.425L30.9644 29.0483H30.1772L29.6378 27.9557ZM28.4425 27.9557H29.2296L29.769 29.0483H28.9818L28.4425 27.9557ZM28.5882 29.0629H27.801L27.2617 27.9703H28.0489L28.5882 29.0629ZM30.1189 26.5281L30.6583 27.6207H31.4454L30.9061 26.5281H30.1189ZM28.9235 26.5281H29.7107L30.2501 27.6207H29.4629L28.9235 26.5281ZM27.7427 26.5281L28.2821 27.6207H29.0693L28.5299 26.5281H27.7427ZM27.8739 27.6352H27.0867L26.5474 26.5426H27.3346L27.8739 27.6352ZM25.9205 26.9505C27.043 29.2377 27.6115 30.3886 27.6115 30.3886C27.6115 30.3886 26.2412 30.1118 23.4861 29.5437C25.1188 27.8101 25.9205 26.9505 25.9205 26.9505Z" fill="white"/>
<path fill-rule="evenodd" clip-rule="evenodd" d="M0.320312 15.9944H14.5918V45.3781H0.320312V15.9944ZM10.1734 38.1214C10.2172 38.9518 9.64864 39.6802 8.8323 39.8258C8.80314 38.9955 9.37167 38.2816 10.1734 38.1214ZM8.87603 40.6708C8.91976 40.5834 8.99265 40.5105 9.08012 40.496C9.4154 41.0641 9.98393 41.676 10.7711 42.317C10.7711 42.317 10.567 42.4918 10.1443 42.8268C9.63406 42.3461 9.21131 41.6177 8.87603 40.6708ZM6.12086 40.0881C6.6165 40.9039 7.63693 41.2098 8.49701 40.8165C8.00137 40.0298 6.99552 39.7093 6.12086 40.0881ZM6.22291 38.6313C7.1413 38.4564 8.05968 38.9809 8.38039 39.855C7.462 40.0589 6.52904 39.5345 6.22291 38.6313ZM5.81474 37.087C6.04798 38.0048 6.93721 38.6021 7.87018 38.4856C7.62236 37.5678 6.7477 36.9851 5.81474 37.087ZM5.42114 35.3243C5.56692 36.2567 6.39784 36.9414 7.34538 36.8977C7.17045 35.9799 6.35411 35.3098 5.42114 35.3243ZM5.771 33.445C6.68939 33.6636 7.30165 34.5231 7.22876 35.4554C6.31037 35.266 5.68354 34.392 5.771 33.445ZM5.94593 31.7989C5.84389 32.7458 6.47073 33.6053 7.40369 33.8092C7.462 32.8769 6.84974 32.0174 5.94593 31.7989ZM6.0334 30.0507C6.95179 30.2692 7.56405 31.1287 7.49116 32.0611C6.57277 31.8571 5.94593 30.9831 6.0334 30.0507ZM6.0334 28.288C5.93136 29.2349 6.55819 30.0944 7.49116 30.2984C7.56405 29.366 6.95179 28.5211 6.0334 28.288ZM6.55819 20.4213C6.39784 21.3536 6.96636 22.2568 7.88475 22.519C8.01595 21.6013 7.462 20.7126 6.55819 20.4213ZM6.54361 22.4608C7.38912 22.8832 7.79729 23.8447 7.53489 24.7334C6.67481 24.34 6.25206 23.3494 6.54361 22.4608ZM6.17917 24.3983C6.00424 25.3307 6.57277 26.2485 7.47658 26.5107C7.62236 25.5929 7.06841 24.7042 6.17917 24.3983ZM6.09171 26.2922C7.0101 26.5107 7.62236 27.3702 7.54947 28.3025C6.6165 28.0986 5.98967 27.2391 6.09171 26.2922ZM9.5466 19.0519C9.64864 19.9988 9.02181 20.8583 8.10342 21.0768C8.03053 20.1299 8.64279 19.2849 9.5466 19.0519ZM10.086 20.5524C9.153 20.5524 8.33666 21.2225 8.19088 22.1548C9.13843 22.184 9.95477 21.4993 10.086 20.5524ZM9.48829 22.4899C9.50287 23.4368 8.78856 24.2381 7.8556 24.3546C7.87018 23.4223 8.55532 22.6356 9.48829 22.4899ZM9.35709 24.1215C8.4387 24.3109 7.78271 25.1413 7.82644 26.0736C8.75941 25.9134 9.4154 25.0684 9.35709 24.1215ZM9.44456 26.0299C9.50287 26.9769 8.84687 27.8218 7.91391 27.982C7.87018 27.0497 8.52617 26.2339 9.44456 26.0299ZM9.24047 28.2297C9.32794 29.1766 8.68652 30.0361 7.76813 30.2255C7.70982 29.2932 8.33666 28.4482 9.24047 28.2297ZM9.44456 30.1818C8.51159 30.2838 7.79729 31.0559 7.73898 31.9882C8.68652 31.9154 9.42998 31.1287 9.44456 30.1818ZM9.31336 31.7989C9.37167 32.7458 8.71568 33.5762 7.78271 33.751C7.73898 32.8041 8.39497 31.9882 9.31336 31.7989ZM9.26962 33.5033C8.35124 33.6927 7.69524 34.5085 7.73898 35.4554C8.65737 35.2806 9.31336 34.4502 9.26962 33.5033ZM9.47371 35.1058C9.53202 36.0527 8.87603 36.8831 7.94306 37.0579C7.89933 36.111 8.55532 35.2952 9.47371 35.1058ZM9.50287 36.9122C8.7011 37.0725 8.13257 37.8009 8.16173 38.6167C8.97807 38.471 9.5466 37.7426 9.50287 36.9122Z" fill="white"/>
<path fill-rule="evenodd" clip-rule="evenodd" d="M1.00586 0.058272H3.44032H6.82232C9.65038 0.058272 11.9682 2.37458 11.9682 5.20078V5.49214C11.9682 8.31833 9.65038 10.6346 6.82232 10.6346H3.44032V13.5774H1.00586V10.6346V0.058272ZM3.65898 7.9687H6.82232C8.17804 7.9687 9.30051 6.84696 9.30051 5.49214V5.20078C9.30051 3.84595 8.17804 2.72422 6.82232 2.72422H3.65898V7.9687ZM41.6482 10.6346V0.058272H44.0827H47.4647C50.2927 0.058272 52.6106 2.37458 52.6106 5.20078V5.49214C52.6106 7.47339 51.4735 9.20698 49.8117 10.0665L51.1674 13.5774H48.5434L47.3918 10.6346H44.0827V13.5774H41.6482V10.6346V10.6346ZM44.3013 7.9687H47.4647C48.8204 7.9687 49.9429 6.84696 49.9429 5.49214V5.20078C49.9429 3.84595 48.8204 2.72422 47.4647 2.72422H44.3013V7.9687ZM55.0596 0.058272H57.4941V13.5774H55.0596V0.058272ZM19.9422 13.3734C22.9451 13.3734 25.365 10.824 25.365 7.66277V0H23.0035V7.66277C23.0035 9.44007 21.6332 10.8969 19.9276 10.8969C18.2366 10.8969 16.8517 9.45463 16.8517 7.66277V0H14.5193V7.66277C14.5193 10.8095 16.9538 13.3734 19.9422 13.3734ZM35.0154 11.1737H32.129C31.371 11.1737 30.8316 10.5764 30.7733 9.80427H28.266C28.3243 11.9458 30.0444 13.49 32.1436 13.49H35.5693C37.7123 13.49 39.447 11.6981 39.447 9.49834C39.447 7.29857 37.3041 5.84177 35.1758 5.65238L32.3623 5.40473C31.5605 5.33189 30.6713 4.64719 30.6713 3.81682C30.6713 2.98644 31.3273 2.31631 32.129 2.31631H35.5548C36.3565 2.31631 36.7501 3.16126 36.7501 3.99163H39.2575C39.2575 1.79186 37.5082 0 36.2108 0H31.1815C30.3214 0 28.266 1.52964 28.266 3.72941C28.266 5.92918 30.1319 7.88129 33.8929 7.89586H34.7676C35.5693 7.89586 36.6627 8.60969 36.6627 9.48377C36.6481 10.9551 35.8172 11.1737 35.0154 11.1737Z" fill="white"/>
<path fill-rule="evenodd" clip-rule="evenodd" d="M0 15.5616H14.1403H44.1264H58.2667V45.0473V45.8777V62.8785C58.2667 78.8888 45.1614 92 29.126 92C13.1053 92 0 78.9033 0 62.8785V45.8777V45.0473V15.5616ZM14.1403 16.392H0.830923V45.0473H14.1403V16.392ZM14.1403 45.8777H0.830923V62.8785C0.830923 78.4371 13.5717 91.1696 29.1406 91.1696C44.7095 91.1696 57.4503 78.4371 57.4503 62.8785V45.8777H44.1264V62.8785C44.1264 71.0949 37.3478 77.8544 29.1406 77.8544C20.9189 77.869 14.1403 71.0949 14.1403 62.8785V45.8777ZM44.1264 45.0473H57.4358V16.392H44.1118V45.0473H44.1264ZM14.9712 16.392V45.0473H43.2955V16.392H14.9712ZM14.9712 45.8777V62.8785C14.9712 70.6287 21.3708 77.0241 29.126 77.0241C36.8813 77.0241 43.2809 70.6287 43.2809 62.8785V45.8777H14.9712Z" fill="white"/>
<path fill-rule="evenodd" clip-rule="evenodd" d="M44.0837 45.8713H14.1414V62.8868C14.1414 71.1177 20.8762 77.8481 29.1126 77.8481C37.3489 77.8481 44.0837 71.1177 44.0837 62.8868V45.8713ZM18.1064 55.9248H16.7944V50.5638H19.1852C20.1327 50.5638 21.0074 51.0154 21.0074 52.2828C21.0074 53.6085 20.2931 54.1329 19.1852 54.1329H18.1064V55.9248ZM18.9811 51.6855H18.1064V53.0549H18.9811C19.3892 53.0549 19.6808 52.8655 19.6808 52.3848C19.6808 51.8895 19.3892 51.6855 18.9811 51.6855ZM24.6518 50.5638H25.9637V53.7105C25.9637 55.2692 25.2932 56.0413 23.7771 56.0413C22.261 56.0413 21.5905 55.2692 21.5905 53.7105V50.5638H22.9024V53.7833C22.9024 54.4826 23.1357 54.8322 23.7771 54.8322C24.4185 54.8322 24.6518 54.468 24.6518 53.7833V50.5638ZM28.1504 55.9248H26.8384V50.5638H29.2291C30.1767 50.5638 31.0513 51.0154 31.0513 52.2828C31.0513 53.6085 30.337 54.1329 29.2291 54.1329H28.1504V55.9248ZM29.025 51.6855H28.1504V53.0549H29.025C29.4332 53.0549 29.7248 52.8655 29.7248 52.3848C29.7248 51.8895 29.4332 51.6855 29.025 51.6855ZM34.7103 50.5638H36.0223V53.7105C36.0223 55.2692 35.3517 56.0413 33.8356 56.0413C32.3196 56.0413 31.649 55.2692 31.649 53.7105V50.5638H32.961V53.7833C32.961 54.4826 33.1942 54.8322 33.8356 54.8322C34.4771 54.8322 34.7103 54.468 34.7103 53.7833V50.5638ZM38.1944 55.9248H36.8824V50.5638H38.1944V52.6179L39.8562 50.5638H41.4889L39.623 52.6761L41.7221 55.9248H40.0894L38.7337 53.6813L38.1944 54.2786V55.9248ZM23.8646 57.8366H22.5526V61.0561C22.5526 61.7408 22.3194 62.105 21.678 62.105C21.0366 62.105 20.8033 61.7554 20.8033 61.0561V57.8366H19.4913V60.9833C19.4913 62.5421 20.1619 63.3142 21.678 63.3142C23.194 63.3142 23.8646 62.5421 23.8646 60.9833V57.8366ZM24.7393 63.1976H26.0512V61.2455H27.0425C27.6548 61.2455 27.7422 61.7991 27.7714 62.3381C27.7739 62.3633 27.7764 62.3998 27.7795 62.4439C27.7941 62.6551 27.8207 63.041 27.9172 63.1976H29.2146C29.0396 63.0082 29.0105 62.2216 29.0105 61.9885C28.9668 61.4786 28.8064 60.8376 28.2816 60.7065V60.6919C28.8064 60.4734 29.0688 59.9198 29.0688 59.3517C29.0688 58.2736 28.1941 57.8366 27.3049 57.8366H24.7393V63.1976ZM26.0512 58.9583H27.1008C27.4653 58.9583 27.7568 59.1332 27.7568 59.5411C27.7568 59.949 27.5382 60.1675 27.1446 60.1675H26.0512V58.9583ZM29.8268 63.1976H33.9086V62.0031H31.1388V60.9833H33.6024V59.9053H31.1388V58.9729H33.8357V57.8366H29.8268V63.1976ZM36.6783 59.3225L37.2468 61.2018H36.1098L36.6783 59.3225ZM34.1418 63.1976H35.4829L35.8037 62.2361H37.553L37.8591 63.1976H39.2294L37.3489 57.8366H36.0223L34.1418 63.1976ZM30.5869 65.8929C30.5869 65.6452 30.3828 65.4413 30.135 65.4413C29.8871 65.4413 29.6831 65.6452 29.6831 65.8929C29.6831 66.1405 29.8871 66.3445 30.135 66.3445C30.3828 66.3445 30.5869 66.1405 30.5869 65.8929ZM30.8347 67.5536C30.5869 67.5536 30.3828 67.7576 30.3828 68.0053C30.3828 68.2675 30.5869 68.4714 30.8347 68.4569C31.0825 68.4569 31.2866 68.2529 31.2866 68.0053C31.2866 67.7576 31.0825 67.5536 30.8347 67.5536ZM29.4207 67.5536C29.1728 67.5536 28.9688 67.7576 28.9688 68.0053C28.9688 68.2675 29.1728 68.4714 29.4207 68.4569C29.6685 68.4569 29.8726 68.2529 29.8726 68.0053C29.8726 67.7576 29.6685 67.5536 29.4207 67.5536ZM29.6831 67.2914C29.6831 67.0438 29.8871 66.8398 30.135 66.8398C30.3828 66.8398 30.5869 67.0438 30.5869 67.2914C30.5869 67.5391 30.3828 67.743 30.135 67.743C29.8871 67.743 29.6831 67.5391 29.6831 67.2914ZM29.6831 68.7191C29.6831 68.4714 29.8871 68.2675 30.135 68.2675C30.3828 68.2675 30.5869 68.4714 30.5869 68.7191C30.5869 68.9667 30.3828 69.1707 30.135 69.1707C29.8871 69.1707 29.6831 68.9667 29.6831 68.7191ZM31.8697 69.2872C31.8697 69.0396 31.6656 68.8356 31.4178 68.8356C31.17 68.8356 30.9659 69.0396 30.9659 69.2872C30.9659 69.5349 31.17 69.7389 31.4178 69.7389C31.6656 69.7389 31.8697 69.5349 31.8697 69.2872ZM29.304 69.2872C29.304 69.0396 29.1 68.8356 28.8521 68.8356C28.5897 68.8356 28.4002 69.0396 28.4002 69.2872C28.4002 69.5349 28.6043 69.7389 28.8521 69.7389C29.1 69.7389 29.304 69.5349 29.304 69.2872ZM29.304 66.7233C29.304 66.4756 29.1 66.2717 28.8521 66.2717C28.5897 66.2717 28.3857 66.4756 28.4002 66.7233C28.4002 66.9709 28.6043 67.1749 28.8521 67.1749C29.1 67.1749 29.304 66.9709 29.304 66.7233ZM31.8697 66.7233C31.8697 66.4756 31.6656 66.2717 31.4178 66.2717C31.17 66.2717 30.9659 66.4756 30.9659 66.7233C30.9659 66.9709 31.17 67.1749 31.4178 67.1749C31.6656 67.1749 31.8697 66.9709 31.8697 66.7233ZM30.5869 70.1176C30.5869 69.87 30.3828 69.666 30.135 69.666C29.8871 69.666 29.6831 69.87 29.6831 70.1176C29.6831 70.3653 29.8871 70.5692 30.135 70.5692C30.3828 70.5692 30.5869 70.3653 30.5869 70.1176ZM28.4731 68.0053C28.4731 67.7576 28.269 67.5536 28.0212 67.5536C27.7734 67.5536 27.5693 67.7576 27.5693 68.0053C27.5693 68.2529 27.7734 68.4569 28.0212 68.4569C28.269 68.4569 28.4731 68.2529 28.4731 68.0053ZM32.7006 68.0053C32.7006 67.7576 32.4965 67.5536 32.2487 67.5536C32.0009 67.5536 31.7968 67.7576 31.7968 68.0053C31.7968 68.2529 32.0009 68.4569 32.2487 68.4569C32.4965 68.4569 32.7006 68.2529 32.7006 68.0053Z" fill="white"/>
<path fill-rule="evenodd" clip-rule="evenodd" d="M26.5725 87.2337L27.316 87.3066L27.5929 84.4221L25.3626 84.2036L25.2751 85.0777L26.4559 85.1942C26.3101 85.9226 25.829 86.3014 25.071 86.214C24.0214 86.112 23.7153 85.1796 23.8028 84.291C23.8902 83.3586 24.3713 82.4991 25.4354 82.6011C25.9894 82.6594 26.3976 83.009 26.4705 83.6063L27.5929 83.7228C27.5783 82.4991 26.6162 81.727 25.5229 81.625C23.8756 81.4648 22.7823 82.6011 22.622 84.189C22.4762 85.7332 23.3217 87.0589 24.969 87.2192C25.4792 87.2629 26.0477 87.1172 26.4996 86.6364L26.5725 87.2337ZM16.6597 84.1307L18.8901 79.2505L19.9543 79.7312L20.4936 83.9268H20.5082L21.9951 80.6636L23.001 81.1152L20.7706 85.9954L19.6919 85.5001L19.1525 81.3191H19.1379L17.651 84.5823L16.6597 84.1307ZM11.4409 79.9206L12.3302 80.7218L13.4381 80.1245L14.925 81.4648L14.4294 82.6157L15.3332 83.4315L17.4469 78.1142L16.5577 77.2983L11.4409 79.9206ZM16.0912 78.6969L15.2749 80.6198L14.2398 79.6875L16.0912 78.6969ZM8.23387 75.288L12.7384 72.4035L14.1086 74.5304C14.6626 75.3899 14.7501 76.1475 13.9191 76.6865C13.4818 76.9633 13.0299 76.9487 12.578 76.6719C12.7675 77.3275 12.5343 77.8665 11.9657 78.2307C11.0473 78.8134 10.1581 78.289 9.63332 77.4732L8.23387 75.288ZM10.8724 74.9966L11.5721 76.0746C11.8491 76.4971 11.8491 76.905 11.3826 77.1964C10.9162 77.5023 10.5663 77.2401 10.3185 76.8467L9.63332 75.7833L10.8724 74.9966ZM12.6072 73.8894L11.5576 74.5596L12.199 75.5648C12.4176 75.9144 12.7529 76.0746 13.1319 75.827C13.5547 75.5502 13.4381 75.1714 13.2048 74.8072L12.6072 73.8894ZM5.69737 68.0477L5.98892 69.1111L9.60417 68.1059V68.1205L6.33878 70.3931L6.5866 71.2672L10.5954 71.5148V71.5294L6.93647 72.5492L7.22802 73.6126L12.3885 72.1704L11.9366 70.5679L8.07352 70.4222V70.4077L11.2806 68.2079L10.8287 66.6054L5.69737 68.0477ZM5.21631 62.2205L5.26004 66.2849L6.25132 66.2704L6.22216 63.3859L7.53415 63.3713L7.5633 65.9644L8.48169 65.9499L8.43796 63.3713L9.58959 63.3568L9.61874 66.183L10.61 66.1684L10.5663 62.1622L5.21631 62.2205ZM5.24546 57.6315V61.4192H6.23674V58.8115H10.61V57.6315H5.24546ZM9.28346 54.5431V54.5577L7.31548 55.2278V53.8439L9.28346 54.5431ZM5.24546 51.9209V53.1155L6.44083 53.5379V55.5337L5.24546 55.9416V57.1654L10.61 55.1695V53.9604L5.24546 51.9209ZM9.69163 48.7305V49.6483C9.69163 50.2019 9.57501 50.6826 8.88986 50.6826C8.20472 50.6826 8.0881 50.2019 8.0881 49.6483V48.7305H9.69163ZM5.24546 47.5505V48.7305H7.16971V49.9688C7.16971 51.309 8.01521 51.8189 8.88986 51.8189C9.76452 51.8189 10.61 51.2945 10.61 49.9688V47.5505H5.24546Z" fill="white"/>
<path fill-rule="evenodd" clip-rule="evenodd" d="M53.4131 52.6926V51.2649L52.451 50.9298V49.0651L53.4131 48.7301V47.2733L48.0486 49.2691V50.6822L53.4131 52.6926ZM49.5355 49.9829V49.9683L51.416 49.371V50.5802L49.5355 49.9829Z" fill="white"/>
<path d="M53.4131 53.1585H48.0486V54.557H53.4131V53.1585Z" fill="white"/>
<path fill-rule="evenodd" clip-rule="evenodd" d="M51.5154 59.7412C52.8857 59.7266 53.4251 58.6486 53.4251 57.4103C53.4251 56.2303 52.9878 55.0794 51.632 55.0794C50.6699 55.0794 50.3055 55.8661 50.0868 56.6382C49.8682 57.4249 49.7953 58.197 49.3871 58.197C49.0372 58.197 48.9352 57.8182 48.9352 57.5268C48.9352 57.1044 49.0955 56.6382 49.5766 56.6673V55.2688C48.3667 55.2834 47.8564 56.3468 47.8564 57.4103C47.8564 58.4155 48.3084 59.5955 49.4891 59.5955C50.4658 59.5955 50.8157 58.7942 51.0344 58.0221C51.253 57.25 51.3405 56.4779 51.8215 56.4779C52.2151 56.4779 52.3755 56.915 52.3755 57.3374C52.3755 57.9347 52.1714 58.3135 51.5446 58.3572V59.7412H51.5154Z" fill="white"/>
<path fill-rule="evenodd" clip-rule="evenodd" d="M53.3136 64.551L53.3282 60.2097H52.1182V63.167L51.0978 63.1525V60.5302H50.0191V63.1525H49.0861V60.2826H47.9636V64.551H53.3136Z" fill="white"/>
<path fill-rule="evenodd" clip-rule="evenodd" d="M52.4504 70.6126L52.669 69.316L49.3745 68.7624V68.7479L52.9897 67.4805L53.2376 66.0674L47.9459 65.1496L47.7272 66.4461L50.978 66.9997V67.0289L47.4065 68.2963L47.1587 69.7094L52.4504 70.6126Z" fill="white"/>
<path fill-rule="evenodd" clip-rule="evenodd" d="M46.8374 75.7832C48.1785 76.5553 49.7384 76.3513 50.5693 74.8945C51.4148 73.4377 50.8171 71.9955 49.476 71.2088C48.1348 70.4367 46.575 70.6407 45.7441 72.0975C44.8986 73.5543 45.4963 74.9965 46.8374 75.7832ZM47.5371 74.574C46.852 74.1807 46.3272 73.4814 46.7791 72.6948C47.231 71.9081 48.0911 72.0101 48.7762 72.4034C49.4614 72.7967 49.9862 73.496 49.5343 74.2827C49.0969 75.0693 48.2223 74.9674 47.5371 74.574Z" fill="white"/>
<path fill-rule="evenodd" clip-rule="evenodd" d="M45.0312 82.0352L46.6202 80.3745C47.7426 79.1945 47.7426 77.8251 46.4744 76.6159C45.279 75.4651 43.8796 75.4942 42.7425 76.6888L41.1536 78.3495L45.0312 82.0352ZM42.9903 78.1601L43.4422 77.6794C44.0982 76.9947 44.798 76.9364 45.5123 77.6066C46.2849 78.3495 46.2995 78.9322 45.5852 79.7189L45.1332 80.1997L42.9903 78.1601Z" fill="white"/>
<path fill-rule="evenodd" clip-rule="evenodd" d="M39.3604 85.6322L40.512 85.0204L38.9231 82.0776L38.9377 82.0631L42.1739 84.1171L43.4276 83.4324L40.8765 78.727L39.7248 79.3534L41.2992 82.2524L41.2847 82.267L38.0776 80.2421L36.8093 80.9268L39.3604 85.6322Z" fill="white"/>
<path d="M36.3942 81.0718L35.0271 81.3708L36.174 86.608L37.5412 86.309L36.3942 81.0718Z" fill="white"/>
<path fill-rule="evenodd" clip-rule="evenodd" d="M31.5585 87.2315C31.2232 87.2315 30.9316 86.9838 30.713 86.7799C30.4943 86.5614 30.3631 86.27 30.3631 85.9349V83.8808C30.1007 83.6769 29.4447 83.6186 29.4885 83.6769C29.5322 83.3273 29.9404 83.1816 30.3923 83.3127C30.4214 83.2253 30.4506 83.1379 30.4943 83.0505C30.2028 82.6571 29.7654 82.4386 29.4739 82.424C30.0716 82.2492 30.4797 82.2492 30.7859 82.3658C31.0337 81.6957 31.2086 81.6956 31.5585 81.2149C31.9083 81.6956 32.0833 81.6957 32.3311 82.3658C32.6372 82.2492 33.0454 82.2492 33.6431 82.424C33.3515 82.4386 32.9142 82.6717 32.6226 83.0505C32.6664 83.1379 32.6955 83.2253 32.7247 83.3127C33.1766 83.1816 33.5848 83.3273 33.6285 83.6769C33.6722 83.6332 33.0162 83.6915 32.7538 83.8808V85.9349C32.7538 86.2554 32.6226 86.5614 32.404 86.7799C32.1853 86.9838 31.8938 87.2315 31.5585 87.2315ZM31.5585 82.6717C31.0628 82.8611 30.8879 83.1087 30.8879 83.5895V85.9349C30.8879 86.1972 31.0774 86.3428 31.5585 86.3428C32.0395 86.3428 32.229 86.1826 32.229 85.9349V83.5895C32.229 83.1087 32.0541 82.8611 31.5585 82.6717Z" fill="white"/>
<g clip-path="url(#clip0_3572_122640)">
<path d="M260.276 25.8782C259.957 26.1258 259.946 26.4919 259.845 26.8041C258.322 31.4068 256.808 36.0143 255.303 40.6266C255.231 40.8147 255.17 41.0064 255.118 41.2007C255.02 41.6565 254.726 41.7641 254.291 41.7569C253.276 41.7354 252.261 41.7318 251.247 41.7569C251.063 41.7824 250.876 41.737 250.725 41.6302C250.574 41.5233 250.47 41.3632 250.435 41.1828C249.989 39.7474 249.514 38.3444 249.05 36.927C247.177 31.152 245.302 25.3938 243.424 19.6524C243.303 19.3923 243.237 19.11 243.232 18.8234C243.421 18.6225 243.664 18.6942 243.885 18.6942C244.809 18.6942 245.737 18.6942 246.665 18.6942C247.455 18.6942 247.466 18.6942 247.691 19.4119C248.268 21.2492 248.837 23.0865 249.398 24.9237C250.398 28.1557 251.401 31.3853 252.406 34.6124C252.455 34.9365 252.579 35.2449 252.769 35.5131C252.989 35.2521 253.131 34.9351 253.179 34.5981C254.812 29.6389 256.44 24.6761 258.061 19.7098C258.097 19.6021 258.13 19.4909 258.17 19.3832C258.416 18.6655 258.416 18.6655 259.13 18.6655C259.845 18.6655 260.638 18.6943 261.392 18.6655C261.491 18.6492 261.591 18.6525 261.689 18.6752C261.786 18.6979 261.877 18.7395 261.958 18.7976C262.039 18.8558 262.107 18.9293 262.158 19.0138C262.21 19.0983 262.244 19.1922 262.259 19.2899C262.828 21.0841 263.429 22.8783 264.02 24.6905C265.117 28.0397 266.218 31.3888 267.322 34.738C267.399 34.9713 267.399 35.2548 267.71 35.4342C267.876 35.2118 267.985 34.9534 268.029 34.6806L272.723 19.6524C272.781 19.4622 272.843 19.2684 272.905 19.0782C272.925 18.9642 272.985 18.8612 273.076 18.788C273.167 18.7148 273.281 18.6765 273.398 18.6799H277.178C277.25 18.9603 277.214 19.257 277.077 19.5124C274.757 26.6366 272.436 33.7584 270.114 40.8778C269.813 41.8036 269.943 41.7318 268.921 41.739C268.022 41.739 267.109 41.7103 266.224 41.739C266.119 41.7558 266.012 41.7517 265.908 41.7269C265.805 41.7021 265.707 41.6572 265.622 41.5947C265.536 41.5322 265.464 41.4535 265.409 41.3631C265.354 41.2726 265.318 41.1723 265.303 41.068C264.43 38.3049 263.516 35.5526 262.621 32.7967C261.925 30.6676 261.23 28.5396 260.537 26.4129C260.491 26.2178 260.402 26.0352 260.276 25.8782V25.8782Z" fill="white"/>
<path d="M161.99 58.766C162.255 58.5882 162.47 58.3477 162.617 58.0663C164.52 55.3642 166.437 52.6657 168.315 49.9421C168.455 49.6948 168.664 49.4931 168.918 49.3618C169.172 49.2305 169.458 49.1753 169.743 49.2029C170.784 49.2532 171.828 49.228 172.871 49.2029C173.314 49.2029 173.513 49.3859 173.488 49.8201C173.488 49.9924 173.488 50.179 173.488 50.3369V71.1496C173.488 72.2943 173.488 72.2943 172.36 72.2979C171.577 72.2979 170.794 72.2979 170.011 72.2979C169.374 72.2979 169.345 72.2369 169.319 71.5802C169.319 71.3542 169.319 71.1245 169.319 70.8949C169.319 66.0792 169.319 61.2624 169.319 56.4443C169.37 56.1167 169.334 55.7814 169.214 55.4719C168.895 55.5401 168.794 55.8307 168.645 56.0424C166.673 58.8151 164.705 61.5889 162.74 64.364C162.544 64.7242 162.269 65.0367 161.935 65.279C159.612 62.0064 157.289 58.7409 154.922 55.4037C154.741 55.6956 154.677 56.0434 154.74 56.3797C154.74 61.2815 154.74 66.1857 154.74 71.0922C154.74 72.2907 154.911 72.3266 153.522 72.3194C152.797 72.3194 152.072 72.3194 151.348 72.3194C150.623 72.3194 150.594 72.2872 150.575 71.5192V50.2759C150.575 49.2352 150.575 49.2316 151.619 49.228C152.518 49.228 153.432 49.2568 154.313 49.228C154.583 49.1993 154.856 49.2487 155.098 49.3704C155.341 49.492 155.543 49.6806 155.679 49.9134C157.539 52.6155 159.434 55.296 161.323 57.9694C161.503 58.2673 161.728 58.536 161.99 58.766V58.766Z" fill="white"/>
<path d="M241.8 66.0613C241.926 65.7493 241.964 65.4098 241.913 65.078C241.913 60.1452 241.913 55.2123 241.913 50.2794C241.913 49.228 241.913 49.2245 242.953 49.2029C243.79 49.2029 244.631 49.2029 245.472 49.2029C245.904 49.2029 246.128 49.3716 246.085 49.8201C246.085 49.9637 246.085 50.1072 246.085 50.2507V71.2429C246.085 72.2907 246.085 72.2943 245.044 72.2979C244.146 72.2979 243.232 72.262 242.348 72.2979C242.062 72.3315 241.772 72.2814 241.514 72.1539C241.257 72.0263 241.042 71.8269 240.898 71.5802C238.585 68.2466 236.24 64.9345 233.902 61.6188C232.527 59.6667 231.151 57.7146 229.773 55.7625C229.661 55.6011 229.588 55.4037 229.327 55.3068C229.11 55.5652 229.201 55.8881 229.201 56.1752C229.201 61.1392 229.201 66.1007 229.201 71.0599C229.201 72.3302 229.389 72.2979 227.917 72.2979C227.163 72.2979 226.409 72.2979 225.659 72.2979C225.228 72.2979 225.003 72.1364 225.032 71.6879C225.032 71.5479 225.032 71.4008 225.032 71.2573V50.2651C225.032 49.2137 225.032 49.2101 226.069 49.1886C226.968 49.1886 227.881 49.228 228.766 49.1886C229.077 49.1543 229.392 49.2115 229.671 49.3532C229.95 49.4948 230.181 49.7146 230.335 49.9852C233.914 55.1023 237.511 60.2062 241.126 65.2969C241.274 65.6094 241.507 65.8743 241.8 66.0613V66.0613Z" fill="white"/>
<path d="M192.812 60.2014C192.998 60.3616 193.215 60.4835 193.449 60.5602C195.929 61.8018 197.042 63.9477 196.614 66.6605C196.157 69.5707 194.305 71.3721 191.148 72.0036C189.952 72.2143 188.738 72.3116 187.523 72.2943C185.004 72.3194 182.481 72.2943 179.958 72.2943C179.842 72.2943 179.726 72.2943 179.596 72.2943C178.943 72.2656 178.903 72.2261 178.871 71.6125C178.871 71.4402 178.871 71.2537 178.871 71.0958V50.3799C178.871 49.2172 178.871 49.2029 180.07 49.2173C182.938 49.2495 185.812 49.106 188.676 49.307C190.274 49.3885 191.817 49.9146 193.127 50.8249C195.432 52.4612 195.798 55.8486 194.957 57.7361C194.604 58.4948 194.069 59.1563 193.399 59.6631C193.21 59.821 192.938 59.8928 192.812 60.2014ZM186.262 62.2503C185.319 62.2503 184.54 62.2503 183.757 62.2503C183.057 62.2503 183.014 62.2898 183.01 62.968C182.996 64.6283 182.996 66.2897 183.01 67.9523C183.01 68.67 183.061 68.7023 183.826 68.7095C185.214 68.7095 186.606 68.7346 187.994 68.7095C188.835 68.7183 189.671 68.5848 190.466 68.3147C191.916 67.7765 192.599 66.7 192.514 65.0852C192.453 63.7252 191.684 62.8783 190.165 62.4944C189.912 62.4334 189.654 62.3975 189.397 62.358C188.356 62.2454 187.308 62.2106 186.262 62.2539V62.2503ZM186.037 58.6332V58.6117C186.874 58.6117 187.715 58.6548 188.549 58.6117C189.578 58.5399 190.474 58.1667 190.945 57.1763C191.15 56.7793 191.262 56.3409 191.27 55.8947C191.279 55.4486 191.184 55.0064 190.993 54.6021C190.803 54.1977 190.521 53.8418 190.17 53.5615C189.82 53.2813 189.409 53.0841 188.969 52.9851C188.523 52.8612 188.063 52.7936 187.599 52.7841C186.298 52.7841 184.996 52.7841 183.699 52.7841C183.075 52.7841 183.025 52.8272 183.017 53.3977C182.998 54.9408 182.998 56.485 183.017 58.0304C183.017 58.5973 183.079 58.6332 183.695 58.644C184.475 58.6476 185.257 58.6368 186.037 58.6368V58.6332Z" fill="white"/>
<path d="M232.126 41.7462C230.676 41.7462 229.226 41.7462 227.776 41.7462C227.305 41.7462 227.134 41.4268 226.924 41.1218C225.456 38.9903 223.995 36.8552 222.52 34.7273C221.589 33.3816 221.969 33.6507 220.367 33.6041C219.787 33.6041 219.207 33.6041 218.631 33.6041C217.935 33.6041 217.906 33.6471 217.906 34.3541C217.906 36.4174 217.906 38.4807 217.906 40.5441C217.906 40.7737 217.906 41.0034 217.906 41.233C217.906 41.5919 217.728 41.7426 217.373 41.739C216.358 41.739 215.343 41.739 214.328 41.739C213.937 41.739 213.726 41.6062 213.748 41.1936C213.748 40.9926 213.748 40.7917 213.748 40.5907V19.8784C213.748 19.7349 213.748 19.5913 213.748 19.4478C213.77 18.7014 213.77 18.6871 214.542 18.6835C217.467 18.6835 220.396 18.6548 223.321 18.7014C225.293 18.7301 227.171 19.1787 228.798 20.3664C229.311 20.7433 229.76 21.1988 230.129 21.7157C230.756 22.6043 231.176 23.6196 231.359 24.6884C231.542 25.7572 231.484 26.8529 231.188 27.8966C230.892 28.9403 230.365 29.906 229.647 30.7241C228.929 31.5423 228.036 32.1925 227.033 32.628C226.982 32.6496 226.924 32.6639 226.873 32.689C226.264 32.9474 226.254 32.9546 226.645 33.5251C227.41 34.6411 228.189 35.7464 228.961 36.8552C229.967 38.2905 230.971 39.7259 231.974 41.1613C232.045 41.2393 232.096 41.3333 232.122 41.4351C232.149 41.537 232.15 41.6438 232.126 41.7462V41.7462ZM217.888 26.1115C217.888 27.0839 217.888 28.0564 217.888 29.0289C217.888 29.847 217.888 29.8578 218.7 29.865C220.088 29.865 221.476 29.865 222.864 29.865C223.589 29.8666 224.309 29.7626 225.003 29.5564C225.356 29.4698 225.688 29.3128 225.978 29.095C226.268 28.8772 226.509 28.6032 226.689 28.2897C227.024 27.6527 227.203 26.946 227.21 26.2275C227.217 25.5089 227.052 24.799 226.728 24.1558C226.479 23.6635 226.063 23.2728 225.554 23.0506C225.109 22.8405 224.633 22.7036 224.144 22.6451C222.241 22.4011 220.331 22.5733 218.424 22.5231C217.996 22.5231 217.884 22.742 217.888 23.1152C217.891 24.0912 217.888 25.0924 217.888 26.1115Z" fill="white"/>
<path d="M289.687 30.1951V20.1476C289.687 19.9179 289.687 19.6883 289.687 19.4586C289.709 18.7158 289.713 18.7015 290.492 18.6979C293.131 18.6979 295.766 18.6979 298.405 18.6979C299.828 18.7078 301.238 18.9615 302.573 19.4479C305.973 20.693 307.764 23.2516 308.46 26.6498C308.99 29.1872 308.949 31.8089 308.34 34.329C307.343 38.4449 304.426 41.0178 300.174 41.5776C299.168 41.7043 298.154 41.763 297.14 41.7534C295.056 41.7534 292.968 41.7534 290.883 41.7534C289.684 41.7534 289.684 41.9113 289.684 40.6051V30.1987L289.687 30.1951ZM293.856 30.2167V34.6914C293.856 35.5777 293.856 36.4677 293.856 37.3576C293.856 37.7631 293.979 38.0107 294.447 38.0071C296.07 38.0071 297.709 38.0968 299.315 37.9282C302.131 37.6339 303.773 36.116 304.357 33.3745C304.521 32.5586 304.613 31.7301 304.632 30.8985C304.743 29.2356 304.543 27.5668 304.045 25.9752C303.79 25.1764 303.33 24.4568 302.71 23.8869C302.09 23.317 301.331 22.9163 300.507 22.7241C299.951 22.5616 299.376 22.47 298.796 22.4513C297.462 22.4513 296.128 22.4191 294.809 22.4191C293.899 22.4191 293.881 22.4406 293.877 23.3341C293.852 25.6271 293.856 27.9237 293.856 30.2167Z" fill="white"/>
<path d="M269.733 64.9094C269.733 66.5995 269.733 68.2932 269.733 69.9834C269.757 70.1656 269.717 70.3505 269.62 70.5072C269.523 70.6639 269.375 70.783 269.2 70.8446C265.775 72.3302 262.222 72.9761 258.51 72.3266C254.607 71.6412 252.033 69.3913 250.971 65.5912C250.102 62.5065 250.084 59.2479 250.917 56.1537C252.004 52.0449 254.752 49.734 258.974 49.124C262.237 48.6503 265.376 49.1993 268.442 50.3046C268.613 50.3359 268.766 50.4288 268.872 50.5653C268.978 50.7018 269.029 50.8723 269.015 51.0438C268.997 51.9014 269.015 52.7626 269.015 53.6238C269.015 54.1262 268.917 54.1836 268.439 54.0006C267.153 53.4809 265.817 53.0937 264.451 52.8451C262.854 52.5487 261.217 52.5172 259.609 52.7518C257.372 53.1107 255.864 54.3164 255.136 56.4551C254.8 57.4938 254.61 58.5732 254.57 59.6631C254.487 60.9821 254.554 62.3062 254.77 63.6104C255.368 66.9799 257.086 68.5731 260.515 68.8925C262.108 69.0068 263.709 68.8711 265.26 68.4906C265.359 68.482 265.455 68.4532 265.543 68.4061C265.63 68.359 265.707 68.2946 265.768 68.2168C265.83 68.139 265.874 68.0496 265.899 67.9541C265.923 67.8586 265.928 67.759 265.912 67.6617C265.887 66.2586 265.912 64.852 265.912 63.4489C265.912 62.7527 265.891 62.7312 265.158 62.7312C263.824 62.7312 262.49 62.7312 261.171 62.7312C260.413 62.7312 260.406 62.7133 260.399 61.9489C260.392 61.1846 260.399 60.5136 260.399 59.7959C260.399 59.1536 260.432 59.132 261.124 59.1213C261.994 59.1213 262.864 59.1213 263.734 59.1213H268.776C269.791 59.1213 269.794 59.1213 269.798 60.0937C269.736 61.6977 269.733 63.3018 269.733 64.9094Z" fill="white"/>
<path d="M163.915 28.243C164.262 27.998 164.57 27.7029 164.828 27.3674C167.268 24.6797 169.718 21.9848 172.139 19.2971C172.307 19.0862 172.524 18.9188 172.771 18.8094C173.019 18.7 173.29 18.6519 173.56 18.6691C175.035 18.7086 176.511 18.6691 177.964 18.6691C178.131 18.9742 177.895 19.0746 177.772 19.2038C175.008 22.1774 172.238 25.1498 169.464 28.121C169.345 28.2502 169.229 28.3758 169.102 28.5014C169.059 28.5404 169.024 28.5878 169.001 28.6406C168.978 28.6934 168.965 28.7505 168.965 28.8082C168.965 28.8659 168.978 28.923 169.001 28.9758C169.024 29.0286 169.059 29.076 169.102 29.115L169.638 29.7896L178.591 40.8814C178.769 41.1039 178.954 41.3335 179.102 41.5488C178.957 41.8215 178.74 41.7318 178.548 41.7318C177.33 41.7318 176.112 41.7067 174.894 41.7498C174.638 41.7665 174.381 41.7156 174.152 41.6021C173.922 41.4886 173.726 41.3166 173.586 41.1039C171.342 38.2331 169.069 35.3624 166.807 32.4917C166.63 32.2656 166.445 32.0539 166.202 31.774C165.647 32.1938 165.285 32.7572 164.788 33.1663C163.962 33.8589 163.719 34.6914 163.77 35.7464C163.849 37.4365 163.795 39.1302 163.788 40.824C163.788 41.7462 163.788 41.7498 162.813 41.7534C161.943 41.7534 161.073 41.7534 160.203 41.7534C159.808 41.7534 159.601 41.6206 159.623 41.2079C159.623 41.007 159.623 40.806 159.623 40.6051V19.8713C159.623 19.6703 159.623 19.4694 159.623 19.2684C159.59 18.8127 159.822 18.6727 160.25 18.6799C161.207 18.6799 162.164 18.6799 163.121 18.6799C163.741 18.6799 163.755 18.7158 163.788 19.3079C163.788 19.5088 163.788 19.7098 163.788 19.9107C163.788 22.3473 163.788 24.7838 163.788 27.2239C163.738 27.5687 163.782 27.9205 163.915 28.243V28.243Z" fill="white"/>
<path d="M130.951 60.7611V50.3548C130.951 50.1251 130.951 49.899 130.951 49.6694C130.945 49.6118 130.953 49.5537 130.972 49.4992C130.992 49.4447 131.024 49.3952 131.065 49.3541C131.106 49.313 131.156 49.2814 131.211 49.2614C131.265 49.2415 131.324 49.2338 131.382 49.2388C131.585 49.2388 131.785 49.2208 131.988 49.2208H145.461C145.635 49.2208 145.823 49.2208 145.983 49.2208C146.382 49.2208 146.559 49.3895 146.552 49.7914C146.552 50.6239 146.552 51.4564 146.552 52.2853C146.552 52.8738 146.508 52.9061 145.885 52.9133C144.468 52.9133 143.047 52.9133 141.626 52.9133C139.774 52.9133 137.918 52.9133 136.065 52.9133C135.141 52.9133 135.134 52.9133 135.13 53.7996C135.13 55.174 135.13 56.5519 135.13 57.9263C135.13 58.7875 135.13 58.7947 135.997 58.7983C138.534 58.7983 141.035 58.7983 143.558 58.7983C143.79 58.7983 144.022 58.7983 144.254 58.7983C145.004 58.8162 145.011 58.8234 145.022 59.5877C145.033 60.3521 145.022 61.1379 145.022 61.9094C145.022 62.6809 144.993 62.6809 144.228 62.6809C141.738 62.6809 139.244 62.6809 136.754 62.6809C136.464 62.6809 136.174 62.6809 135.884 62.6809C135.159 62.7025 135.159 62.7168 135.134 63.3986C135.134 64.6869 135.134 65.9787 135.134 67.2669C135.134 67.554 135.134 67.8411 135.134 68.1281C135.122 68.1859 135.125 68.2457 135.142 68.3021C135.159 68.3586 135.19 68.4101 135.232 68.4519C135.274 68.4938 135.325 68.5248 135.382 68.5421C135.439 68.5595 135.5 68.5628 135.558 68.5516H136.254H145.468C145.7 68.5516 145.928 68.5516 146.16 68.5516C146.21 68.5515 146.258 68.5614 146.303 68.5805C146.349 68.5996 146.389 68.6277 146.423 68.6629C146.457 68.6982 146.484 68.7399 146.501 68.7855C146.518 68.8311 146.525 68.8797 146.523 68.9284C146.523 69.9044 146.523 70.8769 146.523 71.8529C146.526 71.9034 146.517 71.9538 146.499 72.001C146.481 72.0481 146.452 72.0909 146.416 72.1265C146.38 72.162 146.336 72.1896 146.289 72.2074C146.241 72.2252 146.19 72.2328 146.139 72.2297C145.907 72.2512 145.675 72.2548 145.443 72.2548H131.727C131.002 72.2261 130.955 72.201 130.955 71.451C130.947 67.9081 130.946 64.3448 130.951 60.7611Z" fill="white"/>
<path d="M349.601 41.7462C348.282 41.7462 347.006 41.7462 345.733 41.7462C345.317 41.7462 345.201 41.4807 345.085 41.1793C344.679 40.1362 344.274 39.0932 343.87 38.0502C343.743 37.7272 343.631 37.4007 343.508 37.0849C343.145 36.1806 343.316 36.2057 342.203 36.2057C339.506 36.2057 336.81 36.2057 334.116 36.2057C333.152 36.2057 333.217 36.0837 332.822 37.1028C332.376 38.2547 331.941 39.4102 331.484 40.5585C330.919 41.9687 331.184 41.7211 329.784 41.7426C328.773 41.7426 327.758 41.7426 326.79 41.7426C326.735 41.6447 326.708 41.5333 326.713 41.4209C326.718 41.3086 326.755 41.2 326.819 41.1075C329.741 33.8422 332.661 26.5709 335.58 19.2936C335.636 19.0887 335.766 18.9111 335.945 18.7947C336.124 18.6782 336.34 18.631 336.552 18.662C337.592 18.6943 338.64 18.7086 339.68 18.662C340.289 18.6297 340.543 18.8773 340.749 19.4048C342.344 23.4059 343.968 27.3962 345.581 31.3865C346.84 34.4965 348.096 37.6064 349.347 40.7164C349.538 41.0252 349.627 41.3852 349.601 41.7462V41.7462ZM341.514 32.4164C341.442 31.6736 338.614 24.2922 338.169 23.5996C337.701 24.224 334.808 31.7417 334.783 32.4164H341.514Z" fill="white"/>
<path d="M389.466 41.7426C388.1 41.7426 386.799 41.7426 385.497 41.7426C385.117 41.7426 385.022 41.4771 384.917 41.2079L383.384 37.2786C383.312 37.0884 383.228 36.9198 383.17 36.7152C383.054 36.3133 382.782 36.2021 382.384 36.2057C379.458 36.2057 376.53 36.2057 373.601 36.2057C373.401 36.1863 373.202 36.2404 373.04 36.3575C372.878 36.4747 372.765 36.6467 372.724 36.8408C372.209 38.2403 371.662 39.629 371.118 41.0177C370.835 41.7354 370.828 41.7354 370.063 41.7534C369.096 41.7534 368.139 41.7534 367.192 41.7534C366.962 41.8005 366.723 41.7609 366.522 41.6421C366.518 41.328 366.605 41.0194 366.772 40.7522C369.628 33.6687 372.487 26.5864 375.348 19.5052C375.678 18.6943 375.678 18.6943 376.526 18.6907H379.397C380.267 18.6907 380.27 18.6907 380.589 19.4801C382.196 23.4465 383.801 27.4129 385.403 31.3793C386.66 34.4892 387.916 37.5992 389.173 40.7091C389.342 41.0299 389.442 41.3818 389.466 41.7426V41.7426ZM378.096 23.5781L377.845 23.6032C376.725 26.5206 375.555 29.42 374.463 32.3769C375.783 32.5778 380.771 32.5132 381.438 32.28C380.321 29.3781 379.207 26.4775 378.096 23.5781Z" fill="white"/>
<path d="M219.675 72.3158C219.182 72.3158 218.685 72.2907 218.196 72.3158C217.981 72.3447 217.762 72.2914 217.585 72.1668C217.408 72.0422 217.286 71.8556 217.242 71.6448C216.724 70.2453 216.173 68.8566 215.629 67.4643C215.343 66.7466 215.339 66.7287 214.575 66.7251H206.14C205.371 66.7251 205.364 66.7251 205.081 67.4643C204.549 68.8279 203.994 70.1879 203.505 71.5623C203.312 72.1041 203.037 72.3481 202.435 72.3194C201.453 72.2763 200.467 72.3194 199.481 72.3194C198.8 72.3194 198.756 72.2548 199.021 71.6197C200.253 68.5552 201.49 65.4931 202.732 62.4334C204.356 58.4143 205.969 54.3917 207.604 50.3727C208.104 49.1383 207.822 49.2352 209.348 49.228C210.189 49.228 211.033 49.2711 211.885 49.228C212.545 49.1814 212.791 49.5151 213.001 50.0498C214.364 53.4659 215.749 56.8677 217.123 60.2803C218.597 63.9261 220.07 67.5731 221.541 71.2214C221.607 71.3828 221.672 71.5407 221.73 71.7022C221.922 72.2476 221.893 72.3086 221.342 72.3302C220.791 72.3517 220.255 72.3302 219.689 72.3302L219.675 72.3158ZM210.352 54.1011C210.159 54.2974 210.032 54.5482 209.989 54.8188C209.04 57.2493 208.096 59.6787 207.158 62.1068C207.104 62.2396 207.053 62.3723 207.006 62.5087C206.876 62.8675 207.006 63.0613 207.39 63.0613C209.355 63.0613 211.323 63.0613 213.288 63.0613C213.763 63.0613 213.821 62.9321 213.679 62.4549C213.632 62.2934 213.56 62.1319 213.498 61.974C212.594 59.62 211.689 57.2684 210.783 54.9192C210.718 54.6124 210.569 54.3292 210.352 54.1011V54.1011Z" fill="white"/>
<path d="M97.4544 49.2209C97.9474 49.2209 98.444 49.2567 98.9333 49.2209C99.5604 49.167 99.8613 49.4326 100.082 49.9996C101.054 52.4863 102.069 54.9587 103.069 57.4347C104.94 62.0614 106.806 66.6916 108.669 71.3255C109.068 72.3087 109.065 72.3123 108.032 72.3159C107.162 72.3159 106.292 72.3159 105.422 72.3159C104.61 72.3159 104.602 72.3159 104.302 71.5264C103.769 70.1628 103.214 68.8028 102.721 67.4284C102.676 67.2047 102.547 67.0062 102.36 66.873C102.173 66.7398 101.942 66.6818 101.714 66.7108C98.8717 66.7347 96.0311 66.7347 93.1917 66.7108C92.963 66.6835 92.7323 66.742 92.545 66.8749C92.3578 67.0077 92.2277 67.2053 92.1804 67.4284C91.6693 68.8279 91.0929 70.2095 90.5819 71.6089C90.5353 71.8318 90.4059 72.0293 90.2193 72.1622C90.0327 72.2951 89.8024 72.3538 89.5742 72.3266C88.5628 72.2907 87.5479 72.3266 86.533 72.3087C85.9131 72.3087 85.8696 72.2297 86.1016 71.6484C87.1021 69.1724 88.1098 66.6964 89.0957 64.2204C90.9999 59.51 92.9017 54.7972 94.8011 50.0821C95.1636 49.228 95.1636 49.228 96.048 49.2209H97.4399H97.4544ZM97.4327 54.1011C97.3098 54.1863 97.2243 54.3146 97.1934 54.4599C96.1858 57.0556 95.1805 59.6512 94.1776 62.2468C93.9021 62.9645 93.9529 63.0434 94.7177 63.0506C96.5301 63.0506 98.3715 63.0506 100.195 63.0506H100.557C100.822 63.0506 100.92 62.8963 100.84 62.6487C100.789 62.4836 100.728 62.3221 100.666 62.1607C99.7187 59.6942 98.7714 57.229 97.8242 54.765C97.7335 54.5317 97.7154 54.2482 97.4327 54.1011Z" fill="white"/>
<path d="M89.4074 26.4704V19.8533C89.4074 19.6237 89.4074 19.394 89.4074 19.1644C89.4074 18.8593 89.5415 18.6835 89.8786 18.6871H93.101C93.4345 18.6871 93.5614 18.8665 93.565 19.1715C93.5686 19.4765 93.565 19.6883 93.565 19.9466C93.565 23.9298 93.565 27.9141 93.565 31.8996C93.5348 32.9318 93.6495 33.9632 93.9057 34.9641C94.084 35.7252 94.48 36.4193 95.0463 36.9635C95.6127 37.5076 96.3254 37.8786 97.0992 38.0322C98.5422 38.3763 100.049 38.3627 101.485 37.9927C102.21 37.8286 102.876 37.4709 103.41 36.9585C103.945 36.446 104.327 35.7985 104.515 35.0861C104.758 34.2587 104.871 33.3996 104.853 32.5384C104.853 28.2969 104.853 24.0542 104.853 19.8103C104.853 18.601 104.802 18.6835 105.984 18.6835C106.821 18.6835 107.662 18.6835 108.521 18.6835C108.883 18.6835 109.057 18.8342 109.046 19.1931C109.046 19.3653 109.046 19.5519 109.046 19.7098C109.046 23.7767 109.046 27.8435 109.046 31.9104C109.062 33.0296 108.94 34.1466 108.684 35.2368C107.738 39.0657 104.958 41.4735 100.999 41.9005C99.5595 42.0761 98.1008 42.0301 96.6751 41.7641C92.9162 41.0285 90.4586 38.592 89.7083 34.8672C89.5079 33.8542 89.4083 32.8242 89.411 31.792C89.4001 30.03 89.4074 28.2646 89.4074 26.4704Z" fill="white"/>
<path d="M150.463 26.4488C150.463 24.2432 150.463 22.0351 150.463 19.8246C150.463 19.5854 150.463 19.3557 150.463 19.1357C150.463 18.8737 150.572 18.6907 150.869 18.6907H154.175C154.233 18.6843 154.292 18.6911 154.347 18.7103C154.402 18.7296 154.452 18.7609 154.493 18.802C154.534 18.843 154.565 18.8927 154.584 18.9474C154.603 19.0021 154.609 19.0603 154.603 19.1177C154.603 19.3187 154.603 19.5196 154.603 19.7206C154.603 23.8233 154.603 27.9237 154.603 32.0216C154.612 32.9398 154.532 33.8567 154.363 34.7596C153.617 38.8073 150.789 41.4053 146.657 41.9005C145.217 42.0883 143.757 42.0496 142.329 41.7857C138.512 41.0429 136.062 38.6243 135.293 34.8493C135.106 33.8616 135.02 32.8578 135.036 31.853C135.036 27.81 135.036 23.7659 135.036 19.7206C135.036 18.6835 135.036 18.6835 136.087 18.6799H138.262C139.194 18.6799 139.194 18.6799 139.205 19.6452V32.036C139.17 32.9827 139.261 33.9298 139.476 34.8529C139.65 35.6449 140.054 36.3693 140.639 36.9363C141.224 37.5033 141.964 37.8881 142.768 38.043C144.127 38.3624 145.544 38.3624 146.904 38.043C148.988 37.5478 150.144 36.1519 150.394 33.8445C150.456 33.2489 150.463 32.6424 150.467 32.0503C150.47 30.1772 150.463 28.3148 150.463 26.4488Z" fill="white"/>
<path d="M68.4888 60.7755V50.4624C68.4888 50.2328 68.4888 50.0031 68.4888 49.7735C68.4888 49.4146 68.6229 49.2316 68.989 49.228C69.047 49.228 69.105 49.228 69.163 49.228C72.3165 49.2603 75.4737 49.1276 78.6309 49.307C79.5283 49.3669 80.4116 49.5592 81.2516 49.8775C84.0644 50.9218 85.5289 52.9959 85.8406 55.8989C85.983 57.0401 85.908 58.1976 85.6195 59.3115C84.8148 62.2683 82.7523 63.84 79.8198 64.4572C78.7933 64.6443 77.7495 64.7225 76.7061 64.6905C75.6187 64.6905 74.5639 64.6905 73.491 64.6905C72.6754 64.6905 72.6609 64.7084 72.6573 65.505C72.6573 67.3961 72.6573 69.2872 72.6573 71.1783C72.6573 71.408 72.6573 71.6376 72.6573 71.8673C72.6647 71.9246 72.6589 71.9829 72.6403 72.0377C72.6218 72.0926 72.591 72.1426 72.5502 72.184C72.5095 72.2254 72.4598 72.2571 72.4049 72.2768C72.35 72.2966 72.2913 72.3038 72.2332 72.2979C71.1336 72.2979 70.0329 72.2979 68.931 72.2979C68.8729 72.303 68.8144 72.2953 68.7597 72.2753C68.7049 72.2554 68.6554 72.2237 68.6145 72.1825C68.5736 72.1414 68.5424 72.0917 68.5232 72.0372C68.504 71.9827 68.4972 71.9247 68.5033 71.8673C68.5033 71.6281 68.5033 71.3984 68.5033 71.1783L68.4888 60.7755ZM72.6645 56.9718C72.6645 58.0483 72.6645 59.15 72.6645 60.2373C72.6645 60.9549 72.6935 60.9765 73.3895 60.9801C74.7234 60.9801 76.0537 61.0016 77.3767 60.9801C78.1305 60.9754 78.879 60.8543 79.5951 60.6212C80.1569 60.4589 80.656 60.1321 81.0267 59.6838C81.3974 59.2355 81.6224 58.6866 81.6721 58.1093C81.7319 57.6261 81.7537 57.139 81.7373 56.6524C81.6793 54.4779 80.6934 53.4229 78.5113 53.1179C78.3912 53.1006 78.2701 53.091 78.1488 53.0892C76.5285 53.0892 74.9119 53.0497 73.2916 53.0533C72.7116 53.0533 72.6536 53.1215 72.6464 53.7135C72.6536 54.8188 72.6645 55.8953 72.6645 56.9718Z" fill="white"/>
<path d="M114.078 30.1843V19.9538C114.078 19.7241 114.078 19.4945 114.078 19.2648C114.045 18.8091 114.281 18.6512 114.708 18.6835C114.792 18.6835 114.882 18.6835 114.969 18.6835H123.136C124.209 18.6796 125.277 18.8344 126.304 19.1428C129.113 19.9861 130.835 21.8198 131.346 24.6977C131.604 26.0836 131.548 27.5089 131.183 28.871C130.933 29.8639 130.451 30.7846 129.774 31.5584C129.098 32.3321 128.247 32.9371 127.29 33.3242C125.948 33.8731 124.509 34.1536 123.056 34.1495C121.813 34.1746 120.566 34.1495 119.323 34.1495C118.261 34.1495 118.257 34.1495 118.257 35.1651C118.257 36.9593 118.257 38.775 118.257 40.58C118.257 40.7809 118.257 40.9819 118.257 41.1828C118.279 41.5811 118.094 41.7426 117.688 41.739C116.675 41.7247 115.662 41.7247 114.647 41.739C114.237 41.739 114.067 41.5704 114.081 41.172C114.081 40.946 114.081 40.7163 114.081 40.4867L114.078 30.1843ZM118.257 26.4416C118.257 27.5002 118.257 28.5588 118.257 29.6174C118.257 30.3853 118.257 30.3996 119.026 30.4032C120.443 30.4032 121.86 30.4032 123.277 30.4032C123.974 30.3939 124.663 30.2652 125.315 30.0229C125.784 29.867 126.205 29.5922 126.534 29.2259C126.863 28.8595 127.09 28.4143 127.192 27.9344C127.333 27.2901 127.377 26.6286 127.323 25.9715C127.21 23.9405 126.337 22.9609 124.3 22.6272C122.458 22.3293 120.602 22.5267 118.754 22.4764C118.297 22.4764 118.253 22.7527 118.253 23.1008C118.261 24.2096 118.257 25.3256 118.257 26.4416Z" fill="white"/>
<path d="M68.4889 30.2023V19.8856C68.4889 19.6308 68.4889 19.3725 68.4889 19.1141C68.4771 19.0563 68.4798 18.9966 68.4969 18.9401C68.514 18.8836 68.5448 18.8322 68.5868 18.7903C68.6287 18.7485 68.6804 18.7175 68.7373 18.7001C68.7942 18.6827 68.8545 18.6795 68.913 18.6907H69.4349H77.4276C78.5319 18.6842 79.6312 18.839 80.6899 19.15C83.7383 20.0579 85.4275 22.1068 85.8262 25.2C85.9567 26.1971 85.9273 27.2083 85.7392 28.1964C85.2027 30.9953 83.539 32.7967 80.8131 33.6579C79.6762 34.0016 78.4931 34.1722 77.3043 34.1639C75.9994 34.1639 74.6981 34.1639 73.3932 34.1639C72.69 34.1639 72.6682 34.189 72.6682 34.8816C72.6682 36.7726 72.6682 38.6637 72.6682 40.5548C72.6682 40.7845 72.6682 41.0141 72.6682 41.2438C72.6682 41.5488 72.545 41.7282 72.2115 41.7282H68.9963C68.6774 41.7282 68.507 41.5955 68.507 41.2725C68.507 41.0428 68.507 40.8132 68.507 40.5835L68.4889 30.2023ZM72.661 26.4093C72.661 27.4858 72.661 28.5839 72.661 29.6712C72.661 30.3889 72.6936 30.414 73.386 30.4176C74.8359 30.4176 76.2858 30.4176 77.7357 30.3996C78.3726 30.3882 79.0037 30.278 79.6061 30.0731C80.1706 29.9132 80.6728 29.5875 81.0462 29.139C81.4197 28.6905 81.6468 28.1403 81.6976 27.5612C81.8118 26.795 81.8118 26.0164 81.6976 25.2503C81.6439 24.7046 81.4299 24.1864 81.082 23.7598C80.7342 23.3331 80.2677 23.0167 79.7402 22.8496C79.4416 22.7411 79.1333 22.6606 78.8195 22.6092C76.9527 22.3042 75.0679 22.4836 73.1902 22.4405C72.7516 22.4405 72.6682 22.6846 72.6719 23.0434C72.6646 24.1773 72.661 25.2933 72.661 26.4093V26.4093Z" fill="white"/>
<path d="M193.518 36.1088C193.837 36.174 194.138 36.3075 194.399 36.5C196.787 37.9169 199.613 38.427 202.352 37.9353C202.811 37.8669 203.258 37.7327 203.679 37.537C204.044 37.377 204.364 37.1316 204.612 36.8219C204.86 36.5123 205.028 36.1476 205.102 35.7593C205.176 35.3711 205.154 34.9707 205.038 34.5928C204.921 34.2149 204.713 33.8707 204.432 33.5898C203.939 33.101 203.346 32.7229 202.693 32.481C201.666 32.0847 200.62 31.7421 199.557 31.4547C198.583 31.1764 197.631 30.8286 196.708 30.414C194.533 29.3949 193.246 27.773 193.203 25.3221C193.152 22.742 194.203 20.7684 196.53 19.5304C198.166 18.7055 199.993 18.3218 201.826 18.418C203.686 18.4745 205.515 18.9093 207.198 19.6955C207.403 19.7613 207.578 19.8953 207.693 20.0746C207.809 20.2539 207.858 20.4674 207.833 20.6787C207.8 21.6978 207.833 22.7241 207.833 23.8006C207.405 23.7137 206.998 23.5442 206.636 23.3018C204.539 22.2735 202.15 21.9872 199.865 22.4908C199.324 22.5989 198.811 22.819 198.361 23.1367C196.991 24.1271 197.045 25.8962 198.481 26.7826C199.165 27.1616 199.896 27.4511 200.655 27.6438C201.627 27.9344 202.602 28.2072 203.555 28.505C204.412 28.7752 205.238 29.1362 206.017 29.5815C209.152 31.347 209.678 34.8027 209.108 37.0813C208.641 38.9616 207.343 40.196 205.647 41.0537C204.371 41.6881 202.964 42.0244 201.536 42.0369C199.064 42.1203 196.608 41.6106 194.377 40.5513C193.758 40.2535 193.453 39.891 193.504 39.1698C193.569 38.165 193.518 37.1674 193.518 36.1088Z" fill="white"/>
<path d="M112.167 60.772V50.3656C112.167 50.1359 112.167 49.9063 112.167 49.6766C112.161 49.6191 112.167 49.5609 112.186 49.506C112.205 49.4512 112.235 49.4011 112.276 49.3594C112.316 49.3176 112.365 49.2851 112.42 49.2643C112.475 49.2435 112.533 49.2348 112.591 49.2388H115.919C115.977 49.2326 116.036 49.2393 116.091 49.2586C116.146 49.2778 116.197 49.3091 116.238 49.3501C116.279 49.391 116.311 49.4407 116.33 49.4953C116.35 49.55 116.357 49.6082 116.35 49.6658C116.35 49.9242 116.35 50.1826 116.35 50.4374V67.0373C116.35 67.2383 116.35 67.4392 116.35 67.6402C116.372 68.383 116.379 68.4009 117.151 68.4045C120.225 68.4045 123.298 68.4045 126.369 68.4045C126.572 68.4045 126.775 68.4045 126.974 68.4045C127.605 68.4332 127.638 68.444 127.649 69.0253C127.649 69.9152 127.649 70.8195 127.649 71.6915C127.649 72.14 127.475 72.3266 127.036 72.3087C126.862 72.3087 126.674 72.3087 126.514 72.3087H113.305C113.073 72.3087 112.841 72.3087 112.61 72.2907C112.551 72.2951 112.493 72.2869 112.438 72.2668C112.384 72.2466 112.334 72.215 112.293 72.174C112.252 72.1331 112.221 72.0838 112.201 72.0296C112.181 71.9754 112.173 71.9176 112.178 71.8601C112.178 71.6209 112.178 71.3913 112.178 71.1712L112.167 60.772Z" fill="white"/>
<path d="M350.75 36.7727C350.864 36.7587 350.979 36.7692 351.087 36.8032C351.196 36.8373 351.296 36.8942 351.381 36.97C352.952 37.9834 354.844 38.3919 356.699 38.1183C358.112 37.9604 358.895 37.2607 359.236 35.8971C359.366 35.2487 359.418 34.5875 359.392 33.9271V19.821C359.392 18.54 359.392 18.6907 360.508 18.6835C361.32 18.6835 362.132 18.6835 362.944 18.6835C363.397 18.6835 363.578 18.8665 363.553 19.2935C363.553 19.4084 363.553 19.5232 363.553 19.6524C363.553 24.4728 363.553 29.2908 363.553 34.1065C363.574 35.1397 363.445 36.1706 363.169 37.1674C362.444 39.6434 360.82 41.1972 358.275 41.7821C356.024 42.2986 353.661 42.0325 351.584 41.0285C350.993 40.7558 350.692 40.4077 350.739 39.7116C350.805 38.7283 350.75 37.7559 350.75 36.7727Z" fill="white"/>
<path d="M310.932 36.8086C311.031 36.7706 311.139 36.7629 311.243 36.7866C311.346 36.8103 311.44 36.8642 311.512 36.9414C313.029 37.9261 314.847 38.3516 316.648 38.1435C318.356 37.9999 319.284 37.1423 319.487 35.4486C319.562 34.7658 319.597 34.0792 319.592 33.3924C319.592 29.0074 319.592 24.6224 319.592 20.2373C319.592 20.0364 319.592 19.8354 319.592 19.6345C319.592 18.6907 319.592 18.6871 320.56 18.6835C321.343 18.6835 322.122 18.6835 322.905 18.6835C323.688 18.6835 323.706 18.7015 323.728 19.5196V33.8733C323.75 34.8761 323.647 35.8778 323.42 36.8552C322.695 39.6793 320.86 41.3479 317.982 41.8575C315.885 42.235 313.72 41.9409 311.802 41.0178C311.186 40.7307 310.86 40.3826 310.914 39.6506C310.987 38.6997 310.932 37.7344 310.932 36.8086Z" fill="white"/>
<path d="M236.305 30.1306V19.9C236.305 19.6703 236.305 19.4407 236.305 19.211C236.305 18.8522 236.443 18.6799 236.816 18.6835C237.86 18.6835 238.904 18.6835 239.944 18.6835C240.325 18.6835 240.456 18.8737 240.452 19.2146C240.452 19.4156 240.452 19.6165 240.452 19.8175V40.6302C240.452 41.9077 240.452 41.7462 239.328 41.757C238.574 41.757 237.822 41.757 237.07 41.757C236.32 41.757 236.305 41.739 236.302 40.9675C236.302 39.2487 236.302 37.5298 236.302 35.811L236.305 30.1306Z" fill="white"/>
<path d="M280.205 30.1305C280.205 26.6905 280.205 23.2492 280.205 19.8067C280.205 19.5675 280.205 19.3378 280.205 19.1177C280.197 19.0602 280.203 19.0016 280.222 18.9467C280.24 18.8917 280.272 18.8416 280.313 18.8004C280.354 18.7592 280.404 18.7279 280.46 18.7089C280.515 18.6898 280.574 18.6836 280.632 18.6907H283.935C284.228 18.6907 284.351 18.8486 284.355 19.1213C284.359 19.394 284.355 19.5806 284.355 19.8067C284.355 26.7443 284.355 33.6819 284.355 40.6194C284.355 40.6769 284.355 40.7343 284.355 40.7917C284.355 41.7283 284.355 41.7319 283.398 41.7354C282.557 41.7354 281.716 41.7354 280.861 41.7354C280.205 41.7354 280.176 41.7031 280.172 41.0465C280.172 39.2953 280.172 37.5478 280.172 35.7966L280.205 30.1305Z" fill="white"/>
</g>
<defs>
<clipPath id="clip0_3572_122640">
<rect width="320.978" height="54.1778" fill="white" transform="translate(68.4888 18.4)"/>
</clipPath>
</defs>
</svg>
