<svg width="106" height="25" viewBox="0 0 106 25" fill="none" xmlns="http://www.w3.org/2000/svg">
<path fill-rule="evenodd" clip-rule="evenodd" d="M11.8411 4.34631H15.7192V12.331H11.8411V4.34631ZM14.7489 11.492C14.7449 11.4167 14.6261 11.3455 14.3963 11.2782C14.4954 11.2465 14.6102 11.2148 14.733 11.1832C14.5865 11.1634 14.4201 11.1753 14.23 11.2228C14.222 11.1792 14.2973 11.1278 14.4478 11.0565C14.2775 11.0763 14.123 11.1317 13.9844 11.2148C14.02 11.1317 14.0279 11.0486 14.0121 10.9575C13.9764 11.0723 13.8774 11.1555 13.711 11.203C13.6635 11.1515 13.6595 11.0763 13.6952 10.9734C13.608 11.0248 13.5447 11.1 13.505 11.199C13.3902 11.108 13.2555 11.0644 13.101 11.0723C13.1921 11.1119 13.2594 11.1673 13.2951 11.2386C13.0455 11.1832 12.8475 11.1832 12.7088 11.2386C12.792 11.2426 12.8673 11.2624 12.9267 11.294C12.8237 11.294 12.689 11.3296 12.5306 11.4009C12.998 11.3455 13.3624 11.3969 13.6199 11.5553C13.8853 11.3732 14.2616 11.3534 14.7489 11.492ZM14.3924 8.52293C14.5231 8.56252 14.6023 8.6892 14.5904 8.81984C14.5706 8.81984 14.5548 8.81984 14.535 8.81192C14.4637 8.804 14.3963 8.78421 14.3369 8.75254L14.3092 8.74858C14.2775 8.7565 14.2418 8.75254 14.2062 8.7367C14.1705 8.72483 14.1309 8.69712 14.0874 8.65753L14.0675 8.6417L14.0438 8.64961C13.9566 8.67732 13.8893 8.66545 13.8418 8.61794L13.8259 8.60211H13.8061C13.7625 8.60607 13.719 8.59815 13.6714 8.57836C13.6358 8.56648 13.5961 8.54273 13.5565 8.51106V8.5071C13.6318 8.40813 13.7586 8.36855 13.8774 8.40417C14.0557 8.30521 14.2775 8.35667 14.3924 8.52293ZM13.6001 8.87526C13.7744 8.99798 13.8616 9.07715 13.9368 9.24738C14.0279 9.12861 14.1309 9.06923 14.2537 9.06923C14.3845 9.09694 14.5152 9.02965 14.5667 8.91089C14.5582 8.91089 14.5508 8.90975 14.544 8.90869C14.5381 8.90778 14.5326 8.90693 14.5271 8.90693C14.4478 8.89901 14.3765 8.87922 14.3092 8.84359C14.2656 8.84755 14.222 8.84359 14.1745 8.82379C14.1349 8.80796 14.0913 8.78025 14.0477 8.74462C13.9447 8.77233 13.8616 8.7565 13.7942 8.69712C13.7427 8.69712 13.6912 8.68524 13.6397 8.66545C13.5961 8.64961 13.5565 8.62586 13.513 8.59419C13.4813 8.68524 13.4932 8.80004 13.6001 8.87526ZM14.5865 7.1849C14.7489 7.2324 14.8479 7.367 14.844 7.52138C14.7489 7.55305 14.6578 7.55701 14.5706 7.54118C14.4637 7.52138 14.3646 7.46992 14.2696 7.38283L14.2498 7.36304L14.222 7.37491C14.127 7.41846 14.0359 7.43033 13.9527 7.4145C13.8853 7.40262 13.8219 7.37095 13.7625 7.31949C13.818 7.24032 13.9091 7.1849 14.0121 7.16906C14.0794 7.07801 14.1903 7.02655 14.3052 7.03051C14.4201 7.03447 14.5271 7.09385 14.5865 7.1849ZM13.7229 7.40658C13.6833 7.53326 13.711 7.67973 13.8259 7.75495C13.8642 7.78012 13.904 7.80376 13.9432 7.82703C14.0582 7.89525 14.1679 7.96034 14.2181 8.05185C14.3013 7.9608 14.4043 7.88163 14.5073 7.86579C14.6697 7.83808 14.7925 7.75495 14.836 7.61639C14.741 7.64014 14.6499 7.6441 14.5627 7.62827C14.4478 7.60848 14.3409 7.55305 14.2379 7.46596C14.1349 7.50555 14.0359 7.51743 13.9408 7.49763C13.8655 7.4818 13.7942 7.44617 13.7269 7.39471C13.7269 7.39669 13.7259 7.39866 13.7249 7.40064C13.7239 7.40262 13.7229 7.4046 13.7229 7.40658ZM14.1666 5.92603C14.3092 5.8904 14.4518 5.96166 14.5152 6.0923C14.4716 6.10021 14.4241 6.10417 14.3845 6.0923H14.3607L14.3448 6.11209C14.2894 6.17939 14.1983 6.19522 14.0715 6.16355L14.0359 6.15563L14.02 6.19126C14.0002 6.23481 13.9725 6.26252 13.9408 6.2744C13.9051 6.28627 13.8616 6.28231 13.8061 6.25856L13.7704 6.24273L13.7506 6.2744C13.7308 6.30607 13.6991 6.34169 13.6595 6.37732L13.6595 6.37733C13.6318 6.40108 13.6041 6.42483 13.5724 6.44858C13.5672 6.43826 13.5654 6.42626 13.5637 6.41478C13.5628 6.40863 13.5619 6.40263 13.5605 6.39712C13.5447 6.27835 13.6358 6.15168 13.7388 6.08438C13.7586 5.99729 13.8219 5.92207 13.9091 5.8904C13.9962 5.85873 14.0913 5.87061 14.1666 5.92603ZM13.608 6.53963C13.6476 6.60693 13.719 6.65443 13.8338 6.65047C14.0438 6.6386 14.1626 6.66235 14.2458 6.8009C14.2379 6.67422 14.2696 6.56338 14.3488 6.51588C14.5033 6.42878 14.5627 6.3219 14.5389 6.18335C14.4954 6.19522 14.4439 6.19918 14.3924 6.19522C14.3211 6.27044 14.2141 6.29419 14.0794 6.26648C14.0517 6.31794 14.0121 6.34961 13.9646 6.36545C13.917 6.38128 13.8616 6.37732 13.8021 6.35753C13.7823 6.38524 13.7546 6.41691 13.7189 6.44858C13.6873 6.48025 13.6516 6.50796 13.608 6.53963ZM14.127 9.80159C14.23 9.80555 14.3448 9.91639 14.3369 10.0668C14.2498 10.0589 14.1666 10.047 14.0874 10.0312H14.0715C14.024 10.0391 13.9844 10.0391 13.9487 10.0272C13.917 10.0193 13.8893 9.99953 13.8695 9.97578L13.8536 9.95598L13.8299 9.95994C13.7348 9.97182 13.6595 9.95994 13.608 9.92035L13.5922 9.90848L13.5724 9.91244C13.5248 9.92431 13.4694 9.92431 13.4139 9.91244C13.3704 9.90056 13.3268 9.88473 13.2792 9.86097C13.3228 9.7145 13.4615 9.66304 13.6952 9.70658C13.8378 9.58782 14.0438 9.60762 14.127 9.80159ZM13.2634 9.94806C13.2317 10.1222 13.2753 10.241 13.4219 10.3004C13.5922 10.3914 13.6912 10.4785 13.7625 10.6725C13.8021 10.5498 13.8972 10.4667 14.0517 10.431C14.2181 10.4073 14.3607 10.2806 14.3448 10.1579C14.2498 10.15 14.1587 10.1381 14.0834 10.1183C14.024 10.1262 13.9725 10.1222 13.9289 10.1104C13.8853 10.0985 13.8497 10.0747 13.8219 10.047C13.7229 10.0589 13.6397 10.0431 13.5763 9.99953C13.5209 10.0114 13.4615 10.0074 13.3981 9.99557C13.3545 9.98765 13.3109 9.97182 13.2634 9.94806ZM13.4417 4.8176C13.5328 4.69488 13.6754 4.67904 13.7546 4.85718C13.6952 4.94032 13.6318 4.9997 13.5684 5.03137C13.4892 5.07887 13.406 5.0947 13.3149 5.08283L13.2515 5.07491L13.2594 5.13825C13.2713 5.20159 13.2436 5.26097 13.1842 5.31243C13.1287 5.3639 13.0455 5.40348 12.9346 5.42724C12.8593 5.38369 12.8197 5.29264 12.8435 5.20555C12.8712 5.0947 12.9821 5.03137 13.0891 5.05908C13.0851 4.97199 13.1287 4.88885 13.2 4.84135C13.2713 4.79384 13.3624 4.78197 13.4417 4.8176ZM12.994 5.51433C13.0059 5.62121 13.097 5.67267 13.2713 5.67663C13.4813 5.62517 13.6437 5.64496 13.7546 5.73205C13.7269 5.61725 13.7308 5.50245 13.7665 5.39161C13.9091 5.17388 13.9289 5.01553 13.8299 4.92448C13.7625 5.01553 13.6952 5.07491 13.6239 5.11846C13.5407 5.16596 13.4575 5.18575 13.3664 5.18575C13.3624 5.26097 13.3228 5.32827 13.2555 5.38765C13.1921 5.44307 13.1049 5.48662 12.994 5.51433Z" fill="white"/>
<path fill-rule="evenodd" clip-rule="evenodd" d="M11.5437 8.32113C11.4328 8.10736 11.3813 8.00048 11.3813 8.00048C9.21842 8.79618 6.90105 8.66158 4.4292 7.59669C4.43712 7.89359 4.44108 8.04007 4.44108 8.04007C4.80552 8.09549 4.98774 8.1232 4.98774 8.1232C5.43141 8.717 5.65324 9.01391 5.65324 9.01391C6.43362 8.99807 6.93671 9.03766 7.1625 9.13267C7.71312 9.32664 8.31524 9.31081 8.85002 9.08516C9.29764 8.9189 9.81261 8.88327 10.4028 8.97432C10.8901 8.54678 11.1357 8.33697 11.1357 8.33697C11.4051 8.32509 11.5437 8.32113 11.5437 8.32113ZM5.02736 9.91649C4.92436 9.99171 4.90059 10.0709 4.95605 10.154C5.68889 9.92441 6.30686 9.96004 6.88521 10.1501C7.52298 10.3599 8.18848 10.3836 8.74306 10.1144C9.0362 9.97587 9.51551 9.94024 10.1374 10.0392C10.5851 10.1105 10.9891 9.92441 11.3021 9.48895C10.8782 9.70272 10.5058 9.81356 10.2484 9.77794C9.55513 9.68293 9.06789 9.79377 8.69949 9.91253C7.98645 10.1421 7.4081 10.1025 6.97236 9.95608C6.21971 9.71064 5.5859 9.65522 5.02736 9.91649ZM5.03132 9.48103C5.48291 9.14058 6.14444 9.1485 7.02782 9.38998C7.68143 9.56812 8.37862 9.50479 9.02431 9.34248C9.46006 9.15246 9.93145 9.0812 10.4345 9.1683C10.7356 9.21976 11.0287 9.23559 11.3219 9.18017C11.1753 9.40186 10.9495 9.45332 10.6326 9.3979C9.99879 9.29102 9.53136 9.36227 9.22238 9.51666C8.59253 9.8294 7.96664 9.93232 7.38433 9.76606C6.3029 9.4652 5.44725 9.47707 4.79364 9.88482C4.70253 9.81752 4.77779 9.67501 5.03132 9.48103ZM9.78092 7.89755L9.63435 7.60065H9.84827L9.99483 7.89755H9.78092ZM9.82846 7.98464H10.0424L10.1889 8.28155H9.97503L9.82846 7.98464ZM7.96268 8.28551H7.74877L7.6022 7.9886H7.81612L7.96268 8.28551ZM8.28355 8.28551H8.06964L7.92307 7.9886H8.13698L8.28355 8.28551ZM8.60441 8.28551H8.3905L8.24394 7.9886H8.45785L8.60441 8.28551ZM8.92924 8.28551H8.71533L8.56876 7.9886H8.78267L8.92924 8.28551ZM9.22238 8.28551H9.00847L8.8619 7.9886H9.07581L9.22238 8.28551ZM9.54324 8.28551H9.32933L9.18277 7.9886H9.39668L9.54324 8.28551ZM9.71754 7.98464L9.86411 8.28155H9.6502L9.50363 7.98464H9.71754ZM9.31349 7.59669H9.5274L9.67397 7.89359H9.46006L9.31349 7.59669ZM8.98866 7.59669H9.20257L9.34914 7.89359H9.13523L8.98866 7.59669ZM8.6678 7.59669H8.88171L9.02827 7.89359H8.81436L8.6678 7.59669ZM8.37466 7.59669H8.58857L8.73514 7.89359H8.52123L8.37466 7.59669ZM8.05379 7.59669H8.2677L8.41427 7.89359H8.20036L8.05379 7.59669ZM7.72897 7.59669H7.94288L8.08945 7.89359H7.87553L7.72897 7.59669ZM7.76858 7.89755H7.55467L7.4081 7.60065H7.62201L7.76858 7.89755ZM8.18452 7.20874L8.33108 7.50564H8.545L8.39843 7.20874H8.18452ZM7.85969 7.20874H8.0736L8.22017 7.50564H8.00626L7.85969 7.20874ZM7.53882 7.20874L7.68539 7.50564H7.8993L7.75273 7.20874H7.53882ZM7.57448 7.5096H7.36057L7.214 7.2127H7.42791L7.57448 7.5096ZM7.04366 7.32354C7.34868 7.94506 7.50317 8.2578 7.50317 8.2578C7.50317 8.2578 7.13081 8.18258 6.38212 8.02819C6.82579 7.55711 7.04366 7.32354 7.04366 7.32354Z" fill="white"/>
<path fill-rule="evenodd" clip-rule="evenodd" d="M0.0871582 4.34631H3.96528V12.331H0.0871582V4.34631ZM2.76464 10.3591C2.77652 10.5847 2.62203 10.7826 2.4002 10.8222C2.39228 10.5966 2.54677 10.4026 2.76464 10.3591ZM2.41208 11.0518C2.42397 11.0281 2.44377 11.0083 2.46754 11.0043C2.55865 11.1587 2.71314 11.325 2.92705 11.4992C2.92705 11.4992 2.87159 11.5467 2.75672 11.6377C2.61807 11.5071 2.50319 11.3092 2.41208 11.0518ZM1.6634 10.8935C1.79808 11.1152 2.07537 11.1983 2.30909 11.0914C2.1744 10.8777 1.90107 10.7906 1.6634 10.8935ZM1.69112 10.4976C1.94069 10.4501 2.19025 10.5926 2.2774 10.8302C2.02784 10.8856 1.77431 10.7431 1.69112 10.4976ZM1.58021 10.078C1.64359 10.3274 1.88523 10.4897 2.13875 10.458C2.07141 10.2086 1.83373 10.0503 1.58021 10.078ZM1.47325 9.599C1.51287 9.85235 1.73866 10.0384 1.99615 10.0265C1.94861 9.77714 1.72678 9.59504 1.47325 9.599ZM1.56832 9.08833C1.81789 9.14771 1.98426 9.38127 1.96445 9.63463C1.71489 9.58316 1.54456 9.34564 1.56832 9.08833ZM1.61586 8.64099C1.58813 8.89831 1.75847 9.13187 2.01199 9.18729C2.02784 8.93394 1.86146 8.70037 1.61586 8.64099ZM1.63963 8.16595C1.88919 8.22533 2.05556 8.45889 2.03576 8.71225C1.7862 8.65683 1.61586 8.41931 1.63963 8.16595ZM1.63963 7.68695C1.6119 7.94426 1.78223 8.17783 2.03576 8.23325C2.05556 7.97989 1.88919 7.75029 1.63963 7.68695ZM1.78223 5.54925C1.73866 5.80261 1.89315 6.04805 2.14271 6.1193C2.17836 5.8699 2.02784 5.62842 1.78223 5.54925ZM1.77827 6.10347C2.00803 6.21827 2.11895 6.47954 2.04764 6.72102C1.81393 6.61414 1.69905 6.34495 1.77827 6.10347ZM1.67924 6.62997C1.63171 6.88333 1.7862 7.13273 2.0318 7.20399C2.07141 6.95459 1.92088 6.71311 1.67924 6.62997ZM1.65547 7.14461C1.90504 7.20399 2.07141 7.43755 2.0516 7.69091C1.79808 7.63548 1.62774 7.40192 1.65547 7.14461ZM2.5943 5.17713C2.62203 5.43445 2.45169 5.66801 2.20213 5.72739C2.18233 5.47008 2.3487 5.24047 2.5943 5.17713ZM2.74087 5.58488C2.48735 5.58488 2.26551 5.76698 2.2259 6.02034C2.48339 6.02825 2.70522 5.84219 2.74087 5.58488ZM2.57846 6.11138C2.58242 6.3687 2.38831 6.58643 2.13479 6.6181C2.13875 6.36474 2.32493 6.15097 2.57846 6.11138ZM2.5428 6.55476C2.29324 6.60622 2.11498 6.83187 2.12687 7.08522C2.38039 7.04168 2.55865 6.81207 2.5428 6.55476ZM2.56657 7.07335C2.58242 7.33066 2.40416 7.56027 2.15064 7.60381C2.13875 7.35046 2.31701 7.12877 2.56657 7.07335ZM2.51111 7.67111C2.53488 7.92843 2.36058 8.16199 2.11102 8.21345C2.09518 7.9601 2.26551 7.73049 2.51111 7.67111ZM2.56657 8.20158C2.31305 8.22929 2.11895 8.4391 2.1031 8.69246C2.36058 8.67266 2.56261 8.45889 2.56657 8.20158ZM2.53092 8.64099C2.54677 8.89831 2.36851 9.12395 2.11498 9.17146C2.1031 8.91414 2.28136 8.69246 2.53092 8.64099ZM2.51904 9.10416C2.26947 9.15562 2.09122 9.37731 2.1031 9.63463C2.35266 9.58712 2.53092 9.36148 2.51904 9.10416ZM2.5745 9.53962C2.59034 9.79693 2.41208 10.0226 2.15856 10.0701C2.14667 9.81277 2.32493 9.59108 2.5745 9.53962ZM2.58242 10.0305C2.36455 10.074 2.21006 10.272 2.21798 10.4937C2.43981 10.4541 2.5943 10.2561 2.58242 10.0305Z" fill="white"/>
<path fill-rule="evenodd" clip-rule="evenodd" d="M0.273438 0.0158348H0.934975H1.854C2.62249 0.0158348 3.25234 0.645268 3.25234 1.41325V1.49243C3.25234 2.26042 2.62249 2.88985 1.854 2.88985H0.934975V3.68951H0.273438V2.88985V0.0158348ZM0.994395 2.16541H1.854C2.2224 2.16541 2.52742 1.86059 2.52742 1.49243V1.41325C2.52742 1.0451 2.2224 0.740276 1.854 0.740276H0.994395V2.16541ZM11.3176 2.88985V0.0158348H11.9791H12.8981C13.6666 0.0158348 14.2965 0.645268 14.2965 1.41325V1.49243C14.2965 2.03081 13.9875 2.5019 13.5359 2.73546L13.9043 3.68951H13.1913L12.8783 2.88985H11.9791V3.68951H11.3176V2.88985V2.88985ZM12.0385 2.16541H12.8981C13.2665 2.16541 13.5715 1.86059 13.5715 1.49243V1.41325C13.5715 1.0451 13.2665 0.740276 12.8981 0.740276H12.0385V2.16541ZM14.962 0.0158348H15.6235V3.68951H14.962V0.0158348ZM5.41917 3.63408C6.2352 3.63408 6.89278 2.94131 6.89278 2.08227V0H6.25105V2.08227C6.25105 2.56524 5.87868 2.96111 5.41521 2.96111C4.9557 2.96111 4.57938 2.56919 4.57938 2.08227V0H3.94557V2.08227C3.94557 2.93735 4.60711 3.63408 5.41917 3.63408ZM9.51516 3.03632H8.73082C8.52483 3.03632 8.37827 2.87401 8.36242 2.6642H7.68108C7.69692 3.24613 8.16436 3.66575 8.73478 3.66575H9.66569C10.248 3.66575 10.7194 3.17883 10.7194 2.58107C10.7194 1.98331 10.1371 1.58744 9.55874 1.53597L8.7942 1.46868C8.57633 1.44888 8.33469 1.26282 8.33469 1.03718C8.33469 0.811533 8.51295 0.629433 8.73082 0.629433H9.66173C9.8796 0.629433 9.98656 0.859037 9.98656 1.08468H10.6679C10.6679 0.48692 10.1925 0 9.83999 0H8.47334C8.23962 0 7.68108 0.415663 7.68108 1.01343C7.68108 1.61119 8.18812 2.14165 9.21014 2.14561H9.44782C9.66569 2.14561 9.96279 2.33959 9.96279 2.57711C9.95883 2.97694 9.73303 3.03632 9.51516 3.03632Z" fill="white"/>
<path fill-rule="evenodd" clip-rule="evenodd" d="M0 4.22876H3.84247H11.9909H15.8333V12.2412V12.4668V17.0866C15.8333 21.4372 12.2721 25 7.91469 25C3.56121 25 0 21.4412 0 17.0866V12.4668V12.2412V4.22876ZM3.84247 4.45441H0.225794V12.2412H3.84247V4.45441ZM3.84247 12.4668H0.225794V17.0866C0.225794 21.3145 3.68797 24.7744 7.91865 24.7744C12.1493 24.7744 15.6115 21.3145 15.6115 17.0866V12.4668H11.9909V17.0866C11.9909 19.3193 10.1489 21.1562 7.91865 21.1562C5.68447 21.1601 3.84247 19.3193 3.84247 17.0866V12.4668ZM11.9909 12.2412H15.6075V4.45441H11.9869V12.2412H11.9909ZM4.06826 4.45441V12.2412H11.7651V4.45441H4.06826ZM4.06826 12.4668V17.0866C4.06826 19.1926 5.80727 20.9305 7.91469 20.9305C10.0221 20.9305 11.7611 19.1926 11.7611 17.0866V12.4668H4.06826Z" fill="white"/>
<path fill-rule="evenodd" clip-rule="evenodd" d="M11.9793 12.4651H3.84277V17.0888C3.84277 19.3255 5.6729 21.1544 7.91103 21.1544C10.1492 21.1544 11.9793 19.3255 11.9793 17.0888V12.4651ZM4.92023 15.197H4.56372V13.7402H5.21337C5.47086 13.7402 5.70853 13.8629 5.70853 14.2073C5.70853 14.5676 5.51443 14.7101 5.21337 14.7101H4.92023V15.197ZM5.15791 14.045H4.92023V14.4171H5.15791C5.26883 14.4171 5.34805 14.3657 5.34805 14.235C5.34805 14.1004 5.26883 14.045 5.15791 14.045ZM6.69886 13.7402H7.05538V14.5953C7.05538 15.0189 6.87316 15.2287 6.46118 15.2287C6.04921 15.2287 5.86699 15.0189 5.86699 14.5953V13.7402H6.2235V14.6151C6.2235 14.8051 6.28688 14.9001 6.46118 14.9001C6.63548 14.9001 6.69886 14.8011 6.69886 14.6151V13.7402ZM7.64957 15.197H7.29306V13.7402H7.94271C8.2002 13.7402 8.43787 13.8629 8.43787 14.2073C8.43787 14.5676 8.24377 14.7101 7.94271 14.7101H7.64957V15.197ZM7.88725 14.045H7.64957V14.4171H7.88725C7.99817 14.4171 8.07739 14.3657 8.07739 14.235C8.07739 14.1004 7.99817 14.045 7.88725 14.045ZM9.43216 13.7402H9.78868V14.5953C9.78868 15.0189 9.60646 15.2287 9.19448 15.2287C8.78251 15.2287 8.60029 15.0189 8.60029 14.5953V13.7402H8.95681V14.6151C8.95681 14.8051 9.02019 14.9001 9.19448 14.9001C9.36878 14.9001 9.43216 14.8011 9.43216 14.6151V13.7402ZM10.3789 15.197H10.0224V13.7402H10.3789V14.2984L10.8305 13.7402H11.2742L10.7671 14.3142L11.3376 15.197H10.8939L10.5255 14.5874L10.3789 14.7497V15.197ZM6.48496 15.7165H6.12844V16.5914C6.12844 16.7775 6.06506 16.8764 5.89076 16.8764C5.71647 16.8764 5.65309 16.7814 5.65309 16.5914V15.7165H5.29657V16.5716C5.29657 16.9952 5.47879 17.205 5.89076 17.205C6.30274 17.205 6.48496 16.9952 6.48496 16.5716V15.7165ZM6.72264 17.1733H7.07915V16.6429H7.34852C7.5149 16.6429 7.53867 16.7933 7.54659 16.9398C7.54727 16.9466 7.54796 16.9565 7.54879 16.9685C7.55275 17.0259 7.55999 17.1308 7.5862 17.1733H7.93876C7.89122 17.1219 7.8833 16.9081 7.8833 16.8447C7.87142 16.7062 7.82784 16.532 7.68523 16.4964V16.4924C7.82784 16.433 7.89914 16.2826 7.89914 16.1282C7.89914 15.8353 7.66147 15.7165 7.41983 15.7165H6.72264V17.1733ZM7.07915 16.0213H7.36437C7.4634 16.0213 7.54263 16.0688 7.54263 16.1797C7.54263 16.2905 7.48321 16.3499 7.37625 16.3499H7.07915V16.0213ZM8.10513 17.1733H9.2143V16.8487H8.46165V16.5716H9.13111V16.2787H8.46165V16.0253H9.19449V15.7165H8.10513V17.1733ZM9.96694 16.1203L10.1214 16.631H9.81245L9.96694 16.1203ZM9.27768 17.1733H9.64212L9.72927 16.912H10.2046L10.2878 17.1733H10.6602L10.1492 15.7165H9.78869L9.27768 17.1733ZM8.31166 17.9057C8.31166 17.8384 8.25621 17.783 8.18886 17.783C8.12152 17.783 8.06606 17.8384 8.06606 17.9057C8.06606 17.973 8.12152 18.0284 8.18886 18.0284C8.25621 18.0284 8.31166 17.973 8.31166 17.9057ZM8.37901 18.357C8.31166 18.357 8.25621 18.4124 8.25621 18.4797C8.25621 18.551 8.31166 18.6064 8.37901 18.6025C8.44635 18.6025 8.50181 18.547 8.50181 18.4797C8.50181 18.4124 8.44635 18.357 8.37901 18.357ZM7.99476 18.357C7.92742 18.357 7.87196 18.4124 7.87196 18.4797C7.87196 18.551 7.92742 18.6064 7.99476 18.6025C8.0621 18.6025 8.11756 18.547 8.11756 18.4797C8.11756 18.4124 8.0621 18.357 7.99476 18.357ZM8.06606 18.2858C8.06606 18.2185 8.12152 18.163 8.18886 18.163C8.25621 18.163 8.31166 18.2185 8.31166 18.2858C8.31166 18.3531 8.25621 18.4085 8.18886 18.4085C8.12152 18.4085 8.06606 18.3531 8.06606 18.2858ZM8.06606 18.6737C8.06606 18.6064 8.12152 18.551 8.18886 18.551C8.25621 18.551 8.31166 18.6064 8.31166 18.6737C8.31166 18.741 8.25621 18.7964 8.18886 18.7964C8.12152 18.7964 8.06606 18.741 8.06606 18.6737ZM8.66026 18.8281C8.66026 18.7608 8.6048 18.7054 8.53746 18.7054C8.47012 18.7054 8.41466 18.7608 8.41466 18.8281C8.41466 18.8954 8.47012 18.9508 8.53746 18.9508C8.6048 18.9508 8.66026 18.8954 8.66026 18.8281ZM7.96307 18.8281C7.96307 18.7608 7.90761 18.7054 7.84027 18.7054C7.76897 18.7054 7.71747 18.7608 7.71747 18.8281C7.71747 18.8954 7.77293 18.9508 7.84027 18.9508C7.90761 18.9508 7.96307 18.8954 7.96307 18.8281ZM7.96307 18.1314C7.96307 18.0641 7.90761 18.0087 7.84027 18.0087C7.76897 18.0087 7.71351 18.0641 7.71747 18.1314C7.71747 18.1987 7.77293 18.2541 7.84027 18.2541C7.90761 18.2541 7.96307 18.1987 7.96307 18.1314ZM8.66026 18.1314C8.66026 18.0641 8.6048 18.0087 8.53746 18.0087C8.47012 18.0087 8.41466 18.0641 8.41466 18.1314C8.41466 18.1987 8.47012 18.2541 8.53746 18.2541C8.6048 18.2541 8.66026 18.1987 8.66026 18.1314ZM8.31166 19.0537C8.31166 18.9865 8.25621 18.931 8.18886 18.931C8.12152 18.931 8.06606 18.9865 8.06606 19.0537C8.06606 19.121 8.12152 19.1765 8.18886 19.1765C8.25621 19.1765 8.31166 19.121 8.31166 19.0537ZM7.73728 18.4797C7.73728 18.4124 7.68182 18.357 7.61447 18.357C7.54713 18.357 7.49167 18.4124 7.49167 18.4797C7.49167 18.547 7.54713 18.6025 7.61447 18.6025C7.68182 18.6025 7.73728 18.547 7.73728 18.4797ZM8.88605 18.4797C8.88605 18.4124 8.83059 18.357 8.76325 18.357C8.69591 18.357 8.64045 18.4124 8.64045 18.4797C8.64045 18.547 8.69591 18.6025 8.76325 18.6025C8.83059 18.6025 8.88605 18.547 8.88605 18.4797Z" fill="white"/>
<path fill-rule="evenodd" clip-rule="evenodd" d="M7.22079 23.7049L7.42282 23.7247L7.49809 22.9408L6.89201 22.8815L6.86824 23.119L7.1891 23.1507C7.14949 23.3486 7.01877 23.4515 6.81278 23.4278C6.52757 23.4001 6.44438 23.1467 6.46815 22.9052C6.49191 22.6519 6.62264 22.4183 6.91181 22.446C7.06234 22.4618 7.17326 22.5569 7.19306 22.7192L7.49809 22.7508C7.49412 22.4183 7.23268 22.2085 6.93558 22.1808C6.48795 22.1372 6.19085 22.446 6.14728 22.8775C6.10767 23.2971 6.33742 23.6574 6.78505 23.7009C6.9237 23.7128 7.07819 23.6732 7.20099 23.5426L7.22079 23.7049ZM4.52711 22.8617L5.13319 21.5355L5.42236 21.6661L5.56893 22.8063H5.57289L5.97694 21.9195L6.25027 22.0422L5.64419 23.3684L5.35106 23.2338L5.20449 22.0976H5.20053L4.79647 22.9844L4.52711 22.8617ZM3.10896 21.7176L3.3506 21.9353L3.65166 21.773L4.05571 22.1372L3.92103 22.45L4.16663 22.6717L4.74102 21.2267L4.49938 21.005L3.10896 21.7176ZM4.37262 21.3851L4.15078 21.9076L3.86953 21.6543L4.37262 21.3851ZM2.23747 20.4587L3.46151 19.6749L3.83388 20.2529C3.98441 20.4865 4.00817 20.6923 3.78238 20.8388C3.66354 20.914 3.54074 20.91 3.41794 20.8348C3.46944 21.013 3.40606 21.1594 3.25157 21.2584C3.002 21.4168 2.76036 21.2742 2.61776 21.0526L2.23747 20.4587ZM2.95447 20.3796L3.14461 20.6725C3.21987 20.7873 3.21987 20.8982 3.09311 20.9773C2.96635 21.0605 2.87128 20.9892 2.80394 20.8823L2.61776 20.5933L2.95447 20.3796ZM3.42586 20.0787L3.14065 20.2608L3.31495 20.534C3.37437 20.629 3.46548 20.6725 3.56847 20.6052C3.68335 20.53 3.65166 20.4271 3.58828 20.3281L3.42586 20.0787ZM1.5482 18.4913L1.62743 18.7803L2.60983 18.5071V18.5111L1.7225 19.1286L1.78984 19.3661L2.8792 19.4334V19.4374L1.88491 19.7145L1.96414 20.0035L3.36644 19.6116L3.24364 19.1761L2.1939 19.1365V19.1326L3.06538 18.5348L2.94258 18.0994L1.5482 18.4913ZM1.41748 16.9078L1.42936 18.0123L1.69873 18.0083L1.69081 17.2245L2.04733 17.2205L2.05525 17.9252L2.30481 17.9212L2.29293 17.2205L2.60587 17.2166L2.61379 17.9846L2.88316 17.9806L2.87128 16.892L1.41748 16.9078ZM1.4254 15.6608V16.6901H1.69477V15.9815H2.88316V15.6608H1.4254ZM2.52268 14.8216V14.8255L1.98791 15.0076V14.6315L2.52268 14.8216ZM1.4254 14.109V14.4336L1.75023 14.5484V15.0908L1.4254 15.2016V15.5341L2.88316 14.9918V14.6632L1.4254 14.109ZM2.6336 13.242V13.4914C2.6336 13.6419 2.60191 13.7725 2.41573 13.7725C2.22955 13.7725 2.19786 13.6419 2.19786 13.4914V13.242H2.6336ZM1.4254 12.9214V13.242H1.9483V13.5785C1.9483 13.9427 2.17805 14.0813 2.41573 14.0813C2.65341 14.0813 2.88316 13.9388 2.88316 13.5785V12.9214H1.4254Z" fill="white"/>
<path fill-rule="evenodd" clip-rule="evenodd" d="M14.5144 14.3186V13.9306L14.253 13.8396V13.3329L14.5144 13.2418V12.8459L13.0566 13.3883V13.7723L14.5144 14.3186ZM13.4607 13.5823V13.5783L13.9717 13.416V13.7446L13.4607 13.5823Z" fill="white"/>
<path d="M14.5144 14.4452H13.0566V14.8252H14.5144V14.4452Z" fill="white"/>
<path fill-rule="evenodd" clip-rule="evenodd" d="M13.9987 16.2341C14.371 16.2301 14.5176 15.9372 14.5176 15.6007C14.5176 15.28 14.3988 14.9673 14.0304 14.9673C13.7689 14.9673 13.6699 15.1811 13.6105 15.3909C13.5511 15.6046 13.5312 15.8144 13.4203 15.8144C13.3253 15.8144 13.2975 15.7115 13.2975 15.6323C13.2975 15.5175 13.3411 15.3909 13.4718 15.3988V15.0187C13.143 15.0227 13.0044 15.3117 13.0044 15.6007C13.0044 15.8738 13.1272 16.1945 13.4481 16.1945C13.7135 16.1945 13.8085 15.9767 13.868 15.7669C13.9274 15.5571 13.9511 15.3473 14.0819 15.3473C14.1888 15.3473 14.2324 15.4661 14.2324 15.5809C14.2324 15.7432 14.1769 15.8461 14.0066 15.858V16.2341H13.9987Z" fill="white"/>
<path fill-rule="evenodd" clip-rule="evenodd" d="M14.4875 17.541L14.4915 16.3613H14.1627V17.1649L13.8854 17.161V16.4484H13.5922V17.161H13.3387V16.3811H13.0337V17.541H14.4875Z" fill="white"/>
<path fill-rule="evenodd" clip-rule="evenodd" d="M14.2529 19.1882L14.3123 18.8359L13.4171 18.6855V18.6815L14.3995 18.3371L14.4668 17.9531L13.0289 17.7037L12.9694 18.0561L13.8528 18.2065V18.2144L12.8823 18.5588L12.8149 18.9428L14.2529 19.1882Z" fill="white"/>
<path fill-rule="evenodd" clip-rule="evenodd" d="M12.7276 20.5933C13.0921 20.8031 13.516 20.7477 13.7417 20.3518C13.9715 19.956 13.8091 19.564 13.4446 19.3503C13.0802 19.1405 12.6563 19.1959 12.4305 19.5918C12.2008 19.9876 12.3632 20.3795 12.7276 20.5933ZM12.9178 20.2647C12.7316 20.1578 12.589 19.9678 12.7118 19.7541C12.8346 19.5403 13.0683 19.568 13.2545 19.6749C13.4407 19.7818 13.5833 19.9718 13.4605 20.1856C13.3417 20.3993 13.104 20.3716 12.9178 20.2647Z" fill="white"/>
<path fill-rule="evenodd" clip-rule="evenodd" d="M12.2368 22.2922L12.6686 21.8409C12.9736 21.5202 12.9736 21.1481 12.629 20.8196C12.3042 20.5068 11.9239 20.5147 11.6149 20.8393L11.1831 21.2906L12.2368 22.2922ZM11.6822 21.2392L11.805 21.1085C11.9833 20.9225 12.1734 20.9066 12.3675 21.0887C12.5775 21.2906 12.5814 21.449 12.3873 21.6628L12.2645 21.7934L11.6822 21.2392Z" fill="white"/>
<path fill-rule="evenodd" clip-rule="evenodd" d="M10.6957 23.2696L11.0086 23.1033L10.5768 22.3037L10.5808 22.2997L11.4602 22.8579L11.8009 22.6718L11.1076 21.3932L10.7947 21.5634L11.2225 22.3512L11.2186 22.3551L10.3471 21.8049L10.0024 21.9909L10.6957 23.2696Z" fill="white"/>
<path d="M9.88981 22.0304L9.51831 22.1117L9.82998 23.5348L10.2015 23.4536L9.88981 22.0304Z" fill="white"/>
<path fill-rule="evenodd" clip-rule="evenodd" d="M8.57574 23.7042C8.48463 23.7042 8.40541 23.6369 8.34599 23.5814C8.28657 23.5221 8.25092 23.4429 8.25092 23.3518V22.7937C8.17961 22.7382 8.00136 22.7224 8.01324 22.7382C8.02512 22.6432 8.13604 22.6036 8.25884 22.6393C8.26676 22.6155 8.27468 22.5918 8.28657 22.568C8.20734 22.4611 8.0885 22.4017 8.00928 22.3978C8.17169 22.3503 8.28261 22.3503 8.36579 22.382C8.43314 22.1999 8.48067 22.1999 8.57574 22.0692C8.67081 22.1999 8.71835 22.1999 8.78569 22.382C8.86888 22.3503 8.97979 22.3503 9.14221 22.3978C9.06298 22.4017 8.94414 22.4651 8.86492 22.568C8.8768 22.5918 8.88472 22.6155 8.89264 22.6393C9.01544 22.6036 9.12636 22.6432 9.13824 22.7382C9.15013 22.7264 8.97187 22.7422 8.90057 22.7937V23.3518C8.90057 23.4389 8.86492 23.5221 8.8055 23.5814C8.74608 23.6369 8.66685 23.7042 8.57574 23.7042ZM8.57574 22.4651C8.44106 22.5165 8.39352 22.5838 8.39352 22.7145V23.3518C8.39352 23.4231 8.44502 23.4627 8.57574 23.4627C8.70646 23.4627 8.75796 23.4191 8.75796 23.3518V22.7145C8.75796 22.5838 8.71043 22.5165 8.57574 22.4651Z" fill="white"/>
<g clip-path="url(#clip0_3572_122532)">
<path d="M70.7271 7.03208C70.6405 7.09937 70.6375 7.19883 70.6099 7.28366C70.1962 8.5344 69.7848 9.78645 69.3757 11.0398C69.3563 11.0909 69.3395 11.143 69.3255 11.1958C69.2989 11.3196 69.2191 11.3489 69.1009 11.347C68.8251 11.3411 68.5493 11.3401 68.2735 11.347C68.2236 11.3539 68.1728 11.3415 68.1318 11.3125C68.0907 11.2835 68.0625 11.24 68.0529 11.1909C67.9317 10.8009 67.8027 10.4196 67.6766 10.0345C67.1677 8.46517 66.6581 6.90044 66.1479 5.34027C66.1149 5.2696 66.0971 5.19288 66.0957 5.11502C66.1469 5.06041 66.2129 5.07991 66.273 5.07991C66.5242 5.07991 66.7763 5.07991 67.0285 5.07991C67.2432 5.07991 67.2462 5.07991 67.3072 5.27493C67.4642 5.77419 67.6188 6.27345 67.7712 6.7727C68.043 7.65095 68.3156 8.52855 68.5887 9.4055C68.6019 9.49357 68.6356 9.57738 68.6872 9.65026C68.7471 9.57933 68.7857 9.49317 68.7985 9.4016C69.2424 8.054 69.6847 6.70542 70.1253 5.35587C70.1352 5.32662 70.144 5.29639 70.1549 5.26713C70.2218 5.07211 70.2218 5.07211 70.4159 5.07211C70.6099 5.07211 70.8256 5.07991 71.0305 5.07211C71.0573 5.06768 71.0846 5.06856 71.111 5.07473C71.1374 5.08089 71.1623 5.0922 71.1842 5.108C71.2061 5.1238 71.2247 5.14377 71.2387 5.16674C71.2527 5.18971 71.262 5.21522 71.2659 5.24178C71.4206 5.72934 71.5841 6.21689 71.7446 6.70932C72.0428 7.61943 72.3419 8.52953 72.642 9.43963C72.6627 9.50302 72.6627 9.58005 72.7474 9.62881C72.7924 9.56838 72.8221 9.49816 72.834 9.42403L74.1096 5.34027C74.1254 5.28859 74.1421 5.23593 74.1589 5.18425C74.1643 5.15327 74.1808 5.12527 74.2054 5.10539C74.2301 5.08551 74.2611 5.07508 74.2928 5.07601H75.3202C75.3396 5.1522 75.3298 5.23282 75.2926 5.30224C74.6622 7.23816 74.0315 9.17343 73.4004 11.108C73.3187 11.3596 73.3541 11.3401 73.0764 11.3421C72.8321 11.3421 72.5839 11.3343 72.3435 11.3421C72.315 11.3466 72.2858 11.3455 72.2577 11.3388C72.2296 11.3321 72.2031 11.3198 72.1798 11.3029C72.1565 11.2859 72.1368 11.2645 72.122 11.2399C72.1072 11.2153 72.0974 11.1881 72.0933 11.1597C71.8559 10.4089 71.6077 9.66098 71.3644 8.9121C71.1753 8.33353 70.9865 7.75529 70.7981 7.17738C70.7856 7.12435 70.7613 7.07474 70.7271 7.03208V7.03208Z" fill="white"/>
<path d="M44.019 15.969C44.0909 15.9206 44.1495 15.8553 44.1894 15.7788C44.7065 15.0446 45.2276 14.3113 45.7378 13.5712C45.7757 13.5039 45.8327 13.4491 45.9016 13.4135C45.9705 13.3778 46.0485 13.3628 46.1259 13.3703C46.4086 13.3839 46.6923 13.3771 46.9759 13.3703C47.0961 13.3703 47.1503 13.42 47.1434 13.538C47.1434 13.5848 47.1434 13.6355 47.1434 13.6784V19.3341C47.1434 19.6451 47.1434 19.6451 46.837 19.6461C46.6243 19.6461 46.4115 19.6461 46.1988 19.6461C46.0254 19.6461 46.0175 19.6295 46.0106 19.4511C46.0106 19.3897 46.0106 19.3272 46.0106 19.2648C46.0106 17.9562 46.0106 16.6473 46.0106 15.3381C46.0245 15.249 46.0147 15.1579 45.9821 15.0738C45.8954 15.0923 45.8678 15.1713 45.8274 15.2289C45.2916 15.9823 44.7567 16.7361 44.2229 17.4901C44.1695 17.588 44.0948 17.6729 44.0042 17.7388C43.3728 16.8495 42.7414 15.9621 42.0982 15.0553C42.0492 15.1346 42.0317 15.2291 42.049 15.3205C42.049 16.6525 42.049 17.9852 42.049 19.3185C42.049 19.6442 42.0953 19.6539 41.718 19.652C41.521 19.652 41.324 19.652 41.127 19.652C40.93 19.652 40.9222 19.6432 40.9172 19.4345V13.6619C40.9172 13.3791 40.9172 13.3781 41.2009 13.3771C41.4452 13.3771 41.6934 13.3849 41.9328 13.3771C42.0062 13.3693 42.0804 13.3827 42.1463 13.4158C42.2122 13.4489 42.267 13.5001 42.3041 13.5634C42.8094 14.2976 43.3246 15.026 43.8377 15.7525C43.8866 15.8334 43.9477 15.9065 44.019 15.969V15.969Z" fill="white"/>
<path d="M65.7067 17.9514C65.7407 17.8666 65.7513 17.7744 65.7372 17.6842C65.7372 16.3437 65.7372 15.0033 65.7372 13.6628C65.7372 13.3771 65.7372 13.3762 66.0199 13.3703C66.2474 13.3703 66.476 13.3703 66.7045 13.3703C66.8217 13.3703 66.8828 13.4161 66.8709 13.538C66.8709 13.577 66.8709 13.616 66.8709 13.655V19.3594C66.8709 19.6442 66.8709 19.6451 66.5882 19.6461C66.344 19.6461 66.0957 19.6364 65.8554 19.6461C65.7777 19.6552 65.6989 19.6416 65.6289 19.607C65.5589 19.5723 65.5007 19.5181 65.4614 19.4511C64.833 18.5452 64.1957 17.6452 63.5604 16.7442C63.1867 16.2137 62.8128 15.6833 62.4385 15.1528C62.4079 15.1089 62.3882 15.0553 62.3173 15.029C62.2582 15.0992 62.2828 15.1869 62.2828 15.2649C62.2828 16.6138 62.2828 17.9621 62.2828 19.3097C62.2828 19.6549 62.3341 19.6461 61.9341 19.6461C61.7293 19.6461 61.5244 19.6461 61.3205 19.6461C61.2033 19.6461 61.1422 19.6022 61.1501 19.4803C61.1501 19.4423 61.1501 19.4023 61.1501 19.3633V13.6589C61.1501 13.3732 61.1501 13.3722 61.4318 13.3664C61.6761 13.3664 61.9243 13.3771 62.1646 13.3664C62.2493 13.3571 62.3349 13.3726 62.4108 13.4111C62.4866 13.4496 62.5493 13.5094 62.5911 13.5829C63.5637 14.9734 64.5411 16.3603 65.5235 17.7437C65.5636 17.8286 65.6271 17.9006 65.7067 17.9514V17.9514Z" fill="white"/>
<path d="M52.3945 16.3591C52.4452 16.4026 52.5041 16.4358 52.5678 16.4566C53.2416 16.794 53.544 17.3771 53.4277 18.1143C53.3036 18.9051 52.8003 19.3946 51.9424 19.5662C51.6173 19.6235 51.2875 19.6499 50.9574 19.6452C50.2728 19.652 49.5873 19.6452 48.9017 19.6452C48.8702 19.6452 48.8387 19.6452 48.8032 19.6452C48.6259 19.6374 48.6151 19.6267 48.6062 19.4599C48.6062 19.4131 48.6062 19.3624 48.6062 19.3195V13.6902C48.6062 13.3743 48.6062 13.3704 48.9322 13.3743C49.7114 13.3831 50.4925 13.344 51.2706 13.3987C51.705 13.4208 52.1242 13.5638 52.4802 13.8111C53.1066 14.2558 53.2061 15.1763 52.9776 15.6892C52.8817 15.8953 52.7363 16.0751 52.5541 16.2128C52.5028 16.2557 52.429 16.2752 52.3945 16.3591ZM50.6146 16.9159C50.3585 16.9159 50.1467 16.9159 49.934 16.9159C49.7439 16.9159 49.732 16.9266 49.7311 17.1109C49.7271 17.5621 49.7271 18.0135 49.7311 18.4653C49.7311 18.6604 49.7449 18.6691 49.9527 18.6711C50.3299 18.6711 50.7082 18.6779 51.0854 18.6711C51.3139 18.6735 51.5411 18.6372 51.7572 18.5638C52.1512 18.4175 52.3367 18.125 52.3137 17.6862C52.297 17.3166 52.0882 17.0865 51.6754 16.9822C51.6065 16.9656 51.5366 16.9559 51.4666 16.9451C51.1837 16.9145 50.8989 16.9051 50.6146 16.9169V16.9159ZM50.5535 15.933V15.9271C50.7811 15.9271 51.0096 15.9388 51.2361 15.9271C51.5159 15.9076 51.7592 15.8062 51.8872 15.5371C51.9431 15.4292 51.9734 15.3101 51.9756 15.1888C51.9779 15.0676 51.9522 14.9474 51.9004 14.8375C51.8486 14.7277 51.7721 14.6309 51.6768 14.5548C51.5815 14.4786 51.4698 14.4251 51.3504 14.3981C51.2291 14.3645 51.104 14.3461 50.9781 14.3435C50.6245 14.3435 50.2708 14.3435 49.9182 14.3435C49.7488 14.3435 49.735 14.3552 49.733 14.5103C49.7278 14.9296 49.7278 15.3492 49.733 15.7691C49.733 15.9232 49.7498 15.933 49.9172 15.9359C50.129 15.9369 50.3418 15.9339 50.5535 15.9339V15.933Z" fill="white"/>
<path d="M63.0776 11.3441C62.6836 11.3441 62.2896 11.3441 61.8956 11.3441C61.7676 11.3441 61.7213 11.2573 61.6641 11.1744C61.2652 10.5952 60.8683 10.015 60.4674 9.4368C60.2142 9.07114 60.3176 9.14427 59.8823 9.13159C59.7247 9.13159 59.5671 9.13159 59.4105 9.13159C59.2213 9.13159 59.2135 9.14329 59.2135 9.33539C59.2135 9.89608 59.2135 10.4568 59.2135 11.0175C59.2135 11.0799 59.2135 11.1423 59.2135 11.2047C59.2135 11.3022 59.1652 11.3431 59.0687 11.3422C58.7929 11.3422 58.5171 11.3422 58.2413 11.3422C58.1349 11.3422 58.0778 11.3061 58.0837 11.194C58.0837 11.1393 58.0837 11.0847 58.0837 11.0301V5.40179C58.0837 5.36279 58.0837 5.32378 58.0837 5.28478C58.0896 5.08196 58.0896 5.07806 58.2994 5.07708C59.0943 5.07708 59.8901 5.06928 60.685 5.08196C61.2209 5.08976 61.7311 5.21165 62.1734 5.53441C62.3128 5.63682 62.4348 5.76059 62.5349 5.90105C62.7053 6.14253 62.8195 6.41843 62.8693 6.70886C62.919 6.99929 62.9031 7.29704 62.8227 7.58065C62.7422 7.86426 62.5992 8.12668 62.404 8.349C62.2088 8.57133 61.9662 8.74802 61.6937 8.86636C61.6799 8.87221 61.6641 8.87611 61.6503 8.88294C61.4849 8.95315 61.4819 8.9551 61.5883 9.11014C61.7961 9.4134 62.0079 9.71373 62.2177 10.015C62.4909 10.4051 62.7637 10.7951 63.0362 11.1852C63.0556 11.2064 63.0695 11.2319 63.0767 11.2596C63.0839 11.2873 63.0842 11.3163 63.0776 11.3441V11.3441ZM59.2085 7.09556C59.2085 7.35982 59.2085 7.62407 59.2085 7.88833C59.2085 8.11065 59.2085 8.11358 59.4292 8.11553C59.8064 8.11553 60.1837 8.11553 60.5609 8.11553C60.7578 8.11597 60.9536 8.08772 61.1421 8.03167C61.2381 8.00815 61.3282 7.96549 61.4069 7.9063C61.4857 7.84712 61.5514 7.77265 61.6001 7.68745C61.6914 7.51436 61.7399 7.32233 61.7418 7.12708C61.7437 6.93183 61.6989 6.73891 61.6109 6.56412C61.543 6.43036 61.4302 6.32417 61.2918 6.26379C61.171 6.20672 61.0416 6.1695 60.9086 6.1536C60.3915 6.0873 59.8724 6.1341 59.3543 6.12045C59.2381 6.12045 59.2075 6.17993 59.2085 6.28134C59.2095 6.54657 59.2085 6.81863 59.2085 7.09556Z" fill="white"/>
<path d="M78.7195 8.20519V5.47488C78.7195 5.41247 78.7195 5.35006 78.7195 5.28766C78.7254 5.08581 78.7264 5.08191 78.9382 5.08093C79.6552 5.08093 80.3713 5.08093 81.0884 5.08093C81.475 5.08362 81.8583 5.15257 82.2211 5.28473C83.1451 5.62309 83.6317 6.31835 83.8208 7.24178C83.9647 7.9313 83.9536 8.64372 83.7883 9.32852C83.5174 10.447 82.7245 11.1461 81.5691 11.2982C81.2957 11.3327 81.0202 11.3486 80.7446 11.346C80.1783 11.346 79.6109 11.346 79.0445 11.346C78.7185 11.346 78.7185 11.3889 78.7185 11.034V8.20617L78.7195 8.20519ZM79.8522 8.21104V9.427C79.8522 9.66786 79.8522 9.90968 79.8522 10.1515C79.8522 10.2617 79.8857 10.329 80.0128 10.328C80.4541 10.328 80.8993 10.3524 81.3356 10.3066C82.101 10.2266 82.5472 9.81412 82.7058 9.06914C82.7503 8.84742 82.7753 8.6223 82.7806 8.39631C82.8106 7.94445 82.7565 7.49098 82.621 7.05846C82.5518 6.8414 82.4268 6.64587 82.2583 6.491C82.0897 6.33614 81.8835 6.22725 81.6597 6.17501C81.5085 6.13086 81.3523 6.10596 81.1948 6.1009C80.8323 6.1009 80.4698 6.09212 80.1113 6.09212C79.8641 6.09212 79.8591 6.09797 79.8581 6.34078C79.8512 6.96387 79.8522 7.58794 79.8522 8.21104Z" fill="white"/>
<path d="M73.297 17.6384C73.297 18.0977 73.297 18.558 73.297 19.0172C73.3035 19.0668 73.2927 19.117 73.2664 19.1596C73.24 19.2022 73.1997 19.2345 73.1522 19.2513C72.2214 19.655 71.2561 19.8305 70.2475 19.654C69.1866 19.4677 68.4873 18.8563 68.1987 17.8237C67.9627 16.9855 67.9576 16.1 68.1839 15.2592C68.4794 14.1427 69.226 13.5147 70.3735 13.3489C71.26 13.2202 72.113 13.3694 72.9463 13.6697C72.9928 13.6783 73.0344 13.7035 73.0631 13.7406C73.0918 13.7777 73.1057 13.824 73.102 13.8706C73.097 14.1037 73.102 14.3377 73.102 14.5717C73.102 14.7082 73.0754 14.7238 72.9454 14.6741C72.596 14.5329 72.233 14.4277 71.8619 14.3601C71.4277 14.2795 70.983 14.271 70.5459 14.3348C69.9382 14.4323 69.5284 14.7599 69.3304 15.3411C69.2392 15.6233 69.1875 15.9166 69.1768 16.2128C69.1542 16.5712 69.1724 16.931 69.2309 17.2854C69.3935 18.2011 69.8604 18.634 70.7922 18.7208C71.2251 18.7519 71.6602 18.715 72.0815 18.6116C72.1085 18.6092 72.1347 18.6014 72.1584 18.5886C72.1822 18.5758 72.2031 18.5583 72.2197 18.5372C72.2363 18.516 72.2484 18.4917 72.2551 18.4658C72.2619 18.4398 72.2631 18.4128 72.2588 18.3863C72.2519 18.0051 72.2588 17.6228 72.2588 17.2416C72.2588 17.0524 72.2529 17.0465 72.0539 17.0465C71.6915 17.0465 71.329 17.0465 70.9704 17.0465C70.7646 17.0465 70.7626 17.0417 70.7606 16.834C70.7587 16.6263 70.7606 16.4439 70.7606 16.2489C70.7606 16.0743 70.7695 16.0685 70.9576 16.0656C71.194 16.0656 71.4304 16.0656 71.6668 16.0656H73.037C73.3128 16.0656 73.3137 16.0656 73.3147 16.3298C73.298 16.7657 73.297 17.2016 73.297 17.6384Z" fill="white"/>
<path d="M44.5421 7.67467C44.6364 7.6081 44.72 7.5279 44.7903 7.43674C45.4532 6.70639 46.119 5.97408 46.777 5.24372C46.8226 5.1864 46.8815 5.14092 46.9488 5.11119C47.016 5.08146 47.0896 5.06838 47.1631 5.07308C47.564 5.0838 47.9649 5.07308 48.3599 5.07308C48.4052 5.15596 48.3412 5.18326 48.3077 5.21837C47.5565 6.02641 46.8039 6.83413 46.0501 7.64152C46.0176 7.67662 45.9861 7.71075 45.9516 7.74488C45.9399 7.75548 45.9306 7.76836 45.9242 7.78271C45.9178 7.79706 45.9145 7.81257 45.9145 7.82825C45.9145 7.84393 45.9178 7.85944 45.9242 7.87379C45.9306 7.88814 45.9399 7.90103 45.9516 7.91162L46.0974 8.09494L48.5303 11.109C48.5786 11.1695 48.6288 11.2319 48.6692 11.2904C48.6298 11.3645 48.5707 11.3401 48.5185 11.3401C48.1875 11.3401 47.8566 11.3333 47.5256 11.345C47.4559 11.3495 47.3863 11.3357 47.3238 11.3049C47.2613 11.274 47.2083 11.2273 47.17 11.1695C46.5603 10.3894 45.9427 9.60929 45.3281 8.8292C45.2798 8.76777 45.2296 8.71024 45.1636 8.63418C45.0129 8.74827 44.9144 8.90136 44.7794 9.01252C44.5549 9.20072 44.4889 9.42695 44.5027 9.71363C44.5243 10.1729 44.5096 10.6332 44.5076 11.0934C44.5076 11.344 44.5076 11.345 44.2426 11.346C44.0062 11.346 43.7698 11.346 43.5334 11.346C43.4261 11.346 43.3699 11.3099 43.3758 11.1977C43.3758 11.1431 43.3758 11.0885 43.3758 11.0339V5.39974C43.3758 5.34513 43.3758 5.29052 43.3758 5.23592C43.367 5.11208 43.43 5.07405 43.5462 5.076C43.8063 5.076 44.0663 5.076 44.3263 5.076C44.4948 5.076 44.4987 5.08575 44.5076 5.24665C44.5076 5.30125 44.5076 5.35586 44.5076 5.41046C44.5076 6.07256 44.5076 6.73467 44.5076 7.39774C44.494 7.49144 44.5059 7.58704 44.5421 7.67467V7.67467Z" fill="white"/>
<path d="M35.5845 16.5112V13.6834C35.5845 13.621 35.5845 13.5595 35.5845 13.4971C35.583 13.4815 35.585 13.4657 35.5904 13.4509C35.5957 13.4361 35.6043 13.4226 35.6155 13.4115C35.6266 13.4003 35.6402 13.3917 35.6551 13.3863C35.67 13.3809 35.6859 13.3788 35.7017 13.3801C35.7569 13.3801 35.8111 13.3752 35.8662 13.3752H39.5275C39.5747 13.3752 39.626 13.3752 39.6693 13.3752C39.7776 13.3752 39.8259 13.4211 39.8239 13.5303C39.8239 13.7565 39.8239 13.9827 39.8239 14.208C39.8239 14.3679 39.8121 14.3767 39.6427 14.3786C39.2576 14.3786 38.8715 14.3786 38.4853 14.3786C37.982 14.3786 37.4777 14.3786 36.9744 14.3786C36.7232 14.3786 36.7212 14.3786 36.7202 14.6195C36.7202 14.993 36.7202 15.3674 36.7202 15.7409C36.7202 15.9749 36.7202 15.9768 36.9556 15.9778C37.6451 15.9778 38.3248 15.9778 39.0103 15.9778C39.0734 15.9778 39.1364 15.9778 39.1995 15.9778C39.4033 15.9827 39.4053 15.9846 39.4083 16.1923C39.4112 16.4 39.4083 16.6136 39.4083 16.8232C39.4083 17.0329 39.4004 17.0329 39.1926 17.0329C38.5159 17.0329 37.8382 17.0329 37.1615 17.0329C37.0827 17.0329 37.0039 17.0329 36.9251 17.0329C36.7281 17.0387 36.7281 17.0426 36.7212 17.2279C36.7212 17.578 36.7212 17.929 36.7212 18.2791C36.7212 18.3571 36.7212 18.4351 36.7212 18.5131C36.718 18.5288 36.7188 18.545 36.7234 18.5604C36.728 18.5757 36.7364 18.5897 36.7478 18.6011C36.7592 18.6125 36.7733 18.6209 36.7887 18.6256C36.8042 18.6303 36.8206 18.6312 36.8365 18.6282H37.0256H39.5294C39.5925 18.6282 39.6545 18.6282 39.7176 18.6282C39.7309 18.6281 39.7441 18.6308 39.7564 18.636C39.7687 18.6412 39.7798 18.6488 39.789 18.6584C39.7982 18.668 39.8054 18.6793 39.81 18.6917C39.8147 18.7041 39.8167 18.7173 39.8161 18.7306C39.8161 18.9958 39.8161 19.26 39.8161 19.5253C39.8168 19.539 39.8146 19.5527 39.8096 19.5655C39.8046 19.5783 39.7969 19.5899 39.787 19.5996C39.7772 19.6093 39.7653 19.6168 39.7524 19.6216C39.7394 19.6264 39.7255 19.6285 39.7117 19.6277C39.6486 19.6335 39.5856 19.6345 39.5225 19.6345H35.7953C35.5983 19.6267 35.5855 19.6199 35.5855 19.4161C35.5835 18.4533 35.5832 17.485 35.5845 16.5112Z" fill="white"/>
<path d="M95.0003 11.344C94.6418 11.344 94.2951 11.344 93.9494 11.344C93.8361 11.344 93.8046 11.2719 93.773 11.1899C93.6627 10.9065 93.5527 10.6231 93.4431 10.3397C93.4086 10.2519 93.3781 10.1632 93.3446 10.0773C93.2461 9.83162 93.2924 9.83844 92.99 9.83844C92.2571 9.83844 91.5246 9.83844 90.7925 9.83844C90.5304 9.83844 90.5482 9.80529 90.4408 10.0822C90.3197 10.3952 90.2015 10.7092 90.0773 11.0213C89.9237 11.4045 89.9956 11.3372 89.6154 11.343C89.3406 11.343 89.0648 11.343 88.8018 11.343C88.7866 11.3164 88.7793 11.2861 88.7807 11.2556C88.7821 11.2251 88.7921 11.1956 88.8097 11.1704C89.6036 9.19617 90.3971 7.22027 91.1904 5.24275C91.2055 5.18707 91.2407 5.13882 91.2894 5.10718C91.338 5.07553 91.3968 5.0627 91.4544 5.07113C91.7371 5.0799 92.0217 5.0838 92.3044 5.07113C92.4699 5.06235 92.5388 5.12963 92.595 5.27298C93.0284 6.36022 93.4697 7.44455 93.908 8.52887C94.2501 9.37397 94.5912 10.2191 94.9314 11.0642C94.9832 11.1481 95.0073 11.2459 95.0003 11.344V11.344ZM92.8028 8.80873C92.7831 8.60688 92.0148 6.60108 91.8937 6.41288C91.7666 6.58255 90.9806 8.62541 90.9737 8.80873H92.8028Z" fill="white"/>
<path d="M105.833 11.3431C105.462 11.3431 105.108 11.3431 104.755 11.3431C104.651 11.3431 104.626 11.2709 104.597 11.1978L104.18 10.1301C104.161 10.0784 104.138 10.0325 104.122 9.97696C104.091 9.86775 104.017 9.83752 103.909 9.8385C103.114 9.8385 102.318 9.8385 101.522 9.8385C101.468 9.83324 101.413 9.84793 101.369 9.87976C101.325 9.9116 101.295 9.95835 101.283 10.0111C101.144 10.3914 100.995 10.7688 100.847 11.1461C100.77 11.3411 100.768 11.3411 100.561 11.346C100.298 11.346 100.038 11.346 99.7804 11.346C99.718 11.3588 99.653 11.3481 99.5982 11.3158C99.5972 11.2304 99.6208 11.1466 99.6661 11.074C100.442 9.14909 101.219 7.22455 101.997 5.30033C102.086 5.07995 102.086 5.07995 102.317 5.07898H103.097C103.333 5.07898 103.334 5.07898 103.421 5.2935C103.858 6.37132 104.294 7.44915 104.729 8.52697C105.07 9.37207 105.412 10.2172 105.753 11.0623C105.799 11.1494 105.826 11.245 105.833 11.3431V11.3431ZM102.743 6.40708L102.675 6.41391C102.371 7.20667 102.053 7.99456 101.756 8.79805C102.115 8.85266 103.47 8.83511 103.651 8.77172C103.348 7.98318 103.045 7.19497 102.743 6.40708Z" fill="white"/>
<path d="M59.6942 19.651C59.5602 19.651 59.4253 19.6442 59.2923 19.651C59.2338 19.6589 59.1745 19.6444 59.1264 19.6105C59.0783 19.5767 59.045 19.5259 59.0333 19.4687C58.8924 19.0884 58.7427 18.711 58.5949 18.3327C58.5171 18.1376 58.5161 18.1328 58.3083 18.1318H56.0162C55.8074 18.1318 55.8054 18.1318 55.7286 18.3327C55.5838 18.7032 55.4331 19.0728 55.3001 19.4462C55.2479 19.5935 55.1731 19.6598 55.0096 19.652C54.7426 19.6403 54.4747 19.652 54.2068 19.652C54.0216 19.652 54.0098 19.6344 54.0817 19.4618C54.4166 18.6291 54.7528 17.797 55.0903 16.9656C55.5316 15.8734 55.9699 14.7803 56.4142 13.6882C56.5501 13.3528 56.4733 13.3791 56.8879 13.3772C57.1165 13.3772 57.346 13.3889 57.5774 13.3772C57.7567 13.3645 57.8237 13.4552 57.8808 13.6005C58.2512 14.5288 58.6274 15.4532 59.0008 16.3805C59.4013 17.3712 59.8016 18.3622 60.2015 19.3536C60.2192 19.3975 60.2369 19.4404 60.2527 19.4843C60.3049 19.6325 60.297 19.6491 60.1473 19.6549C59.9976 19.6608 59.8518 19.6549 59.6981 19.6549L59.6942 19.651ZM57.1608 14.7014C57.1084 14.7547 57.074 14.8228 57.0623 14.8964C56.8042 15.5568 56.5478 16.217 56.293 16.8768C56.2782 16.9129 56.2644 16.949 56.2516 16.986C56.2162 17.0835 56.2516 17.1362 56.356 17.1362C56.8899 17.1362 57.4248 17.1362 57.9586 17.1362C58.0877 17.1362 58.1034 17.1011 58.065 16.9714C58.0522 16.9275 58.0325 16.8837 58.0158 16.8407C57.7702 16.2011 57.5242 15.562 57.278 14.9237C57.2604 14.8403 57.2198 14.7634 57.1608 14.7014V14.7014Z" fill="white"/>
<path d="M26.4822 13.3753C26.6162 13.3753 26.7511 13.385 26.8841 13.3753C27.0545 13.3606 27.1363 13.4328 27.1964 13.5869C27.4603 14.2626 27.7361 14.9345 28.008 15.6073C28.5163 16.8645 29.0235 18.1228 29.5298 19.3819C29.6382 19.6491 29.6372 19.6501 29.3565 19.6511C29.1201 19.6511 28.8837 19.6511 28.6473 19.6511C28.4266 19.6511 28.4246 19.6511 28.3429 19.4366C28.1981 19.066 28.0474 18.6964 27.9134 18.323C27.9012 18.2622 27.8662 18.2082 27.8153 18.1721C27.7645 18.1359 27.7017 18.1201 27.6396 18.128C26.8674 18.1345 26.0955 18.1345 25.3239 18.128C25.2617 18.1205 25.199 18.1364 25.1482 18.1726C25.0973 18.2087 25.0619 18.2623 25.0491 18.323C24.9102 18.7033 24.7536 19.0787 24.6147 19.459C24.6021 19.5196 24.5669 19.5732 24.5162 19.6093C24.4655 19.6454 24.4029 19.6614 24.3409 19.654C24.0661 19.6443 23.7903 19.654 23.5145 19.6491C23.346 19.6491 23.3342 19.6277 23.3972 19.4697C23.6691 18.7969 23.9429 18.1241 24.2108 17.4512C24.7283 16.1712 25.2451 14.8906 25.7612 13.6093C25.8597 13.3772 25.8597 13.3772 26.1001 13.3753H26.4783H26.4822ZM26.4763 14.7014C26.4429 14.7246 26.4197 14.7594 26.4113 14.7989C26.1375 15.5043 25.8643 16.2096 25.5918 16.9149C25.5169 17.1099 25.5307 17.1314 25.7386 17.1333C26.2311 17.1333 26.7314 17.1333 27.2269 17.1333H27.3254C27.3973 17.1333 27.4239 17.0914 27.4022 17.0241C27.3884 16.9793 27.3717 16.9354 27.3549 16.8915C27.0975 16.2213 26.8401 15.5514 26.5827 14.8818C26.5581 14.8184 26.5532 14.7414 26.4763 14.7014Z" fill="white"/>
<path d="M24.2956 7.19298V5.39487C24.2956 5.33246 24.2956 5.27006 24.2956 5.20765C24.2956 5.12477 24.332 5.07698 24.4236 5.07796H25.2993C25.3899 5.07796 25.4244 5.12672 25.4254 5.2096C25.4263 5.29248 25.4254 5.35002 25.4254 5.42022C25.4254 6.5026 25.4254 7.5853 25.4254 8.66832C25.4171 8.9488 25.4483 9.22906 25.5179 9.50106C25.5664 9.70788 25.674 9.8965 25.8279 10.0444C25.9818 10.1922 26.1755 10.293 26.3857 10.3348C26.7779 10.4283 27.1872 10.4246 27.5776 10.3241C27.7746 10.2795 27.9556 10.1822 28.1007 10.043C28.2459 9.90375 28.3498 9.72779 28.401 9.53422C28.4668 9.30937 28.4977 9.07593 28.4926 8.84189C28.4926 7.68931 28.4926 6.5364 28.4926 5.38317C28.4926 5.05456 28.4788 5.07698 28.7999 5.07698C29.0275 5.07698 29.256 5.07698 29.4894 5.07698C29.5879 5.07698 29.6352 5.11794 29.6323 5.21545C29.6323 5.26226 29.6323 5.31296 29.6323 5.35587C29.6323 6.46099 29.6323 7.56612 29.6323 8.67124C29.6365 8.97539 29.6034 9.27892 29.5338 9.57517C29.2767 10.6156 28.5212 11.2699 27.4456 11.386C27.0543 11.4337 26.6579 11.4212 26.2705 11.3489C25.249 11.149 24.5812 10.4869 24.3773 9.47473C24.3229 9.19946 24.2958 8.91956 24.2966 8.63906C24.2936 8.16028 24.2956 7.68053 24.2956 7.19298Z" fill="white"/>
<path d="M40.8867 7.18716C40.8867 6.5878 40.8867 5.98778 40.8867 5.38711C40.8867 5.3221 40.8867 5.25969 40.8867 5.19989C40.8867 5.1287 40.9163 5.07898 40.997 5.07898H41.8954C41.9111 5.07725 41.9271 5.07907 41.9421 5.08431C41.957 5.08954 41.9706 5.09806 41.9818 5.10922C41.9929 5.12037 42.0014 5.13388 42.0066 5.14874C42.0118 5.16359 42.0135 5.17941 42.0116 5.19501C42.0116 5.24962 42.0116 5.30423 42.0116 5.35883C42.0116 6.47371 42.0116 7.58793 42.0116 8.70151C42.0141 8.95101 41.9924 9.20016 41.9466 9.44552C41.7437 10.5454 40.9754 11.2514 39.8525 11.386C39.4612 11.437 39.0643 11.4265 38.6764 11.3548C37.6392 11.1529 36.9733 10.4957 36.7645 9.4699C36.7137 9.2015 36.6903 8.92872 36.6946 8.65568C36.6946 7.55706 36.6946 6.45811 36.6946 5.35883C36.6946 5.07702 36.6946 5.07702 36.9802 5.07605H37.5712C37.8244 5.07605 37.8244 5.07605 37.8273 5.33835V8.70541C37.8178 8.96267 37.8427 9.22005 37.9012 9.47087C37.9483 9.68611 38.0582 9.88294 38.2171 10.037C38.3761 10.1911 38.5772 10.2956 38.7956 10.3377C39.1651 10.4245 39.55 10.4245 39.9195 10.3377C40.4858 10.2032 40.8 9.82386 40.868 9.19687C40.8848 9.035 40.8867 8.8702 40.8877 8.70931C40.8887 8.2003 40.8867 7.69422 40.8867 7.18716Z" fill="white"/>
<path d="M18.6111 16.515V13.7126C18.6111 13.6502 18.6111 13.5878 18.6111 13.5253C18.6111 13.4278 18.6475 13.3781 18.747 13.3771C18.7628 13.3771 18.7785 13.3771 18.7943 13.3771C19.6512 13.3859 20.5092 13.3498 21.3671 13.3986C21.611 13.4149 21.851 13.4671 22.0792 13.5536C22.8436 13.8374 23.2415 14.401 23.3263 15.1899C23.365 15.5 23.3446 15.8145 23.2662 16.1172C23.0475 16.9207 22.487 17.3478 21.6902 17.5155C21.4112 17.5663 21.1276 17.5876 20.8441 17.5789C20.5486 17.5789 20.2619 17.5789 19.9704 17.5789C19.7488 17.5789 19.7448 17.5838 19.7438 17.8002C19.7438 18.3141 19.7438 18.828 19.7438 19.3419C19.7438 19.4043 19.7438 19.4667 19.7438 19.5291C19.7458 19.5447 19.7443 19.5605 19.7392 19.5754C19.7342 19.5903 19.7258 19.6039 19.7147 19.6152C19.7037 19.6264 19.6902 19.635 19.6752 19.6404C19.6603 19.6458 19.6444 19.6477 19.6286 19.6461C19.3298 19.6461 19.0307 19.6461 18.7313 19.6461C18.7155 19.6475 18.6996 19.6454 18.6847 19.64C18.6698 19.6346 18.6564 19.626 18.6452 19.6148C18.6341 19.6036 18.6257 19.5901 18.6204 19.5753C18.6152 19.5605 18.6134 19.5447 18.615 19.5291C18.615 19.4641 18.615 19.4017 18.615 19.3419L18.6111 16.515ZM19.7458 15.4814C19.7458 15.774 19.7458 16.0733 19.7458 16.3688C19.7458 16.5638 19.7537 16.5696 19.9428 16.5706C20.3053 16.5706 20.6668 16.5765 21.0263 16.5706C21.2311 16.5693 21.4345 16.5364 21.6291 16.4731C21.7818 16.429 21.9174 16.3402 22.0181 16.2184C22.1189 16.0965 22.18 15.9474 22.1935 15.7905C22.2098 15.6592 22.2157 15.5269 22.2112 15.3946C22.1955 14.8037 21.9276 14.517 21.3346 14.4342C21.302 14.4295 21.2691 14.4268 21.2361 14.4264C20.7958 14.4264 20.3565 14.4156 19.9162 14.4166C19.7586 14.4166 19.7428 14.4351 19.7409 14.596C19.7428 14.8964 19.7458 15.1889 19.7458 15.4814Z" fill="white"/>
<path d="M30.9993 8.20226V5.42222C30.9993 5.35981 30.9993 5.29741 30.9993 5.235C30.9905 5.11116 31.0545 5.06825 31.1707 5.07703C31.1934 5.07703 31.218 5.07703 31.2417 5.07703H33.4609C33.7525 5.07596 34.0427 5.11803 34.3217 5.20184C35.0851 5.43099 35.553 5.92928 35.6919 6.71131C35.762 7.08793 35.7468 7.47524 35.6475 7.84537C35.5797 8.11519 35.4485 8.36538 35.2647 8.57564C35.0809 8.78589 34.8497 8.95028 34.5897 9.05548C34.2249 9.20464 33.8339 9.28086 33.4392 9.27975C33.1013 9.28658 32.7625 9.27975 32.4246 9.27975C32.136 9.27975 32.135 9.27976 32.135 9.55571C32.135 10.0433 32.135 10.5367 32.135 11.0272C32.135 11.0818 32.135 11.1364 32.135 11.191C32.141 11.2992 32.0907 11.3431 31.9804 11.3421C31.7053 11.3382 31.4298 11.3382 31.154 11.3421C31.0427 11.3421 30.9964 11.2963 31.0003 11.188C31.0003 11.1266 31.0003 11.0642 31.0003 11.0018L30.9993 8.20226ZM32.135 7.18522C32.135 7.47288 32.135 7.76053 32.135 8.04819C32.135 8.25686 32.135 8.26076 32.3439 8.26174C32.729 8.26174 33.1141 8.26174 33.4993 8.26174C33.6884 8.25921 33.8757 8.22424 34.0528 8.15838C34.1805 8.11601 34.2947 8.04136 34.3842 7.94181C34.4737 7.84226 34.5354 7.72128 34.5631 7.59086C34.6015 7.41578 34.6134 7.23603 34.5985 7.05748C34.568 6.50556 34.3306 6.23936 33.777 6.14868C33.2767 6.06774 32.7723 6.12137 32.27 6.10772C32.1459 6.10772 32.1341 6.1828 32.1341 6.27739C32.136 6.5787 32.135 6.88196 32.135 7.18522Z" fill="white"/>
<path d="M18.6111 8.2072V5.40375C18.6111 5.33452 18.6111 5.26431 18.6111 5.19411C18.6079 5.17841 18.6086 5.16217 18.6133 5.14682C18.6179 5.13148 18.6263 5.1175 18.6377 5.10612C18.6491 5.09475 18.6631 5.08633 18.6786 5.08161C18.694 5.07688 18.7104 5.076 18.7263 5.07904H18.8682H21.0401C21.3402 5.0773 21.6389 5.11935 21.9266 5.20386C22.755 5.45056 23.214 6.00735 23.3223 6.84789C23.3578 7.11884 23.3498 7.39363 23.2987 7.66211C23.1529 8.4227 22.7008 8.9122 21.9601 9.14623C21.6511 9.23963 21.3296 9.28599 21.0066 9.28372C20.652 9.28372 20.2984 9.28372 19.9438 9.28372C19.7527 9.28372 19.7468 9.29055 19.7468 9.47874C19.7468 9.99263 19.7468 10.5065 19.7468 11.0204C19.7468 11.0828 19.7468 11.1452 19.7468 11.2076C19.7468 11.2905 19.7133 11.3393 19.6227 11.3393H18.749C18.6623 11.3393 18.616 11.3032 18.616 11.2154C18.616 11.153 18.616 11.0906 18.616 11.0282L18.6111 8.2072ZM19.7448 7.1765C19.7448 7.46904 19.7448 7.76742 19.7448 8.06288C19.7448 8.25791 19.7537 8.26473 19.9418 8.2657C20.3358 8.2657 20.7298 8.26571 21.1238 8.26083C21.2969 8.25772 21.4684 8.22778 21.6321 8.17209C21.7855 8.12866 21.9219 8.04014 22.0234 7.91826C22.1249 7.79638 22.1866 7.64688 22.2004 7.48952C22.2314 7.28132 22.2314 7.06974 22.2004 6.86155C22.1858 6.71326 22.1277 6.57245 22.0331 6.45652C21.9386 6.34058 21.8118 6.2546 21.6685 6.2092C21.5874 6.1797 21.5036 6.15783 21.4183 6.14386C20.911 6.06098 20.3988 6.10973 19.8886 6.09803C19.7694 6.09803 19.7468 6.16434 19.7478 6.26185C19.7458 6.56999 19.7448 6.87325 19.7448 7.1765V7.1765Z" fill="white"/>
<path d="M52.5864 9.81221C52.6731 9.82991 52.7548 9.86619 52.8258 9.9185C53.4746 10.3035 54.2425 10.4421 54.9868 10.3085C55.1117 10.2899 55.2331 10.2535 55.3474 10.2003C55.4465 10.1568 55.5336 10.0901 55.6009 10.006C55.6683 9.92184 55.7141 9.82275 55.7342 9.71724C55.7544 9.61173 55.7483 9.50294 55.7166 9.40025C55.6849 9.29755 55.6285 9.20402 55.5522 9.12768C55.4183 8.99486 55.257 8.89211 55.0794 8.82637C54.8006 8.71869 54.5162 8.62561 54.2274 8.54749C53.9628 8.47188 53.704 8.37737 53.4532 8.26471C52.8622 7.98778 52.5125 7.54703 52.5007 6.88103C52.4869 6.17992 52.7726 5.64361 53.4049 5.3072C53.8495 5.08305 54.3458 4.97879 54.844 5.00491C55.3495 5.02026 55.8464 5.13842 56.3038 5.35205C56.3593 5.36993 56.4069 5.40635 56.4383 5.45508C56.4698 5.50381 56.4831 5.56183 56.4762 5.61923C56.4673 5.89616 56.4762 6.17505 56.4762 6.46758C56.3599 6.44396 56.2494 6.39791 56.1511 6.33204C55.5812 6.05259 54.9319 5.97482 54.3111 6.11167C54.1639 6.14103 54.0246 6.20084 53.9024 6.28718C53.53 6.55631 53.5448 7.03704 53.9349 7.2779C54.1208 7.38089 54.3195 7.45955 54.5259 7.51192C54.7898 7.59091 55.0548 7.66502 55.3139 7.74595C55.5468 7.81938 55.771 7.91746 55.9827 8.03849C56.8347 8.51824 56.9775 9.45727 56.8229 10.0765C56.6958 10.5874 56.3432 10.9229 55.8822 11.1559C55.5354 11.3283 55.1533 11.4197 54.7652 11.4231C54.0934 11.4457 53.426 11.3072 52.8199 11.0194C52.6514 10.9385 52.5687 10.84 52.5825 10.644C52.6002 10.371 52.5864 10.0999 52.5864 9.81221Z" fill="white"/>
<path d="M30.4802 16.5141V13.6863C30.4802 13.6239 30.4802 13.5615 30.4802 13.4991C30.4784 13.4835 30.4801 13.4676 30.4852 13.4527C30.4903 13.4378 30.4986 13.4242 30.5096 13.4129C30.5206 13.4015 30.534 13.3927 30.5488 13.3871C30.5637 13.3814 30.5796 13.379 30.5954 13.3801H31.4996C31.5154 13.3784 31.5314 13.3803 31.5464 13.3855C31.5614 13.3907 31.5751 13.3992 31.5863 13.4104C31.5976 13.4215 31.6061 13.435 31.6114 13.4498C31.6167 13.4647 31.6186 13.4805 31.6169 13.4962C31.6169 13.5664 31.6169 13.6366 31.6169 13.7058V18.2167C31.6169 18.2713 31.6169 18.3259 31.6169 18.3805C31.6228 18.5823 31.6247 18.5872 31.8345 18.5882C32.6698 18.5882 33.5048 18.5882 34.3394 18.5882C34.3945 18.5882 34.4497 18.5882 34.5039 18.5882C34.6753 18.596 34.6841 18.5989 34.6871 18.7569C34.6871 18.9987 34.6871 19.2444 34.6871 19.4814C34.6871 19.6033 34.6398 19.654 34.5206 19.6491C34.4733 19.6491 34.4221 19.6491 34.3788 19.6491H30.7895C30.7264 19.6491 30.6634 19.6491 30.6003 19.6442C30.5846 19.6454 30.5687 19.6432 30.5539 19.6377C30.539 19.6322 30.5256 19.6237 30.5144 19.6125C30.5033 19.6014 30.4947 19.588 30.4893 19.5733C30.4839 19.5586 30.4818 19.5428 30.4831 19.5272C30.4831 19.4622 30.4831 19.3998 30.4831 19.34L30.4802 16.5141Z" fill="white"/>
<path d="M95.3126 9.99255C95.3434 9.98877 95.3746 9.9916 95.4042 10.0009C95.4338 10.0101 95.461 10.0256 95.484 10.0462C95.9109 10.3216 96.425 10.4326 96.929 10.3582C97.3131 10.3153 97.5259 10.1252 97.6185 9.75463C97.6537 9.57844 97.6679 9.39876 97.6608 9.21929V5.38613C97.6608 5.03802 97.6608 5.07897 97.9642 5.07702C98.1849 5.07702 98.4055 5.07702 98.6261 5.07702C98.7493 5.07702 98.7985 5.12675 98.7916 5.24279C98.7916 5.27399 98.7916 5.3052 98.7916 5.3403C98.7916 6.6502 98.7916 7.95945 98.7916 9.26805C98.7973 9.54883 98.7621 9.82896 98.6872 10.0998C98.4902 10.7726 98.0489 11.1949 97.3575 11.3538C96.7456 11.4942 96.1036 11.4219 95.5392 11.149C95.3786 11.0749 95.2969 10.9803 95.3097 10.7912C95.3274 10.524 95.3126 10.2597 95.3126 9.99255Z" fill="white"/>
<path d="M84.4924 10.0023C84.5192 9.99198 84.5487 9.9899 84.5768 9.99634C84.6049 10.0028 84.6304 10.0174 84.65 10.0384C85.0621 10.306 85.5561 10.4216 86.0457 10.3651C86.5096 10.326 86.7618 10.093 86.8169 9.63274C86.8373 9.4472 86.8468 9.26064 86.8455 9.07401C86.8455 7.88242 86.8455 6.69084 86.8455 5.49925C86.8455 5.44464 86.8455 5.39004 86.8455 5.33543C86.8455 5.07898 86.8455 5.078 87.1085 5.07703C87.3213 5.07703 87.533 5.07703 87.7458 5.07703C87.9586 5.07703 87.9635 5.0819 87.9694 5.30423V9.20467C87.9756 9.47717 87.9474 9.74937 87.8857 10.015C87.6887 10.7824 87.1903 11.2358 86.4082 11.3743C85.8381 11.4769 85.2498 11.397 84.7288 11.1461C84.5613 11.0681 84.4727 10.9735 84.4874 10.7746C84.5071 10.5162 84.4924 10.2539 84.4924 10.0023Z" fill="white"/>
<path d="M64.2134 8.18765V5.40761C64.2134 5.3452 64.2134 5.28279 64.2134 5.22038C64.2134 5.12287 64.2508 5.07607 64.3523 5.07704C64.6359 5.07704 64.9196 5.07704 65.2023 5.07704C65.3057 5.07704 65.3412 5.12872 65.3402 5.22136C65.3402 5.27596 65.3402 5.33057 65.3402 5.38518V11.0408C65.3402 11.388 65.3402 11.3441 65.0349 11.347C64.83 11.347 64.6254 11.347 64.4212 11.347C64.2173 11.347 64.2134 11.3421 64.2124 11.1325C64.2124 10.6654 64.2124 10.1983 64.2124 9.73125L64.2134 8.18765Z" fill="white"/>
<path d="M76.1427 8.18767C76.1427 7.25286 76.1427 6.31773 76.1427 5.38227C76.1427 5.31727 76.1427 5.25486 76.1427 5.19505C76.1406 5.17942 76.1422 5.16351 76.1472 5.14857C76.1523 5.13362 76.1608 5.12003 76.172 5.10883C76.1833 5.09763 76.1969 5.08912 76.212 5.08395C76.227 5.07878 76.2431 5.0771 76.2589 5.07902H77.1562C77.236 5.07902 77.2695 5.12192 77.2705 5.19603C77.2714 5.27014 77.2705 5.32084 77.2705 5.38227C77.2705 7.26749 77.2705 9.1527 77.2705 11.0379C77.2705 11.0535 77.2705 11.0691 77.2705 11.0847C77.2705 11.3392 77.2705 11.3402 77.0104 11.3412C76.7819 11.3412 76.5534 11.3412 76.3209 11.3412C76.1427 11.3412 76.1348 11.3324 76.1338 11.154C76.1338 10.6781 76.1338 10.2032 76.1338 9.72737L76.1427 8.18767Z" fill="white"/>
</g>
<defs>
<clipPath id="clip0_3572_122532">
<rect width="87.2222" height="14.7222" fill="white" transform="translate(18.6111 5)"/>
</clipPath>
</defs>
</svg>
