<svg width="106" height="25" viewBox="0 0 106 25" fill="none" xmlns="http://www.w3.org/2000/svg">
<g clip-path="url(#clip0_3562_70170)">
<path fill-rule="evenodd" clip-rule="evenodd" d="M0 4.22803H15.8333V17.0863C15.8333 21.4371 12.2721 25 7.91469 25C3.56121 25 0 21.441 0 17.0863V4.22803Z" fill="#FBDE16"/>
<path fill-rule="evenodd" clip-rule="evenodd" d="M3.84253 12.4663H11.979V17.0902C11.979 19.327 10.1489 21.1559 7.91079 21.1559C5.67265 21.1559 3.84253 19.327 3.84253 17.0902V12.4663Z" fill="#025BA1"/>
<path d="M3.96528 4.3468H0.0871582V12.3318H3.96528V4.3468Z" fill="#025BA1"/>
<path d="M15.7184 4.3468H11.8403V12.3318H15.7184V4.3468Z" fill="#025BA1"/>
<path fill-rule="evenodd" clip-rule="evenodd" d="M14.3953 11.2787C14.6251 11.346 14.7439 11.4173 14.7479 11.4925C14.2606 11.354 13.8843 11.3738 13.6189 11.5559C13.3614 11.3975 12.997 11.346 12.5295 11.4015C12.688 11.3302 12.8227 11.2946 12.9257 11.2946C12.8663 11.2629 12.791 11.2431 12.7078 11.2392C12.8464 11.1837 13.0445 11.1837 13.2941 11.2392C13.2584 11.1679 13.1911 11.1125 13.1 11.0729C13.2545 11.065 13.3891 11.1085 13.504 11.1996C13.5436 11.1006 13.607 11.0254 13.6942 10.9739C13.6585 11.0768 13.6625 11.1521 13.71 11.2035C13.8764 11.156 13.9754 11.0729 14.0111 10.9581C14.0269 11.0491 14.019 11.1323 13.9833 11.2154C14.122 11.1323 14.2765 11.0768 14.4468 11.0571C14.2963 11.1283 14.221 11.1798 14.2289 11.2233C14.4191 11.1758 14.5855 11.1639 14.732 11.1837C14.6092 11.2154 14.4944 11.2471 14.3953 11.2787ZM14.5894 8.82032C14.6013 8.68967 14.5221 8.56299 14.3914 8.5234C14.2765 8.35713 14.0546 8.30567 13.8764 8.40464C13.7575 8.36901 13.6308 8.4086 13.5555 8.50757V8.51153C13.5951 8.5432 13.6347 8.56695 13.6704 8.57883C13.7179 8.59862 13.7615 8.60654 13.8051 8.60258H13.8249L13.8407 8.61841C13.8883 8.66592 13.9556 8.6778 14.0428 8.65009L14.0665 8.64217L14.0863 8.658C14.1299 8.69759 14.1695 8.7253 14.2052 8.73718C14.2408 8.75301 14.2765 8.75697 14.3082 8.74906L14.3359 8.75302C14.3953 8.78469 14.4627 8.80448 14.534 8.8124C14.5538 8.82032 14.5696 8.82032 14.5894 8.82032ZM13.9358 9.24787C13.8605 9.07764 13.7734 8.99846 13.5991 8.87574C13.4921 8.80052 13.4803 8.68572 13.5119 8.59466C13.5555 8.62633 13.5951 8.65009 13.6387 8.66592C13.6902 8.68571 13.7417 8.69759 13.7932 8.69759C13.8605 8.75697 13.9437 8.77281 14.0467 8.7451C14.0903 8.78073 14.1339 8.80844 14.1735 8.82427C14.221 8.84407 14.2646 8.84803 14.3082 8.84407C14.3755 8.8797 14.4468 8.89949 14.526 8.90741C14.5379 8.90741 14.5498 8.91137 14.5657 8.91137C14.5142 9.03013 14.3834 9.09743 14.2527 9.06972C14.1299 9.06972 14.0269 9.1291 13.9358 9.24787ZM14.8429 7.52182C14.8469 7.36743 14.7479 7.23283 14.5855 7.18532C14.526 7.09427 14.4191 7.03488 14.3042 7.03093C14.1893 7.02697 14.0784 7.07843 14.0111 7.16948C13.9081 7.18532 13.817 7.24074 13.7615 7.31992C13.8209 7.37138 13.8843 7.40305 13.9517 7.41493C14.0348 7.43077 14.1259 7.41889 14.221 7.37534L14.2488 7.36347L14.2686 7.38326C14.3636 7.47035 14.4627 7.52182 14.5696 7.54161C14.6568 7.55745 14.7479 7.55349 14.8429 7.52182ZM13.8249 7.75539C13.71 7.68017 13.6823 7.5337 13.7219 7.40701C13.7219 7.40306 13.7259 7.3991 13.7259 7.39514C13.7932 7.4466 13.8645 7.48223 13.9398 7.49807C14.0348 7.51786 14.1339 7.50598 14.2369 7.4664C14.3399 7.55349 14.4468 7.60891 14.5617 7.62871C14.6488 7.64454 14.74 7.64058 14.835 7.61683C14.7915 7.75539 14.6687 7.83853 14.5062 7.86624C14.4032 7.88207 14.3002 7.96125 14.2171 8.0523C14.1497 7.92958 13.9754 7.85436 13.8249 7.75539ZM14.5142 6.09268C14.4508 5.96204 14.3082 5.89078 14.1656 5.92641C14.0903 5.87099 13.9952 5.85911 13.9081 5.89078C13.8209 5.92245 13.7575 5.99767 13.7377 6.08477C13.6347 6.15207 13.5436 6.27875 13.5595 6.39751C13.5634 6.41335 13.5634 6.43314 13.5714 6.44898C13.6031 6.42522 13.6308 6.40147 13.6585 6.37772C13.6981 6.34209 13.7298 6.30646 13.7496 6.27479L13.7694 6.24312L13.8051 6.25895C13.8605 6.28271 13.9041 6.28667 13.9398 6.27479C13.9715 6.26291 13.9992 6.2352 14.019 6.19165L14.0348 6.15602L14.0705 6.16394C14.1973 6.19561 14.2884 6.17978 14.3438 6.11248L14.3597 6.09268H14.3834C14.423 6.10456 14.4706 6.1006 14.5142 6.09268ZM13.8328 6.65088C13.7179 6.65484 13.6466 6.60733 13.607 6.54003C13.6506 6.50836 13.6862 6.48065 13.7179 6.44898C13.7536 6.41731 13.7813 6.38564 13.8011 6.35792C13.8605 6.37772 13.916 6.38168 13.9635 6.36584C14.0111 6.35001 14.0507 6.31834 14.0784 6.26687C14.2131 6.29458 14.3201 6.27083 14.3914 6.19561C14.4429 6.19957 14.4944 6.19561 14.5379 6.18374C14.5617 6.32229 14.5023 6.42918 14.3478 6.51628C14.2686 6.56378 14.2369 6.67463 14.2448 6.80131C14.1616 6.66275 14.0428 6.639 13.8328 6.65088ZM14.3359 10.0673C14.3438 9.91691 14.2289 9.80606 14.126 9.8021C14.0428 9.60812 13.8368 9.58833 13.6942 9.70709C13.4605 9.66355 13.3218 9.71501 13.2782 9.86149C13.3258 9.88524 13.3693 9.90108 13.4129 9.91295C13.4684 9.92483 13.5238 9.92483 13.5714 9.91295L13.5912 9.90899L13.607 9.92087C13.6585 9.96046 13.7338 9.97233 13.8289 9.96046L13.8526 9.9565L13.8685 9.97629C13.8883 10 13.916 10.0198 13.9477 10.0278C13.9833 10.0396 14.023 10.0396 14.0705 10.0317H14.0863C14.1656 10.0476 14.2488 10.0594 14.3359 10.0673ZM13.4208 10.3009C13.2743 10.2415 13.2307 10.1228 13.2624 9.94858C13.3099 9.97233 13.3535 9.98817 13.3971 9.99609C13.4605 10.008 13.5199 10.0119 13.5753 10C13.6387 10.0436 13.7219 10.0594 13.8209 10.0476C13.8487 10.0753 13.8843 10.099 13.9279 10.1109C13.9715 10.1228 14.023 10.1267 14.0824 10.1188C14.1576 10.1386 14.2488 10.1505 14.3438 10.1584C14.3597 10.2811 14.2171 10.4078 14.0507 10.4316C13.8962 10.4672 13.8011 10.5503 13.7615 10.673C13.6902 10.4791 13.5912 10.392 13.4208 10.3009ZM13.7536 4.85753C13.6744 4.67938 13.5318 4.69522 13.4406 4.81794C13.3614 4.78231 13.2703 4.79419 13.199 4.84169C13.1277 4.8892 13.0841 4.97233 13.0881 5.05943C12.9811 5.03172 12.8702 5.09506 12.8425 5.20591C12.8187 5.293 12.8583 5.38405 12.9336 5.4276C13.0445 5.40385 13.1277 5.36426 13.1832 5.31279C13.2426 5.26133 13.2703 5.20195 13.2584 5.13861L13.2505 5.07526L13.3139 5.08318C13.405 5.09506 13.4882 5.07922 13.5674 5.03172C13.6308 5.00005 13.6942 4.94066 13.7536 4.85753ZM13.2703 5.67701C13.096 5.67305 13.0049 5.62158 12.993 5.51469C13.1039 5.48698 13.1911 5.44344 13.2545 5.38801C13.3218 5.32863 13.3614 5.26133 13.3654 5.18611C13.4565 5.18611 13.5397 5.16632 13.6229 5.11881C13.6942 5.07526 13.7615 5.01588 13.8289 4.92483C13.9279 5.01588 13.9081 5.17423 13.7655 5.39197C13.7298 5.50282 13.7259 5.61762 13.7536 5.73243C13.6427 5.64534 13.4803 5.62554 13.2703 5.67701Z" fill="#FDDD16"/>
<path fill-rule="evenodd" clip-rule="evenodd" d="M11.5432 8.32142C11.4323 8.10764 11.3808 8.00075 11.3808 8.00075C9.21793 8.79648 6.90057 8.66187 4.42871 7.59695C4.43663 7.89386 4.44059 8.04034 4.44059 8.04034C4.80503 8.09576 4.98725 8.12347 4.98725 8.12347C5.43092 8.7173 5.65275 9.01421 5.65275 9.01421C6.43313 8.99838 6.93622 9.03796 7.16201 9.13298C7.71263 9.32696 8.31475 9.31112 8.84953 9.08547C9.29715 8.9192 9.81212 8.88357 10.4024 8.97462C10.8896 8.54707 11.1352 8.33725 11.1352 8.33725C11.4046 8.32537 11.5432 8.32142 11.5432 8.32142ZM5.02687 9.91682C4.92387 9.99204 4.90011 10.0712 4.95556 10.1544C5.68841 9.92474 6.30637 9.96037 6.88472 10.1504C7.52249 10.3602 8.18799 10.384 8.74257 10.1148C9.03571 9.97621 9.51503 9.94058 10.137 10.0395C10.5846 10.1108 10.9886 9.92474 11.3016 9.48927C10.8777 9.70305 10.5054 9.81389 10.2479 9.77826C9.55464 9.68325 9.0674 9.7941 8.699 9.91286C7.98596 10.1425 7.40761 10.1029 6.97187 9.95641C6.21922 9.71096 5.58541 9.65554 5.02687 9.91682ZM5.03083 9.48135C5.48242 9.14089 6.14396 9.14881 7.02733 9.3903C7.68094 9.56845 8.37813 9.50511 9.02382 9.34279C9.45957 9.15277 9.93096 9.08151 10.434 9.16861C10.7351 9.22007 11.0282 9.2359 11.3214 9.18048C11.1748 9.40218 10.949 9.45364 10.6321 9.39822C9.99831 9.29133 9.53087 9.36259 9.22189 9.51698C8.59204 9.82973 7.96616 9.93266 7.38384 9.76639C6.30241 9.46552 5.44677 9.47739 4.79315 9.88515C4.70204 9.81785 4.77731 9.67534 5.03083 9.48135ZM9.78043 7.89782L9.63387 7.60091H9.84778L9.99434 7.89782H9.78043ZM9.82797 7.98491H10.0419L10.1884 8.28183H9.97454L9.82797 7.98491ZM7.96219 8.28579H7.74828L7.60172 7.98887H7.81563L7.96219 8.28579ZM8.28306 8.28579H8.06915L7.92258 7.98887H8.13649L8.28306 8.28579ZM8.60393 8.28579H8.39002L8.24345 7.98887H8.45736L8.60393 8.28579ZM8.92875 8.28579H8.71484L8.56827 7.98887H8.78218L8.92875 8.28579ZM9.22189 8.28579H9.00798L8.86141 7.98887H9.07532L9.22189 8.28579ZM9.54276 8.28579H9.32884L9.18228 7.98887H9.39619L9.54276 8.28579ZM9.71705 7.98491L9.86362 8.28183H9.64971L9.50314 7.98491H9.71705ZM9.313 7.59695H9.52691L9.67348 7.89386H9.45957L9.313 7.59695ZM8.98817 7.59695H9.20208L9.34865 7.89386H9.13474L8.98817 7.59695ZM8.66731 7.59695H8.88122L9.02779 7.89386H8.81388L8.66731 7.59695ZM8.37417 7.59695H8.58808L8.73465 7.89386H8.52074L8.37417 7.59695ZM8.0533 7.59695H8.26722L8.41378 7.89386H8.19987L8.0533 7.59695ZM7.72848 7.59695H7.94239L8.08896 7.89386H7.87505L7.72848 7.59695ZM7.76809 7.89782H7.55418L7.40761 7.60091H7.62152L7.76809 7.89782ZM8.18403 7.20898L8.3306 7.5059H8.54451L8.39794 7.20898H8.18403ZM7.8592 7.20898H8.07311L8.21968 7.5059H8.00577L7.8592 7.20898ZM7.53834 7.20898L7.6849 7.5059H7.89881L7.75225 7.20898H7.53834ZM7.57399 7.50986H7.36008L7.21351 7.21294H7.42742L7.57399 7.50986ZM7.04317 7.32379C7.34819 7.94533 7.50268 8.25807 7.50268 8.25807C7.50268 8.25807 7.13032 8.18286 6.38163 8.02846C6.8253 7.55736 7.04317 7.32379 7.04317 7.32379Z" fill="#005C9F"/>
<path fill-rule="evenodd" clip-rule="evenodd" d="M2.76502 10.3602C2.7769 10.5859 2.62241 10.7838 2.40058 10.8234C2.39266 10.5977 2.54715 10.4038 2.76502 10.3602ZM2.46792 11.0055C2.44415 11.0095 2.42435 11.0292 2.41246 11.053C2.50357 11.3103 2.61845 11.5083 2.7571 11.6389C2.87197 11.5479 2.92743 11.5003 2.92743 11.5003C2.71352 11.3262 2.55903 11.1599 2.46792 11.0055ZM1.66378 10.8946C1.79846 11.1163 2.07575 11.1995 2.30947 11.0926C2.17478 10.8788 1.90145 10.7917 1.66378 10.8946ZM1.6915 10.4988C1.94107 10.4513 2.19063 10.5938 2.27778 10.8313C2.02822 10.8867 1.77469 10.7442 1.6915 10.4988ZM1.58059 10.0791C1.64397 10.3285 1.88561 10.4908 2.13913 10.4592C2.07179 10.2098 1.83411 10.0514 1.58059 10.0791ZM1.47363 9.60011C1.51325 9.85348 1.73904 10.0395 1.99652 10.0277C1.94899 9.77826 1.72716 9.59615 1.47363 9.60011ZM1.5687 9.08942C1.81827 9.1488 1.98464 9.38237 1.96483 9.63574C1.71527 9.58427 1.54494 9.34675 1.5687 9.08942ZM1.61624 8.64207C1.58851 8.8994 1.75885 9.13297 2.01237 9.18839C2.02822 8.93503 1.86184 8.70146 1.61624 8.64207ZM1.64001 8.16701C1.88957 8.2264 2.05594 8.45997 2.03614 8.71333C1.78658 8.65791 1.61624 8.42038 1.64001 8.16701ZM1.64001 7.688C1.61228 7.94532 1.78261 8.17889 2.03614 8.23431C2.05594 7.98095 1.88957 7.75134 1.64001 7.688ZM1.78261 5.55023C1.73904 5.80359 1.89353 6.04904 2.14309 6.1203C2.17874 5.8709 2.02822 5.62941 1.78261 5.55023ZM1.77865 6.10447C2.00841 6.21927 2.11933 6.48055 2.04802 6.72204C1.8143 6.61515 1.69943 6.34595 1.77865 6.10447ZM1.67962 6.63099C1.63208 6.88435 1.78658 7.13376 2.03218 7.20502C2.07179 6.95561 1.92126 6.71413 1.67962 6.63099ZM1.65585 7.14564C1.90541 7.20502 2.07179 7.43859 2.05198 7.69196C1.79846 7.63653 1.62812 7.40296 1.65585 7.14564ZM2.59468 5.1781C2.62241 5.43542 2.45207 5.66899 2.20251 5.72838C2.18271 5.47105 2.34908 5.24144 2.59468 5.1781ZM2.74125 5.58586C2.48773 5.58586 2.26589 5.76797 2.22628 6.02133C2.48377 6.02925 2.7056 5.84318 2.74125 5.58586ZM2.57884 6.11238C2.5828 6.36971 2.38869 6.58744 2.13517 6.61911C2.13913 6.36575 2.32531 6.15197 2.57884 6.11238ZM2.54318 6.55577C2.29362 6.60724 2.11536 6.83289 2.12725 7.08626C2.38077 7.04271 2.55903 6.8131 2.54318 6.55577ZM2.56695 7.07438C2.5828 7.3317 2.40454 7.56131 2.15102 7.60486C2.13913 7.3515 2.31739 7.1298 2.56695 7.07438ZM2.51149 7.67216C2.53526 7.92949 2.36096 8.16306 2.1114 8.21452C2.09556 7.96116 2.26589 7.73154 2.51149 7.67216ZM2.56695 8.20264C2.31343 8.23036 2.11933 8.44017 2.10348 8.69354C2.36096 8.67374 2.56299 8.45997 2.56695 8.20264ZM2.5313 8.64207C2.54715 8.8994 2.36889 9.12505 2.11536 9.17256C2.10348 8.91523 2.28174 8.69354 2.5313 8.64207ZM2.51942 9.10526C2.26985 9.15672 2.0916 9.37842 2.10348 9.63574C2.35304 9.58823 2.5313 9.36258 2.51942 9.10526ZM2.57488 9.54073C2.59072 9.79805 2.41246 10.0237 2.15894 10.0712C2.14705 9.81389 2.32531 9.59219 2.57488 9.54073ZM2.5828 10.0316C2.36493 10.0752 2.21044 10.2731 2.21836 10.4948C2.44019 10.4552 2.59468 10.2573 2.5828 10.0316Z" fill="#FDDD16"/>
<path fill-rule="evenodd" clip-rule="evenodd" d="M0.273438 0.0158353H0.934976H1.854C2.62249 0.0158353 3.25234 0.645289 3.25234 1.4133V1.49248C3.25234 2.26049 2.62249 2.88994 1.854 2.88994H0.934976V3.68963H0.273438V2.88994V0.0158353ZM0.994395 2.16548H1.854C2.2224 2.16548 2.52742 1.86065 2.52742 1.49248V1.4133C2.52742 1.04513 2.2224 0.740301 1.854 0.740301H0.994395V2.16548ZM11.3176 2.88994V0.0158353H11.9791H12.8981C13.6666 0.0158353 14.2965 0.645289 14.2965 1.4133V1.49248C14.2965 2.03088 13.9875 2.50198 13.5359 2.73555L13.9043 3.68963H13.1913L12.8783 2.88994H11.9791V3.68963H11.3176V2.88994V2.88994ZM12.0385 2.16548H12.8981C13.2665 2.16548 13.5715 1.86065 13.5715 1.49248V1.4133C13.5715 1.04513 13.2665 0.740301 12.8981 0.740301H12.0385V2.16548ZM14.962 0.0158353H15.6235V3.68963H14.962V0.0158353ZM5.41917 3.6342C6.2352 3.6342 6.89278 2.94141 6.89278 2.08234V0H6.25105V2.08234C6.25105 2.56532 5.87868 2.9612 5.41521 2.9612C4.9557 2.9612 4.57938 2.56928 4.57938 2.08234V0H3.94557V2.08234C3.94557 2.93745 4.60711 3.6342 5.41917 3.6342ZM9.51516 3.03642H8.73082C8.52484 3.03642 8.37827 2.87411 8.36242 2.66429H7.68108C7.69692 3.24624 8.16436 3.66587 8.73479 3.66587H9.66569C10.248 3.66587 10.7194 3.17894 10.7194 2.58116C10.7194 1.98337 10.1371 1.58749 9.55874 1.53603L8.79421 1.46873C8.57633 1.44893 8.33469 1.26287 8.33469 1.03721C8.33469 0.81156 8.51295 0.629454 8.73082 0.629454H9.66173C9.8796 0.629454 9.98656 0.859066 9.98656 1.08472H10.6679C10.6679 0.486936 10.1925 0 9.83999 0H8.47334C8.23962 0 7.68108 0.415677 7.68108 1.01346C7.68108 1.61124 8.18813 2.14173 9.21014 2.14568H9.44782C9.66569 2.14568 9.96279 2.33967 9.96279 2.5772C9.95883 2.97704 9.73303 3.03642 9.51516 3.03642Z" fill="#005C9F"/>
<path fill-rule="evenodd" clip-rule="evenodd" d="M0 4.22803H3.84247H11.9909H15.8333V12.2407V12.4664V17.0863C15.8333 21.4371 12.2721 25 7.91469 25C3.56121 25 0 21.441 0 17.0863V12.4664V12.2407V4.22803ZM3.84247 4.45368H0.225794V12.2407H3.84247V4.45368ZM3.84247 12.4664H0.225794V17.0863C0.225794 21.3143 3.68797 24.7744 7.91865 24.7744C12.1493 24.7744 15.6115 21.3143 15.6115 17.0863V12.4664H11.9909V17.0863C11.9909 19.3191 10.1489 21.156 7.91865 21.156C5.68447 21.1599 3.84247 19.3191 3.84247 17.0863V12.4664ZM11.9909 12.2407H15.6075V4.45368H11.9869V12.2407H11.9909ZM4.06826 4.45368V12.2407H11.7651V4.45368H4.06826ZM4.06826 12.4664V17.0863C4.06826 19.1924 5.80727 20.9303 7.91469 20.9303C10.0221 20.9303 11.7611 19.1924 11.7611 17.0863V12.4664H4.06826Z" fill="black"/>
<path fill-rule="evenodd" clip-rule="evenodd" d="M4.56348 15.1979H4.91999V14.711H5.21313C5.51419 14.711 5.70829 14.5685 5.70829 14.2082C5.70829 13.8638 5.47062 13.7411 5.21313 13.7411H4.56348V15.1979V15.1979ZM4.91999 14.0459H5.15767C5.26859 14.0459 5.34781 14.1013 5.34781 14.2359C5.34781 14.3666 5.26859 14.4181 5.15767 14.4181H4.91999V14.0459V14.0459ZM7.05514 13.7411H6.69862V14.616C6.69862 14.8021 6.63524 14.901 6.46094 14.901C6.28664 14.901 6.22326 14.806 6.22326 14.616V13.7411H5.86675V14.5962C5.86675 15.0198 6.04897 15.2296 6.46094 15.2296C6.87292 15.2296 7.05514 15.0198 7.05514 14.5962V13.7411ZM7.29282 15.1979H7.64933V14.711H7.94247C8.24353 14.711 8.43763 14.5685 8.43763 14.2082C8.43763 13.8638 8.19995 13.7411 7.94247 13.7411H7.29282V15.1979ZM7.64933 14.0459H7.88701C7.99793 14.0459 8.07715 14.1013 8.07715 14.2359C8.07715 14.3666 7.99793 14.4181 7.88701 14.4181H7.64933V14.0459ZM9.78844 13.7411H9.43192V14.616C9.43192 14.8021 9.36854 14.901 9.19424 14.901C9.01994 14.901 8.95656 14.806 8.95656 14.616V13.7411H8.60005V14.5962C8.60005 15.0198 8.78227 15.2296 9.19424 15.2296C9.60622 15.2296 9.78844 15.0198 9.78844 14.5962V13.7411ZM10.0222 15.1979H10.3787V14.7506L10.5252 14.5883L10.8936 15.1979H11.3373L10.7669 14.3151L11.2739 13.7411H10.8303L10.3787 14.2993V13.7411H10.0222V15.1979Z" fill="#FDDD16"/>
<path fill-rule="evenodd" clip-rule="evenodd" d="M6.48478 15.7166H6.12826V16.5915C6.12826 16.7775 6.06488 16.8765 5.89058 16.8765C5.71628 16.8765 5.6529 16.7815 5.6529 16.5915V15.7166H5.29639V16.5717C5.29639 16.9953 5.47861 17.2051 5.89058 17.2051C6.30256 17.2051 6.48478 16.9953 6.48478 16.5717V15.7166ZM6.72246 17.1734H7.07897V16.6429H7.34834C7.51472 16.6429 7.53849 16.7934 7.54641 16.9398C7.55037 16.9794 7.55433 17.1219 7.58602 17.1734H7.93858C7.89104 17.1219 7.88312 16.9082 7.88312 16.8448C7.87123 16.7063 7.82766 16.5321 7.68505 16.4964V16.4925C7.82766 16.4331 7.89896 16.2827 7.89896 16.1283C7.89896 15.8353 7.66129 15.7166 7.41965 15.7166H6.72246V17.1734V17.1734ZM7.07897 16.0214H7.36419C7.46322 16.0214 7.54245 16.0689 7.54245 16.1797C7.54245 16.2906 7.48303 16.35 7.37607 16.35H7.07897V16.0214ZM8.10495 17.1734H9.21412V16.8488H8.46147V16.5717H9.13093V16.2787H8.46147V16.0253H9.19431V15.7166H8.10495V17.1734ZM9.96677 16.1204L10.1213 16.631H9.81227L9.96677 16.1204ZM9.2775 17.1734H9.64194L9.72909 16.9121H10.2044L10.2876 17.1734H10.66L10.149 15.7166H9.78851L9.2775 17.1734Z" fill="#FDDD16"/>
<path fill-rule="evenodd" clip-rule="evenodd" d="M8.18791 17.7831C8.25525 17.7831 8.31071 17.8385 8.31071 17.9058C8.31071 17.9731 8.25525 18.0285 8.18791 18.0285C8.12057 18.0285 8.06511 17.9731 8.06511 17.9058C8.06511 17.8385 8.12057 17.7831 8.18791 17.7831ZM8.25525 18.4798C8.25525 18.4125 8.31071 18.3571 8.37805 18.3571C8.4454 18.3571 8.50086 18.4125 8.50086 18.4798C8.50086 18.5471 8.4454 18.6026 8.37805 18.6026C8.31071 18.6065 8.25525 18.5511 8.25525 18.4798ZM7.87101 18.4798C7.87101 18.4125 7.92647 18.3571 7.99381 18.3571C8.06115 18.3571 8.11661 18.4125 8.11661 18.4798C8.11661 18.5471 8.06115 18.6026 7.99381 18.6026C7.92647 18.6065 7.87101 18.5511 7.87101 18.4798ZM8.18791 18.1631C8.12057 18.1631 8.06511 18.2186 8.06511 18.2859C8.06511 18.3532 8.12057 18.4086 8.18791 18.4086C8.25525 18.4086 8.31071 18.3532 8.31071 18.2859C8.31071 18.2186 8.25525 18.1631 8.18791 18.1631ZM8.18791 18.5511C8.12057 18.5511 8.06511 18.6065 8.06511 18.6738C8.06511 18.7411 8.12057 18.7965 8.18791 18.7965C8.25525 18.7965 8.31071 18.7411 8.31071 18.6738C8.31071 18.6065 8.25525 18.5511 8.18791 18.5511ZM8.53651 18.7055C8.60385 18.7055 8.65931 18.7609 8.65931 18.8282C8.65931 18.8955 8.60385 18.9509 8.53651 18.9509C8.46917 18.9509 8.41371 18.8955 8.41371 18.8282C8.41371 18.7609 8.46917 18.7055 8.53651 18.7055ZM7.83932 18.7055C7.90666 18.7055 7.96212 18.7609 7.96212 18.8282C7.96212 18.8955 7.90666 18.9509 7.83932 18.9509C7.77197 18.9509 7.71652 18.8955 7.71652 18.8282C7.71652 18.7609 7.76801 18.7055 7.83932 18.7055ZM7.83932 18.0087C7.90666 18.0087 7.96212 18.0642 7.96212 18.1315C7.96212 18.1988 7.90666 18.2542 7.83932 18.2542C7.77197 18.2542 7.71652 18.1988 7.71652 18.1315C7.71256 18.0642 7.76801 18.0087 7.83932 18.0087ZM8.53651 18.0087C8.60385 18.0087 8.65931 18.0642 8.65931 18.1315C8.65931 18.1988 8.60385 18.2542 8.53651 18.2542C8.46917 18.2542 8.41371 18.1988 8.41371 18.1315C8.41371 18.0642 8.46917 18.0087 8.53651 18.0087ZM8.18791 18.9311C8.25525 18.9311 8.31071 18.9866 8.31071 19.0539C8.31071 19.1212 8.25525 19.1766 8.18791 19.1766C8.12057 19.1766 8.06511 19.1212 8.06511 19.0539C8.06511 18.9866 8.12057 18.9311 8.18791 18.9311ZM7.61352 18.3571C7.68086 18.3571 7.73632 18.4125 7.73632 18.4798C7.73632 18.5471 7.68086 18.6026 7.61352 18.6026C7.54618 18.6026 7.49072 18.5471 7.49072 18.4798C7.49072 18.4125 7.54618 18.3571 7.61352 18.3571ZM8.7623 18.3571C8.82964 18.3571 8.8851 18.4125 8.8851 18.4798C8.8851 18.5471 8.82964 18.6026 8.7623 18.6026C8.69496 18.6026 8.6395 18.5471 8.6395 18.4798C8.6395 18.4125 8.69496 18.3571 8.7623 18.3571Z" fill="#FEFEFE"/>
<path fill-rule="evenodd" clip-rule="evenodd" d="M7.22152 23.7055L7.42355 23.7253L7.49882 22.9414L6.89274 22.882L6.86897 23.1196L7.18983 23.1512C7.15022 23.3492 7.0195 23.4521 6.81351 23.4284C6.5283 23.4006 6.44511 23.1473 6.46888 22.9058C6.49264 22.6524 6.62337 22.4189 6.91254 22.4466C7.06307 22.4624 7.17399 22.5574 7.1938 22.7197L7.49882 22.7514C7.49485 22.4189 7.23341 22.209 6.93631 22.1813C6.48868 22.1378 6.19159 22.4466 6.14801 22.8781C6.1084 23.2977 6.33815 23.658 6.78578 23.7015C6.92443 23.7134 7.07892 23.6738 7.20172 23.5432L7.22152 23.7055ZM4.52784 22.8622L5.13392 21.536L5.42309 21.6667L5.56966 22.8068H5.57362L5.97767 21.92L6.251 22.0428L5.64493 23.369L5.35179 23.2344L5.20522 22.0982H5.20126L4.79721 22.985L4.52784 22.8622ZM3.10969 21.7181L3.35133 21.9359L3.65239 21.7736L4.05644 22.1378L3.92176 22.4505L4.16736 22.6722L4.74175 21.2273L4.50011 21.0056L3.10969 21.7181ZM4.37335 21.3856L4.15151 21.9082L3.87026 21.6548L4.37335 21.3856ZM2.2382 20.4592L3.46225 19.6754L3.83461 20.2534C3.98514 20.487 4.00891 20.6928 3.78311 20.8393C3.66427 20.9145 3.54147 20.9105 3.41867 20.8353C3.47017 21.0135 3.40679 21.16 3.2523 21.2589C3.00273 21.4173 2.7611 21.2748 2.61849 21.0531L2.2382 20.4592ZM2.9552 20.3801L3.14534 20.673C3.22061 20.7878 3.22061 20.8987 3.09384 20.9778C2.96708 21.061 2.87201 20.9897 2.80467 20.8828L2.61849 20.5938L2.9552 20.3801ZM3.42659 20.0792L3.14138 20.2613L3.31568 20.5345C3.3751 20.6295 3.46621 20.673 3.5692 20.6057C3.68408 20.5305 3.65239 20.4276 3.58901 20.3286L3.42659 20.0792ZM1.54894 18.4917L1.62816 18.7807L2.61057 18.5075V18.5115L1.72323 19.1291L1.79058 19.3666L2.87993 19.4339V19.4379L1.88565 19.715L1.96487 20.004L3.36717 19.6121L3.24437 19.1766L2.19463 19.137V19.133L3.06612 18.5352L2.94332 18.0998L1.54894 18.4917ZM1.41821 16.9082L1.4301 18.0127L1.69947 18.0087L1.69154 17.2249L2.04806 17.2209L2.05598 17.9256L2.30555 17.9216L2.29366 17.2209L2.6066 17.217L2.61453 17.985L2.8839 17.981L2.87201 16.8923L1.41821 16.9082ZM1.42614 15.6611V16.6904H1.6955V15.9818H2.8839V15.6611H1.42614ZM2.52342 14.8219V14.8258L1.98864 15.0079V14.6318L2.52342 14.8219ZM1.42614 14.1093V14.4339L1.75096 14.5487V15.0911L1.42614 15.2019V15.5345L2.8839 14.9921V14.6635L1.42614 14.1093ZM2.63433 13.2423V13.4917C2.63433 13.6421 2.60264 13.7728 2.41646 13.7728C2.23028 13.7728 2.19859 13.6421 2.19859 13.4917V13.2423H2.63433ZM1.42614 12.9216V13.2423H1.94903V13.5788C1.94903 13.943 2.17878 14.0816 2.41646 14.0816C2.65414 14.0816 2.8839 13.939 2.8839 13.5788V12.9216H1.42614Z" fill="#005C9F"/>
<path fill-rule="evenodd" clip-rule="evenodd" d="M14.5142 14.3191V13.9312L14.2527 13.8401V13.3334L14.5142 13.2423V12.8464L13.0564 13.3888V13.7728L14.5142 14.3191ZM13.4604 13.5828V13.5788L13.9715 13.4165V13.7451L13.4604 13.5828Z" fill="#005C9F"/>
<path d="M14.5142 14.4458H13.0564V14.8258H14.5142V14.4458Z" fill="#005C9F"/>
<path fill-rule="evenodd" clip-rule="evenodd" d="M13.9992 16.2352C14.3715 16.2312 14.5181 15.9383 14.5181 15.6018C14.5181 15.2811 14.3993 14.9684 14.0309 14.9684C13.7694 14.9684 13.6704 15.1822 13.611 15.392C13.5515 15.6058 13.5317 15.8156 13.4208 15.8156C13.3257 15.8156 13.298 15.7126 13.298 15.6335C13.298 15.5187 13.3416 15.392 13.4723 15.3999V15.0198C13.1435 15.0238 13.0049 15.3128 13.0049 15.6018C13.0049 15.875 13.1277 16.1956 13.4485 16.1956C13.714 16.1956 13.809 15.9779 13.8684 15.7681C13.9279 15.5582 13.9516 15.3484 14.0824 15.3484C14.1893 15.3484 14.2329 15.4672 14.2329 15.582C14.2329 15.7443 14.1774 15.8472 14.0071 15.8591V16.2352H13.9992Z" fill="#005C9F"/>
<path fill-rule="evenodd" clip-rule="evenodd" d="M14.4865 17.5415L14.4905 16.3618H14.1617V17.1655L13.8844 17.1615V16.4489H13.5913V17.1615H13.3377V16.3816H13.0327V17.5415H14.4865Z" fill="#005C9F"/>
<path fill-rule="evenodd" clip-rule="evenodd" d="M14.2529 19.1884L14.3123 18.8361L13.4171 18.6856V18.6817L14.3995 18.3373L14.4668 17.9533L13.0289 17.7039L12.9694 18.0562L13.8528 18.2066V18.2145L12.8823 18.559L12.8149 18.943L14.2529 19.1884Z" fill="#005C9F"/>
<path fill-rule="evenodd" clip-rule="evenodd" d="M12.7276 20.5938C13.0921 20.8037 13.516 20.7482 13.7417 20.3523C13.9715 19.9565 13.8091 19.5645 13.4446 19.3508C13.0802 19.141 12.6563 19.1964 12.4305 19.5923C12.2008 19.9881 12.3632 20.3801 12.7276 20.5938ZM12.9178 20.2653C12.7316 20.1584 12.589 19.9683 12.7118 19.7546C12.8346 19.5408 13.0683 19.5685 13.2545 19.6754C13.4407 19.7823 13.5833 19.9723 13.4605 20.1861C13.3417 20.3999 13.104 20.3721 12.9178 20.2653Z" fill="#005C9F"/>
<path fill-rule="evenodd" clip-rule="evenodd" d="M12.2366 22.2921L12.6683 21.8408C12.9734 21.5202 12.9734 21.148 12.6287 20.8194C12.3039 20.5067 11.9236 20.5146 11.6146 20.8392L11.1829 21.2905L12.2366 22.2921ZM11.682 21.2391L11.8048 21.1084C11.983 20.9224 12.1732 20.9065 12.3673 21.0886C12.5772 21.2905 12.5812 21.4489 12.3871 21.6627L12.2643 21.7933L11.682 21.2391Z" fill="#005C9F"/>
<path fill-rule="evenodd" clip-rule="evenodd" d="M10.6954 23.27L11.0084 23.1038L10.5766 22.3041L10.5805 22.3001L11.46 22.8583L11.8006 22.6723L11.1074 21.3936L10.7945 21.5638L11.2223 22.3516L11.2183 22.3555L10.3468 21.8053L10.0022 21.9913L10.6954 23.27Z" fill="#005C9F"/>
<path d="M9.88981 22.0313L9.51831 22.1125L9.82998 23.5357L10.2015 23.4545L9.88981 22.0313Z" fill="#005C9F"/>
<path fill-rule="evenodd" clip-rule="evenodd" d="M8.57623 23.7054C8.48512 23.7054 8.4059 23.6381 8.34648 23.5827C8.28706 23.5233 8.25141 23.4442 8.25141 23.3531V22.7949C8.1801 22.7395 8.00184 22.7236 8.01373 22.7395C8.02561 22.6445 8.13653 22.6049 8.25933 22.6405C8.26725 22.6168 8.27517 22.593 8.28706 22.5692C8.20783 22.4624 8.08899 22.403 8.00977 22.399C8.17218 22.3515 8.2831 22.3515 8.36628 22.3832C8.43363 22.2011 8.48116 22.2011 8.57623 22.0704C8.6713 22.2011 8.71884 22.2011 8.78618 22.3832C8.86937 22.3515 8.98029 22.3515 9.1427 22.399C9.06347 22.403 8.94464 22.4663 8.86541 22.5692C8.87729 22.593 8.88522 22.6168 8.89314 22.6405C9.01594 22.6049 9.12686 22.6445 9.13874 22.7395C9.15062 22.7276 8.97236 22.7434 8.90106 22.7949V23.3531C8.90106 23.4402 8.86541 23.5233 8.80599 23.5827C8.74657 23.6381 8.66734 23.7054 8.57623 23.7054ZM8.57623 22.4663C8.44155 22.5178 8.39401 22.5851 8.39401 22.7157V23.3531C8.39401 23.4244 8.44551 23.4639 8.57623 23.4639C8.70696 23.4639 8.75845 23.4204 8.75845 23.3531V22.7157C8.75845 22.5851 8.71092 22.5178 8.57623 22.4663Z" fill="#005C9F"/>
</g>
<g clip-path="url(#clip1_3562_70170)">
<path d="M70.7271 7.03208C70.6405 7.09937 70.6375 7.19883 70.6099 7.28366C70.1962 8.5344 69.7848 9.78645 69.3757 11.0398C69.3563 11.0909 69.3395 11.143 69.3255 11.1958C69.2989 11.3196 69.2191 11.3489 69.1009 11.347C68.8251 11.3411 68.5493 11.3401 68.2735 11.347C68.2236 11.3539 68.1728 11.3415 68.1318 11.3125C68.0907 11.2835 68.0625 11.24 68.0529 11.1909C67.9317 10.8009 67.8027 10.4196 67.6766 10.0345C67.1677 8.46517 66.6581 6.90044 66.1479 5.34027C66.1149 5.2696 66.0971 5.19288 66.0957 5.11502C66.1469 5.06041 66.2129 5.07991 66.273 5.07991C66.5242 5.07991 66.7763 5.07991 67.0285 5.07991C67.2432 5.07991 67.2462 5.07991 67.3072 5.27493C67.4642 5.77419 67.6188 6.27345 67.7712 6.7727C68.043 7.65095 68.3156 8.52855 68.5887 9.4055C68.6019 9.49357 68.6356 9.57738 68.6872 9.65026C68.7471 9.57933 68.7857 9.49317 68.7985 9.4016C69.2424 8.054 69.6847 6.70542 70.1253 5.35587C70.1352 5.32662 70.144 5.29639 70.1549 5.26713C70.2218 5.07211 70.2218 5.07211 70.4159 5.07211C70.6099 5.07211 70.8256 5.07991 71.0305 5.07211C71.0573 5.06768 71.0846 5.06856 71.111 5.07473C71.1374 5.08089 71.1623 5.0922 71.1842 5.108C71.2061 5.1238 71.2247 5.14377 71.2387 5.16674C71.2527 5.18971 71.262 5.21522 71.2659 5.24178C71.4206 5.72934 71.5841 6.21689 71.7446 6.70932C72.0428 7.61943 72.3419 8.52953 72.642 9.43963C72.6627 9.50302 72.6627 9.58005 72.7474 9.62881C72.7924 9.56838 72.8221 9.49816 72.834 9.42403L74.1096 5.34027C74.1254 5.28859 74.1421 5.23593 74.1589 5.18425C74.1643 5.15327 74.1808 5.12527 74.2054 5.10539C74.2301 5.08551 74.2611 5.07508 74.2928 5.07601H75.3202C75.3396 5.1522 75.3298 5.23282 75.2926 5.30224C74.6622 7.23816 74.0315 9.17343 73.4004 11.108C73.3187 11.3596 73.3541 11.3401 73.0764 11.3421C72.8321 11.3421 72.5839 11.3343 72.3435 11.3421C72.315 11.3466 72.2858 11.3455 72.2577 11.3388C72.2296 11.3321 72.2031 11.3198 72.1798 11.3029C72.1565 11.2859 72.1368 11.2645 72.122 11.2399C72.1072 11.2153 72.0974 11.1881 72.0933 11.1597C71.8559 10.4089 71.6077 9.66098 71.3644 8.9121C71.1753 8.33353 70.9865 7.75529 70.7981 7.17738C70.7856 7.12435 70.7613 7.07474 70.7271 7.03208V7.03208Z" fill="#595959"/>
<path d="M44.019 15.969C44.0909 15.9206 44.1495 15.8553 44.1894 15.7788C44.7065 15.0446 45.2276 14.3113 45.7378 13.5712C45.7757 13.5039 45.8327 13.4491 45.9016 13.4135C45.9705 13.3778 46.0485 13.3628 46.1259 13.3703C46.4086 13.3839 46.6923 13.3771 46.9759 13.3703C47.0961 13.3703 47.1503 13.42 47.1434 13.538C47.1434 13.5848 47.1434 13.6355 47.1434 13.6784V19.3341C47.1434 19.6451 47.1434 19.6451 46.837 19.6461C46.6243 19.6461 46.4115 19.6461 46.1988 19.6461C46.0254 19.6461 46.0175 19.6295 46.0106 19.4511C46.0106 19.3897 46.0106 19.3272 46.0106 19.2648C46.0106 17.9562 46.0106 16.6473 46.0106 15.3381C46.0245 15.249 46.0147 15.1579 45.9821 15.0738C45.8954 15.0923 45.8678 15.1713 45.8274 15.2289C45.2916 15.9823 44.7567 16.7361 44.2229 17.4901C44.1695 17.588 44.0948 17.6729 44.0042 17.7388C43.3728 16.8495 42.7414 15.9621 42.0982 15.0553C42.0492 15.1346 42.0317 15.2291 42.049 15.3205C42.049 16.6525 42.049 17.9852 42.049 19.3185C42.049 19.6442 42.0953 19.6539 41.718 19.652C41.521 19.652 41.324 19.652 41.127 19.652C40.93 19.652 40.9222 19.6432 40.9172 19.4345V13.6619C40.9172 13.3791 40.9172 13.3781 41.2009 13.3771C41.4452 13.3771 41.6934 13.3849 41.9328 13.3771C42.0062 13.3693 42.0804 13.3827 42.1463 13.4158C42.2122 13.4489 42.267 13.5001 42.3041 13.5634C42.8094 14.2976 43.3246 15.026 43.8377 15.7525C43.8866 15.8334 43.9477 15.9065 44.019 15.969V15.969Z" fill="#595959"/>
<path d="M65.7067 17.9514C65.7407 17.8666 65.7513 17.7744 65.7372 17.6842C65.7372 16.3437 65.7372 15.0033 65.7372 13.6628C65.7372 13.3771 65.7372 13.3762 66.0199 13.3703C66.2474 13.3703 66.476 13.3703 66.7045 13.3703C66.8217 13.3703 66.8828 13.4161 66.8709 13.538C66.8709 13.577 66.8709 13.616 66.8709 13.655V19.3594C66.8709 19.6442 66.8709 19.6451 66.5882 19.6461C66.344 19.6461 66.0957 19.6364 65.8554 19.6461C65.7777 19.6552 65.6989 19.6416 65.6289 19.607C65.5589 19.5723 65.5007 19.5181 65.4614 19.4511C64.833 18.5452 64.1957 17.6452 63.5604 16.7442C63.1867 16.2137 62.8128 15.6833 62.4385 15.1528C62.4079 15.1089 62.3882 15.0553 62.3173 15.029C62.2582 15.0992 62.2828 15.1869 62.2828 15.2649C62.2828 16.6138 62.2828 17.9621 62.2828 19.3097C62.2828 19.6549 62.3341 19.6461 61.9341 19.6461C61.7293 19.6461 61.5244 19.6461 61.3205 19.6461C61.2033 19.6461 61.1422 19.6022 61.1501 19.4803C61.1501 19.4423 61.1501 19.4023 61.1501 19.3633V13.6589C61.1501 13.3732 61.1501 13.3722 61.4318 13.3664C61.6761 13.3664 61.9243 13.3771 62.1646 13.3664C62.2493 13.3571 62.3349 13.3726 62.4108 13.4111C62.4866 13.4496 62.5493 13.5094 62.5911 13.5829C63.5637 14.9734 64.5411 16.3603 65.5235 17.7437C65.5636 17.8286 65.6271 17.9006 65.7067 17.9514V17.9514Z" fill="#595959"/>
<path d="M52.3945 16.3591C52.4452 16.4026 52.5041 16.4358 52.5678 16.4566C53.2416 16.794 53.544 17.3771 53.4277 18.1143C53.3036 18.9051 52.8003 19.3946 51.9424 19.5662C51.6173 19.6235 51.2875 19.6499 50.9574 19.6452C50.2728 19.652 49.5873 19.6452 48.9017 19.6452C48.8702 19.6452 48.8387 19.6452 48.8032 19.6452C48.6259 19.6374 48.6151 19.6267 48.6062 19.4599C48.6062 19.4131 48.6062 19.3624 48.6062 19.3195V13.6902C48.6062 13.3743 48.6062 13.3704 48.9322 13.3743C49.7114 13.3831 50.4925 13.344 51.2706 13.3987C51.705 13.4208 52.1242 13.5638 52.4802 13.8111C53.1066 14.2558 53.2061 15.1763 52.9776 15.6892C52.8817 15.8953 52.7363 16.0751 52.5541 16.2128C52.5028 16.2557 52.429 16.2752 52.3945 16.3591ZM50.6146 16.9159C50.3585 16.9159 50.1467 16.9159 49.934 16.9159C49.7439 16.9159 49.732 16.9266 49.7311 17.1109C49.7271 17.5621 49.7271 18.0135 49.7311 18.4653C49.7311 18.6604 49.7449 18.6691 49.9527 18.6711C50.3299 18.6711 50.7082 18.6779 51.0854 18.6711C51.3139 18.6735 51.5411 18.6372 51.7572 18.5638C52.1512 18.4175 52.3367 18.125 52.3137 17.6862C52.297 17.3166 52.0882 17.0865 51.6754 16.9822C51.6065 16.9656 51.5366 16.9559 51.4666 16.9451C51.1837 16.9145 50.8989 16.9051 50.6146 16.9169V16.9159ZM50.5535 15.933V15.9271C50.7811 15.9271 51.0096 15.9388 51.2361 15.9271C51.5159 15.9076 51.7592 15.8062 51.8872 15.5371C51.9431 15.4292 51.9734 15.3101 51.9756 15.1888C51.9779 15.0676 51.9522 14.9474 51.9004 14.8375C51.8486 14.7277 51.7721 14.6309 51.6768 14.5548C51.5815 14.4786 51.4698 14.4251 51.3504 14.3981C51.2291 14.3645 51.104 14.3461 50.9781 14.3435C50.6245 14.3435 50.2708 14.3435 49.9182 14.3435C49.7488 14.3435 49.735 14.3552 49.733 14.5103C49.7278 14.9296 49.7278 15.3492 49.733 15.7691C49.733 15.9232 49.7498 15.933 49.9172 15.9359C50.129 15.9369 50.3418 15.9339 50.5535 15.9339V15.933Z" fill="#595959"/>
<path d="M63.0776 11.3441C62.6836 11.3441 62.2896 11.3441 61.8956 11.3441C61.7676 11.3441 61.7213 11.2573 61.6641 11.1744C61.2652 10.5952 60.8683 10.015 60.4674 9.4368C60.2142 9.07114 60.3176 9.14427 59.8823 9.13159C59.7247 9.13159 59.5671 9.13159 59.4105 9.13159C59.2213 9.13159 59.2135 9.14329 59.2135 9.33539C59.2135 9.89608 59.2135 10.4568 59.2135 11.0175C59.2135 11.0799 59.2135 11.1423 59.2135 11.2047C59.2135 11.3022 59.1652 11.3431 59.0687 11.3422C58.7929 11.3422 58.5171 11.3422 58.2413 11.3422C58.1349 11.3422 58.0778 11.3061 58.0837 11.194C58.0837 11.1393 58.0837 11.0847 58.0837 11.0301V5.40179C58.0837 5.36279 58.0837 5.32378 58.0837 5.28478C58.0896 5.08196 58.0896 5.07806 58.2994 5.07708C59.0943 5.07708 59.8901 5.06928 60.685 5.08196C61.2209 5.08976 61.7311 5.21165 62.1734 5.53441C62.3128 5.63682 62.4348 5.76059 62.5349 5.90105C62.7053 6.14253 62.8195 6.41843 62.8693 6.70886C62.919 6.99929 62.9031 7.29704 62.8227 7.58065C62.7422 7.86426 62.5992 8.12668 62.404 8.349C62.2088 8.57133 61.9662 8.74802 61.6937 8.86636C61.6799 8.87221 61.6641 8.87611 61.6503 8.88294C61.4849 8.95315 61.4819 8.9551 61.5883 9.11014C61.7961 9.4134 62.0079 9.71373 62.2177 10.015C62.4909 10.4051 62.7637 10.7951 63.0362 11.1852C63.0556 11.2064 63.0695 11.2319 63.0767 11.2596C63.0839 11.2873 63.0842 11.3163 63.0776 11.3441V11.3441ZM59.2085 7.09556C59.2085 7.35982 59.2085 7.62407 59.2085 7.88833C59.2085 8.11065 59.2085 8.11358 59.4292 8.11553C59.8064 8.11553 60.1837 8.11553 60.5609 8.11553C60.7578 8.11597 60.9536 8.08772 61.1421 8.03167C61.2381 8.00815 61.3282 7.96549 61.4069 7.9063C61.4857 7.84712 61.5514 7.77265 61.6001 7.68745C61.6914 7.51436 61.7399 7.32233 61.7418 7.12708C61.7437 6.93183 61.6989 6.73891 61.6109 6.56412C61.543 6.43036 61.4302 6.32417 61.2918 6.26379C61.171 6.20672 61.0416 6.1695 60.9086 6.1536C60.3915 6.0873 59.8724 6.1341 59.3543 6.12045C59.2381 6.12045 59.2075 6.17993 59.2085 6.28134C59.2095 6.54657 59.2085 6.81863 59.2085 7.09556Z" fill="#595959"/>
<path d="M78.7195 8.20519V5.47488C78.7195 5.41247 78.7195 5.35006 78.7195 5.28766C78.7254 5.08581 78.7264 5.08191 78.9382 5.08093C79.6552 5.08093 80.3713 5.08093 81.0884 5.08093C81.475 5.08362 81.8583 5.15257 82.2211 5.28473C83.1451 5.62309 83.6317 6.31835 83.8208 7.24178C83.9647 7.9313 83.9536 8.64372 83.7883 9.32852C83.5174 10.447 82.7245 11.1461 81.5691 11.2982C81.2957 11.3327 81.0202 11.3486 80.7446 11.346C80.1783 11.346 79.6109 11.346 79.0445 11.346C78.7185 11.346 78.7185 11.3889 78.7185 11.034V8.20617L78.7195 8.20519ZM79.8522 8.21104V9.427C79.8522 9.66786 79.8522 9.90968 79.8522 10.1515C79.8522 10.2617 79.8857 10.329 80.0128 10.328C80.4541 10.328 80.8993 10.3524 81.3356 10.3066C82.101 10.2266 82.5472 9.81412 82.7058 9.06914C82.7503 8.84742 82.7753 8.6223 82.7806 8.39631C82.8106 7.94445 82.7565 7.49098 82.621 7.05846C82.5518 6.8414 82.4268 6.64587 82.2583 6.491C82.0897 6.33614 81.8835 6.22725 81.6597 6.17501C81.5085 6.13086 81.3523 6.10596 81.1948 6.1009C80.8323 6.1009 80.4698 6.09212 80.1113 6.09212C79.8641 6.09212 79.8591 6.09797 79.8581 6.34078C79.8512 6.96387 79.8522 7.58794 79.8522 8.21104Z" fill="#595959"/>
<path d="M73.297 17.6384C73.297 18.0977 73.297 18.558 73.297 19.0172C73.3035 19.0668 73.2927 19.117 73.2664 19.1596C73.24 19.2022 73.1997 19.2345 73.1522 19.2513C72.2214 19.655 71.2561 19.8305 70.2475 19.654C69.1866 19.4677 68.4873 18.8563 68.1987 17.8237C67.9627 16.9855 67.9576 16.1 68.1839 15.2592C68.4794 14.1427 69.226 13.5147 70.3735 13.3489C71.26 13.2202 72.113 13.3694 72.9463 13.6697C72.9928 13.6783 73.0344 13.7035 73.0631 13.7406C73.0918 13.7777 73.1057 13.824 73.102 13.8706C73.097 14.1037 73.102 14.3377 73.102 14.5717C73.102 14.7082 73.0754 14.7238 72.9454 14.6741C72.596 14.5329 72.233 14.4277 71.8619 14.3601C71.4277 14.2795 70.983 14.271 70.5459 14.3348C69.9382 14.4323 69.5284 14.7599 69.3304 15.3411C69.2392 15.6233 69.1875 15.9166 69.1768 16.2128C69.1542 16.5712 69.1724 16.931 69.2309 17.2854C69.3935 18.2011 69.8604 18.634 70.7922 18.7208C71.2251 18.7519 71.6602 18.715 72.0815 18.6116C72.1085 18.6092 72.1347 18.6014 72.1584 18.5886C72.1822 18.5758 72.2031 18.5583 72.2197 18.5372C72.2363 18.516 72.2484 18.4917 72.2551 18.4658C72.2619 18.4398 72.2631 18.4128 72.2588 18.3863C72.2519 18.0051 72.2588 17.6228 72.2588 17.2416C72.2588 17.0524 72.2529 17.0465 72.0539 17.0465C71.6915 17.0465 71.329 17.0465 70.9704 17.0465C70.7646 17.0465 70.7626 17.0417 70.7606 16.834C70.7587 16.6263 70.7606 16.4439 70.7606 16.2489C70.7606 16.0743 70.7695 16.0685 70.9576 16.0656C71.194 16.0656 71.4304 16.0656 71.6668 16.0656H73.037C73.3128 16.0656 73.3137 16.0656 73.3147 16.3298C73.298 16.7657 73.297 17.2016 73.297 17.6384Z" fill="#595959"/>
<path d="M44.5421 7.67467C44.6364 7.6081 44.72 7.5279 44.7903 7.43674C45.4532 6.70639 46.119 5.97408 46.777 5.24372C46.8226 5.1864 46.8815 5.14092 46.9488 5.11119C47.016 5.08146 47.0896 5.06838 47.1631 5.07308C47.564 5.0838 47.9649 5.07308 48.3599 5.07308C48.4052 5.15596 48.3412 5.18326 48.3077 5.21837C47.5565 6.02641 46.8039 6.83413 46.0501 7.64152C46.0176 7.67662 45.9861 7.71075 45.9516 7.74488C45.9399 7.75548 45.9306 7.76836 45.9242 7.78271C45.9178 7.79706 45.9145 7.81257 45.9145 7.82825C45.9145 7.84393 45.9178 7.85944 45.9242 7.87379C45.9306 7.88814 45.9399 7.90103 45.9516 7.91162L46.0974 8.09494L48.5303 11.109C48.5786 11.1695 48.6288 11.2319 48.6692 11.2904C48.6298 11.3645 48.5707 11.3401 48.5185 11.3401C48.1875 11.3401 47.8566 11.3333 47.5256 11.345C47.4559 11.3495 47.3863 11.3357 47.3238 11.3049C47.2613 11.274 47.2083 11.2273 47.17 11.1695C46.5603 10.3894 45.9427 9.60929 45.3281 8.8292C45.2798 8.76777 45.2296 8.71024 45.1636 8.63418C45.0129 8.74827 44.9144 8.90136 44.7794 9.01252C44.5549 9.20072 44.4889 9.42695 44.5027 9.71363C44.5243 10.1729 44.5096 10.6332 44.5076 11.0934C44.5076 11.344 44.5076 11.345 44.2426 11.346C44.0062 11.346 43.7698 11.346 43.5334 11.346C43.4261 11.346 43.3699 11.3099 43.3758 11.1977C43.3758 11.1431 43.3758 11.0885 43.3758 11.0339V5.39974C43.3758 5.34513 43.3758 5.29052 43.3758 5.23592C43.367 5.11208 43.43 5.07405 43.5462 5.076C43.8063 5.076 44.0663 5.076 44.3263 5.076C44.4948 5.076 44.4987 5.08575 44.5076 5.24665C44.5076 5.30125 44.5076 5.35586 44.5076 5.41046C44.5076 6.07256 44.5076 6.73467 44.5076 7.39774C44.494 7.49144 44.5059 7.58704 44.5421 7.67467V7.67467Z" fill="#595959"/>
<path d="M35.5845 16.5112V13.6834C35.5845 13.621 35.5845 13.5595 35.5845 13.4971C35.583 13.4815 35.585 13.4657 35.5904 13.4509C35.5957 13.4361 35.6043 13.4226 35.6155 13.4115C35.6266 13.4003 35.6402 13.3917 35.6551 13.3863C35.67 13.3809 35.6859 13.3788 35.7017 13.3801C35.7569 13.3801 35.8111 13.3752 35.8662 13.3752H39.5275C39.5747 13.3752 39.626 13.3752 39.6693 13.3752C39.7776 13.3752 39.8259 13.4211 39.8239 13.5303C39.8239 13.7565 39.8239 13.9827 39.8239 14.208C39.8239 14.3679 39.8121 14.3767 39.6427 14.3786C39.2576 14.3786 38.8715 14.3786 38.4853 14.3786C37.982 14.3786 37.4777 14.3786 36.9744 14.3786C36.7232 14.3786 36.7212 14.3786 36.7202 14.6195C36.7202 14.993 36.7202 15.3674 36.7202 15.7409C36.7202 15.9749 36.7202 15.9768 36.9556 15.9778C37.6451 15.9778 38.3248 15.9778 39.0103 15.9778C39.0734 15.9778 39.1364 15.9778 39.1995 15.9778C39.4033 15.9827 39.4053 15.9846 39.4083 16.1923C39.4112 16.4 39.4083 16.6136 39.4083 16.8232C39.4083 17.0329 39.4004 17.0329 39.1926 17.0329C38.5159 17.0329 37.8382 17.0329 37.1615 17.0329C37.0827 17.0329 37.0039 17.0329 36.9251 17.0329C36.7281 17.0387 36.7281 17.0426 36.7212 17.2279C36.7212 17.578 36.7212 17.929 36.7212 18.2791C36.7212 18.3571 36.7212 18.4351 36.7212 18.5131C36.718 18.5288 36.7188 18.545 36.7234 18.5604C36.728 18.5757 36.7364 18.5897 36.7478 18.6011C36.7592 18.6125 36.7733 18.6209 36.7887 18.6256C36.8042 18.6303 36.8206 18.6312 36.8365 18.6282H37.0256H39.5294C39.5925 18.6282 39.6545 18.6282 39.7176 18.6282C39.7309 18.6281 39.7441 18.6308 39.7564 18.636C39.7687 18.6412 39.7798 18.6488 39.789 18.6584C39.7982 18.668 39.8054 18.6793 39.81 18.6917C39.8147 18.7041 39.8167 18.7173 39.8161 18.7306C39.8161 18.9958 39.8161 19.26 39.8161 19.5253C39.8168 19.539 39.8146 19.5527 39.8096 19.5655C39.8046 19.5783 39.7969 19.5899 39.787 19.5996C39.7772 19.6093 39.7653 19.6168 39.7524 19.6216C39.7394 19.6264 39.7255 19.6285 39.7117 19.6277C39.6486 19.6335 39.5856 19.6345 39.5225 19.6345H35.7953C35.5983 19.6267 35.5855 19.6199 35.5855 19.4161C35.5835 18.4533 35.5832 17.485 35.5845 16.5112Z" fill="#595959"/>
<path d="M95.0003 11.344C94.6418 11.344 94.2951 11.344 93.9494 11.344C93.8361 11.344 93.8046 11.2719 93.773 11.1899C93.6627 10.9065 93.5527 10.6231 93.4431 10.3397C93.4086 10.2519 93.3781 10.1632 93.3446 10.0773C93.2461 9.83162 93.2924 9.83844 92.99 9.83844C92.2571 9.83844 91.5246 9.83844 90.7925 9.83844C90.5304 9.83844 90.5482 9.80529 90.4408 10.0822C90.3197 10.3952 90.2015 10.7092 90.0773 11.0213C89.9237 11.4045 89.9956 11.3372 89.6154 11.343C89.3406 11.343 89.0648 11.343 88.8018 11.343C88.7866 11.3164 88.7793 11.2861 88.7807 11.2556C88.7821 11.2251 88.7921 11.1956 88.8097 11.1704C89.6036 9.19617 90.3971 7.22027 91.1904 5.24275C91.2055 5.18707 91.2407 5.13882 91.2894 5.10718C91.338 5.07553 91.3968 5.0627 91.4544 5.07113C91.7371 5.0799 92.0217 5.0838 92.3044 5.07113C92.4699 5.06235 92.5388 5.12963 92.595 5.27298C93.0284 6.36022 93.4697 7.44455 93.908 8.52887C94.2501 9.37397 94.5912 10.2191 94.9314 11.0642C94.9832 11.1481 95.0073 11.2459 95.0003 11.344V11.344ZM92.8028 8.80873C92.7831 8.60688 92.0148 6.60108 91.8937 6.41288C91.7666 6.58255 90.9806 8.62541 90.9737 8.80873H92.8028Z" fill="#595959"/>
<path d="M105.833 11.3431C105.462 11.3431 105.108 11.3431 104.755 11.3431C104.651 11.3431 104.626 11.2709 104.597 11.1978L104.18 10.1301C104.161 10.0784 104.138 10.0325 104.122 9.97696C104.091 9.86775 104.017 9.83752 103.909 9.8385C103.114 9.8385 102.318 9.8385 101.522 9.8385C101.468 9.83324 101.413 9.84793 101.369 9.87976C101.325 9.9116 101.295 9.95835 101.283 10.0111C101.144 10.3914 100.995 10.7688 100.847 11.1461C100.77 11.3411 100.768 11.3411 100.561 11.346C100.298 11.346 100.038 11.346 99.7804 11.346C99.718 11.3588 99.653 11.3481 99.5982 11.3158C99.5972 11.2304 99.6208 11.1466 99.6661 11.074C100.442 9.14909 101.219 7.22455 101.997 5.30033C102.086 5.07995 102.086 5.07995 102.317 5.07898H103.097C103.333 5.07898 103.334 5.07898 103.421 5.2935C103.858 6.37132 104.294 7.44915 104.729 8.52697C105.07 9.37207 105.412 10.2172 105.753 11.0623C105.799 11.1494 105.826 11.245 105.833 11.3431V11.3431ZM102.743 6.40708L102.675 6.41391C102.371 7.20667 102.053 7.99456 101.756 8.79805C102.115 8.85266 103.47 8.83511 103.651 8.77172C103.348 7.98318 103.045 7.19497 102.743 6.40708Z" fill="#595959"/>
<path d="M59.6942 19.651C59.5602 19.651 59.4253 19.6442 59.2923 19.651C59.2338 19.6589 59.1745 19.6444 59.1264 19.6105C59.0783 19.5767 59.045 19.5259 59.0333 19.4687C58.8924 19.0884 58.7427 18.711 58.5949 18.3327C58.5171 18.1376 58.5161 18.1328 58.3083 18.1318H56.0162C55.8074 18.1318 55.8054 18.1318 55.7286 18.3327C55.5838 18.7032 55.4331 19.0728 55.3001 19.4462C55.2479 19.5935 55.1731 19.6598 55.0096 19.652C54.7426 19.6403 54.4747 19.652 54.2068 19.652C54.0216 19.652 54.0098 19.6344 54.0817 19.4618C54.4166 18.6291 54.7528 17.797 55.0903 16.9656C55.5316 15.8734 55.9699 14.7803 56.4142 13.6882C56.5501 13.3528 56.4733 13.3791 56.8879 13.3772C57.1165 13.3772 57.346 13.3889 57.5774 13.3772C57.7567 13.3645 57.8237 13.4552 57.8808 13.6005C58.2512 14.5288 58.6274 15.4532 59.0008 16.3805C59.4013 17.3712 59.8016 18.3622 60.2015 19.3536C60.2192 19.3975 60.2369 19.4404 60.2527 19.4843C60.3049 19.6325 60.297 19.6491 60.1473 19.6549C59.9976 19.6608 59.8518 19.6549 59.6981 19.6549L59.6942 19.651ZM57.1608 14.7014C57.1084 14.7547 57.074 14.8228 57.0623 14.8964C56.8042 15.5568 56.5478 16.217 56.293 16.8768C56.2782 16.9129 56.2644 16.949 56.2516 16.986C56.2162 17.0835 56.2516 17.1362 56.356 17.1362C56.8899 17.1362 57.4248 17.1362 57.9586 17.1362C58.0877 17.1362 58.1034 17.1011 58.065 16.9714C58.0522 16.9275 58.0325 16.8837 58.0158 16.8407C57.7702 16.2011 57.5242 15.562 57.278 14.9237C57.2604 14.8403 57.2198 14.7634 57.1608 14.7014V14.7014Z" fill="#595959"/>
<path d="M26.4822 13.3753C26.6162 13.3753 26.7511 13.385 26.8841 13.3753C27.0545 13.3606 27.1363 13.4328 27.1964 13.5869C27.4603 14.2626 27.7361 14.9345 28.008 15.6073C28.5163 16.8645 29.0235 18.1228 29.5298 19.3819C29.6382 19.6491 29.6372 19.6501 29.3565 19.6511C29.1201 19.6511 28.8837 19.6511 28.6473 19.6511C28.4266 19.6511 28.4246 19.6511 28.3429 19.4366C28.1981 19.066 28.0474 18.6964 27.9134 18.323C27.9012 18.2622 27.8662 18.2082 27.8153 18.1721C27.7645 18.1359 27.7017 18.1201 27.6396 18.128C26.8674 18.1345 26.0955 18.1345 25.3239 18.128C25.2617 18.1205 25.199 18.1364 25.1482 18.1726C25.0973 18.2087 25.0619 18.2623 25.0491 18.323C24.9102 18.7033 24.7536 19.0787 24.6147 19.459C24.6021 19.5196 24.5669 19.5732 24.5162 19.6093C24.4655 19.6454 24.4029 19.6614 24.3409 19.654C24.0661 19.6443 23.7903 19.654 23.5145 19.6491C23.346 19.6491 23.3342 19.6277 23.3972 19.4697C23.6691 18.7969 23.9429 18.1241 24.2108 17.4512C24.7283 16.1712 25.2451 14.8906 25.7612 13.6093C25.8597 13.3772 25.8597 13.3772 26.1001 13.3753H26.4783H26.4822ZM26.4763 14.7014C26.4429 14.7246 26.4197 14.7594 26.4113 14.7989C26.1375 15.5043 25.8643 16.2096 25.5918 16.9149C25.5169 17.1099 25.5307 17.1314 25.7386 17.1333C26.2311 17.1333 26.7314 17.1333 27.2269 17.1333H27.3254C27.3973 17.1333 27.4239 17.0914 27.4022 17.0241C27.3884 16.9793 27.3717 16.9354 27.3549 16.8915C27.0975 16.2213 26.8401 15.5514 26.5827 14.8818C26.5581 14.8184 26.5532 14.7414 26.4763 14.7014Z" fill="#595959"/>
<path d="M24.2956 7.19298V5.39487C24.2956 5.33246 24.2956 5.27006 24.2956 5.20765C24.2956 5.12477 24.332 5.07698 24.4236 5.07796H25.2993C25.3899 5.07796 25.4244 5.12672 25.4254 5.2096C25.4263 5.29248 25.4254 5.35002 25.4254 5.42022C25.4254 6.5026 25.4254 7.5853 25.4254 8.66832C25.4171 8.9488 25.4483 9.22906 25.5179 9.50106C25.5664 9.70788 25.674 9.8965 25.8279 10.0444C25.9818 10.1922 26.1755 10.293 26.3857 10.3348C26.7779 10.4283 27.1872 10.4246 27.5776 10.3241C27.7746 10.2795 27.9556 10.1822 28.1007 10.043C28.2459 9.90375 28.3498 9.72779 28.401 9.53422C28.4668 9.30937 28.4977 9.07593 28.4926 8.84189C28.4926 7.68931 28.4926 6.5364 28.4926 5.38317C28.4926 5.05456 28.4788 5.07698 28.7999 5.07698C29.0275 5.07698 29.256 5.07698 29.4894 5.07698C29.5879 5.07698 29.6352 5.11794 29.6323 5.21545C29.6323 5.26226 29.6323 5.31296 29.6323 5.35587C29.6323 6.46099 29.6323 7.56612 29.6323 8.67124C29.6365 8.97539 29.6034 9.27892 29.5338 9.57517C29.2767 10.6156 28.5212 11.2699 27.4456 11.386C27.0543 11.4337 26.6579 11.4212 26.2705 11.3489C25.249 11.149 24.5812 10.4869 24.3773 9.47473C24.3229 9.19946 24.2958 8.91956 24.2966 8.63906C24.2936 8.16028 24.2956 7.68053 24.2956 7.19298Z" fill="#595959"/>
<path d="M40.8867 7.18716C40.8867 6.5878 40.8867 5.98778 40.8867 5.38711C40.8867 5.3221 40.8867 5.25969 40.8867 5.19989C40.8867 5.1287 40.9163 5.07898 40.997 5.07898H41.8954C41.9111 5.07725 41.9271 5.07907 41.9421 5.08431C41.957 5.08954 41.9706 5.09806 41.9818 5.10922C41.9929 5.12037 42.0014 5.13388 42.0066 5.14874C42.0118 5.16359 42.0135 5.17941 42.0116 5.19501C42.0116 5.24962 42.0116 5.30423 42.0116 5.35883C42.0116 6.47371 42.0116 7.58793 42.0116 8.70151C42.0141 8.95101 41.9924 9.20016 41.9466 9.44552C41.7437 10.5454 40.9754 11.2514 39.8525 11.386C39.4612 11.437 39.0643 11.4265 38.6764 11.3548C37.6392 11.1529 36.9733 10.4957 36.7645 9.4699C36.7137 9.2015 36.6903 8.92872 36.6946 8.65568C36.6946 7.55706 36.6946 6.45811 36.6946 5.35883C36.6946 5.07702 36.6946 5.07702 36.9802 5.07605H37.5712C37.8244 5.07605 37.8244 5.07605 37.8273 5.33835V8.70541C37.8178 8.96267 37.8427 9.22005 37.9012 9.47087C37.9483 9.68611 38.0582 9.88294 38.2171 10.037C38.3761 10.1911 38.5772 10.2956 38.7956 10.3377C39.1651 10.4245 39.55 10.4245 39.9195 10.3377C40.4858 10.2032 40.8 9.82386 40.868 9.19687C40.8848 9.035 40.8867 8.8702 40.8877 8.70931C40.8887 8.2003 40.8867 7.69422 40.8867 7.18716Z" fill="#595959"/>
<path d="M18.6111 16.515V13.7126C18.6111 13.6502 18.6111 13.5878 18.6111 13.5253C18.6111 13.4278 18.6475 13.3781 18.747 13.3771C18.7628 13.3771 18.7785 13.3771 18.7943 13.3771C19.6512 13.3859 20.5092 13.3498 21.3671 13.3986C21.611 13.4149 21.851 13.4671 22.0792 13.5536C22.8436 13.8374 23.2415 14.401 23.3263 15.1899C23.365 15.5 23.3446 15.8145 23.2662 16.1172C23.0475 16.9207 22.487 17.3478 21.6902 17.5155C21.4112 17.5663 21.1276 17.5876 20.8441 17.5789C20.5486 17.5789 20.2619 17.5789 19.9704 17.5789C19.7488 17.5789 19.7448 17.5838 19.7438 17.8002C19.7438 18.3141 19.7438 18.828 19.7438 19.3419C19.7438 19.4043 19.7438 19.4667 19.7438 19.5291C19.7458 19.5447 19.7443 19.5605 19.7392 19.5754C19.7342 19.5903 19.7258 19.6039 19.7147 19.6152C19.7037 19.6264 19.6902 19.635 19.6752 19.6404C19.6603 19.6458 19.6444 19.6477 19.6286 19.6461C19.3298 19.6461 19.0307 19.6461 18.7313 19.6461C18.7155 19.6475 18.6996 19.6454 18.6847 19.64C18.6698 19.6346 18.6564 19.626 18.6452 19.6148C18.6341 19.6036 18.6257 19.5901 18.6204 19.5753C18.6152 19.5605 18.6134 19.5447 18.615 19.5291C18.615 19.4641 18.615 19.4017 18.615 19.3419L18.6111 16.515ZM19.7458 15.4814C19.7458 15.774 19.7458 16.0733 19.7458 16.3688C19.7458 16.5638 19.7537 16.5696 19.9428 16.5706C20.3053 16.5706 20.6668 16.5765 21.0263 16.5706C21.2311 16.5693 21.4345 16.5364 21.6291 16.4731C21.7818 16.429 21.9174 16.3402 22.0181 16.2184C22.1189 16.0965 22.18 15.9474 22.1935 15.7905C22.2098 15.6592 22.2157 15.5269 22.2112 15.3946C22.1955 14.8037 21.9276 14.517 21.3346 14.4342C21.302 14.4295 21.2691 14.4268 21.2361 14.4264C20.7958 14.4264 20.3565 14.4156 19.9162 14.4166C19.7586 14.4166 19.7428 14.4351 19.7409 14.596C19.7428 14.8964 19.7458 15.1889 19.7458 15.4814Z" fill="#595959"/>
<path d="M30.9993 8.20226V5.42222C30.9993 5.35981 30.9993 5.29741 30.9993 5.235C30.9905 5.11116 31.0545 5.06825 31.1707 5.07703C31.1934 5.07703 31.218 5.07703 31.2417 5.07703H33.4609C33.7525 5.07596 34.0427 5.11803 34.3217 5.20184C35.0851 5.43099 35.553 5.92928 35.6919 6.71131C35.762 7.08793 35.7468 7.47524 35.6475 7.84537C35.5797 8.11519 35.4485 8.36538 35.2647 8.57564C35.0809 8.78589 34.8497 8.95028 34.5897 9.05548C34.2249 9.20464 33.8339 9.28086 33.4392 9.27975C33.1013 9.28658 32.7625 9.27975 32.4246 9.27975C32.136 9.27975 32.135 9.27976 32.135 9.55571C32.135 10.0433 32.135 10.5367 32.135 11.0272C32.135 11.0818 32.135 11.1364 32.135 11.191C32.141 11.2992 32.0907 11.3431 31.9804 11.3421C31.7053 11.3382 31.4298 11.3382 31.154 11.3421C31.0427 11.3421 30.9964 11.2963 31.0003 11.188C31.0003 11.1266 31.0003 11.0642 31.0003 11.0018L30.9993 8.20226ZM32.135 7.18522C32.135 7.47288 32.135 7.76053 32.135 8.04819C32.135 8.25686 32.135 8.26076 32.3439 8.26174C32.729 8.26174 33.1141 8.26174 33.4993 8.26174C33.6884 8.25921 33.8757 8.22424 34.0528 8.15838C34.1805 8.11601 34.2947 8.04136 34.3842 7.94181C34.4737 7.84226 34.5354 7.72128 34.5631 7.59086C34.6015 7.41578 34.6134 7.23603 34.5985 7.05748C34.568 6.50556 34.3306 6.23936 33.777 6.14868C33.2767 6.06774 32.7723 6.12137 32.27 6.10772C32.1459 6.10772 32.1341 6.1828 32.1341 6.27739C32.136 6.5787 32.135 6.88196 32.135 7.18522Z" fill="#595959"/>
<path d="M18.6111 8.2072V5.40375C18.6111 5.33452 18.6111 5.26431 18.6111 5.19411C18.6079 5.17841 18.6086 5.16217 18.6133 5.14682C18.6179 5.13148 18.6263 5.1175 18.6377 5.10612C18.6491 5.09475 18.6631 5.08633 18.6786 5.08161C18.694 5.07688 18.7104 5.076 18.7263 5.07904H18.8682H21.0401C21.3402 5.0773 21.6389 5.11935 21.9266 5.20386C22.755 5.45056 23.214 6.00735 23.3223 6.84789C23.3578 7.11884 23.3498 7.39363 23.2987 7.66211C23.1529 8.4227 22.7008 8.9122 21.9601 9.14623C21.6511 9.23963 21.3296 9.28599 21.0066 9.28372C20.652 9.28372 20.2984 9.28372 19.9438 9.28372C19.7527 9.28372 19.7468 9.29055 19.7468 9.47874C19.7468 9.99263 19.7468 10.5065 19.7468 11.0204C19.7468 11.0828 19.7468 11.1452 19.7468 11.2076C19.7468 11.2905 19.7133 11.3393 19.6227 11.3393H18.749C18.6623 11.3393 18.616 11.3032 18.616 11.2154C18.616 11.153 18.616 11.0906 18.616 11.0282L18.6111 8.2072ZM19.7448 7.1765C19.7448 7.46904 19.7448 7.76742 19.7448 8.06288C19.7448 8.25791 19.7537 8.26473 19.9418 8.2657C20.3358 8.2657 20.7298 8.26571 21.1238 8.26083C21.2969 8.25772 21.4684 8.22778 21.6321 8.17209C21.7855 8.12866 21.9219 8.04014 22.0234 7.91826C22.1249 7.79638 22.1866 7.64688 22.2004 7.48952C22.2314 7.28132 22.2314 7.06974 22.2004 6.86155C22.1858 6.71326 22.1277 6.57245 22.0331 6.45652C21.9386 6.34058 21.8118 6.2546 21.6685 6.2092C21.5874 6.1797 21.5036 6.15783 21.4183 6.14386C20.911 6.06098 20.3988 6.10973 19.8886 6.09803C19.7694 6.09803 19.7468 6.16434 19.7478 6.26185C19.7458 6.56999 19.7448 6.87325 19.7448 7.1765V7.1765Z" fill="#595959"/>
<path d="M52.5864 9.81221C52.6731 9.82991 52.7548 9.86619 52.8258 9.9185C53.4746 10.3035 54.2425 10.4421 54.9868 10.3085C55.1117 10.2899 55.2331 10.2535 55.3474 10.2003C55.4465 10.1568 55.5336 10.0901 55.6009 10.006C55.6683 9.92184 55.7141 9.82275 55.7342 9.71724C55.7544 9.61173 55.7483 9.50294 55.7166 9.40025C55.6849 9.29755 55.6285 9.20402 55.5522 9.12768C55.4183 8.99486 55.257 8.89211 55.0794 8.82637C54.8006 8.71869 54.5162 8.62561 54.2274 8.54749C53.9628 8.47188 53.704 8.37737 53.4532 8.26471C52.8622 7.98778 52.5125 7.54703 52.5007 6.88103C52.4869 6.17992 52.7726 5.64361 53.4049 5.3072C53.8495 5.08305 54.3458 4.97879 54.844 5.00491C55.3495 5.02026 55.8464 5.13842 56.3038 5.35205C56.3593 5.36993 56.4069 5.40635 56.4383 5.45508C56.4698 5.50381 56.4831 5.56183 56.4762 5.61923C56.4673 5.89616 56.4762 6.17505 56.4762 6.46758C56.3599 6.44396 56.2494 6.39791 56.1511 6.33204C55.5812 6.05259 54.9319 5.97482 54.3111 6.11167C54.1639 6.14103 54.0246 6.20084 53.9024 6.28718C53.53 6.55631 53.5448 7.03704 53.9349 7.2779C54.1208 7.38089 54.3195 7.45955 54.5259 7.51192C54.7898 7.59091 55.0548 7.66502 55.3139 7.74595C55.5468 7.81938 55.771 7.91746 55.9827 8.03849C56.8347 8.51824 56.9775 9.45727 56.8229 10.0765C56.6958 10.5874 56.3432 10.9229 55.8822 11.1559C55.5354 11.3283 55.1533 11.4197 54.7652 11.4231C54.0934 11.4457 53.426 11.3072 52.8199 11.0194C52.6514 10.9385 52.5687 10.84 52.5825 10.644C52.6002 10.371 52.5864 10.0999 52.5864 9.81221Z" fill="#595959"/>
<path d="M30.4802 16.5141V13.6863C30.4802 13.6239 30.4802 13.5615 30.4802 13.4991C30.4784 13.4835 30.4801 13.4676 30.4852 13.4527C30.4903 13.4378 30.4986 13.4242 30.5096 13.4129C30.5206 13.4015 30.534 13.3927 30.5488 13.3871C30.5637 13.3814 30.5796 13.379 30.5954 13.3801H31.4996C31.5154 13.3784 31.5314 13.3803 31.5464 13.3855C31.5614 13.3907 31.5751 13.3992 31.5863 13.4104C31.5976 13.4215 31.6061 13.435 31.6114 13.4498C31.6167 13.4647 31.6186 13.4805 31.6169 13.4962C31.6169 13.5664 31.6169 13.6366 31.6169 13.7058V18.2167C31.6169 18.2713 31.6169 18.3259 31.6169 18.3805C31.6228 18.5823 31.6247 18.5872 31.8345 18.5882C32.6698 18.5882 33.5048 18.5882 34.3394 18.5882C34.3945 18.5882 34.4497 18.5882 34.5039 18.5882C34.6753 18.596 34.6841 18.5989 34.6871 18.7569C34.6871 18.9987 34.6871 19.2444 34.6871 19.4814C34.6871 19.6033 34.6398 19.654 34.5206 19.6491C34.4733 19.6491 34.4221 19.6491 34.3788 19.6491H30.7895C30.7264 19.6491 30.6634 19.6491 30.6003 19.6442C30.5846 19.6454 30.5687 19.6432 30.5539 19.6377C30.539 19.6322 30.5256 19.6237 30.5144 19.6125C30.5033 19.6014 30.4947 19.588 30.4893 19.5733C30.4839 19.5586 30.4818 19.5428 30.4831 19.5272C30.4831 19.4622 30.4831 19.3998 30.4831 19.34L30.4802 16.5141Z" fill="#595959"/>
<path d="M95.3126 9.99255C95.3434 9.98877 95.3746 9.9916 95.4042 10.0009C95.4338 10.0101 95.461 10.0256 95.484 10.0462C95.9109 10.3216 96.425 10.4326 96.929 10.3582C97.3131 10.3153 97.5259 10.1252 97.6185 9.75463C97.6537 9.57844 97.6679 9.39876 97.6608 9.21929V5.38613C97.6608 5.03802 97.6608 5.07897 97.9642 5.07702C98.1849 5.07702 98.4055 5.07702 98.6261 5.07702C98.7493 5.07702 98.7985 5.12675 98.7916 5.24279C98.7916 5.27399 98.7916 5.3052 98.7916 5.3403C98.7916 6.6502 98.7916 7.95945 98.7916 9.26805C98.7973 9.54883 98.7621 9.82896 98.6872 10.0998C98.4902 10.7726 98.0489 11.1949 97.3575 11.3538C96.7456 11.4942 96.1036 11.4219 95.5392 11.149C95.3786 11.0749 95.2969 10.9803 95.3097 10.7912C95.3274 10.524 95.3126 10.2597 95.3126 9.99255Z" fill="#595959"/>
<path d="M84.4924 10.0023C84.5192 9.99198 84.5487 9.9899 84.5768 9.99634C84.6049 10.0028 84.6304 10.0174 84.65 10.0384C85.0621 10.306 85.5561 10.4216 86.0457 10.3651C86.5096 10.326 86.7618 10.093 86.8169 9.63274C86.8373 9.4472 86.8468 9.26064 86.8455 9.07401C86.8455 7.88242 86.8455 6.69084 86.8455 5.49925C86.8455 5.44464 86.8455 5.39004 86.8455 5.33543C86.8455 5.07898 86.8455 5.078 87.1085 5.07703C87.3213 5.07703 87.533 5.07703 87.7458 5.07703C87.9586 5.07703 87.9635 5.0819 87.9694 5.30423V9.20467C87.9756 9.47717 87.9474 9.74937 87.8857 10.015C87.6887 10.7824 87.1903 11.2358 86.4082 11.3743C85.8381 11.4769 85.2498 11.397 84.7288 11.1461C84.5613 11.0681 84.4727 10.9735 84.4874 10.7746C84.5071 10.5162 84.4924 10.2539 84.4924 10.0023Z" fill="#595959"/>
<path d="M64.2134 8.18765V5.40761C64.2134 5.3452 64.2134 5.28279 64.2134 5.22038C64.2134 5.12287 64.2508 5.07607 64.3523 5.07704C64.6359 5.07704 64.9196 5.07704 65.2023 5.07704C65.3057 5.07704 65.3412 5.12872 65.3402 5.22136C65.3402 5.27596 65.3402 5.33057 65.3402 5.38518V11.0408C65.3402 11.388 65.3402 11.3441 65.0349 11.347C64.83 11.347 64.6254 11.347 64.4212 11.347C64.2173 11.347 64.2134 11.3421 64.2124 11.1325C64.2124 10.6654 64.2124 10.1983 64.2124 9.73125L64.2134 8.18765Z" fill="#595959"/>
<path d="M76.1427 8.18767C76.1427 7.25286 76.1427 6.31773 76.1427 5.38227C76.1427 5.31727 76.1427 5.25486 76.1427 5.19505C76.1406 5.17942 76.1422 5.16351 76.1472 5.14857C76.1523 5.13362 76.1608 5.12003 76.172 5.10883C76.1833 5.09763 76.1969 5.08912 76.212 5.08395C76.227 5.07878 76.2431 5.0771 76.2589 5.07902H77.1562C77.236 5.07902 77.2695 5.12192 77.2705 5.19603C77.2714 5.27014 77.2705 5.32084 77.2705 5.38227C77.2705 7.26749 77.2705 9.1527 77.2705 11.0379C77.2705 11.0535 77.2705 11.0691 77.2705 11.0847C77.2705 11.3392 77.2705 11.3402 77.0104 11.3412C76.7819 11.3412 76.5534 11.3412 76.3209 11.3412C76.1427 11.3412 76.1348 11.3324 76.1338 11.154C76.1338 10.6781 76.1338 10.2032 76.1338 9.72737L76.1427 8.18767Z" fill="#595959"/>
</g>
<defs>
<clipPath id="clip0_3562_70170">
<rect width="15.8333" height="25" fill="white"/>
</clipPath>
<clipPath id="clip1_3562_70170">
<rect width="87.2222" height="14.7222" fill="white" transform="translate(18.6111 5)"/>
</clipPath>
</defs>
</svg>
