<svg aria-hidden="true" focusable="false" data-prefix="fas" data-icon="home" class="svg-inline--fa fa-home fa-w-18" role="img" xmlns="http://www.w3.org/2000/svg" viewBox="0 0 576 512">
    <path fill="white" d="M280.99 23.71v160.57h-81.97V23.71h-98.5L287.99 224l186.48-200.29zm280.86 211.67l-30.79-33.15L312.45 290.8V463.4h-68.89V320.49l-187.21-202.3-30.78 33.15-16.05 17.25a15.82 15.82 0 0 0-4.22 11.07V496a16 16 0 0 0 16 16h96a16 16 0 0 0 16-16V368h64v144a16 16 0 0 0 16 16h96a16 16 0 0 0 16-16V243.69a15.82 15.82 0 0 0-4.22-11.07l-16.05-17.25z"></path>
</svg>
