<svg width="59" height="92" viewBox="0 0 59 92" fill="none" xmlns="http://www.w3.org/2000/svg">
<g clip-path="url(#clip0_3572_61194)">
<path fill-rule="evenodd" clip-rule="evenodd" d="M0 15.5592H58.2901V62.8777C58.2901 78.8884 45.1795 92.0001 29.1377 92.0001C13.1105 92.0001 0 78.903 0 62.8777V15.5592Z" fill="#FBDE16"/>
<path fill-rule="evenodd" clip-rule="evenodd" d="M14.146 45.8762H44.1004V62.8922C44.1004 71.1234 37.3629 77.854 29.1232 77.854C20.8836 77.854 14.146 71.1234 14.146 62.8922V45.8762Z" fill="#025BA1"/>
<path d="M14.598 15.9962H0.320801V45.3809H14.598V15.9962Z" fill="#025BA1"/>
<path d="M57.8672 15.9962H43.59V45.3809H57.8672V15.9962Z" fill="#025BA1"/>
<path fill-rule="evenodd" clip-rule="evenodd" d="M52.9963 41.5056C53.8421 41.7533 54.2796 42.0155 54.2942 42.2923C52.5004 41.7824 51.115 41.8553 50.1379 42.5254C49.19 41.9427 47.8483 41.7533 46.1274 41.9572C46.7108 41.695 47.2066 41.5639 47.5858 41.5639C47.367 41.4473 47.09 41.3745 46.7837 41.3599C47.2941 41.156 48.0233 41.156 48.9421 41.3599C48.8108 41.0977 48.5629 40.8937 48.2275 40.7481C48.7962 40.7189 49.2921 40.8792 49.715 41.2142C49.8608 40.85 50.0942 40.5732 50.415 40.3838C50.2837 40.7626 50.2983 41.0394 50.4733 41.2288C51.0858 41.054 51.4504 40.7481 51.5817 40.3256C51.64 40.6606 51.6108 40.9666 51.4796 41.2725C51.99 40.9666 52.5588 40.7626 53.1858 40.6898C52.6317 40.952 52.3546 41.1414 52.3838 41.3017C53.0838 41.1268 53.6963 41.0831 54.2359 41.156C53.7838 41.2725 53.3608 41.3891 52.9963 41.5056ZM53.7109 32.4586C53.7546 31.9778 53.4629 31.5116 52.9817 31.3659C52.5588 30.7541 51.7421 30.5647 51.0858 30.9289C50.6483 30.7978 50.1817 30.9435 49.9046 31.3077V31.3222C50.0504 31.4388 50.1962 31.5262 50.3275 31.5699C50.5025 31.6427 50.6629 31.6719 50.8233 31.6573H50.8962L50.9546 31.7156C51.1296 31.8904 51.3775 31.9341 51.6983 31.8321L51.7858 31.803L51.8588 31.8613C52.0192 32.007 52.165 32.1089 52.2963 32.1526C52.4275 32.2109 52.5588 32.2255 52.6754 32.1964L52.7775 32.2109C52.9963 32.3275 53.2442 32.4003 53.5067 32.4294C53.5796 32.4586 53.6379 32.4586 53.7109 32.4586ZM51.3046 34.032C51.0275 33.4055 50.7067 33.1142 50.065 32.6625C49.6712 32.3857 49.6275 31.9633 49.7441 31.6282C49.9046 31.7447 50.0504 31.8321 50.2108 31.8904C50.4004 31.9633 50.59 32.007 50.7796 32.007C51.0275 32.2255 51.3337 32.2838 51.7129 32.1818C51.8733 32.3129 52.0338 32.4149 52.1796 32.4732C52.3546 32.546 52.515 32.5606 52.6754 32.546C52.9233 32.6771 53.1858 32.75 53.4775 32.7791C53.5213 32.7791 53.565 32.7937 53.6234 32.7937C53.4338 33.2307 52.9525 33.4784 52.4713 33.3764C52.0192 33.3764 51.64 33.5949 51.3046 34.032ZM54.6442 27.6801C54.6588 27.112 54.2942 26.6166 53.6963 26.4418C53.4775 26.1067 53.0838 25.8882 52.6608 25.8736C52.2379 25.8591 51.8296 26.0485 51.5817 26.3835C51.2025 26.4418 50.8671 26.6458 50.6629 26.9371C50.8817 27.1265 51.115 27.2431 51.3629 27.2868C51.6692 27.345 52.0046 27.3013 52.3546 27.1411L52.4567 27.0974L52.5296 27.1702C52.8796 27.4907 53.2442 27.6801 53.6379 27.753C53.9588 27.8112 54.2942 27.7967 54.6442 27.6801ZM50.8962 28.5397C50.4733 28.2629 50.3712 27.7238 50.5171 27.2576C50.5171 27.2431 50.5317 27.2285 50.5317 27.2139C50.7796 27.4033 51.0421 27.5344 51.3192 27.5927C51.6692 27.6656 52.0338 27.6218 52.4129 27.4762C52.7921 27.7967 53.1858 28.0006 53.6088 28.0735C53.9296 28.1317 54.265 28.1172 54.615 28.0298C54.4546 28.5397 54.0025 28.8456 53.4046 28.9476C53.0254 29.0059 52.6463 29.2972 52.34 29.6323C52.0921 29.1807 51.4504 28.9039 50.8962 28.5397ZM53.4338 22.4209C53.2004 21.9401 52.6754 21.6779 52.1504 21.809C51.8733 21.6051 51.5233 21.5614 51.2025 21.6779C50.8817 21.7945 50.6483 22.0713 50.5754 22.3918C50.1962 22.6394 49.8608 23.1056 49.9191 23.5427C49.9337 23.6009 49.9337 23.6738 49.9629 23.7321C50.0796 23.6447 50.1816 23.5572 50.2837 23.4698C50.4296 23.3387 50.5462 23.2076 50.6192 23.0911L50.6921 22.9745L50.8233 23.0328C51.0275 23.1202 51.1879 23.1348 51.3192 23.0911C51.4358 23.0473 51.5379 22.9454 51.6108 22.7851L51.6692 22.654L51.8004 22.6831C52.2671 22.7997 52.6025 22.7414 52.8067 22.4937L52.865 22.4209H52.9525C53.0983 22.4646 53.2733 22.45 53.4338 22.4209ZM50.9254 24.4751C50.5025 24.4896 50.24 24.3148 50.0941 24.0671C50.2546 23.9506 50.3858 23.8486 50.5025 23.7321C50.6337 23.6155 50.7358 23.499 50.8087 23.397C51.0275 23.4698 51.2317 23.4844 51.4067 23.4261C51.5817 23.3679 51.7275 23.2513 51.8296 23.0619C52.3254 23.1639 52.7192 23.0765 52.9817 22.7997C53.1713 22.8143 53.3608 22.7997 53.5213 22.756C53.6088 23.2659 53.39 23.6592 52.8213 23.9797C52.5296 24.1546 52.4129 24.5625 52.4421 25.0287C52.1358 24.5188 51.6983 24.4314 50.9254 24.4751ZM52.7775 37.0477C52.8067 36.4941 52.3838 36.0861 52.0046 36.0716C51.6983 35.3577 50.94 35.2849 50.415 35.7219C49.5546 35.5617 49.0441 35.7511 48.8837 36.2901C49.0587 36.3775 49.2191 36.4358 49.3796 36.4795C49.5837 36.5232 49.7879 36.5232 49.9629 36.4795L50.0358 36.4649L50.0941 36.5086C50.2837 36.6543 50.5608 36.698 50.9108 36.6543L50.9983 36.6397L51.0567 36.7126C51.1296 36.8 51.2317 36.8728 51.3483 36.902C51.4796 36.9457 51.6254 36.9457 51.8004 36.9165H51.8588C52.1504 36.9748 52.4567 37.0185 52.7775 37.0477ZM49.4087 37.9072C48.8691 37.6887 48.7087 37.2516 48.8254 36.6106C49.0004 36.698 49.1608 36.7563 49.3212 36.7854C49.5546 36.8291 49.7733 36.8437 49.9775 36.8C50.2108 36.9602 50.5171 37.0185 50.8817 36.9748C50.9837 37.0768 51.115 37.1642 51.2754 37.2079C51.4358 37.2516 51.6254 37.2662 51.8442 37.237C52.1213 37.3099 52.4567 37.3536 52.8067 37.3827C52.865 37.8344 52.34 38.3005 51.7275 38.388C51.1587 38.5191 50.8087 38.825 50.6629 39.2766C50.4004 38.5628 50.0358 38.2423 49.4087 37.9072ZM50.6337 17.8755C50.3421 17.22 49.8171 17.2782 49.4816 17.7298C49.19 17.5987 48.8546 17.6424 48.5921 17.8173C48.3296 17.9921 48.1691 18.298 48.1837 18.6185C47.79 18.5165 47.3816 18.7496 47.2795 19.1576C47.192 19.4781 47.3379 19.8131 47.615 19.9734C48.0233 19.886 48.3295 19.7403 48.5337 19.5509C48.7525 19.3615 48.8546 19.143 48.8108 18.9099L48.7816 18.6768L49.015 18.7059C49.3504 18.7496 49.6566 18.6914 49.9483 18.5165C50.1817 18.4 50.415 18.1815 50.6337 17.8755ZM48.8546 20.8912C48.2129 20.8766 47.8775 20.6873 47.8337 20.2939C48.242 20.1919 48.5629 20.0317 48.7962 19.8277C49.0441 19.6092 49.19 19.3615 49.2046 19.0847C49.54 19.0847 49.8462 19.0119 50.1525 18.8371C50.415 18.6768 50.6629 18.4583 50.9108 18.1232C51.2754 18.4583 51.2025 19.041 50.6775 19.8423C50.5462 20.2502 50.5317 20.6727 50.6337 21.0952C50.2254 20.7747 49.6275 20.7018 48.8546 20.8912Z" fill="#FDDD16"/>
<path fill-rule="evenodd" clip-rule="evenodd" d="M42.4962 30.623C42.0879 29.8363 41.8983 29.4429 41.8983 29.4429C33.9357 32.3712 25.4044 31.8759 16.3043 27.9569C16.3335 29.0496 16.3481 29.5886 16.3481 29.5886C17.6897 29.7926 18.3606 29.8946 18.3606 29.8946C19.9939 32.0798 20.8106 33.1725 20.8106 33.1725C23.6836 33.1142 25.5357 33.2599 26.3669 33.6095C28.394 34.3234 30.6107 34.2651 32.5795 33.4347C34.2274 32.8228 36.1232 32.6917 38.2962 33.0268C40.0899 31.4534 40.9941 30.6813 40.9941 30.6813C41.9858 30.6376 42.4962 30.623 42.4962 30.623ZM18.5064 36.4941C18.1273 36.7709 18.0398 37.0623 18.2439 37.3682C20.9419 36.5232 23.2169 36.6543 25.3461 37.3536C27.694 38.1258 30.144 38.2132 32.1857 37.2225C33.2649 36.7126 35.0295 36.5815 37.3191 36.9457C38.967 37.2079 40.4545 36.5232 41.6066 34.9207C40.0462 35.7074 38.6753 36.1153 37.7274 35.9842C35.1753 35.6345 33.3816 36.0425 32.0253 36.4795C29.4003 37.3245 27.2711 37.1788 25.6669 36.6398C22.896 35.7365 20.5627 35.5326 18.5064 36.4941ZM18.521 34.8916C20.1835 33.6387 22.619 33.6678 25.8711 34.5565C28.2773 35.2121 30.844 34.979 33.2211 34.3817C34.8253 33.6824 36.5607 33.4201 38.4128 33.7406C39.5212 33.93 40.6004 33.9883 41.6795 33.7843C41.1399 34.6002 40.3087 34.7896 39.142 34.5856C36.8087 34.1923 35.0878 34.4545 33.9503 35.0227C31.6315 36.1736 29.3273 36.5524 27.1836 35.9405C23.2023 34.8333 20.0523 34.877 17.646 36.3775C17.3106 36.1299 17.5877 35.6054 18.521 34.8916ZM36.0066 29.0642L35.467 27.9715H36.2545L36.7941 29.0642H36.0066ZM36.1816 29.3847H36.9691L37.5087 30.4773H36.7212L36.1816 29.3847ZM29.3128 30.4919H28.5253L27.9857 29.3992H28.7732L29.3128 30.4919ZM30.494 30.4919H29.7065L29.1669 29.3992H29.9544L30.494 30.4919ZM31.6753 30.4919H30.8878L30.3482 29.3992H31.1357L31.6753 30.4919ZM32.8711 30.4919H32.0836L31.544 29.3992H32.3315L32.8711 30.4919ZM33.9503 30.4919H33.1628L32.6232 29.3992H33.4107L33.9503 30.4919ZM35.1316 30.4919H34.3441L33.8045 29.3992H34.592L35.1316 30.4919ZM35.7732 29.3847L36.3128 30.4773H35.5253L34.9857 29.3847H35.7732ZM34.2857 27.9569H35.0732L35.6128 29.0496H34.8253L34.2857 27.9569ZM33.0899 27.9569H33.8774L34.417 29.0496H33.6295L33.0899 27.9569ZM31.9086 27.9569H32.6961L33.2357 29.0496H32.4482L31.9086 27.9569ZM30.8294 27.9569H31.617L32.1565 29.0496H31.369L30.8294 27.9569ZM29.6482 27.9569H30.4357L30.9753 29.0496H30.1878L29.6482 27.9569ZM28.4523 27.9569H29.2398L29.7794 29.0496H28.9919L28.4523 27.9569ZM28.5982 29.0642H27.8107L27.2711 27.9715H28.0586L28.5982 29.0642ZM30.1294 26.5292L30.669 27.6219H31.4565L30.9169 26.5292H30.1294ZM28.9336 26.5292H29.7211L30.2607 27.6219H29.4732L28.9336 26.5292ZM27.7523 26.5292L28.2919 27.6219H29.0794L28.5398 26.5292H27.7523ZM27.8836 27.6364H27.0961L26.5565 26.5438H27.344L27.8836 27.6364ZM25.9294 26.9517C27.0523 29.239 27.6211 30.3899 27.6211 30.3899C27.6211 30.3899 26.2502 30.1131 23.494 29.5449C25.1273 27.8113 25.9294 26.9517 25.9294 26.9517Z" fill="#005C9F"/>
<path fill-rule="evenodd" clip-rule="evenodd" d="M10.1793 38.1258C10.223 38.9562 9.65425 39.6846 8.83758 39.8303C8.80841 38.9999 9.37716 38.286 10.1793 38.1258ZM9.08549 40.5004C8.99799 40.515 8.92508 40.5878 8.88133 40.6752C9.21675 41.6222 9.63967 42.3506 10.1501 42.8314C10.573 42.4963 10.7772 42.3215 10.7772 42.3215C9.98967 41.6805 9.42091 41.0686 9.08549 40.5004ZM6.12505 40.0925C6.62089 40.9083 7.64173 41.2143 8.50216 40.8209C8.00632 40.0342 7.00006 39.7137 6.12505 40.0925ZM6.22714 38.6356C7.1459 38.4608 8.06465 38.9853 8.38549 39.8594C7.46673 40.0634 6.53339 39.5389 6.22714 38.6356ZM5.8188 37.0914C6.05214 38.0092 6.94173 38.6065 7.87507 38.49C7.62715 37.5721 6.75214 36.9894 5.8188 37.0914ZM5.42505 35.3286C5.57088 36.261 6.40214 36.9457 7.35006 36.902C7.17506 35.9842 6.35839 35.314 5.42505 35.3286ZM5.77505 33.4493C6.69381 33.6678 7.30631 34.5273 7.2334 35.4597C6.31464 35.2703 5.68755 34.3962 5.77505 33.4493ZM5.95005 31.803C5.84797 32.75 6.47506 33.6095 7.4084 33.8135C7.46673 32.8811 6.85423 32.0216 5.95005 31.803ZM6.03755 30.0548C6.95631 30.2733 7.56882 31.1329 7.4959 32.0653C6.57714 31.8613 5.95005 30.9872 6.03755 30.0548ZM6.03755 28.292C5.93547 29.239 6.56256 30.0985 7.4959 30.3025C7.56882 29.3701 6.95631 28.5251 6.03755 28.292ZM6.56256 20.425C6.40214 21.3574 6.97089 22.2607 7.88965 22.5229C8.0209 21.6051 7.46673 20.7164 6.56256 20.425ZM6.54797 22.4646C7.39381 22.8871 7.80215 23.8486 7.53965 24.7373C6.67923 24.344 6.25631 23.3533 6.54797 22.4646ZM6.18339 24.4022C6.00839 25.3346 6.57714 26.2524 7.48131 26.5147C7.62715 25.5969 7.07298 24.7082 6.18339 24.4022ZM6.09589 26.2961C7.01464 26.5147 7.62715 27.3742 7.55423 28.3066C6.62089 28.1026 5.9938 27.2431 6.09589 26.2961ZM9.55216 19.0556C9.65425 20.0026 9.02716 20.8621 8.1084 21.0806C8.03549 20.1337 8.64799 19.2887 9.55216 19.0556ZM10.0918 20.5562C9.15841 20.5562 8.34174 21.2263 8.1959 22.1587C9.14383 22.1878 9.9605 21.5031 10.0918 20.5562ZM9.49383 22.4938C9.50841 23.4407 8.79383 24.242 7.86048 24.3585C7.87507 23.4261 8.56049 22.6394 9.49383 22.4938ZM9.36258 24.1254C8.44382 24.3148 7.78757 25.1452 7.83132 26.0776C8.76466 25.9174 9.42091 25.0724 9.36258 24.1254ZM9.45008 26.0339C9.50841 26.9809 8.85216 27.8258 7.91882 27.9861C7.87507 27.0537 8.53132 26.2379 9.45008 26.0339ZM9.24591 28.2337C9.33341 29.1807 8.69174 30.0402 7.77298 30.2296C7.71465 29.2972 8.34174 28.4523 9.24591 28.2337ZM9.45008 30.1859C8.51674 30.2879 7.80215 31.06 7.74382 31.9924C8.69174 31.9196 9.4355 31.1329 9.45008 30.1859ZM9.31883 31.803C9.37716 32.75 8.72091 33.5804 7.78757 33.7552C7.74382 32.8083 8.40007 31.9924 9.31883 31.803ZM9.27508 33.5075C8.35632 33.6969 7.70007 34.5128 7.74382 35.4597C8.66257 35.2849 9.31883 34.4545 9.27508 33.5075ZM9.47925 35.1101C9.53758 36.057 8.88133 36.8874 7.94799 37.0622C7.90424 36.1153 8.56049 35.2995 9.47925 35.1101ZM9.50841 36.9166C8.70632 37.0768 8.13757 37.8052 8.16674 38.6211C8.98341 38.4754 9.55216 37.747 9.50841 36.9166Z" fill="#FDDD16"/>
<path fill-rule="evenodd" clip-rule="evenodd" d="M1.00623 0.058274H3.44166H6.82502C9.65421 0.058274 11.973 2.37466 11.973 5.20095V5.49232C11.973 8.31861 9.65421 10.635 6.82502 10.635H3.44166V13.5778H1.00623V10.635V0.058274ZM3.66041 7.96896H6.82502C8.18129 7.96896 9.30421 6.84719 9.30421 5.49232V5.20095C9.30421 3.84608 8.18129 2.72431 6.82502 2.72431H3.66041V7.96896ZM41.6649 10.635V0.058274H44.1003H47.4837C50.3129 0.058274 52.6317 2.37466 52.6317 5.20095V5.49232C52.6317 7.47363 51.4942 9.20728 49.8316 10.0668L51.1879 13.5778H48.5629L47.4108 10.635H44.1003V13.5778H41.6649V10.635V10.635ZM44.3191 7.96896H47.4837C48.84 7.96896 49.9629 6.84719 49.9629 5.49232V5.20095C49.9629 3.84608 48.84 2.72431 47.4837 2.72431H44.3191V7.96896ZM55.0817 0.058274H57.5171V13.5778H55.0817V0.058274ZM19.9501 13.3739C22.9543 13.3739 25.3752 10.8244 25.3752 7.66302V0H23.0127V7.66302C23.0127 9.44038 21.6418 10.8972 19.9356 10.8972C18.2439 10.8972 16.8584 9.45495 16.8584 7.66302V0H14.5251V7.66302C14.5251 10.8098 16.9605 13.3739 19.9501 13.3739ZM35.0294 11.174H32.1419C31.3836 11.174 30.844 10.5767 30.7856 9.80459H28.2773C28.3356 11.9462 30.0565 13.4904 32.1565 13.4904H35.5836C37.7274 13.4904 39.4628 11.6985 39.4628 9.49865C39.4628 7.29881 37.319 5.84196 35.1898 5.65257L32.3752 5.40491C31.5732 5.33207 30.6836 4.64735 30.6836 3.81694C30.6836 2.98654 31.3398 2.31639 32.1419 2.31639H35.569C36.3711 2.31639 36.7649 3.16136 36.7649 3.99177H39.2732C39.2732 1.79192 37.5232 0 36.2253 0H31.194C30.3336 0 28.2773 1.52969 28.2773 3.72953C28.2773 5.92937 30.144 7.88155 33.9065 7.89612H34.7815C35.5836 7.89612 36.6774 8.60998 36.6774 9.48409C36.6628 10.9555 35.8315 11.174 35.0294 11.174Z" fill="#005C9F"/>
<path fill-rule="evenodd" clip-rule="evenodd" d="M0 15.5592H14.146H44.1441H58.2901V45.0458V45.8762V62.8777C58.2901 78.8884 45.1795 92.0001 29.1377 92.0001C13.1105 92.0001 0 78.903 0 62.8777V45.8762V45.0458V15.5592ZM14.146 16.3896H0.831257V45.0458H14.146V16.3896ZM14.146 45.8762H0.831257V62.8777C0.831257 78.4368 13.5772 91.1697 29.1523 91.1697C44.7275 91.1697 57.4734 78.4368 57.4734 62.8777V45.8762H44.1441V62.8777C44.1441 71.0943 37.3628 77.8541 29.1523 77.8541C20.9273 77.8686 14.146 71.0943 14.146 62.8777V45.8762ZM44.1441 45.0458H57.4588V16.3896H44.1295V45.0458H44.1441ZM14.9772 16.3896V45.0458H43.3129V16.3896H14.9772ZM14.9772 45.8762V62.8777C14.9772 70.6281 21.3793 77.0237 29.1377 77.0237C36.8961 77.0237 43.2983 70.6281 43.2983 62.8777V45.8762H14.9772Z" fill="black"/>
<path fill-rule="evenodd" clip-rule="evenodd" d="M16.8002 55.9284H18.1127V54.1365H19.1919C20.3002 54.1365 21.0148 53.612 21.0148 52.2863C21.0148 51.0188 20.1398 50.5672 19.1919 50.5672H16.8002V55.9284V55.9284ZM18.1127 51.689H18.9877C19.396 51.689 19.6877 51.8929 19.6877 52.3883C19.6877 52.869 19.396 53.0584 18.9877 53.0584H18.1127V51.689V51.689ZM25.9732 50.5672H24.6607V53.7868C24.6607 54.4716 24.4273 54.8358 23.7856 54.8358C23.144 54.8358 22.9106 54.4861 22.9106 53.7868V50.5672H21.5981V53.714C21.5981 55.2728 22.269 56.045 23.7856 56.045C25.3023 56.045 25.9732 55.2728 25.9732 53.714V50.5672ZM26.8482 55.9284H28.1607V54.1365H29.2399C30.3482 54.1365 31.0628 53.612 31.0628 52.2863C31.0628 51.0188 30.1878 50.5672 29.2399 50.5672H26.8482V55.9284ZM28.1607 51.689H29.0357C29.444 51.689 29.7357 51.8929 29.7357 52.3883C29.7357 52.869 29.444 53.0584 29.0357 53.0584H28.1607V51.689ZM36.0358 50.5672H34.7232V53.7868C34.7232 54.4716 34.4899 54.8358 33.8482 54.8358C33.2066 54.8358 32.9732 54.4861 32.9732 53.7868V50.5672H31.6607V53.714C31.6607 55.2728 32.3316 56.045 33.8482 56.045C35.3649 56.045 36.0358 55.2728 36.0358 53.714V50.5672ZM36.8962 55.9284H38.2087V54.2822L38.7483 53.6849L40.1045 55.9284H41.7379L39.6379 52.6796L41.5045 50.5672H39.8712L38.2087 52.6214V50.5672H36.8962V55.9284Z" fill="#FDDD16"/>
<path fill-rule="evenodd" clip-rule="evenodd" d="M23.8731 57.8369H22.5606V61.0565C22.5606 61.7413 22.3272 62.1055 21.6856 62.1055C21.0439 62.1055 20.8106 61.7558 20.8106 61.0565V57.8369H19.498V60.9837C19.498 62.5425 20.1689 63.3147 21.6856 63.3147C23.2022 63.3147 23.8731 62.5425 23.8731 60.9837V57.8369ZM24.7481 63.1981H26.0606V61.2459H27.0523C27.6648 61.2459 27.7523 61.7995 27.7814 62.3386C27.796 62.4843 27.8106 63.0087 27.9273 63.1981H29.2252C29.0502 63.0087 29.021 62.222 29.021 61.9889C28.9773 61.479 28.8169 60.838 28.2919 60.7069V60.6923C28.8169 60.4738 29.0794 59.9202 29.0794 59.352C29.0794 58.274 28.2044 57.8369 27.3148 57.8369H24.7481V63.1981V63.1981ZM26.0606 58.9587H27.1106C27.4752 58.9587 27.7669 59.1335 27.7669 59.5414C27.7669 59.9493 27.5481 60.1679 27.1544 60.1679H26.0606V58.9587ZM29.8377 63.1981H33.9211V62.0035H31.1502V60.9837H33.6148V59.9056H31.1502V58.9733H33.8482V57.8369H29.8377V63.1981ZM36.6919 59.3229L37.2607 61.2022H36.1232L36.6919 59.3229ZM34.1544 63.1981H35.4961L35.8169 62.2366H37.5669L37.8732 63.1981H39.244L37.3628 57.8369H36.0357L34.1544 63.1981Z" fill="#FDDD16"/>
<path fill-rule="evenodd" clip-rule="evenodd" d="M30.144 65.4417C30.3919 65.4417 30.596 65.6456 30.596 65.8933C30.596 66.1409 30.3919 66.3449 30.144 66.3449C29.896 66.3449 29.6919 66.1409 29.6919 65.8933C29.6919 65.6456 29.896 65.4417 30.144 65.4417ZM30.3919 68.0057C30.3919 67.758 30.596 67.5541 30.844 67.5541C31.0919 67.5541 31.2961 67.758 31.2961 68.0057C31.2961 68.2534 31.0919 68.4573 30.844 68.4573C30.596 68.4719 30.3919 68.2679 30.3919 68.0057ZM28.9773 68.0057C28.9773 67.758 29.1814 67.5541 29.4294 67.5541C29.6773 67.5541 29.8815 67.758 29.8815 68.0057C29.8815 68.2534 29.6773 68.4573 29.4294 68.4573C29.1814 68.4719 28.9773 68.2679 28.9773 68.0057ZM30.144 66.8402C29.896 66.8402 29.6919 67.0442 29.6919 67.2918C29.6919 67.5395 29.896 67.7435 30.144 67.7435C30.3919 67.7435 30.596 67.5395 30.596 67.2918C30.596 67.0442 30.3919 66.8402 30.144 66.8402ZM30.144 68.2679C29.896 68.2679 29.6919 68.4719 29.6919 68.7196C29.6919 68.9672 29.896 69.1712 30.144 69.1712C30.3919 69.1712 30.596 68.9672 30.596 68.7196C30.596 68.4719 30.3919 68.2679 30.144 68.2679ZM31.4273 68.8361C31.6752 68.8361 31.8794 69.0401 31.8794 69.2877C31.8794 69.5354 31.6752 69.7394 31.4273 69.7394C31.1794 69.7394 30.9752 69.5354 30.9752 69.2877C30.9752 69.0401 31.1794 68.8361 31.4273 68.8361ZM28.8606 68.8361C29.1085 68.8361 29.3127 69.0401 29.3127 69.2877C29.3127 69.5354 29.1085 69.7394 28.8606 69.7394C28.6127 69.7394 28.4085 69.5354 28.4085 69.2877C28.4085 69.0401 28.5981 68.8361 28.8606 68.8361ZM28.8606 66.2721C29.1085 66.2721 29.3127 66.476 29.3127 66.7237C29.3127 66.9713 29.1085 67.1753 28.8606 67.1753C28.6127 67.1753 28.4085 66.9713 28.4085 66.7237C28.3939 66.476 28.5981 66.2721 28.8606 66.2721ZM31.4273 66.2721C31.6752 66.2721 31.8794 66.476 31.8794 66.7237C31.8794 66.9713 31.6752 67.1753 31.4273 67.1753C31.1794 67.1753 30.9752 66.9713 30.9752 66.7237C30.9752 66.476 31.1794 66.2721 31.4273 66.2721ZM30.144 69.6665C30.3919 69.6665 30.596 69.8705 30.596 70.1181C30.596 70.3658 30.3919 70.5698 30.144 70.5698C29.896 70.5698 29.6919 70.3658 29.6919 70.1181C29.6919 69.8705 29.896 69.6665 30.144 69.6665ZM28.0294 67.5541C28.2773 67.5541 28.4814 67.758 28.4814 68.0057C28.4814 68.2534 28.2773 68.4573 28.0294 68.4573C27.7814 68.4573 27.5773 68.2534 27.5773 68.0057C27.5773 67.758 27.7814 67.5541 28.0294 67.5541ZM32.2586 67.5541C32.5065 67.5541 32.7106 67.758 32.7106 68.0057C32.7106 68.2534 32.5065 68.4573 32.2586 68.4573C32.0106 68.4573 31.8065 68.2534 31.8065 68.0057C31.8065 67.758 32.0106 67.5541 32.2586 67.5541Z" fill="#FEFEFE"/>
<path fill-rule="evenodd" clip-rule="evenodd" d="M26.5856 87.2361L27.3293 87.3089L27.6064 84.4244L25.3752 84.2058L25.2877 85.0799L26.4689 85.1965C26.3231 85.9249 25.8418 86.3037 25.0835 86.2163C24.0335 86.1143 23.7272 85.1819 23.8147 84.2932C23.9022 83.3609 24.3835 82.5013 25.4481 82.6033C26.0023 82.6616 26.4106 83.0112 26.4835 83.6085L27.6064 83.7251C27.5918 82.5013 26.6293 81.7292 25.5356 81.6272C23.8876 81.467 22.7939 82.6033 22.6335 84.1913C22.4876 85.7355 23.3335 87.0613 24.9814 87.2215C25.4918 87.2652 26.0606 87.1195 26.5127 86.6388L26.5856 87.2361ZM16.6688 84.133L18.9001 79.2525L19.9647 79.7333L20.5043 83.929H20.5189L22.0064 80.6657L23.0126 81.1173L20.7814 85.9977L19.7022 85.5024L19.1626 81.3213H19.148L17.6605 84.5846L16.6688 84.133ZM11.448 79.9227L12.3376 80.724L13.4459 80.1267L14.9334 81.467L14.4376 82.6179L15.3417 83.4337L17.4563 78.1162L16.5668 77.3004L11.448 79.9227ZM16.1001 78.6989L15.2834 80.622L14.248 79.6896L16.1001 78.6989ZM8.2396 75.2899L12.7459 72.4054L14.1167 74.5324C14.6709 75.3919 14.7584 76.1495 13.9271 76.6885C13.4896 76.9653 13.0376 76.9507 12.5855 76.6739C12.7751 77.3295 12.5417 77.8685 11.973 78.2327C11.0542 78.8155 10.1646 78.291 9.63961 77.4752L8.2396 75.2899ZM10.8792 74.9985L11.5792 76.0766C11.8563 76.4991 11.8563 76.907 11.3896 77.1984C10.923 77.5043 10.573 77.2421 10.325 76.8487L9.63961 75.7852L10.8792 74.9985ZM12.6146 73.8913L11.5646 74.5615L12.2063 75.5667C12.4251 75.9164 12.7605 76.0766 13.1396 75.8289C13.5626 75.5521 13.4459 75.1734 13.2126 74.8092L12.6146 73.8913ZM5.70208 68.0494L5.99375 69.1129L9.61045 68.1076V68.1222L6.34375 70.3949L6.59167 71.269L10.6021 71.5167V71.5312L6.94167 72.551L7.23334 73.6145L12.3959 72.1723L11.9438 70.5697L8.07918 70.424V70.4095L11.2875 68.2096L10.8355 66.6071L5.70208 68.0494ZM5.22083 62.222L5.26458 66.2866L6.25625 66.272L6.22708 63.3875L7.5396 63.3729L7.56876 65.9661L8.48752 65.9515L8.44377 63.3729L9.59586 63.3583L9.62503 66.1846L10.6167 66.17L10.573 62.1637L5.22083 62.222ZM5.24999 57.6329V61.4207H6.24167V58.813H10.6167V57.6329H5.24999ZM9.28961 54.5444V54.559L7.32084 55.2291V53.8451L9.28961 54.5444ZM5.24999 51.9221V53.1167L6.44584 53.5392V55.535L5.24999 55.943V57.1667L10.6167 55.1708V53.9616L5.24999 51.9221ZM9.69795 48.7316V49.6494C9.69795 50.203 9.58128 50.6837 8.89586 50.6837C8.21043 50.6837 8.09377 50.203 8.09377 49.6494V48.7316H9.69795ZM5.24999 47.5515V48.7316H7.17501V49.9699C7.17501 51.3102 8.02085 51.8201 8.89586 51.8201C9.77086 51.8201 10.6167 51.2956 10.6167 49.9699V47.5515H5.24999Z" fill="#005C9F"/>
<path fill-rule="evenodd" clip-rule="evenodd" d="M53.4337 52.6942V51.2665L52.4712 50.9314V49.0666L53.4337 48.7316V47.2747L48.067 49.2706V50.6837L53.4337 52.6942ZM49.5545 49.9845V49.9699L51.4358 49.3726V50.5818L49.5545 49.9845Z" fill="#005C9F"/>
<path d="M53.4337 53.1604H48.067V54.559H53.4337V53.1604Z" fill="#005C9F"/>
<path fill-rule="evenodd" clip-rule="evenodd" d="M51.5379 59.7453C52.9087 59.7308 53.4483 58.6527 53.4483 57.4144C53.4483 56.2343 53.0108 55.0834 51.6546 55.0834C50.6921 55.0834 50.3275 55.8701 50.1087 56.6423C49.89 57.429 49.817 58.2011 49.4087 58.2011C49.0587 58.2011 48.9566 57.8223 48.9566 57.5309C48.9566 57.1085 49.117 56.6423 49.5983 56.6714V55.2728C48.3879 55.2874 47.8774 56.3509 47.8774 57.4144C47.8774 58.4196 48.3295 59.5997 49.5108 59.5997C50.4879 59.5997 50.8379 58.7984 51.0566 58.0263C51.2754 57.2541 51.3629 56.482 51.8441 56.482C52.2379 56.482 52.3983 56.9191 52.3983 57.3416C52.3983 57.9389 52.1942 58.3176 51.5671 58.3613V59.7453H51.5379Z" fill="#005C9F"/>
<path fill-rule="evenodd" clip-rule="evenodd" d="M53.3317 64.553L53.3463 60.2115H52.1359V63.169L51.1151 63.1544V60.5321H50.0359V63.1544H49.1025V60.2844H47.9796V64.553H53.3317Z" fill="#005C9F"/>
<path fill-rule="evenodd" clip-rule="evenodd" d="M52.4713 70.6134L52.69 69.3168L49.3942 68.7632V68.7487L53.0109 67.4812L53.2588 66.0681L47.965 65.1503L47.7462 66.4469L50.9984 67.0005V67.0296L47.4254 68.297L47.1775 69.7102L52.4713 70.6134Z" fill="#005C9F"/>
<path fill-rule="evenodd" clip-rule="evenodd" d="M46.8567 75.7853C48.1984 76.5574 49.7588 76.3535 50.5901 74.8966C51.4359 73.4398 50.838 71.9975 49.4963 71.2108C48.1546 70.4387 46.5942 70.6426 45.7629 72.0995C44.9171 73.5563 45.515 74.9986 46.8567 75.7853ZM47.5567 74.5761C46.8713 74.1828 46.3462 73.4835 46.7983 72.6968C47.2504 71.9101 48.1109 72.0121 48.7963 72.4054C49.4817 72.7988 50.0067 73.4981 49.5546 74.2847C49.1171 75.0714 48.2421 74.9695 47.5567 74.5761Z" fill="#005C9F"/>
<path fill-rule="evenodd" clip-rule="evenodd" d="M45.0483 82.0351L46.6379 80.3743C47.7608 79.1943 47.7608 77.8248 46.492 76.6157C45.2962 75.4648 43.8962 75.4939 42.7587 76.6885L41.1691 78.3493L45.0483 82.0351ZM43.0066 78.1599L43.4587 77.6792C44.1149 76.9944 44.8149 76.9362 45.5295 77.6063C46.3024 78.3493 46.317 78.9321 45.6024 79.7187L45.1504 80.1995L43.0066 78.1599Z" fill="#005C9F"/>
<path fill-rule="evenodd" clip-rule="evenodd" d="M39.3753 85.6335L40.5274 85.0217L38.9378 82.0788L38.9524 82.0643L42.19 84.1184L43.4441 83.4337L40.892 78.7281L39.7399 79.3545L41.3149 82.2537L41.3004 82.2682L38.092 80.2432L36.8232 80.9279L39.3753 85.6335Z" fill="#005C9F"/>
<path d="M36.4087 81.0754L35.041 81.3744L36.1884 86.6117L37.5561 86.3127L36.4087 81.0754Z" fill="#005C9F"/>
<path fill-rule="evenodd" clip-rule="evenodd" d="M31.5732 87.2361C31.2378 87.2361 30.9461 86.9884 30.7274 86.7845C30.5086 86.5659 30.3774 86.2746 30.3774 85.9395V83.8853C30.1149 83.6814 29.4586 83.6231 29.5024 83.6814C29.5461 83.3317 29.9545 83.186 30.4066 83.3172C30.4357 83.2298 30.4649 83.1423 30.5086 83.0549C30.217 82.6616 29.7795 82.4431 29.4878 82.4285C30.0857 82.2537 30.4941 82.2537 30.8003 82.3702C31.0482 81.7001 31.2232 81.7001 31.5732 81.2193C31.9232 81.7001 32.0982 81.7001 32.3462 82.3702C32.6524 82.2537 33.0607 82.2537 33.6587 82.4285C33.367 82.4431 32.9295 82.6761 32.6378 83.0549C32.6816 83.1423 32.7107 83.2298 32.7399 83.3172C33.192 83.186 33.6003 83.3317 33.6441 83.6814C33.6878 83.6377 33.0316 83.6959 32.7691 83.8853V85.9395C32.7691 86.26 32.6378 86.5659 32.4191 86.7845C32.2003 86.9884 31.9086 87.2361 31.5732 87.2361ZM31.5732 82.6761C31.0774 82.8655 30.9024 83.1132 30.9024 83.594V85.9395C30.9024 86.2017 31.092 86.3474 31.5732 86.3474C32.0545 86.3474 32.2441 86.1872 32.2441 85.9395V83.594C32.2441 83.1132 32.0691 82.8655 31.5732 82.6761Z" fill="#005C9F"/>
</g>
<defs>
<clipPath id="clip0_3572_61194">
<rect width="58.2901" height="92" fill="white"/>
</clipPath>
</defs>
</svg>
