<svg width="391" height="92" viewBox="0 0 391 92" fill="none" xmlns="http://www.w3.org/2000/svg">
<g clip-path="url(#clip0_3572_122638)">
<path fill-rule="evenodd" clip-rule="evenodd" d="M0 15.5591H58.2667V62.8776C58.2667 78.8884 45.1614 92 29.126 92C13.1053 92 0 78.9029 0 62.8776V15.5591Z" fill="#FBDE16"/>
<path fill-rule="evenodd" clip-rule="evenodd" d="M14.1404 45.8762H44.0828V62.8922C44.0828 71.1234 37.3479 77.854 29.1116 77.854C20.8752 77.854 14.1404 71.1234 14.1404 62.8922V45.8762Z" fill="#025BA1"/>
<path d="M14.5923 15.9962H0.320801V45.3809H14.5923V15.9962Z" fill="#025BA1"/>
<path d="M57.844 15.9963H43.5725V45.3809H57.844V15.9963Z" fill="#025BA1"/>
<path fill-rule="evenodd" clip-rule="evenodd" d="M52.975 41.5056C53.8205 41.7533 54.2578 42.0155 54.2724 42.2923C52.4793 41.7824 51.0944 41.8553 50.1177 42.5254C49.1702 41.9427 47.829 41.7533 46.1089 41.9572C46.692 41.695 47.1876 41.5639 47.5667 41.5639C47.348 41.4473 47.071 41.3745 46.7649 41.3599C47.2751 41.156 48.004 41.156 48.9224 41.3599C48.7912 41.0977 48.5434 40.8937 48.2081 40.7481C48.7766 40.7189 49.2722 40.8792 49.695 41.2142C49.8408 40.85 50.074 40.5732 50.3947 40.3838C50.2635 40.7626 50.2781 41.0394 50.453 41.2288C51.0653 41.054 51.4297 40.7481 51.5609 40.3256C51.6192 40.6606 51.5901 40.9666 51.4589 41.2725C51.9691 40.9666 52.5376 40.7626 53.1645 40.6898C52.6105 40.952 52.3335 41.1414 52.3627 41.3017C53.0624 41.1268 53.6747 41.0831 54.2141 41.156C53.7621 41.2725 53.3394 41.3891 52.975 41.5056ZM53.6893 32.4586C53.733 31.9778 53.4414 31.5116 52.9604 31.366C52.5376 30.7541 51.7213 30.5647 51.0653 30.9289C50.628 30.7978 50.1615 30.9435 49.8845 31.3077V31.3222C50.0303 31.4388 50.176 31.5262 50.3072 31.5699C50.4822 31.6428 50.6425 31.6719 50.8029 31.6573H50.8758L50.9341 31.7156C51.109 31.8904 51.3568 31.9341 51.6775 31.8321L51.765 31.803L51.8379 31.8613C51.9983 32.007 52.144 32.1089 52.2752 32.1526C52.4064 32.2109 52.5376 32.2255 52.6542 32.1964L52.7563 32.2109C52.975 32.3275 53.2228 32.4003 53.4852 32.4295C53.5581 32.4586 53.6164 32.4586 53.6893 32.4586ZM51.2839 34.032C51.007 33.4055 50.6863 33.1142 50.0448 32.6625C49.6513 32.3857 49.6075 31.9633 49.7241 31.6282C49.8845 31.7447 50.0303 31.8321 50.1906 31.8904C50.3801 31.9633 50.5696 32.007 50.7592 32.007C51.007 32.2255 51.3131 32.2838 51.6921 32.1818C51.8525 32.3129 52.0128 32.4149 52.1586 32.4732C52.3335 32.546 52.4939 32.5606 52.6542 32.546C52.9021 32.6771 53.1645 32.75 53.456 32.7791C53.4998 32.7791 53.5435 32.7937 53.6018 32.7937C53.4123 33.2307 52.9312 33.4784 52.4502 33.3764C51.9983 33.3764 51.6192 33.5949 51.2839 34.032ZM54.6222 27.6801C54.6368 27.112 54.2724 26.6166 53.6747 26.4418C53.456 26.1067 53.0624 25.8882 52.6397 25.8736C52.2169 25.8591 51.8087 26.0485 51.5609 26.3835C51.1819 26.4418 50.8466 26.6458 50.6425 26.9371C50.8612 27.1265 51.0944 27.2431 51.3423 27.2868C51.6484 27.345 51.9837 27.3013 52.3335 27.1411L52.4356 27.0974L52.5085 27.1702C52.8583 27.4907 53.2228 27.6801 53.6164 27.753C53.9371 27.8112 54.2724 27.7967 54.6222 27.6801ZM50.8758 28.5397C50.453 28.2629 50.351 27.7238 50.4968 27.2576C50.4968 27.2431 50.5113 27.2285 50.5113 27.2139C50.7592 27.4033 51.0216 27.5344 51.2985 27.5927C51.6484 27.6656 52.0128 27.6219 52.3918 27.4762C52.7709 27.7967 53.1645 28.0006 53.5872 28.0735C53.9079 28.1317 54.2432 28.1172 54.5931 28.0298C54.4327 28.5397 53.9808 28.8456 53.3831 28.9476C53.0041 29.0059 52.6251 29.2972 52.319 29.6323C52.0711 29.1807 51.4297 28.9039 50.8758 28.5397ZM53.4123 22.4209C53.179 21.9401 52.6542 21.6779 52.1295 21.809C51.8525 21.6051 51.5026 21.5614 51.1819 21.6779C50.8612 21.7945 50.628 22.0713 50.5551 22.3918C50.176 22.6394 49.8408 23.1056 49.8991 23.5427C49.9136 23.6009 49.9137 23.6738 49.9428 23.7321C50.0594 23.6447 50.1615 23.5572 50.2635 23.4698C50.4093 23.3387 50.5259 23.2076 50.5988 23.0911L50.6717 22.9745L50.8029 23.0328C51.007 23.1202 51.1673 23.1348 51.2985 23.0911C51.4151 23.0473 51.5172 22.9454 51.5901 22.7851L51.6484 22.654L51.7796 22.6831C52.2461 22.7997 52.5814 22.7414 52.7854 22.4937L52.8438 22.4209H52.9312C53.077 22.4646 53.2519 22.45 53.4123 22.4209ZM50.9049 24.4751C50.4822 24.4896 50.2198 24.3148 50.074 24.0671C50.2344 23.9506 50.3656 23.8486 50.4822 23.7321C50.6134 23.6155 50.7154 23.499 50.7883 23.397C51.007 23.4698 51.2111 23.4844 51.386 23.4261C51.5609 23.3679 51.7067 23.2513 51.8087 23.0619C52.3044 23.1639 52.698 23.0765 52.9604 22.7997C53.1499 22.8143 53.3394 22.7997 53.4997 22.756C53.5872 23.2659 53.3686 23.6592 52.8 23.9797C52.5085 24.1546 52.3918 24.5625 52.421 25.0287C52.1149 24.5188 51.6775 24.4314 50.9049 24.4751ZM52.7563 37.0477C52.7854 36.4941 52.3627 36.0861 51.9837 36.0716C51.6775 35.3577 50.9195 35.2849 50.3947 35.7219C49.5346 35.5617 49.0244 35.7511 48.8641 36.2901C49.039 36.3775 49.1993 36.4358 49.3597 36.4795C49.5638 36.5232 49.7679 36.5232 49.9428 36.4795L50.0157 36.4649L50.074 36.5086C50.2635 36.6543 50.5405 36.698 50.8904 36.6543L50.9778 36.6397L51.0361 36.7126C51.109 36.8 51.2111 36.8728 51.3277 36.902C51.4589 36.9457 51.6047 36.9457 51.7796 36.9165H51.8379C52.1295 36.9748 52.4356 37.0185 52.7563 37.0477ZM49.3889 37.9072C48.8495 37.6887 48.6891 37.2516 48.8057 36.6106C48.9807 36.698 49.141 36.7563 49.3014 36.7854C49.5346 36.8291 49.7533 36.8437 49.9574 36.8C50.1906 36.9603 50.4968 37.0185 50.8612 36.9748C50.9632 37.0768 51.0944 37.1642 51.2548 37.2079C51.4151 37.2516 51.6047 37.2662 51.8233 37.2371C52.1003 37.3099 52.4356 37.3536 52.7854 37.3827C52.8438 37.8344 52.319 38.3005 51.7067 38.388C51.1382 38.5191 50.7883 38.825 50.6425 39.2766C50.3801 38.5628 50.0157 38.2423 49.3889 37.9072ZM50.6134 17.8755C50.3218 17.22 49.797 17.2782 49.4617 17.7298C49.1702 17.5987 48.8349 17.6424 48.5725 17.8173C48.3101 17.9921 48.1498 18.298 48.1643 18.6185C47.7707 18.5165 47.3626 18.7496 47.2605 19.1576C47.1731 19.4781 47.3188 19.8131 47.5958 19.9734C48.004 19.886 48.3101 19.7403 48.5142 19.5509C48.7329 19.3615 48.8349 19.143 48.7912 18.9099L48.762 18.6768L48.9953 18.7059C49.3305 18.7496 49.6367 18.6914 49.9282 18.5165C50.1615 18.4 50.3947 18.1815 50.6134 17.8755ZM48.8349 20.8912C48.1935 20.8766 47.8582 20.6873 47.8145 20.2939C48.2226 20.1919 48.5434 20.0317 48.7766 19.8277C49.0244 19.6092 49.1702 19.3615 49.1848 19.0847C49.5201 19.0847 49.8262 19.0119 50.1323 18.8371C50.3947 18.6768 50.6425 18.4583 50.8904 18.1232C51.2548 18.4583 51.1819 19.041 50.6571 19.8423C50.5259 20.2502 50.5113 20.6727 50.6134 21.0952C50.2052 20.7747 49.6075 20.7018 48.8349 20.8912Z" fill="#FDDD16"/>
<path fill-rule="evenodd" clip-rule="evenodd" d="M42.4792 30.6229C42.0711 29.8362 41.8815 29.4429 41.8815 29.4429C33.9222 32.3711 25.3943 31.8758 16.2979 27.9569C16.327 29.0495 16.3416 29.5886 16.3416 29.5886C17.6827 29.7925 18.3533 29.8945 18.3533 29.8945C19.986 32.0798 20.8023 33.1724 20.8023 33.1724C23.6741 33.1141 25.5255 33.2598 26.3564 33.6095C28.3827 34.3233 30.5985 34.265 32.5665 33.4346C34.2137 32.8228 36.1088 32.6916 38.2809 33.0267C40.0739 31.4533 40.9777 30.6812 40.9777 30.6812C41.969 30.6375 42.4792 30.6229 42.4792 30.6229ZM18.4991 36.494C18.1201 36.7708 18.0326 37.0622 18.2367 37.3681C20.9335 36.5232 23.2076 36.6543 25.336 37.3536C27.683 38.1257 30.132 38.2131 32.1729 37.2224C33.2516 36.7126 35.0155 36.5814 37.3042 36.9456C38.9514 37.2079 40.4384 36.5232 41.59 34.9206C40.0302 35.7073 38.6599 36.1152 37.7124 35.9841C35.1613 35.6345 33.3682 36.0424 32.0125 36.4795C29.3885 37.3244 27.2602 37.1787 25.6567 36.6397C22.8869 35.7365 20.5545 35.5325 18.4991 36.494ZM18.5136 34.8915C20.1755 33.6386 22.61 33.6677 25.8608 34.5564C28.2661 35.212 30.8317 34.9789 33.2079 34.3816C34.8114 33.6823 36.5461 33.4201 38.3975 33.7406C39.5054 33.93 40.5841 33.9882 41.6629 33.7843C41.1235 34.6001 40.2926 34.7895 39.1264 34.5856C36.794 34.1922 35.0738 34.4544 33.9367 35.0226C31.6189 36.1735 29.3156 36.5523 27.1727 35.9404C23.1931 34.8332 20.0443 34.8769 17.639 36.3775C17.3037 36.1298 17.5807 35.6053 18.5136 34.8915ZM35.9922 29.0641L35.4528 27.9715H36.24L36.7794 29.0641H35.9922ZM36.1671 29.3846H36.9543L37.4937 30.4772H36.7065L36.1671 29.3846ZM29.3011 30.4918H28.5139L27.9745 29.3992H28.7617L29.3011 30.4918ZM30.4819 30.4918H29.6947L29.1553 29.3992H29.9425L30.4819 30.4918ZM31.6626 30.4918H30.8755L30.3361 29.3992H31.1233L31.6626 30.4918ZM32.858 30.4918H32.0708L31.5314 29.3992H32.3186L32.858 30.4918ZM33.9367 30.4918H33.1496L32.6102 29.3992H33.3974L33.9367 30.4918ZM35.1175 30.4918H34.3303L33.791 29.3992H34.5782L35.1175 30.4918ZM35.759 29.3846L36.2983 30.4772H35.5111L34.9718 29.3846H35.759ZM34.272 27.9569H35.0592L35.5986 29.0495H34.8114L34.272 27.9569ZM33.0767 27.9569H33.8639L34.4032 29.0495H33.616L33.0767 27.9569ZM31.8959 27.9569H32.6831L33.2224 29.0495H32.4353L31.8959 27.9569ZM30.8171 27.9569H31.6043L32.1437 29.0495H31.3565L30.8171 27.9569ZM29.6364 27.9569H30.4235L30.9629 29.0495H30.1757L29.6364 27.9569ZM28.441 27.9569H29.2282L29.7676 29.0495H28.9804L28.441 27.9569ZM28.5868 29.0641H27.7996L27.2602 27.9715H28.0474L28.5868 29.0641ZM30.1174 26.5292L30.6568 27.6218H31.444L30.9046 26.5292H30.1174ZM28.9221 26.5292H29.7092L30.2486 27.6218H29.4614L28.9221 26.5292ZM27.7413 26.5292L28.2806 27.6218H29.0678L28.5285 26.5292H27.7413ZM27.8725 27.6364H27.0853L26.5459 26.5437H27.3331L27.8725 27.6364ZM25.9191 26.9517C27.0415 29.2389 27.6101 30.3898 27.6101 30.3898C27.6101 30.3898 26.2398 30.113 23.4846 29.5449C25.1173 27.8112 25.9191 26.9517 25.9191 26.9517Z" fill="#005C9F"/>
<path fill-rule="evenodd" clip-rule="evenodd" d="M10.1751 38.1258C10.2189 38.9562 9.65035 39.6846 8.83401 39.8303C8.80485 38.9999 9.37338 38.286 10.1751 38.1258ZM9.08183 40.5004C8.99436 40.515 8.92147 40.5878 8.87774 40.6752C9.21303 41.6222 9.63578 42.3506 10.146 42.8314C10.5687 42.4963 10.7728 42.3215 10.7728 42.3215C9.98564 41.6805 9.41711 41.0686 9.08183 40.5004ZM6.12258 40.0925C6.61821 40.9083 7.63865 41.2143 8.49872 40.8209C8.00309 40.0342 6.99723 39.7137 6.12258 40.0925ZM6.22462 38.6356C7.14301 38.4608 8.0614 38.9853 8.3821 39.8594C7.46371 40.0634 6.53075 39.5389 6.22462 38.6356ZM5.81645 37.0914C6.04969 38.0092 6.93892 38.6065 7.87189 38.49C7.62407 37.5721 6.74941 36.9894 5.81645 37.0914ZM5.42285 35.3286C5.56863 36.261 6.39955 36.9457 7.34709 36.902C7.17216 35.9842 6.35582 35.314 5.42285 35.3286ZM5.77271 33.4493C6.6911 33.6678 7.30336 34.5273 7.23047 35.4597C6.31208 35.2703 5.68525 34.3962 5.77271 33.4493ZM5.94764 31.803C5.8456 32.75 6.47244 33.6095 7.4054 33.8135C7.46371 32.8811 6.85146 32.0216 5.94764 31.803ZM6.03511 30.0548C6.9535 30.2733 7.56576 31.1329 7.49287 32.0653C6.57448 31.8613 5.94765 30.9872 6.03511 30.0548ZM6.03511 28.292C5.93307 29.239 6.5599 30.0985 7.49287 30.3025C7.56576 29.3701 6.9535 28.5251 6.03511 28.292ZM6.5599 20.425C6.39955 21.3574 6.96808 22.2607 7.88646 22.5229C8.01766 21.6051 7.46371 20.7164 6.5599 20.425ZM6.54533 22.4646C7.39083 22.8871 7.799 23.8486 7.5366 24.7373C6.67652 24.344 6.25377 23.3533 6.54533 22.4646ZM6.18089 24.4022C6.00596 25.3346 6.57448 26.2524 7.47829 26.5147C7.62407 25.5969 7.07012 24.7082 6.18089 24.4022ZM6.09342 26.2961C7.01181 26.5147 7.62407 27.3742 7.55118 28.3066C6.61821 28.1026 5.99138 27.2431 6.09342 26.2961ZM9.54831 19.0556C9.65035 20.0026 9.02352 20.8621 8.10513 21.0806C8.03224 20.1337 8.6445 19.2887 9.54831 19.0556ZM10.0877 20.5562C9.15472 20.5562 8.33837 21.2263 8.19259 22.1587C9.14014 22.1878 9.95648 21.5031 10.0877 20.5562ZM9.49 22.4938C9.50458 23.4407 8.79028 24.242 7.85731 24.3585C7.87189 23.4261 8.55703 22.6394 9.49 22.4938ZM9.3588 24.1254C8.44041 24.3148 7.78442 25.1452 7.82815 26.0776C8.76112 25.9174 9.41711 25.0724 9.3588 24.1254ZM9.44627 26.0339C9.50458 26.9809 8.84859 27.8258 7.91562 27.9861C7.87189 27.0537 8.52788 26.2379 9.44627 26.0339ZM9.24218 28.2337C9.32965 29.1807 8.68823 30.0402 7.76984 30.2296C7.71153 29.2972 8.33837 28.4523 9.24218 28.2337ZM9.44627 30.1859C8.5133 30.2879 7.799 31.06 7.74069 31.9924C8.68823 31.9196 9.43169 31.1329 9.44627 30.1859ZM9.31507 31.803C9.37338 32.75 8.71739 33.5804 7.78442 33.7552C7.74069 32.8083 8.39668 31.9924 9.31507 31.803ZM9.27134 33.5075C8.35295 33.6969 7.69696 34.5128 7.74069 35.4597C8.65908 35.2849 9.31507 34.4545 9.27134 33.5075ZM9.47542 35.1101C9.53373 36.057 8.87774 36.8874 7.94478 37.0622C7.90104 36.1153 8.55703 35.2995 9.47542 35.1101ZM9.50458 36.9166C8.70281 37.0768 8.13428 37.8052 8.16344 38.6211C8.97978 38.4754 9.54831 37.747 9.50458 36.9166Z" fill="#FDDD16"/>
<path fill-rule="evenodd" clip-rule="evenodd" d="M1.00586 0.058274H3.44032H6.82232C9.65038 0.058274 11.9682 2.37466 11.9682 5.20095V5.49232C11.9682 8.31861 9.65038 10.635 6.82232 10.635H3.44032V13.5778H1.00586V10.635V0.058274ZM3.65898 7.96896H6.82232C8.17804 7.96896 9.30051 6.84719 9.30051 5.49232V5.20095C9.30051 3.84608 8.17804 2.72431 6.82232 2.72431H3.65898V7.96896ZM41.6482 10.635V0.058274H44.0827H47.4647C50.2927 0.058274 52.6106 2.37466 52.6106 5.20095V5.49232C52.6106 7.47363 51.4735 9.20728 49.8117 10.0668L51.1674 13.5778H48.5434L47.3918 10.635H44.0827V13.5778H41.6482V10.635V10.635ZM44.3013 7.96896H47.4647C48.8204 7.96896 49.9429 6.84719 49.9429 5.49232V5.20095C49.9429 3.84608 48.8204 2.72431 47.4647 2.72431H44.3013V7.96896ZM55.0596 0.058274H57.4941V13.5778H55.0596V0.058274ZM19.9422 13.3739C22.9452 13.3739 25.365 10.8244 25.365 7.66302V0H23.0035V7.66302C23.0035 9.44038 21.6332 10.8972 19.9276 10.8972C18.2366 10.8972 16.8517 9.45495 16.8517 7.66302V0H14.5193V7.66302C14.5193 10.8098 16.9538 13.3739 19.9422 13.3739ZM35.0154 11.174H32.129C31.371 11.174 30.8316 10.5767 30.7733 9.80459H28.266C28.3243 11.9462 30.0444 13.4904 32.1436 13.4904H35.5694C37.7123 13.4904 39.447 11.6985 39.447 9.49865C39.447 7.29881 37.3041 5.84196 35.1758 5.65257L32.3623 5.40491C31.5605 5.33207 30.6713 4.64735 30.6713 3.81694C30.6713 2.98654 31.3273 2.31639 32.129 2.31639H35.5548C36.3565 2.31639 36.7501 3.16136 36.7501 3.99177H39.2575C39.2575 1.79192 37.5082 0 36.2108 0H31.1815C30.3214 0 28.266 1.52969 28.266 3.72953C28.266 5.92937 30.1319 7.88155 33.8929 7.89612H34.7676C35.5694 7.89612 36.6627 8.60998 36.6627 9.48409C36.6481 10.9555 35.8172 11.174 35.0154 11.174Z" fill="#005C9F"/>
<path fill-rule="evenodd" clip-rule="evenodd" d="M0 15.5591H14.1403H44.1264H58.2667V45.0458V45.8762V62.8776C58.2667 78.8884 45.1614 92 29.126 92C13.1053 92 0 78.9029 0 62.8776V45.8762V45.0458V15.5591ZM14.1403 16.3895H0.830923V45.0458H14.1403V16.3895ZM14.1403 45.8762H0.830923V62.8776C0.830923 78.4368 13.5717 91.1696 29.1406 91.1696C44.7095 91.1696 57.4503 78.4368 57.4503 62.8776V45.8762H44.1264V62.8776C44.1264 71.0942 37.3478 77.854 29.1406 77.854C20.9189 77.8686 14.1403 71.0942 14.1403 62.8776V45.8762ZM44.1264 45.0458H57.4358V16.3895H44.1118V45.0458H44.1264ZM14.9712 16.3895V45.0458H43.2955V16.3895H14.9712ZM14.9712 45.8762V62.8776C14.9712 70.628 21.3708 77.0236 29.126 77.0236C36.8813 77.0236 43.2809 70.628 43.2809 62.8776V45.8762H14.9712Z" fill="black"/>
<path fill-rule="evenodd" clip-rule="evenodd" d="M16.7935 55.9284H18.1054V54.1365H19.1842C20.2921 54.1365 21.0064 53.612 21.0064 52.2863C21.0064 51.0188 20.1317 50.5672 19.1842 50.5672H16.7935V55.9284V55.9284ZM18.1054 51.689H18.9801C19.3883 51.689 19.6798 51.8929 19.6798 52.3883C19.6798 52.869 19.3883 53.0584 18.9801 53.0584H18.1054V51.689V51.689ZM25.9628 50.5672H24.6508V53.7868C24.6508 54.4716 24.4175 54.8358 23.7761 54.8358C23.1347 54.8358 22.9015 54.4861 22.9015 53.7868V50.5672H21.5895V53.714C21.5895 55.2728 22.2601 56.045 23.7761 56.045C25.2922 56.045 25.9628 55.2728 25.9628 53.714V50.5672ZM26.8374 55.9284H28.1494V54.1365H29.2282C30.336 54.1365 31.0504 53.612 31.0504 52.2863C31.0504 51.0188 30.1757 50.5672 29.2282 50.5672H26.8374V55.9284ZM28.1494 51.689H29.0241C29.4322 51.689 29.7238 51.8929 29.7238 52.3883C29.7238 52.869 29.4322 53.0584 29.0241 53.0584H28.1494V51.689ZM36.0213 50.5672H34.7093V53.7868C34.7093 54.4716 34.4761 54.8358 33.8347 54.8358C33.1933 54.8358 32.96 54.4861 32.96 53.7868V50.5672H31.648V53.714C31.648 55.2728 32.3186 56.045 33.8347 56.045C35.3507 56.045 36.0213 55.2728 36.0213 53.714V50.5672ZM36.8814 55.9284H38.1934V54.2822L38.7327 53.6849L40.0885 55.9284H41.7212L39.622 52.6796L41.4879 50.5672H39.8552L38.1934 52.6214V50.5672H36.8814V55.9284Z" fill="#FDDD16"/>
<path fill-rule="evenodd" clip-rule="evenodd" d="M23.8635 57.8369H22.5515V61.0565C22.5515 61.7413 22.3183 62.1055 21.6769 62.1055C21.0355 62.1055 20.8022 61.7558 20.8022 61.0565V57.8369H19.4902V60.9837C19.4902 62.5425 20.1608 63.3147 21.6769 63.3147C23.1929 63.3147 23.8635 62.5425 23.8635 60.9837V57.8369ZM24.7382 63.1981H26.0502V61.2459H27.0414C27.6537 61.2459 27.7412 61.7995 27.7703 62.3386C27.7849 62.4843 27.7995 63.0087 27.9161 63.1981H29.2135C29.0386 63.0087 29.0094 62.222 29.0094 61.9889C28.9657 61.479 28.8053 60.838 28.2805 60.7069V60.6923C28.8053 60.4738 29.0677 59.9202 29.0677 59.352C29.0677 58.274 28.1931 57.8369 27.3038 57.8369H24.7382V63.1981V63.1981ZM26.0502 58.9587H27.0997C27.4642 58.9587 27.7557 59.1335 27.7557 59.5414C27.7557 59.9493 27.5371 60.1679 27.1435 60.1679H26.0502V58.9587ZM29.8258 63.1981H33.9075V62.0035H31.1377V60.9837H33.6014V59.9056H31.1377V58.9733H33.8346V57.8369H29.8258V63.1981ZM36.6772 59.3229L37.2458 61.2022H36.1087L36.6772 59.3229ZM34.1407 63.1981H35.4819L35.8026 62.2366H37.5519L37.858 63.1981H39.2283L37.3478 57.8369H36.0212L34.1407 63.1981Z" fill="#FDDD16"/>
<path fill-rule="evenodd" clip-rule="evenodd" d="M30.1318 65.4417C30.3796 65.4417 30.5837 65.6456 30.5837 65.8933C30.5837 66.1409 30.3796 66.3449 30.1318 66.3449C29.884 66.3449 29.6799 66.1409 29.6799 65.8933C29.6799 65.6456 29.884 65.4417 30.1318 65.4417ZM30.3796 68.0057C30.3796 67.758 30.5837 67.5541 30.8315 67.5541C31.0794 67.5541 31.2835 67.758 31.2835 68.0057C31.2835 68.2534 31.0794 68.4573 30.8315 68.4573C30.5837 68.4719 30.3796 68.2679 30.3796 68.0057ZM28.9656 68.0057C28.9656 67.758 29.1697 67.5541 29.4175 67.5541C29.6653 67.5541 29.8694 67.758 29.8694 68.0057C29.8694 68.2534 29.6653 68.4573 29.4175 68.4573C29.1697 68.4719 28.9656 68.2679 28.9656 68.0057ZM30.1318 66.8402C29.884 66.8402 29.6799 67.0442 29.6799 67.2918C29.6799 67.5395 29.884 67.7435 30.1318 67.7435C30.3796 67.7435 30.5837 67.5395 30.5837 67.2918C30.5837 67.0442 30.3796 66.8402 30.1318 66.8402ZM30.1318 68.2679C29.884 68.2679 29.6799 68.4719 29.6799 68.7196C29.6799 68.9672 29.884 69.1712 30.1318 69.1712C30.3796 69.1712 30.5837 68.9672 30.5837 68.7196C30.5837 68.4719 30.3796 68.2679 30.1318 68.2679ZM31.4146 68.8361C31.6625 68.8361 31.8666 69.0401 31.8666 69.2877C31.8666 69.5354 31.6625 69.7394 31.4146 69.7394C31.1668 69.7394 30.9627 69.5354 30.9627 69.2877C30.9627 69.0401 31.1668 68.8361 31.4146 68.8361ZM28.849 68.8361C29.0968 68.8361 29.3009 69.0401 29.3009 69.2877C29.3009 69.5354 29.0968 69.7394 28.849 69.7394C28.6012 69.7394 28.3971 69.5354 28.3971 69.2877C28.3971 69.0401 28.5866 68.8361 28.849 68.8361ZM28.849 66.2721C29.0968 66.2721 29.3009 66.476 29.3009 66.7237C29.3009 66.9713 29.0968 67.1753 28.849 67.1753C28.6012 67.1753 28.3971 66.9713 28.3971 66.7237C28.3825 66.476 28.5866 66.2721 28.849 66.2721ZM31.4146 66.2721C31.6625 66.2721 31.8666 66.476 31.8666 66.7237C31.8666 66.9713 31.6625 67.1753 31.4146 67.1753C31.1668 67.1753 30.9627 66.9713 30.9627 66.7237C30.9627 66.476 31.1668 66.2721 31.4146 66.2721ZM30.1318 69.6665C30.3796 69.6665 30.5837 69.8705 30.5837 70.1181C30.5837 70.3658 30.3796 70.5698 30.1318 70.5698C29.884 70.5698 29.6799 70.3658 29.6799 70.1181C29.6799 69.8705 29.884 69.6665 30.1318 69.6665ZM28.0181 67.5541C28.2659 67.5541 28.47 67.758 28.47 68.0057C28.47 68.2534 28.2659 68.4573 28.0181 68.4573C27.7702 68.4573 27.5662 68.2534 27.5662 68.0057C27.5662 67.758 27.7702 67.5541 28.0181 67.5541ZM32.2456 67.5541C32.4934 67.5541 32.6975 67.758 32.6975 68.0057C32.6975 68.2534 32.4934 68.4573 32.2456 68.4573C31.9978 68.4573 31.7937 68.2534 31.7937 68.0057C31.7937 67.758 31.9978 67.5541 32.2456 67.5541Z" fill="#FEFEFE"/>
<path fill-rule="evenodd" clip-rule="evenodd" d="M26.5749 87.2361L27.3184 87.3089L27.5954 84.4244L25.365 84.2058L25.2775 85.0799L26.4583 85.1965C26.3125 85.9249 25.8315 86.3037 25.0734 86.2163C24.0239 86.1143 23.7177 85.1819 23.8052 84.2932C23.8927 83.3609 24.3737 82.5013 25.4379 82.6033C25.9918 82.6616 26.4 83.0112 26.4729 83.6085L27.5954 83.7251C27.5808 82.5013 26.6187 81.7292 25.5253 81.6272C23.8781 81.467 22.7848 82.6033 22.6244 84.1913C22.4786 85.7355 23.3241 87.0613 24.9714 87.2215C25.4816 87.2652 26.0501 87.1195 26.502 86.6388L26.5749 87.2361ZM16.6622 84.133L18.8925 79.2525L19.9567 79.7333L20.4961 83.929H20.5107L21.9976 80.6657L23.0034 81.1173L20.773 85.9977L19.6943 85.5024L19.1549 81.3213H19.1404L17.6534 84.5846L16.6622 84.133ZM11.4434 79.9227L12.3326 80.724L13.4405 80.1267L14.9274 81.467L14.4318 82.6179L15.3356 83.4337L17.4494 78.1162L16.5601 77.3004L11.4434 79.9227ZM16.0936 78.6989L15.2773 80.622L14.2423 79.6896L16.0936 78.6989ZM8.23631 75.2899L12.7408 72.4054L14.1111 74.5324C14.665 75.3919 14.7525 76.1495 13.9216 76.6885C13.4842 76.9653 13.0323 76.9507 12.5804 76.6739C12.7699 77.3295 12.5367 77.8685 11.9682 78.2327C11.0498 78.8155 10.1606 78.291 9.63576 77.4752L8.23631 75.2899ZM10.8749 74.9985L11.5746 76.0766C11.8516 76.4991 11.8516 76.907 11.3851 77.1984C10.9186 77.5043 10.5687 77.2421 10.3209 76.8487L9.63576 75.7852L10.8749 74.9985ZM12.6096 73.8913L11.56 74.5615L12.2014 75.5667C12.4201 75.9164 12.7554 76.0766 13.1344 75.8289C13.5571 75.5521 13.4405 75.1734 13.2073 74.8092L12.6096 73.8913ZM5.69981 68.0494L5.99136 69.1129L9.60661 68.1076V68.1222L6.34123 70.3949L6.58904 71.269L10.5979 71.5167V71.5312L6.93891 72.551L7.23046 73.6145L12.3909 72.1723L11.939 70.5697L8.07596 70.424V70.4095L11.283 68.2096L10.8311 66.6071L5.69981 68.0494ZM5.21875 62.222L5.26248 66.2866L6.25376 66.272L6.2246 63.3875L7.53659 63.3729L7.56574 65.9661L8.48413 65.9515L8.4404 63.3729L9.59203 63.3583L9.62119 66.1846L10.6125 66.17L10.5687 62.1637L5.21875 62.222ZM5.24791 57.6329V61.4207H6.23918V58.813H10.6125V57.6329H5.24791ZM9.2859 54.5444V54.559L7.31792 55.2291V53.8451L9.2859 54.5444ZM5.24791 51.9221V53.1167L6.44327 53.5392V55.535L5.24791 55.943V57.1667L10.6125 55.1708V53.9616L5.24791 51.9221ZM9.69407 48.7316V49.6494C9.69407 50.203 9.57745 50.6837 8.89231 50.6837C8.20716 50.6837 8.09054 50.203 8.09054 49.6494V48.7316H9.69407ZM5.24791 47.5515V48.7316H7.17215V49.9699C7.17215 51.3102 8.01765 51.8201 8.89231 51.8201C9.76696 51.8201 10.6125 51.2956 10.6125 49.9699V47.5515H5.24791Z" fill="#005C9F"/>
<path fill-rule="evenodd" clip-rule="evenodd" d="M53.4124 52.6942V51.2665L52.4503 50.9314V49.0666L53.4124 48.7316V47.2747L48.0479 49.2706V50.6837L53.4124 52.6942ZM49.5348 49.9845V49.9699L51.4153 49.3726V50.5818L49.5348 49.9845Z" fill="#005C9F"/>
<path d="M53.4124 53.1604H48.0479V54.559H53.4124V53.1604Z" fill="#005C9F"/>
<path fill-rule="evenodd" clip-rule="evenodd" d="M51.5171 59.7454C52.8874 59.7308 53.4268 58.6527 53.4268 57.4144C53.4268 56.2343 52.9895 55.0834 51.6338 55.0834C50.6716 55.0834 50.3072 55.8701 50.0885 56.6423C49.8699 57.429 49.797 58.2011 49.3888 58.2011C49.0389 58.2011 48.9369 57.8223 48.9369 57.5309C48.9369 57.1085 49.0973 56.6423 49.5783 56.6714V55.2728C48.3684 55.2874 47.8582 56.3509 47.8582 57.4144C47.8582 58.4196 48.3101 59.5997 49.4908 59.5997C50.4676 59.5997 50.8174 58.7984 51.0361 58.0263C51.2547 57.2541 51.3422 56.482 51.8233 56.482C52.2169 56.482 52.3772 56.9191 52.3772 57.3416C52.3772 57.9389 52.1731 58.3176 51.5463 58.3613V59.7454H51.5171Z" fill="#005C9F"/>
<path fill-rule="evenodd" clip-rule="evenodd" d="M53.3102 64.553L53.3248 60.2115H52.1148V63.169L51.0944 63.1544V60.5321H50.0156V63.1544H49.0827V60.2844H47.9602V64.553H53.3102Z" fill="#005C9F"/>
<path fill-rule="evenodd" clip-rule="evenodd" d="M52.4501 70.6134L52.6688 69.3168L49.3742 68.7632V68.7487L52.9895 67.4812L53.2373 66.0681L47.9456 65.1503L47.727 66.4469L50.9778 67.0005V67.0296L47.4063 68.297L47.1584 69.7102L52.4501 70.6134Z" fill="#005C9F"/>
<path fill-rule="evenodd" clip-rule="evenodd" d="M46.8379 75.7853C48.179 76.5574 49.7388 76.3535 50.5698 74.8966C51.4153 73.4398 50.8176 71.9975 49.4764 71.2108C48.1353 70.4387 46.5755 70.6426 45.7446 72.0995C44.8991 73.5563 45.4967 74.9986 46.8379 75.7853ZM47.5376 74.5761C46.8525 74.1828 46.3277 73.4835 46.7796 72.6968C47.2315 71.9101 48.0916 72.0121 48.7767 72.4054C49.4619 72.7988 49.9867 73.4981 49.5348 74.2847C49.0974 75.0714 48.2228 74.9695 47.5376 74.5761Z" fill="#005C9F"/>
<path fill-rule="evenodd" clip-rule="evenodd" d="M45.0302 82.0351L46.6192 80.3743C47.7417 79.1943 47.7417 77.8248 46.4734 76.6157C45.278 75.4648 43.8786 75.4939 42.7415 76.6885L41.1526 78.3493L45.0302 82.0351ZM42.9894 78.1599L43.4413 77.6792C44.0973 76.9944 44.797 76.9362 45.5113 77.6063C46.2839 78.3493 46.2985 78.9321 45.5842 79.7187L45.1323 80.1995L42.9894 78.1599Z" fill="#005C9F"/>
<path fill-rule="evenodd" clip-rule="evenodd" d="M39.3594 85.6336L40.5111 85.0217L38.9221 82.0789L38.9367 82.0643L42.1729 84.1185L43.4266 83.4338L40.8755 78.7281L39.7239 79.3546L41.2982 82.2537L41.2837 82.2683L38.0766 80.2433L36.8083 80.928L39.3594 85.6336Z" fill="#005C9F"/>
<path d="M36.394 81.0753L35.0269 81.3743L36.1738 86.6117L37.5409 86.3126L36.394 81.0753Z" fill="#005C9F"/>
<path fill-rule="evenodd" clip-rule="evenodd" d="M31.5604 87.2361C31.2251 87.2361 30.9336 86.9884 30.7149 86.7845C30.4963 86.5659 30.3651 86.2746 30.3651 85.9395V83.8853C30.1027 83.6814 29.4467 83.6231 29.4904 83.6814C29.5341 83.3317 29.9423 83.1861 30.3942 83.3172C30.4234 83.2298 30.4525 83.1423 30.4963 83.0549C30.2047 82.6616 29.7674 82.4431 29.4758 82.4285C30.0735 82.2537 30.4817 82.2537 30.7878 82.3702C31.0356 81.7001 31.2106 81.7001 31.5604 81.2193C31.9103 81.7001 32.0852 81.7001 32.333 82.3702C32.6392 82.2537 33.0473 82.2537 33.645 82.4285C33.3535 82.4431 32.9161 82.6761 32.6246 83.0549C32.6683 83.1423 32.6975 83.2298 32.7266 83.3172C33.1785 83.1861 33.5867 83.3317 33.6304 83.6814C33.6742 83.6377 33.0182 83.6959 32.7558 83.8853V85.9395C32.7558 86.26 32.6246 86.5659 32.4059 86.7845C32.1873 86.9884 31.8957 87.2361 31.5604 87.2361ZM31.5604 82.6762C31.0648 82.8655 30.8899 83.1132 30.8899 83.594V85.9395C30.8899 86.2017 31.0794 86.3474 31.5604 86.3474C32.0415 86.3474 32.231 86.1872 32.231 85.9395V83.594C32.231 83.1132 32.0561 82.8655 31.5604 82.6762Z" fill="#005C9F"/>
</g>
<g clip-path="url(#clip1_3572_122638)">
<path d="M260.276 25.8782C259.957 26.1258 259.946 26.4919 259.845 26.8041C258.322 31.4068 256.808 36.0143 255.303 40.6266C255.231 40.8147 255.17 41.0064 255.118 41.2007C255.02 41.6565 254.726 41.7641 254.291 41.7569C253.276 41.7354 252.261 41.7318 251.247 41.7569C251.063 41.7824 250.876 41.737 250.725 41.6302C250.574 41.5233 250.47 41.3632 250.435 41.1828C249.989 39.7474 249.514 38.3444 249.05 36.927C247.177 31.152 245.302 25.3938 243.424 19.6524C243.303 19.3923 243.237 19.11 243.232 18.8234C243.421 18.6225 243.664 18.6942 243.885 18.6942C244.809 18.6942 245.737 18.6942 246.665 18.6942C247.455 18.6942 247.466 18.6942 247.691 19.4119C248.268 21.2492 248.837 23.0865 249.398 24.9237C250.398 28.1557 251.401 31.3853 252.406 34.6124C252.455 34.9365 252.579 35.2449 252.769 35.5131C252.989 35.2521 253.131 34.9351 253.179 34.5981C254.812 29.6389 256.44 24.6761 258.061 19.7098C258.097 19.6021 258.13 19.4909 258.17 19.3832C258.416 18.6655 258.416 18.6655 259.13 18.6655C259.845 18.6655 260.638 18.6943 261.392 18.6655C261.491 18.6492 261.591 18.6525 261.689 18.6752C261.786 18.6979 261.877 18.7395 261.958 18.7976C262.039 18.8558 262.107 18.9293 262.158 19.0138C262.21 19.0983 262.244 19.1922 262.259 19.2899C262.828 21.0841 263.429 22.8783 264.02 24.6905C265.117 28.0397 266.218 31.3888 267.322 34.738C267.399 34.9713 267.399 35.2548 267.71 35.4342C267.876 35.2118 267.985 34.9534 268.029 34.6806L272.723 19.6524C272.781 19.4622 272.843 19.2684 272.905 19.0782C272.925 18.9642 272.985 18.8612 273.076 18.788C273.167 18.7148 273.281 18.6765 273.398 18.6799H277.178C277.25 18.9603 277.214 19.257 277.077 19.5124C274.757 26.6366 272.436 33.7584 270.114 40.8778C269.813 41.8036 269.943 41.7318 268.921 41.739C268.022 41.739 267.109 41.7103 266.224 41.739C266.119 41.7558 266.012 41.7517 265.908 41.7269C265.805 41.7021 265.707 41.6572 265.622 41.5947C265.536 41.5322 265.464 41.4535 265.409 41.3631C265.354 41.2726 265.318 41.1723 265.303 41.068C264.43 38.3049 263.516 35.5526 262.621 32.7967C261.925 30.6676 261.23 28.5396 260.537 26.4129C260.491 26.2178 260.402 26.0352 260.276 25.8782V25.8782Z" fill="#595959"/>
<path d="M161.99 58.766C162.255 58.5882 162.47 58.3477 162.617 58.0663C164.52 55.3642 166.437 52.6657 168.315 49.9421C168.455 49.6948 168.664 49.4931 168.918 49.3618C169.172 49.2305 169.458 49.1753 169.743 49.2029C170.784 49.2532 171.828 49.228 172.871 49.2029C173.314 49.2029 173.513 49.3859 173.488 49.8201C173.488 49.9924 173.488 50.179 173.488 50.3369V71.1496C173.488 72.2943 173.488 72.2943 172.36 72.2979C171.577 72.2979 170.794 72.2979 170.011 72.2979C169.374 72.2979 169.345 72.2369 169.319 71.5802C169.319 71.3542 169.319 71.1245 169.319 70.8949C169.319 66.0792 169.319 61.2624 169.319 56.4443C169.37 56.1167 169.334 55.7814 169.214 55.4719C168.895 55.5401 168.794 55.8307 168.645 56.0424C166.673 58.8151 164.705 61.5889 162.74 64.364C162.544 64.7242 162.269 65.0367 161.935 65.279C159.612 62.0064 157.289 58.7409 154.922 55.4037C154.741 55.6956 154.677 56.0434 154.74 56.3797C154.74 61.2815 154.74 66.1857 154.74 71.0922C154.74 72.2907 154.911 72.3266 153.522 72.3194C152.797 72.3194 152.072 72.3194 151.348 72.3194C150.623 72.3194 150.594 72.2872 150.575 71.5192V50.2759C150.575 49.2352 150.575 49.2316 151.619 49.228C152.518 49.228 153.432 49.2568 154.313 49.228C154.583 49.1993 154.856 49.2487 155.098 49.3704C155.341 49.492 155.543 49.6806 155.679 49.9134C157.539 52.6155 159.434 55.296 161.323 57.9694C161.503 58.2673 161.728 58.536 161.99 58.766V58.766Z" fill="#595959"/>
<path d="M241.8 66.0613C241.926 65.7493 241.964 65.4098 241.913 65.078C241.913 60.1452 241.913 55.2123 241.913 50.2794C241.913 49.228 241.913 49.2245 242.953 49.2029C243.79 49.2029 244.631 49.2029 245.472 49.2029C245.904 49.2029 246.128 49.3716 246.085 49.8201C246.085 49.9637 246.085 50.1072 246.085 50.2507V71.2429C246.085 72.2907 246.085 72.2943 245.044 72.2979C244.146 72.2979 243.232 72.262 242.348 72.2979C242.062 72.3315 241.772 72.2814 241.514 72.1539C241.257 72.0263 241.042 71.8269 240.898 71.5802C238.585 68.2466 236.24 64.9345 233.902 61.6188C232.527 59.6667 231.151 57.7146 229.773 55.7625C229.661 55.6011 229.588 55.4037 229.327 55.3068C229.11 55.5652 229.201 55.8881 229.201 56.1752C229.201 61.1392 229.201 66.1007 229.201 71.0599C229.201 72.3302 229.389 72.2979 227.917 72.2979C227.163 72.2979 226.409 72.2979 225.659 72.2979C225.228 72.2979 225.003 72.1364 225.032 71.6879C225.032 71.5479 225.032 71.4008 225.032 71.2573V50.2651C225.032 49.2137 225.032 49.2101 226.069 49.1886C226.968 49.1886 227.881 49.228 228.766 49.1886C229.077 49.1543 229.392 49.2115 229.671 49.3532C229.95 49.4948 230.181 49.7146 230.335 49.9852C233.914 55.1023 237.511 60.2062 241.126 65.2969C241.274 65.6094 241.507 65.8743 241.8 66.0613V66.0613Z" fill="#595959"/>
<path d="M192.812 60.2014C192.998 60.3616 193.215 60.4835 193.449 60.5602C195.929 61.8018 197.042 63.9477 196.614 66.6605C196.157 69.5707 194.305 71.3721 191.148 72.0036C189.952 72.2143 188.738 72.3116 187.523 72.2943C185.004 72.3194 182.481 72.2943 179.958 72.2943C179.842 72.2943 179.726 72.2943 179.596 72.2943C178.943 72.2656 178.903 72.2261 178.871 71.6125C178.871 71.4402 178.871 71.2537 178.871 71.0958V50.3799C178.871 49.2172 178.871 49.2029 180.07 49.2173C182.938 49.2495 185.812 49.106 188.676 49.307C190.274 49.3885 191.817 49.9146 193.127 50.8249C195.432 52.4612 195.798 55.8486 194.957 57.7361C194.604 58.4948 194.069 59.1563 193.399 59.6631C193.21 59.821 192.938 59.8928 192.812 60.2014ZM186.262 62.2503C185.319 62.2503 184.54 62.2503 183.757 62.2503C183.057 62.2503 183.014 62.2898 183.01 62.968C182.996 64.6283 182.996 66.2897 183.01 67.9523C183.01 68.67 183.061 68.7023 183.826 68.7095C185.214 68.7095 186.606 68.7346 187.994 68.7095C188.835 68.7183 189.671 68.5848 190.466 68.3147C191.916 67.7765 192.599 66.7 192.514 65.0852C192.453 63.7252 191.684 62.8783 190.165 62.4944C189.912 62.4334 189.654 62.3975 189.397 62.358C188.356 62.2454 187.308 62.2106 186.262 62.2539V62.2503ZM186.037 58.6332V58.6117C186.874 58.6117 187.715 58.6548 188.549 58.6117C189.578 58.5399 190.474 58.1667 190.945 57.1763C191.15 56.7793 191.262 56.3409 191.27 55.8947C191.279 55.4486 191.184 55.0064 190.993 54.6021C190.803 54.1977 190.521 53.8418 190.17 53.5615C189.82 53.2813 189.409 53.0841 188.969 52.9851C188.523 52.8612 188.063 52.7936 187.599 52.7841C186.298 52.7841 184.996 52.7841 183.699 52.7841C183.075 52.7841 183.025 52.8272 183.017 53.3977C182.998 54.9408 182.998 56.485 183.017 58.0304C183.017 58.5973 183.079 58.6332 183.695 58.644C184.475 58.6476 185.257 58.6368 186.037 58.6368V58.6332Z" fill="#595959"/>
<path d="M232.126 41.7462C230.676 41.7462 229.226 41.7462 227.776 41.7462C227.305 41.7462 227.134 41.4268 226.924 41.1218C225.456 38.9903 223.995 36.8552 222.52 34.7273C221.589 33.3816 221.969 33.6507 220.367 33.6041C219.787 33.6041 219.207 33.6041 218.631 33.6041C217.935 33.6041 217.906 33.6471 217.906 34.3541C217.906 36.4174 217.906 38.4807 217.906 40.5441C217.906 40.7737 217.906 41.0034 217.906 41.233C217.906 41.5919 217.728 41.7426 217.373 41.739C216.358 41.739 215.343 41.739 214.328 41.739C213.937 41.739 213.726 41.6062 213.748 41.1936C213.748 40.9926 213.748 40.7917 213.748 40.5907V19.8784C213.748 19.7349 213.748 19.5913 213.748 19.4478C213.77 18.7014 213.77 18.6871 214.542 18.6835C217.467 18.6835 220.396 18.6548 223.321 18.7014C225.293 18.7301 227.171 19.1787 228.798 20.3664C229.311 20.7433 229.76 21.1988 230.129 21.7157C230.756 22.6043 231.176 23.6196 231.359 24.6884C231.542 25.7572 231.484 26.8529 231.188 27.8966C230.892 28.9403 230.365 29.906 229.647 30.7241C228.929 31.5423 228.036 32.1925 227.033 32.628C226.982 32.6496 226.924 32.6639 226.873 32.689C226.264 32.9474 226.254 32.9546 226.645 33.5251C227.41 34.6411 228.189 35.7464 228.961 36.8552C229.967 38.2905 230.971 39.7259 231.974 41.1613C232.045 41.2393 232.096 41.3333 232.122 41.4351C232.149 41.537 232.15 41.6438 232.126 41.7462V41.7462ZM217.888 26.1115C217.888 27.0839 217.888 28.0564 217.888 29.0289C217.888 29.847 217.888 29.8578 218.7 29.865C220.088 29.865 221.476 29.865 222.864 29.865C223.589 29.8666 224.309 29.7626 225.003 29.5564C225.356 29.4698 225.688 29.3128 225.978 29.095C226.268 28.8772 226.509 28.6032 226.689 28.2897C227.024 27.6527 227.203 26.946 227.21 26.2275C227.217 25.5089 227.052 24.799 226.728 24.1558C226.479 23.6635 226.063 23.2728 225.554 23.0506C225.109 22.8405 224.633 22.7036 224.144 22.6451C222.241 22.4011 220.331 22.5733 218.424 22.5231C217.996 22.5231 217.884 22.742 217.888 23.1152C217.891 24.0912 217.888 25.0924 217.888 26.1115Z" fill="#595959"/>
<path d="M289.687 30.1951V20.1476C289.687 19.9179 289.687 19.6883 289.687 19.4586C289.709 18.7158 289.713 18.7015 290.492 18.6979C293.131 18.6979 295.766 18.6979 298.405 18.6979C299.828 18.7078 301.238 18.9615 302.573 19.4479C305.973 20.693 307.764 23.2516 308.46 26.6498C308.99 29.1872 308.949 31.8089 308.34 34.329C307.343 38.4449 304.426 41.0178 300.174 41.5776C299.168 41.7043 298.154 41.763 297.14 41.7534C295.056 41.7534 292.968 41.7534 290.883 41.7534C289.684 41.7534 289.684 41.9113 289.684 40.6051V30.1987L289.687 30.1951ZM293.856 30.2167V34.6914C293.856 35.5777 293.856 36.4677 293.856 37.3576C293.856 37.7631 293.979 38.0107 294.447 38.0071C296.07 38.0071 297.709 38.0968 299.315 37.9282C302.131 37.6339 303.773 36.116 304.357 33.3745C304.521 32.5586 304.613 31.7301 304.632 30.8985C304.743 29.2356 304.543 27.5668 304.045 25.9752C303.79 25.1764 303.33 24.4568 302.71 23.8869C302.09 23.317 301.331 22.9163 300.507 22.7241C299.951 22.5616 299.376 22.47 298.796 22.4513C297.462 22.4513 296.128 22.4191 294.809 22.4191C293.899 22.4191 293.881 22.4406 293.877 23.3341C293.852 25.6271 293.856 27.9237 293.856 30.2167Z" fill="#595959"/>
<path d="M269.733 64.9094C269.733 66.5995 269.733 68.2932 269.733 69.9834C269.757 70.1656 269.717 70.3505 269.62 70.5072C269.523 70.6639 269.375 70.783 269.2 70.8446C265.775 72.3302 262.222 72.9761 258.51 72.3266C254.607 71.6412 252.033 69.3913 250.971 65.5912C250.102 62.5065 250.084 59.2479 250.917 56.1537C252.004 52.0449 254.752 49.734 258.974 49.124C262.237 48.6503 265.376 49.1993 268.442 50.3046C268.613 50.3359 268.766 50.4288 268.872 50.5653C268.978 50.7018 269.029 50.8723 269.015 51.0438C268.997 51.9014 269.015 52.7626 269.015 53.6238C269.015 54.1262 268.917 54.1836 268.439 54.0006C267.153 53.4809 265.817 53.0937 264.451 52.8451C262.854 52.5487 261.217 52.5172 259.609 52.7518C257.372 53.1107 255.864 54.3164 255.136 56.4551C254.8 57.4938 254.61 58.5732 254.57 59.6631C254.487 60.9821 254.554 62.3062 254.77 63.6104C255.368 66.9799 257.086 68.5731 260.515 68.8925C262.108 69.0068 263.709 68.8711 265.26 68.4906C265.359 68.482 265.455 68.4532 265.543 68.4061C265.63 68.359 265.707 68.2946 265.768 68.2168C265.83 68.139 265.874 68.0496 265.899 67.9541C265.923 67.8586 265.928 67.759 265.912 67.6617C265.887 66.2586 265.912 64.852 265.912 63.4489C265.912 62.7527 265.891 62.7312 265.158 62.7312C263.824 62.7312 262.49 62.7312 261.171 62.7312C260.413 62.7312 260.406 62.7133 260.399 61.9489C260.392 61.1846 260.399 60.5136 260.399 59.7959C260.399 59.1536 260.432 59.132 261.124 59.1213C261.994 59.1213 262.864 59.1213 263.734 59.1213H268.776C269.791 59.1213 269.794 59.1213 269.798 60.0937C269.736 61.6977 269.733 63.3018 269.733 64.9094Z" fill="#595959"/>
<path d="M163.915 28.243C164.262 27.998 164.57 27.7029 164.828 27.3674C167.268 24.6797 169.718 21.9848 172.139 19.2971C172.307 19.0862 172.524 18.9188 172.771 18.8094C173.019 18.7 173.29 18.6519 173.56 18.6691C175.035 18.7086 176.511 18.6691 177.964 18.6691C178.131 18.9742 177.895 19.0746 177.772 19.2038C175.008 22.1774 172.238 25.1498 169.464 28.121C169.345 28.2502 169.229 28.3758 169.102 28.5014C169.059 28.5404 169.024 28.5878 169.001 28.6406C168.978 28.6934 168.965 28.7505 168.965 28.8082C168.965 28.8659 168.978 28.923 169.001 28.9758C169.024 29.0286 169.059 29.076 169.102 29.115L169.638 29.7896L178.591 40.8814C178.769 41.1039 178.954 41.3335 179.102 41.5488C178.957 41.8215 178.74 41.7318 178.548 41.7318C177.33 41.7318 176.112 41.7067 174.894 41.7498C174.638 41.7665 174.381 41.7156 174.152 41.6021C173.922 41.4886 173.726 41.3166 173.586 41.1039C171.342 38.2331 169.069 35.3624 166.807 32.4917C166.63 32.2656 166.445 32.0539 166.202 31.774C165.647 32.1938 165.285 32.7572 164.788 33.1663C163.962 33.8589 163.719 34.6914 163.77 35.7464C163.849 37.4365 163.795 39.1302 163.788 40.824C163.788 41.7462 163.788 41.7498 162.813 41.7534C161.943 41.7534 161.073 41.7534 160.203 41.7534C159.808 41.7534 159.601 41.6206 159.623 41.2079C159.623 41.007 159.623 40.806 159.623 40.6051V19.8713C159.623 19.6703 159.623 19.4694 159.623 19.2684C159.59 18.8127 159.822 18.6727 160.25 18.6799C161.207 18.6799 162.164 18.6799 163.121 18.6799C163.741 18.6799 163.755 18.7158 163.788 19.3079C163.788 19.5088 163.788 19.7098 163.788 19.9107C163.788 22.3473 163.788 24.7838 163.788 27.2239C163.738 27.5687 163.782 27.9205 163.915 28.243V28.243Z" fill="#595959"/>
<path d="M130.951 60.7611V50.3548C130.951 50.1251 130.951 49.899 130.951 49.6694C130.945 49.6118 130.953 49.5537 130.972 49.4992C130.992 49.4447 131.024 49.3952 131.065 49.3541C131.106 49.313 131.156 49.2814 131.211 49.2614C131.265 49.2415 131.324 49.2338 131.382 49.2388C131.585 49.2388 131.785 49.2208 131.988 49.2208H145.461C145.635 49.2208 145.823 49.2208 145.983 49.2208C146.382 49.2208 146.559 49.3895 146.552 49.7914C146.552 50.6239 146.552 51.4564 146.552 52.2853C146.552 52.8738 146.508 52.9061 145.885 52.9133C144.468 52.9133 143.047 52.9133 141.626 52.9133C139.774 52.9133 137.918 52.9133 136.065 52.9133C135.141 52.9133 135.134 52.9133 135.13 53.7996C135.13 55.174 135.13 56.5519 135.13 57.9263C135.13 58.7875 135.13 58.7947 135.997 58.7983C138.534 58.7983 141.035 58.7983 143.558 58.7983C143.79 58.7983 144.022 58.7983 144.254 58.7983C145.004 58.8162 145.011 58.8234 145.022 59.5877C145.033 60.3521 145.022 61.1379 145.022 61.9094C145.022 62.6809 144.993 62.6809 144.228 62.6809C141.738 62.6809 139.244 62.6809 136.754 62.6809C136.464 62.6809 136.174 62.6809 135.884 62.6809C135.159 62.7025 135.159 62.7168 135.134 63.3986C135.134 64.6869 135.134 65.9787 135.134 67.2669C135.134 67.554 135.134 67.8411 135.134 68.1281C135.122 68.1859 135.125 68.2457 135.142 68.3021C135.159 68.3586 135.19 68.4101 135.232 68.4519C135.274 68.4938 135.325 68.5248 135.382 68.5421C135.439 68.5595 135.5 68.5628 135.558 68.5516H136.254H145.468C145.7 68.5516 145.928 68.5516 146.16 68.5516C146.21 68.5515 146.258 68.5614 146.303 68.5805C146.349 68.5996 146.389 68.6277 146.423 68.6629C146.457 68.6982 146.484 68.7399 146.501 68.7855C146.518 68.8311 146.525 68.8797 146.523 68.9284C146.523 69.9044 146.523 70.8769 146.523 71.8529C146.526 71.9034 146.517 71.9538 146.499 72.001C146.481 72.0481 146.452 72.0909 146.416 72.1265C146.38 72.162 146.336 72.1896 146.289 72.2074C146.241 72.2252 146.19 72.2328 146.139 72.2297C145.907 72.2512 145.675 72.2548 145.443 72.2548H131.727C131.002 72.2261 130.955 72.201 130.955 71.451C130.947 67.9081 130.946 64.3448 130.951 60.7611Z" fill="#595959"/>
<path d="M349.601 41.7462C348.282 41.7462 347.006 41.7462 345.733 41.7462C345.317 41.7462 345.201 41.4807 345.085 41.1793C344.679 40.1362 344.274 39.0932 343.87 38.0502C343.743 37.7272 343.631 37.4007 343.508 37.0849C343.145 36.1806 343.316 36.2057 342.203 36.2057C339.506 36.2057 336.81 36.2057 334.116 36.2057C333.152 36.2057 333.217 36.0837 332.822 37.1028C332.376 38.2547 331.941 39.4102 331.484 40.5585C330.919 41.9687 331.184 41.7211 329.784 41.7426C328.773 41.7426 327.758 41.7426 326.79 41.7426C326.735 41.6447 326.708 41.5333 326.713 41.4209C326.718 41.3086 326.755 41.2 326.819 41.1075C329.741 33.8422 332.661 26.5709 335.58 19.2936C335.636 19.0887 335.766 18.9111 335.945 18.7947C336.124 18.6782 336.34 18.631 336.552 18.662C337.592 18.6943 338.64 18.7086 339.68 18.662C340.289 18.6297 340.543 18.8773 340.749 19.4048C342.344 23.4059 343.968 27.3962 345.581 31.3865C346.84 34.4965 348.096 37.6064 349.347 40.7164C349.538 41.0252 349.627 41.3852 349.601 41.7462V41.7462ZM341.514 32.4164C341.442 31.6736 338.614 24.2922 338.169 23.5996C337.701 24.224 334.808 31.7417 334.783 32.4164H341.514Z" fill="#595959"/>
<path d="M389.466 41.7426C388.1 41.7426 386.799 41.7426 385.497 41.7426C385.117 41.7426 385.022 41.4771 384.917 41.2079L383.384 37.2786C383.312 37.0884 383.228 36.9198 383.17 36.7152C383.054 36.3133 382.782 36.2021 382.384 36.2057C379.458 36.2057 376.53 36.2057 373.601 36.2057C373.401 36.1863 373.202 36.2404 373.04 36.3575C372.878 36.4747 372.765 36.6467 372.724 36.8408C372.209 38.2403 371.662 39.629 371.118 41.0177C370.835 41.7354 370.828 41.7354 370.063 41.7534C369.096 41.7534 368.139 41.7534 367.192 41.7534C366.962 41.8005 366.723 41.7609 366.522 41.6421C366.518 41.328 366.605 41.0194 366.772 40.7522C369.628 33.6687 372.487 26.5864 375.348 19.5052C375.678 18.6943 375.678 18.6943 376.526 18.6907H379.397C380.267 18.6907 380.27 18.6907 380.589 19.4801C382.196 23.4465 383.801 27.4129 385.403 31.3793C386.66 34.4892 387.916 37.5992 389.173 40.7091C389.342 41.0299 389.442 41.3818 389.466 41.7426V41.7426ZM378.096 23.5781L377.845 23.6032C376.725 26.5206 375.555 29.42 374.463 32.3769C375.783 32.5778 380.771 32.5132 381.438 32.28C380.321 29.3781 379.207 26.4775 378.096 23.5781Z" fill="#595959"/>
<path d="M219.675 72.3158C219.182 72.3158 218.685 72.2907 218.196 72.3158C217.981 72.3447 217.762 72.2914 217.585 72.1668C217.408 72.0422 217.286 71.8556 217.242 71.6448C216.724 70.2453 216.173 68.8566 215.629 67.4643C215.343 66.7466 215.339 66.7287 214.575 66.7251H206.14C205.371 66.7251 205.364 66.7251 205.081 67.4643C204.549 68.8279 203.994 70.1879 203.505 71.5623C203.312 72.1041 203.037 72.3481 202.435 72.3194C201.453 72.2763 200.467 72.3194 199.481 72.3194C198.8 72.3194 198.756 72.2548 199.021 71.6197C200.253 68.5552 201.49 65.4931 202.732 62.4334C204.356 58.4143 205.969 54.3917 207.604 50.3727C208.104 49.1383 207.822 49.2352 209.348 49.228C210.189 49.228 211.033 49.2711 211.885 49.228C212.545 49.1814 212.791 49.5151 213.001 50.0498C214.364 53.4659 215.749 56.8677 217.123 60.2803C218.597 63.9261 220.07 67.5731 221.541 71.2214C221.607 71.3828 221.672 71.5407 221.73 71.7022C221.922 72.2476 221.893 72.3086 221.342 72.3302C220.791 72.3517 220.255 72.3302 219.689 72.3302L219.675 72.3158ZM210.352 54.1011C210.159 54.2974 210.032 54.5482 209.989 54.8188C209.04 57.2493 208.096 59.6787 207.158 62.1068C207.104 62.2396 207.053 62.3723 207.006 62.5087C206.876 62.8675 207.006 63.0613 207.39 63.0613C209.355 63.0613 211.323 63.0613 213.288 63.0613C213.763 63.0613 213.821 62.9321 213.679 62.4549C213.632 62.2934 213.56 62.1319 213.498 61.974C212.594 59.62 211.689 57.2684 210.783 54.9192C210.718 54.6124 210.569 54.3292 210.352 54.1011V54.1011Z" fill="#595959"/>
<path d="M97.4544 49.2209C97.9474 49.2209 98.444 49.2567 98.9333 49.2209C99.5604 49.167 99.8613 49.4326 100.082 49.9996C101.054 52.4863 102.069 54.9587 103.069 57.4347C104.94 62.0614 106.806 66.6916 108.669 71.3255C109.068 72.3087 109.065 72.3123 108.032 72.3159C107.162 72.3159 106.292 72.3159 105.422 72.3159C104.61 72.3159 104.602 72.3159 104.302 71.5264C103.769 70.1628 103.214 68.8028 102.721 67.4284C102.676 67.2047 102.547 67.0062 102.36 66.873C102.173 66.7398 101.942 66.6818 101.714 66.7108C98.8717 66.7347 96.0311 66.7347 93.1917 66.7108C92.963 66.6835 92.7323 66.742 92.545 66.8749C92.3578 67.0077 92.2277 67.2053 92.1804 67.4284C91.6693 68.8279 91.0929 70.2095 90.5819 71.6089C90.5353 71.8318 90.4059 72.0293 90.2193 72.1622C90.0327 72.2951 89.8024 72.3538 89.5742 72.3266C88.5628 72.2907 87.5479 72.3266 86.533 72.3087C85.9131 72.3087 85.8696 72.2297 86.1016 71.6484C87.1021 69.1724 88.1098 66.6964 89.0957 64.2204C90.9999 59.51 92.9017 54.7972 94.8011 50.0821C95.1636 49.228 95.1636 49.228 96.048 49.2209H97.4399H97.4544ZM97.4327 54.1011C97.3098 54.1863 97.2243 54.3146 97.1934 54.4599C96.1858 57.0556 95.1805 59.6512 94.1776 62.2468C93.9021 62.9645 93.9529 63.0434 94.7177 63.0506C96.5301 63.0506 98.3715 63.0506 100.195 63.0506H100.557C100.822 63.0506 100.92 62.8963 100.84 62.6487C100.789 62.4836 100.728 62.3221 100.666 62.1607C99.7187 59.6942 98.7714 57.229 97.8242 54.765C97.7335 54.5317 97.7154 54.2482 97.4327 54.1011Z" fill="#595959"/>
<path d="M89.4074 26.4704V19.8533C89.4074 19.6237 89.4074 19.394 89.4074 19.1644C89.4074 18.8593 89.5415 18.6835 89.8786 18.6871H93.101C93.4345 18.6871 93.5614 18.8665 93.565 19.1715C93.5686 19.4765 93.565 19.6883 93.565 19.9466C93.565 23.9298 93.565 27.9141 93.565 31.8996C93.5348 32.9318 93.6495 33.9632 93.9057 34.9641C94.084 35.7252 94.48 36.4193 95.0463 36.9635C95.6127 37.5076 96.3254 37.8786 97.0992 38.0322C98.5422 38.3763 100.049 38.3627 101.485 37.9927C102.21 37.8286 102.876 37.4709 103.41 36.9585C103.945 36.446 104.327 35.7985 104.515 35.0861C104.758 34.2587 104.871 33.3996 104.853 32.5384C104.853 28.2969 104.853 24.0542 104.853 19.8103C104.853 18.601 104.802 18.6835 105.984 18.6835C106.821 18.6835 107.662 18.6835 108.521 18.6835C108.883 18.6835 109.057 18.8342 109.046 19.1931C109.046 19.3653 109.046 19.5519 109.046 19.7098C109.046 23.7767 109.046 27.8435 109.046 31.9104C109.062 33.0296 108.94 34.1466 108.684 35.2368C107.738 39.0657 104.958 41.4735 100.999 41.9005C99.5595 42.0761 98.1008 42.0301 96.6751 41.7641C92.9162 41.0285 90.4586 38.592 89.7083 34.8672C89.5079 33.8542 89.4083 32.8242 89.411 31.792C89.4001 30.03 89.4074 28.2646 89.4074 26.4704Z" fill="#595959"/>
<path d="M150.463 26.4488C150.463 24.2432 150.463 22.0351 150.463 19.8246C150.463 19.5854 150.463 19.3557 150.463 19.1357C150.463 18.8737 150.572 18.6907 150.869 18.6907H154.175C154.233 18.6843 154.292 18.6911 154.347 18.7103C154.402 18.7296 154.452 18.7609 154.493 18.802C154.534 18.843 154.565 18.8927 154.584 18.9474C154.603 19.0021 154.609 19.0603 154.603 19.1177C154.603 19.3187 154.603 19.5196 154.603 19.7206C154.603 23.8233 154.603 27.9237 154.603 32.0216C154.612 32.9398 154.532 33.8567 154.363 34.7596C153.617 38.8073 150.789 41.4053 146.657 41.9005C145.217 42.0883 143.757 42.0496 142.329 41.7857C138.512 41.0429 136.062 38.6243 135.293 34.8493C135.106 33.8616 135.02 32.8578 135.036 31.853C135.036 27.81 135.036 23.7659 135.036 19.7206C135.036 18.6835 135.036 18.6835 136.087 18.6799H138.262C139.194 18.6799 139.194 18.6799 139.205 19.6452V32.036C139.17 32.9827 139.261 33.9298 139.476 34.8529C139.65 35.6449 140.054 36.3693 140.639 36.9363C141.224 37.5033 141.964 37.8881 142.768 38.043C144.127 38.3624 145.544 38.3624 146.904 38.043C148.988 37.5478 150.144 36.1519 150.394 33.8445C150.456 33.2489 150.463 32.6424 150.467 32.0503C150.47 30.1772 150.463 28.3148 150.463 26.4488Z" fill="#595959"/>
<path d="M68.4888 60.7755V50.4624C68.4888 50.2328 68.4888 50.0031 68.4888 49.7735C68.4888 49.4146 68.6229 49.2316 68.989 49.228C69.047 49.228 69.105 49.228 69.163 49.228C72.3165 49.2603 75.4737 49.1276 78.6309 49.307C79.5283 49.3669 80.4116 49.5592 81.2516 49.8775C84.0644 50.9218 85.5289 52.9959 85.8406 55.8989C85.983 57.0401 85.908 58.1976 85.6195 59.3115C84.8148 62.2683 82.7523 63.84 79.8198 64.4572C78.7933 64.6443 77.7495 64.7225 76.7061 64.6905C75.6187 64.6905 74.5639 64.6905 73.491 64.6905C72.6754 64.6905 72.6609 64.7084 72.6573 65.505C72.6573 67.3961 72.6573 69.2872 72.6573 71.1783C72.6573 71.408 72.6573 71.6376 72.6573 71.8673C72.6647 71.9246 72.6589 71.9829 72.6403 72.0377C72.6218 72.0926 72.591 72.1426 72.5502 72.184C72.5095 72.2254 72.4598 72.2571 72.4049 72.2768C72.35 72.2966 72.2913 72.3038 72.2332 72.2979C71.1336 72.2979 70.0329 72.2979 68.931 72.2979C68.8729 72.303 68.8144 72.2953 68.7597 72.2753C68.7049 72.2554 68.6554 72.2237 68.6145 72.1825C68.5736 72.1414 68.5424 72.0917 68.5232 72.0372C68.504 71.9827 68.4972 71.9247 68.5033 71.8673C68.5033 71.6281 68.5033 71.3984 68.5033 71.1783L68.4888 60.7755ZM72.6645 56.9718C72.6645 58.0483 72.6645 59.15 72.6645 60.2373C72.6645 60.9549 72.6935 60.9765 73.3895 60.9801C74.7234 60.9801 76.0537 61.0016 77.3767 60.9801C78.1305 60.9754 78.879 60.8543 79.5951 60.6212C80.1569 60.4589 80.656 60.1321 81.0267 59.6838C81.3974 59.2355 81.6224 58.6866 81.6721 58.1093C81.7319 57.6261 81.7537 57.139 81.7373 56.6524C81.6793 54.4779 80.6934 53.4229 78.5113 53.1179C78.3912 53.1006 78.2701 53.091 78.1488 53.0892C76.5285 53.0892 74.9119 53.0497 73.2916 53.0533C72.7116 53.0533 72.6536 53.1215 72.6464 53.7135C72.6536 54.8188 72.6645 55.8953 72.6645 56.9718Z" fill="#595959"/>
<path d="M114.078 30.1843V19.9538C114.078 19.7241 114.078 19.4945 114.078 19.2648C114.045 18.8091 114.281 18.6512 114.708 18.6835C114.792 18.6835 114.882 18.6835 114.969 18.6835H123.136C124.209 18.6796 125.277 18.8344 126.304 19.1428C129.113 19.9861 130.835 21.8198 131.346 24.6977C131.604 26.0836 131.548 27.5089 131.183 28.871C130.933 29.8639 130.451 30.7846 129.774 31.5584C129.098 32.3321 128.247 32.9371 127.29 33.3242C125.948 33.8731 124.509 34.1536 123.056 34.1495C121.813 34.1746 120.566 34.1495 119.323 34.1495C118.261 34.1495 118.257 34.1495 118.257 35.1651C118.257 36.9593 118.257 38.775 118.257 40.58C118.257 40.7809 118.257 40.9819 118.257 41.1828C118.279 41.5811 118.094 41.7426 117.688 41.739C116.675 41.7247 115.662 41.7247 114.647 41.739C114.237 41.739 114.067 41.5704 114.081 41.172C114.081 40.946 114.081 40.7163 114.081 40.4867L114.078 30.1843ZM118.257 26.4416C118.257 27.5002 118.257 28.5588 118.257 29.6174C118.257 30.3853 118.257 30.3996 119.026 30.4032C120.443 30.4032 121.86 30.4032 123.277 30.4032C123.974 30.3939 124.663 30.2652 125.315 30.0229C125.784 29.867 126.205 29.5922 126.534 29.2259C126.863 28.8595 127.09 28.4143 127.192 27.9344C127.333 27.2901 127.377 26.6286 127.323 25.9715C127.21 23.9405 126.337 22.9609 124.3 22.6272C122.458 22.3293 120.602 22.5267 118.754 22.4764C118.297 22.4764 118.253 22.7527 118.253 23.1008C118.261 24.2096 118.257 25.3256 118.257 26.4416Z" fill="#595959"/>
<path d="M68.4889 30.2023V19.8856C68.4889 19.6308 68.4889 19.3725 68.4889 19.1141C68.4771 19.0563 68.4798 18.9966 68.4969 18.9401C68.514 18.8836 68.5448 18.8322 68.5868 18.7903C68.6287 18.7485 68.6804 18.7175 68.7373 18.7001C68.7942 18.6827 68.8545 18.6795 68.913 18.6907H69.4349H77.4276C78.5319 18.6842 79.6312 18.839 80.6899 19.15C83.7383 20.0579 85.4275 22.1068 85.8262 25.2C85.9567 26.1971 85.9273 27.2083 85.7392 28.1964C85.2027 30.9953 83.539 32.7967 80.8131 33.6579C79.6762 34.0016 78.4931 34.1722 77.3043 34.1639C75.9994 34.1639 74.6981 34.1639 73.3932 34.1639C72.69 34.1639 72.6682 34.189 72.6682 34.8816C72.6682 36.7726 72.6682 38.6637 72.6682 40.5548C72.6682 40.7845 72.6682 41.0141 72.6682 41.2438C72.6682 41.5488 72.545 41.7282 72.2115 41.7282H68.9963C68.6774 41.7282 68.507 41.5955 68.507 41.2725C68.507 41.0428 68.507 40.8132 68.507 40.5835L68.4889 30.2023ZM72.661 26.4093C72.661 27.4858 72.661 28.5839 72.661 29.6712C72.661 30.3889 72.6936 30.414 73.386 30.4176C74.8359 30.4176 76.2858 30.4176 77.7357 30.3996C78.3726 30.3882 79.0037 30.278 79.6061 30.0731C80.1706 29.9132 80.6728 29.5875 81.0462 29.139C81.4197 28.6905 81.6468 28.1403 81.6976 27.5612C81.8118 26.795 81.8118 26.0164 81.6976 25.2503C81.6439 24.7046 81.4299 24.1864 81.082 23.7598C80.7342 23.3331 80.2677 23.0167 79.7402 22.8496C79.4416 22.7411 79.1333 22.6606 78.8195 22.6092C76.9527 22.3042 75.0679 22.4836 73.1902 22.4405C72.7516 22.4405 72.6682 22.6846 72.6719 23.0434C72.6646 24.1773 72.661 25.2933 72.661 26.4093V26.4093Z" fill="#595959"/>
<path d="M193.518 36.1088C193.837 36.174 194.138 36.3075 194.399 36.5C196.787 37.9169 199.613 38.427 202.352 37.9353C202.811 37.8669 203.258 37.7327 203.679 37.537C204.044 37.377 204.364 37.1316 204.612 36.8219C204.86 36.5123 205.028 36.1476 205.102 35.7593C205.176 35.3711 205.154 34.9707 205.038 34.5928C204.921 34.2149 204.713 33.8707 204.432 33.5898C203.939 33.101 203.346 32.7229 202.693 32.481C201.666 32.0847 200.62 31.7421 199.557 31.4547C198.583 31.1764 197.631 30.8286 196.708 30.414C194.533 29.3949 193.246 27.773 193.203 25.3221C193.152 22.742 194.203 20.7684 196.53 19.5304C198.166 18.7055 199.993 18.3218 201.826 18.418C203.686 18.4745 205.515 18.9093 207.198 19.6955C207.403 19.7613 207.578 19.8953 207.693 20.0746C207.809 20.2539 207.858 20.4674 207.833 20.6787C207.8 21.6978 207.833 22.7241 207.833 23.8006C207.405 23.7137 206.998 23.5442 206.636 23.3018C204.539 22.2735 202.15 21.9872 199.865 22.4908C199.324 22.5989 198.811 22.819 198.361 23.1367C196.991 24.1271 197.045 25.8962 198.481 26.7826C199.165 27.1616 199.896 27.4511 200.655 27.6438C201.627 27.9344 202.602 28.2072 203.555 28.505C204.412 28.7752 205.238 29.1362 206.017 29.5815C209.152 31.347 209.678 34.8027 209.108 37.0813C208.641 38.9616 207.343 40.196 205.647 41.0537C204.371 41.6881 202.964 42.0244 201.536 42.0369C199.064 42.1203 196.608 41.6106 194.377 40.5513C193.758 40.2535 193.453 39.891 193.504 39.1698C193.569 38.165 193.518 37.1674 193.518 36.1088Z" fill="#595959"/>
<path d="M112.167 60.772V50.3656C112.167 50.1359 112.167 49.9063 112.167 49.6766C112.161 49.6191 112.167 49.5609 112.186 49.506C112.205 49.4512 112.235 49.4011 112.276 49.3594C112.316 49.3176 112.365 49.2851 112.42 49.2643C112.475 49.2435 112.533 49.2348 112.591 49.2388H115.919C115.977 49.2326 116.036 49.2393 116.091 49.2586C116.146 49.2778 116.197 49.3091 116.238 49.3501C116.279 49.391 116.311 49.4407 116.33 49.4953C116.35 49.55 116.357 49.6082 116.35 49.6658C116.35 49.9242 116.35 50.1826 116.35 50.4374V67.0373C116.35 67.2383 116.35 67.4392 116.35 67.6402C116.372 68.383 116.379 68.4009 117.151 68.4045C120.225 68.4045 123.298 68.4045 126.369 68.4045C126.572 68.4045 126.775 68.4045 126.974 68.4045C127.605 68.4332 127.638 68.444 127.649 69.0253C127.649 69.9152 127.649 70.8195 127.649 71.6915C127.649 72.14 127.475 72.3266 127.036 72.3087C126.862 72.3087 126.674 72.3087 126.514 72.3087H113.305C113.073 72.3087 112.841 72.3087 112.61 72.2907C112.551 72.2951 112.493 72.2869 112.438 72.2668C112.384 72.2466 112.334 72.215 112.293 72.174C112.252 72.1331 112.221 72.0838 112.201 72.0296C112.181 71.9754 112.173 71.9176 112.178 71.8601C112.178 71.6209 112.178 71.3913 112.178 71.1712L112.167 60.772Z" fill="#595959"/>
<path d="M350.75 36.7727C350.864 36.7587 350.979 36.7692 351.087 36.8032C351.196 36.8373 351.296 36.8942 351.381 36.97C352.952 37.9834 354.844 38.3919 356.699 38.1183C358.112 37.9604 358.895 37.2607 359.236 35.8971C359.366 35.2487 359.418 34.5875 359.392 33.9271V19.821C359.392 18.54 359.392 18.6907 360.508 18.6835C361.32 18.6835 362.132 18.6835 362.944 18.6835C363.397 18.6835 363.578 18.8665 363.553 19.2935C363.553 19.4084 363.553 19.5232 363.553 19.6524C363.553 24.4728 363.553 29.2908 363.553 34.1065C363.574 35.1397 363.445 36.1706 363.169 37.1674C362.444 39.6434 360.82 41.1972 358.275 41.7821C356.024 42.2986 353.661 42.0325 351.584 41.0285C350.993 40.7558 350.692 40.4077 350.739 39.7116C350.805 38.7283 350.75 37.7559 350.75 36.7727Z" fill="#595959"/>
<path d="M310.932 36.8086C311.031 36.7706 311.139 36.7629 311.243 36.7866C311.346 36.8103 311.44 36.8642 311.512 36.9414C313.029 37.9261 314.847 38.3516 316.648 38.1435C318.356 37.9999 319.284 37.1423 319.487 35.4486C319.562 34.7658 319.597 34.0792 319.592 33.3924C319.592 29.0074 319.592 24.6224 319.592 20.2373C319.592 20.0364 319.592 19.8354 319.592 19.6345C319.592 18.6907 319.592 18.6871 320.56 18.6835C321.343 18.6835 322.122 18.6835 322.905 18.6835C323.688 18.6835 323.706 18.7015 323.728 19.5196V33.8733C323.75 34.8761 323.647 35.8778 323.42 36.8552C322.695 39.6793 320.86 41.3479 317.982 41.8575C315.885 42.235 313.72 41.9409 311.802 41.0178C311.186 40.7307 310.86 40.3826 310.914 39.6506C310.987 38.6997 310.932 37.7344 310.932 36.8086Z" fill="#595959"/>
<path d="M236.305 30.1306V19.9C236.305 19.6703 236.305 19.4407 236.305 19.211C236.305 18.8522 236.443 18.6799 236.816 18.6835C237.86 18.6835 238.904 18.6835 239.944 18.6835C240.325 18.6835 240.456 18.8737 240.452 19.2146C240.452 19.4156 240.452 19.6165 240.452 19.8175V40.6302C240.452 41.9077 240.452 41.7462 239.328 41.757C238.574 41.757 237.822 41.757 237.07 41.757C236.32 41.757 236.305 41.739 236.302 40.9675C236.302 39.2487 236.302 37.5298 236.302 35.811L236.305 30.1306Z" fill="#595959"/>
<path d="M280.205 30.1305C280.205 26.6905 280.205 23.2492 280.205 19.8067C280.205 19.5675 280.205 19.3378 280.205 19.1177C280.197 19.0602 280.203 19.0016 280.222 18.9467C280.24 18.8917 280.272 18.8416 280.313 18.8004C280.354 18.7592 280.404 18.7279 280.46 18.7089C280.515 18.6898 280.574 18.6836 280.632 18.6907H283.935C284.228 18.6907 284.351 18.8486 284.355 19.1213C284.359 19.394 284.355 19.5806 284.355 19.8067C284.355 26.7443 284.355 33.6819 284.355 40.6194C284.355 40.6769 284.355 40.7343 284.355 40.7917C284.355 41.7283 284.355 41.7319 283.398 41.7354C282.557 41.7354 281.716 41.7354 280.861 41.7354C280.205 41.7354 280.176 41.7031 280.172 41.0465C280.172 39.2953 280.172 37.5478 280.172 35.7966L280.205 30.1305Z" fill="#595959"/>
</g>
<defs>
<clipPath id="clip0_3572_122638">
<rect width="58.2667" height="92" fill="white"/>
</clipPath>
<clipPath id="clip1_3572_122638">
<rect width="320.978" height="54.1778" fill="white" transform="translate(68.4888 18.4)"/>
</clipPath>
</defs>
</svg>
